G04*
G04 #@! TF.GenerationSoftware,Altium Limited,Altium Designer,20.0.12 (288)*
G04*
G04 Layer_Color=32768*
%FSLAX25Y25*%
%MOIN*%
G70*
G01*
G75*
%ADD115C,0.00100*%
D115*
X127082Y369840D02*
X128620Y369637D01*
X130118Y369236D01*
X131551Y368642D01*
X132895Y367867D01*
X134125Y366922D01*
X135222Y365826D01*
X136166Y364595D01*
X136942Y363252D01*
X137535Y361819D01*
X137937Y360320D01*
X138139Y358783D01*
Y358007D02*
Y358783D01*
Y357231D02*
Y358007D01*
X137937Y355694D02*
X138139Y357231D01*
X137535Y354195D02*
X137937Y355694D01*
X136942Y352762D02*
X137535Y354195D01*
X136166Y351419D02*
X136942Y352762D01*
X135222Y350188D02*
X136166Y351419D01*
X134125Y349092D02*
X135222Y350188D01*
X132895Y348147D02*
X134125Y349092D01*
X131551Y347372D02*
X132895Y348147D01*
X130118Y346778D02*
X131551Y347372D01*
X128620Y346377D02*
X130118Y346778D01*
X127082Y346174D02*
X128620Y346377D01*
X125531Y346174D02*
X127082D01*
X123993Y346377D02*
X125531Y346174D01*
X122495Y346778D02*
X123993Y346377D01*
X121062Y347372D02*
X122495Y346778D01*
X119719Y348147D02*
X121062Y347372D01*
X118488Y349092D02*
X119719Y348147D01*
X117391Y350188D02*
X118488Y349092D01*
X116447Y351419D02*
X117391Y350188D01*
X115671Y352762D02*
X116447Y351419D01*
X115078Y354195D02*
X115671Y352762D01*
X114676Y355694D02*
X115078Y354195D01*
X114474Y357231D02*
X114676Y355694D01*
X114474Y357231D02*
Y358007D01*
Y358783D01*
X114676Y360320D01*
X115078Y361819D01*
X115671Y363252D01*
X116447Y364595D01*
X117391Y365826D01*
X118488Y366922D01*
X119719Y367867D01*
X121062Y368642D01*
X122495Y369236D01*
X123993Y369637D01*
X125531Y369840D01*
X127082D01*
X207999Y367948D02*
Y413519D01*
X202980Y367948D02*
X207999D01*
X202881Y367850D02*
X202980Y367948D01*
X202881Y367850D02*
Y413519D01*
X207999D01*
X275350Y748120D02*
X277369Y747947D01*
X274338Y748080D02*
X275350Y748120D01*
X15463Y748080D02*
X274338Y748080D01*
X14386Y748079D02*
X15463Y748080D01*
X12252Y747790D02*
X14386Y748079D01*
X10175Y747219D02*
X12252Y747790D01*
X8192Y746377D02*
X10175Y747219D01*
X6339Y745278D02*
X8192Y746377D01*
X4649Y743942D02*
X6339Y745278D01*
X3152Y742393D02*
X4649Y743942D01*
X1874Y740659D02*
X3152Y742393D01*
X839Y738770D02*
X1874Y740659D01*
X65Y736760D02*
X839Y738770D01*
X-435Y734664D02*
X65Y736760D01*
X-651Y732521D02*
X-435Y734664D01*
X-651Y732521D02*
X-622Y731405D01*
X-625Y731338D02*
X-622Y731405D01*
X-625Y15482D02*
Y731338D01*
X-648Y14461D02*
X-625Y15482D01*
X-648Y14461D02*
X-431Y12432D01*
X46Y10447D01*
X775Y8541D01*
X1744Y6745D01*
X2936Y5088D01*
X4333Y3600D01*
X5910Y2304D01*
X7641Y1222D01*
X9497Y373D01*
X11447Y-229D01*
X13458Y-575D01*
X14513Y-623D01*
X14572Y-626D01*
X274902Y-636D01*
X274980Y-642D01*
X276036D01*
X278131Y-366D01*
X280172Y181D01*
X282123Y990D01*
X283953Y2046D01*
X285629Y3332D01*
X287123Y4826D01*
X288409Y6502D01*
X289466Y8332D01*
X290274Y10284D01*
X290821Y12325D01*
X291097Y14419D01*
Y15476D01*
Y15556D01*
X291095Y15716D02*
X291097Y15556D01*
X291092Y15877D02*
X291095Y15716D01*
X291087Y16037D02*
X291092Y15877D01*
X291084Y16117D02*
X291087Y16037D01*
X291084Y16117D02*
X291092Y731905D01*
X291097Y731976D01*
Y732056D01*
X291095Y732216D02*
X291097Y732056D01*
X291092Y732377D02*
X291095Y732216D01*
X291087Y732537D02*
X291092Y732377D01*
X291084Y732618D02*
X291087Y732537D01*
X291084Y732618D02*
Y733419D01*
X291075Y733488D02*
X291084Y733419D01*
X291056Y733554D02*
X291075Y733488D01*
X291010Y733647D02*
X291056Y733554D01*
X290905Y734655D02*
X291010Y733647D01*
X290444Y736628D02*
X290905Y734655D01*
X289740Y738528D02*
X290444Y736628D01*
X288803Y740325D02*
X289740Y738528D01*
X287648Y741990D02*
X288803Y740325D01*
X286295Y743498D02*
X287648Y741990D01*
X284763Y744824D02*
X286295Y743498D01*
X283077Y745948D02*
X284763Y744824D01*
X281263Y746852D02*
X283077Y745948D01*
X279350Y747522D02*
X281263Y746852D01*
X277369Y747947D02*
X279350Y747522D01*
X127082Y369840D02*
X128620Y369637D01*
X130118Y369236D01*
X131551Y368642D01*
X132895Y367867D01*
X134125Y366922D01*
X135222Y365826D01*
X136166Y364595D01*
X136942Y363252D01*
X137535Y361819D01*
X137937Y360320D01*
X138139Y358783D01*
Y358007D02*
Y358783D01*
Y357231D02*
Y358007D01*
X137937Y355694D02*
X138139Y357231D01*
X137535Y354195D02*
X137937Y355694D01*
X136942Y352762D02*
X137535Y354195D01*
X136166Y351419D02*
X136942Y352762D01*
X135222Y350188D02*
X136166Y351419D01*
X134125Y349092D02*
X135222Y350188D01*
X132895Y348147D02*
X134125Y349092D01*
X131551Y347372D02*
X132895Y348147D01*
X130118Y346778D02*
X131551Y347372D01*
X128620Y346377D02*
X130118Y346778D01*
X127082Y346174D02*
X128620Y346377D01*
X125531Y346174D02*
X127082D01*
X123993Y346377D02*
X125531Y346174D01*
X122495Y346778D02*
X123993Y346377D01*
X121062Y347372D02*
X122495Y346778D01*
X119719Y348147D02*
X121062Y347372D01*
X118488Y349092D02*
X119719Y348147D01*
X117391Y350188D02*
X118488Y349092D01*
X116447Y351419D02*
X117391Y350188D01*
X115671Y352762D02*
X116447Y351419D01*
X115078Y354195D02*
X115671Y352762D01*
X114676Y355694D02*
X115078Y354195D01*
X114474Y357231D02*
X114676Y355694D01*
X114474Y357231D02*
Y358007D01*
Y358783D01*
X114676Y360320D01*
X115078Y361819D01*
X115671Y363252D01*
X116447Y364595D01*
X117391Y365826D01*
X118488Y366922D01*
X119719Y367867D01*
X121062Y368642D01*
X122495Y369236D01*
X123993Y369637D01*
X125531Y369840D01*
X127082D01*
X207999Y367948D02*
Y413519D01*
X202980Y367948D02*
X207999D01*
X202881Y367850D02*
X202980Y367948D01*
X202881Y367850D02*
Y413519D01*
X207999D01*
X281867Y1278D02*
X283709Y2276D01*
X285401Y3512D01*
X286912Y4964D01*
X288215Y6604D01*
X289287Y8404D01*
X290108Y10332D01*
X127082Y369840D02*
X128620Y369637D01*
X130118Y369236D01*
X131551Y368642D01*
X132895Y367867D01*
X134125Y366922D01*
X135222Y365826D01*
X136166Y364595D01*
X136942Y363252D01*
X137535Y361819D01*
X137937Y360320D01*
X138139Y358783D01*
Y358007D02*
Y358783D01*
Y357231D02*
Y358007D01*
X137937Y355694D02*
X138139Y357231D01*
X137535Y354195D02*
X137937Y355694D01*
X136942Y352762D02*
X137535Y354195D01*
X136166Y351419D02*
X136942Y352762D01*
X135222Y350188D02*
X136166Y351419D01*
X134125Y349092D02*
X135222Y350188D01*
X132895Y348147D02*
X134125Y349092D01*
X131551Y347372D02*
X132895Y348147D01*
X130118Y346778D02*
X131551Y347372D01*
X128620Y346377D02*
X130118Y346778D01*
X127082Y346174D02*
X128620Y346377D01*
X125531Y346174D02*
X127082D01*
X123993Y346377D02*
X125531Y346174D01*
X122495Y346778D02*
X123993Y346377D01*
X121062Y347372D02*
X122495Y346778D01*
X119719Y348147D02*
X121062Y347372D01*
X118488Y349092D02*
X119719Y348147D01*
X117391Y350188D02*
X118488Y349092D01*
X116447Y351419D02*
X117391Y350188D01*
X115671Y352762D02*
X116447Y351419D01*
X115078Y354195D02*
X115671Y352762D01*
X114676Y355694D02*
X115078Y354195D01*
X114474Y357231D02*
X114676Y355694D01*
X114474Y357231D02*
Y358007D01*
Y358783D01*
X114676Y360320D01*
X115078Y361819D01*
X115671Y363252D01*
X116447Y364595D01*
X117391Y365826D01*
X118488Y366922D01*
X119719Y367867D01*
X121062Y368642D01*
X122495Y369236D01*
X123993Y369637D01*
X125531Y369840D01*
X127082D01*
X207999Y367948D02*
Y413519D01*
X202980Y367948D02*
X207999D01*
X202881Y367850D02*
X202980Y367948D01*
X202881Y367850D02*
Y413519D01*
X207999D01*
X299728Y356897D02*
X300284Y358917D01*
X299480Y355055D02*
X299728Y356897D01*
M02*
