G04*
G04 #@! TF.GenerationSoftware,Altium Limited,Altium Designer,20.0.12 (288)*
G04*
G04 Layer_Color=8421504*
%FSLAX25Y25*%
%MOIN*%
G70*
G01*
G75*
%ADD19R,0.06299X0.05906*%
%ADD20R,0.02756X0.03543*%
%ADD21R,0.24016X0.24016*%
%ADD22O,0.00984X0.03937*%
%ADD23O,0.03937X0.00984*%
%ADD24R,0.09921X0.09095*%
%ADD25R,0.03937X0.13583*%
%ADD26R,0.03937X0.10236*%
%ADD27R,0.03937X0.13780*%
%ADD28R,0.10236X0.03937*%
%ADD29R,0.13780X0.03937*%
%ADD30R,0.02362X0.06102*%
%ADD31R,0.04724X0.07087*%
G04:AMPARAMS|DCode=32|XSize=77.56mil|YSize=23.62mil|CornerRadius=2.95mil|HoleSize=0mil|Usage=FLASHONLY|Rotation=0.000|XOffset=0mil|YOffset=0mil|HoleType=Round|Shape=RoundedRectangle|*
%AMROUNDEDRECTD32*
21,1,0.07756,0.01772,0,0,0.0*
21,1,0.07165,0.02362,0,0,0.0*
1,1,0.00591,0.03583,-0.00886*
1,1,0.00591,-0.03583,-0.00886*
1,1,0.00591,-0.03583,0.00886*
1,1,0.00591,0.03583,0.00886*
%
%ADD32ROUNDEDRECTD32*%
%ADD33R,0.03543X0.02756*%
%ADD34R,0.02362X0.05709*%
%ADD35R,0.12284X0.08819*%
%ADD36R,0.06299X0.01181*%
G04:AMPARAMS|DCode=37|XSize=70mil|YSize=70mil|CornerRadius=17.5mil|HoleSize=0mil|Usage=FLASHONLY|Rotation=90.000|XOffset=0mil|YOffset=0mil|HoleType=Round|Shape=RoundedRectangle|*
%AMROUNDEDRECTD37*
21,1,0.07000,0.03500,0,0,90.0*
21,1,0.03500,0.07000,0,0,90.0*
1,1,0.03500,0.01750,0.01750*
1,1,0.03500,0.01750,-0.01750*
1,1,0.03500,-0.01750,-0.01750*
1,1,0.03500,-0.01750,0.01750*
%
%ADD37ROUNDEDRECTD37*%
%ADD38R,0.05315X0.01378*%
%ADD39R,0.01378X0.05315*%
%ADD40O,0.09843X0.02756*%
%ADD41R,0.09370X0.06496*%
%ADD42R,0.00984X0.02756*%
%ADD43R,0.03937X0.08465*%
%ADD44R,0.12795X0.08465*%
G36*
X62720Y307003D02*
X56751D01*
Y312361D01*
X62720D01*
Y307003D01*
D02*
G37*
G36*
X54846D02*
X48868D01*
Y312361D01*
X54846D01*
Y307003D01*
D02*
G37*
G36*
X46972D02*
X40983D01*
Y312362D01*
X46972D01*
Y307003D01*
D02*
G37*
G36*
X39098D02*
X33095D01*
Y312362D01*
X39098D01*
Y307003D01*
D02*
G37*
G36*
X31224D02*
X25226D01*
Y312359D01*
X31224D01*
Y307003D01*
D02*
G37*
G36*
X148762Y306598D02*
X142793D01*
Y311956D01*
X148762D01*
Y306598D01*
D02*
G37*
G36*
X140888D02*
X134910D01*
Y311956D01*
X140888D01*
Y306598D01*
D02*
G37*
G36*
X133014D02*
X127025D01*
Y311957D01*
X133014D01*
Y306598D01*
D02*
G37*
G36*
X125140D02*
X119138D01*
Y311957D01*
X125140D01*
Y306598D01*
D02*
G37*
G36*
X117266D02*
X111268D01*
Y311955D01*
X117266D01*
Y306598D01*
D02*
G37*
G36*
X62720Y298539D02*
X56741D01*
Y303890D01*
X62720D01*
Y298539D01*
D02*
G37*
G36*
X54846D02*
X48871D01*
Y303882D01*
X54846D01*
Y298539D01*
D02*
G37*
G36*
X46972D02*
X40983D01*
Y303884D01*
X46972D01*
Y298539D01*
D02*
G37*
G36*
X39098D02*
X33107D01*
Y303889D01*
X39098D01*
Y298539D01*
D02*
G37*
G36*
X31224D02*
X25237D01*
Y303892D01*
X31224D01*
Y298539D01*
D02*
G37*
G36*
X148762Y298134D02*
X142783D01*
Y303486D01*
X148762D01*
Y298134D01*
D02*
G37*
G36*
X140888D02*
X134913D01*
Y303478D01*
X140888D01*
Y298134D01*
D02*
G37*
G36*
X133014D02*
X127025D01*
Y303479D01*
X133014D01*
Y298134D01*
D02*
G37*
G36*
X125140D02*
X119149D01*
Y303485D01*
X125140D01*
Y298134D01*
D02*
G37*
G36*
X117266D02*
X111280D01*
Y303487D01*
X117266D01*
Y298134D01*
D02*
G37*
G36*
X62720Y290074D02*
X56761D01*
Y295400D01*
X62720D01*
Y290074D01*
D02*
G37*
G36*
X54846D02*
X48869D01*
Y295406D01*
X54846D01*
Y290074D01*
D02*
G37*
G36*
X46972D02*
X40984D01*
Y295409D01*
X46972D01*
Y290074D01*
D02*
G37*
G36*
X39098D02*
X33095D01*
Y295404D01*
X39098D01*
Y290074D01*
D02*
G37*
G36*
X31224D02*
X25235D01*
Y295425D01*
X31224D01*
Y290074D01*
D02*
G37*
G36*
X148762Y289669D02*
X142803D01*
Y294996D01*
X148762D01*
Y289669D01*
D02*
G37*
G36*
X140888D02*
X134912D01*
Y295001D01*
X140888D01*
Y289669D01*
D02*
G37*
G36*
X133014D02*
X127026D01*
Y295004D01*
X133014D01*
Y289669D01*
D02*
G37*
G36*
X125140D02*
X119137D01*
Y294999D01*
X125140D01*
Y289669D01*
D02*
G37*
G36*
X117266D02*
X111277D01*
Y295020D01*
X117266D01*
Y289669D01*
D02*
G37*
G36*
X62720Y281728D02*
X56737D01*
Y287079D01*
X62720D01*
Y281728D01*
D02*
G37*
G36*
X54846D02*
X48870D01*
Y287043D01*
X54846D01*
Y281728D01*
D02*
G37*
G36*
X46972D02*
X40987D01*
Y287078D01*
X46972D01*
Y281728D01*
D02*
G37*
G36*
X39098D02*
X33109D01*
Y287072D01*
X39098D01*
Y281728D01*
D02*
G37*
G36*
X31224D02*
X25218D01*
Y287056D01*
X31224D01*
Y281728D01*
D02*
G37*
G36*
X148762Y281323D02*
X142780D01*
Y286674D01*
X148762D01*
Y281323D01*
D02*
G37*
G36*
X140888D02*
X134912D01*
Y286639D01*
X140888D01*
Y281323D01*
D02*
G37*
G36*
X133014D02*
X127030D01*
Y286674D01*
X133014D01*
Y281323D01*
D02*
G37*
G36*
X125140D02*
X119151D01*
Y286667D01*
X125140D01*
Y281323D01*
D02*
G37*
G36*
X117266D02*
X111261D01*
Y286652D01*
X117266D01*
Y281323D01*
D02*
G37*
G36*
X49830Y268932D02*
X39988D01*
Y272869D01*
X49830D01*
Y268932D01*
D02*
G37*
G36*
X278177Y259090D02*
X274240D01*
Y268932D01*
X278177D01*
Y259090D01*
D02*
G37*
G36*
X39988Y34680D02*
X36051D01*
Y44523D01*
X39988D01*
Y34680D01*
D02*
G37*
G36*
X274240Y30743D02*
X264397D01*
Y34680D01*
X274240D01*
Y30743D01*
D02*
G37*
D19*
X232972Y355610D02*
D03*
Y347146D02*
D03*
X194783Y347244D02*
D03*
Y355709D02*
D03*
X113380Y10076D02*
D03*
Y18540D02*
D03*
X155230Y620940D02*
D03*
Y612476D02*
D03*
X156230Y443440D02*
D03*
Y434976D02*
D03*
X254480Y4476D02*
D03*
Y12940D02*
D03*
D20*
X259154Y222835D02*
D03*
X264272D02*
D03*
X147539Y125386D02*
D03*
X152657D02*
D03*
X259154Y229626D02*
D03*
X264272D02*
D03*
X147539Y131928D02*
D03*
X152657D02*
D03*
X259154Y195669D02*
D03*
X264272D02*
D03*
X147539Y99220D02*
D03*
X152657D02*
D03*
X259154Y202461D02*
D03*
X264272D02*
D03*
X147539Y105762D02*
D03*
X152657D02*
D03*
X192671Y249476D02*
D03*
X197789D02*
D03*
X81171Y151976D02*
D03*
X86289D02*
D03*
X259154Y209252D02*
D03*
X264272D02*
D03*
X147539Y112303D02*
D03*
X152657D02*
D03*
X192671Y242976D02*
D03*
X197789D02*
D03*
X81171Y145476D02*
D03*
X86289D02*
D03*
X197730Y203976D02*
D03*
X192612D02*
D03*
X86230Y106476D02*
D03*
X81112D02*
D03*
X197789Y210476D02*
D03*
X192671D02*
D03*
X86289Y112976D02*
D03*
X81171D02*
D03*
X197848Y223476D02*
D03*
X192730D02*
D03*
X86348Y125976D02*
D03*
X81230D02*
D03*
X197789Y229976D02*
D03*
X192671D02*
D03*
X86289Y132476D02*
D03*
X81171D02*
D03*
X259154Y216043D02*
D03*
X264272D02*
D03*
X147539Y118845D02*
D03*
X152657D02*
D03*
X259154Y236417D02*
D03*
X264272D02*
D03*
X147539Y138469D02*
D03*
X152657D02*
D03*
X197789Y216976D02*
D03*
X192671D02*
D03*
X86289Y119476D02*
D03*
X81171D02*
D03*
X197789Y236476D02*
D03*
X192671D02*
D03*
X86289Y138976D02*
D03*
X81171D02*
D03*
X259154Y243209D02*
D03*
X264272D02*
D03*
X147539Y145011D02*
D03*
X152657D02*
D03*
X184171Y644417D02*
D03*
X189289D02*
D03*
Y631417D02*
D03*
X184171D02*
D03*
X184730Y499476D02*
D03*
X189848D02*
D03*
Y486476D02*
D03*
X184730D02*
D03*
X97339Y25876D02*
D03*
X92221D02*
D03*
X95739Y3976D02*
D03*
X90621D02*
D03*
X101062D02*
D03*
X106180D02*
D03*
X160671Y92476D02*
D03*
X165789D02*
D03*
X189289Y650916D02*
D03*
X184171D02*
D03*
X189289Y637917D02*
D03*
X184171D02*
D03*
X189848Y505976D02*
D03*
X184730D02*
D03*
X189848Y492976D02*
D03*
X184730D02*
D03*
X264421Y147476D02*
D03*
X269539D02*
D03*
X264421Y84476D02*
D03*
X269539D02*
D03*
X264421Y109976D02*
D03*
X269539D02*
D03*
X264421Y129476D02*
D03*
X269539D02*
D03*
X165730Y105976D02*
D03*
X160612D02*
D03*
X165789Y82476D02*
D03*
X160671D02*
D03*
X165730Y125476D02*
D03*
X160612D02*
D03*
D21*
X226730Y226007D02*
D03*
X115230Y128507D02*
D03*
D22*
X213934Y241755D02*
D03*
X215903D02*
D03*
X217871D02*
D03*
X219840D02*
D03*
X221809D02*
D03*
X223777D02*
D03*
X225746D02*
D03*
X227714D02*
D03*
X229683D02*
D03*
X231651D02*
D03*
X233620D02*
D03*
X235588D02*
D03*
X237557D02*
D03*
X239525D02*
D03*
Y210259D02*
D03*
X237557D02*
D03*
X235588D02*
D03*
X233620D02*
D03*
X231651D02*
D03*
X229683D02*
D03*
X227714D02*
D03*
X225746D02*
D03*
X223777D02*
D03*
X221809D02*
D03*
X219840D02*
D03*
X217871D02*
D03*
X215903D02*
D03*
X213934D02*
D03*
X102435Y144255D02*
D03*
X104403D02*
D03*
X106371D02*
D03*
X108340D02*
D03*
X110309D02*
D03*
X112277D02*
D03*
X114246D02*
D03*
X116214D02*
D03*
X118183D02*
D03*
X120151D02*
D03*
X122120D02*
D03*
X124088D02*
D03*
X126057D02*
D03*
X128025D02*
D03*
Y112759D02*
D03*
X126057D02*
D03*
X124088D02*
D03*
X122120D02*
D03*
X120151D02*
D03*
X118183D02*
D03*
X116214D02*
D03*
X114246D02*
D03*
X112277D02*
D03*
X110309D02*
D03*
X108340D02*
D03*
X106371D02*
D03*
X104403D02*
D03*
X102435D02*
D03*
D23*
X242478Y238802D02*
D03*
Y236834D02*
D03*
Y234865D02*
D03*
Y232897D02*
D03*
Y230928D02*
D03*
Y228960D02*
D03*
Y226991D02*
D03*
Y225023D02*
D03*
Y223054D02*
D03*
Y221086D02*
D03*
Y219117D02*
D03*
Y217149D02*
D03*
Y215180D02*
D03*
Y213212D02*
D03*
X210982D02*
D03*
Y215180D02*
D03*
Y217149D02*
D03*
Y219117D02*
D03*
Y221086D02*
D03*
Y223054D02*
D03*
Y225023D02*
D03*
Y226991D02*
D03*
Y228960D02*
D03*
Y230928D02*
D03*
Y232897D02*
D03*
Y234865D02*
D03*
Y236834D02*
D03*
Y238802D02*
D03*
X130978Y141302D02*
D03*
Y139334D02*
D03*
Y137365D02*
D03*
Y135397D02*
D03*
Y133428D02*
D03*
Y131460D02*
D03*
Y129491D02*
D03*
Y127523D02*
D03*
Y125554D02*
D03*
Y123586D02*
D03*
Y121617D02*
D03*
Y119649D02*
D03*
Y117680D02*
D03*
Y115712D02*
D03*
X99482D02*
D03*
Y117680D02*
D03*
Y119649D02*
D03*
Y121617D02*
D03*
Y123586D02*
D03*
Y125554D02*
D03*
Y127523D02*
D03*
Y129491D02*
D03*
Y131460D02*
D03*
Y133428D02*
D03*
Y135397D02*
D03*
Y137365D02*
D03*
Y139334D02*
D03*
Y141302D02*
D03*
D24*
X97480Y335180D02*
D03*
Y310771D02*
D03*
X162980Y311771D02*
D03*
Y336180D02*
D03*
X76480Y310771D02*
D03*
Y335180D02*
D03*
X11480Y312180D02*
D03*
Y336590D02*
D03*
D25*
X120022Y334079D02*
D03*
X140022D02*
D03*
X53980Y334484D02*
D03*
X33980D02*
D03*
D26*
X38019Y166570D02*
D03*
Y186255D02*
D03*
Y205940D02*
D03*
Y225625D02*
D03*
Y245310D02*
D03*
X276208Y166570D02*
D03*
Y186255D02*
D03*
Y205940D02*
D03*
Y225625D02*
D03*
Y245310D02*
D03*
Y137042D02*
D03*
Y117358D02*
D03*
Y97672D02*
D03*
Y77987D02*
D03*
Y58302D02*
D03*
X38019Y137042D02*
D03*
Y117358D02*
D03*
Y97672D02*
D03*
Y77987D02*
D03*
Y58302D02*
D03*
D27*
Y265980D02*
D03*
X276208Y37633D02*
D03*
D28*
X142350Y270901D02*
D03*
X122665D02*
D03*
X102980D02*
D03*
X83295D02*
D03*
X63610D02*
D03*
X171877D02*
D03*
X191562D02*
D03*
X211247D02*
D03*
X230933D02*
D03*
X250618D02*
D03*
X171877Y32712D02*
D03*
X191562D02*
D03*
X211247D02*
D03*
X230933D02*
D03*
X250618D02*
D03*
X142350D02*
D03*
X122665D02*
D03*
X102980D02*
D03*
X83295D02*
D03*
X63610D02*
D03*
D29*
X271287Y270901D02*
D03*
X42940Y32712D02*
D03*
D30*
X235417Y20476D02*
D03*
X231480D02*
D03*
X227543D02*
D03*
X223606D02*
D03*
X219669D02*
D03*
X215732D02*
D03*
D31*
X240535Y10535D02*
D03*
X210614D02*
D03*
D32*
X198230Y495476D02*
D03*
Y490476D02*
D03*
Y485476D02*
D03*
Y480476D02*
D03*
X217679D02*
D03*
Y485476D02*
D03*
Y490476D02*
D03*
Y495476D02*
D03*
X83480Y241476D02*
D03*
Y236476D02*
D03*
Y231476D02*
D03*
Y226476D02*
D03*
X102929D02*
D03*
Y231476D02*
D03*
Y236476D02*
D03*
Y241476D02*
D03*
X128480Y240976D02*
D03*
Y235976D02*
D03*
Y230976D02*
D03*
Y225976D02*
D03*
X147929D02*
D03*
Y230976D02*
D03*
Y235976D02*
D03*
Y240976D02*
D03*
X83480Y218976D02*
D03*
Y213976D02*
D03*
Y208976D02*
D03*
Y203976D02*
D03*
X102929D02*
D03*
Y208976D02*
D03*
Y213976D02*
D03*
Y218976D02*
D03*
X128480Y218476D02*
D03*
Y213476D02*
D03*
Y208476D02*
D03*
Y203476D02*
D03*
X147929D02*
D03*
Y208476D02*
D03*
Y213476D02*
D03*
Y218476D02*
D03*
X198755Y591358D02*
D03*
Y586357D02*
D03*
Y581357D02*
D03*
Y576358D02*
D03*
X218204D02*
D03*
Y581357D02*
D03*
Y586357D02*
D03*
Y591358D02*
D03*
X198505Y446476D02*
D03*
Y441476D02*
D03*
Y436476D02*
D03*
Y431476D02*
D03*
X217954D02*
D03*
Y436476D02*
D03*
Y441476D02*
D03*
Y446476D02*
D03*
D33*
X237730Y198416D02*
D03*
Y203535D02*
D03*
X126230Y100917D02*
D03*
Y106035D02*
D03*
X250480Y203535D02*
D03*
Y198416D02*
D03*
X138980Y106035D02*
D03*
Y100917D02*
D03*
X231230Y198416D02*
D03*
Y203535D02*
D03*
X119730Y100917D02*
D03*
Y106035D02*
D03*
X213730Y203535D02*
D03*
Y198416D02*
D03*
X102230Y106035D02*
D03*
Y100917D02*
D03*
X243980Y203535D02*
D03*
Y198416D02*
D03*
X132480Y106035D02*
D03*
Y100917D02*
D03*
X217230Y165917D02*
D03*
Y171035D02*
D03*
X105730Y68417D02*
D03*
Y73535D02*
D03*
X236730Y165948D02*
D03*
Y171066D02*
D03*
X125230Y68448D02*
D03*
Y73566D02*
D03*
X235230Y249416D02*
D03*
Y254535D02*
D03*
X123730Y151917D02*
D03*
Y157035D02*
D03*
X220230Y203535D02*
D03*
Y198416D02*
D03*
X108730Y106035D02*
D03*
Y100917D02*
D03*
X241899Y249416D02*
D03*
Y254535D02*
D03*
X97438Y151903D02*
D03*
Y157021D02*
D03*
X207230Y203535D02*
D03*
Y198416D02*
D03*
X95730Y106035D02*
D03*
Y100917D02*
D03*
X215730Y249416D02*
D03*
Y254535D02*
D03*
X104230Y151917D02*
D03*
Y157035D02*
D03*
X209072Y249411D02*
D03*
Y254529D02*
D03*
X130413Y151910D02*
D03*
Y157028D02*
D03*
X182980Y582298D02*
D03*
Y587417D02*
D03*
X182730Y437417D02*
D03*
Y442535D02*
D03*
X227980Y575239D02*
D03*
Y580358D02*
D03*
X227730Y430358D02*
D03*
Y435476D02*
D03*
X163980Y650035D02*
D03*
Y644916D02*
D03*
Y564535D02*
D03*
Y559416D02*
D03*
Y477035D02*
D03*
Y471916D02*
D03*
X131230Y632976D02*
D03*
Y638094D02*
D03*
X132230Y455476D02*
D03*
Y460594D02*
D03*
X118230Y632916D02*
D03*
Y638035D02*
D03*
X119230Y455416D02*
D03*
Y460535D02*
D03*
X124730Y637976D02*
D03*
Y632858D02*
D03*
X125730Y460476D02*
D03*
Y455358D02*
D03*
X118730Y662476D02*
D03*
Y667594D02*
D03*
X120480Y484976D02*
D03*
Y490094D02*
D03*
X147730Y610917D02*
D03*
Y616035D02*
D03*
X148730Y433417D02*
D03*
Y438535D02*
D03*
X189730Y587417D02*
D03*
Y582298D02*
D03*
X189480Y442594D02*
D03*
Y437476D02*
D03*
X254480Y26558D02*
D03*
Y21440D02*
D03*
X118704Y231417D02*
D03*
Y236535D02*
D03*
X163704Y230917D02*
D03*
Y236035D02*
D03*
X118704Y208916D02*
D03*
Y214035D02*
D03*
X163704Y208417D02*
D03*
Y213535D02*
D03*
X112204Y231417D02*
D03*
Y236535D02*
D03*
X157204Y230917D02*
D03*
Y236035D02*
D03*
X112204Y208916D02*
D03*
Y214035D02*
D03*
X157204Y208417D02*
D03*
Y213535D02*
D03*
X73704Y220917D02*
D03*
Y226035D02*
D03*
X118704Y220416D02*
D03*
Y225535D02*
D03*
X73704Y198416D02*
D03*
Y203535D02*
D03*
X118704Y197916D02*
D03*
Y203035D02*
D03*
X67204Y220976D02*
D03*
Y226094D02*
D03*
X112204Y220476D02*
D03*
Y225594D02*
D03*
X67204Y198476D02*
D03*
Y203594D02*
D03*
X112204Y197976D02*
D03*
Y203094D02*
D03*
X227980Y591417D02*
D03*
Y586298D02*
D03*
X227730Y446535D02*
D03*
Y441417D02*
D03*
X234980Y591417D02*
D03*
Y586298D02*
D03*
X234730Y446535D02*
D03*
Y441417D02*
D03*
X189480Y571357D02*
D03*
Y576476D02*
D03*
Y426358D02*
D03*
Y431476D02*
D03*
X182980Y571298D02*
D03*
Y576416D02*
D03*
Y426416D02*
D03*
Y431535D02*
D03*
X229230Y645476D02*
D03*
Y640357D02*
D03*
X235671Y645476D02*
D03*
Y640357D02*
D03*
X189230Y619858D02*
D03*
Y624976D02*
D03*
X182789Y619858D02*
D03*
Y624976D02*
D03*
X226230Y500594D02*
D03*
Y495476D02*
D03*
X232730Y500535D02*
D03*
Y495416D02*
D03*
X189730Y475417D02*
D03*
Y480535D02*
D03*
X183230Y475357D02*
D03*
Y480476D02*
D03*
X64980Y49785D02*
D03*
Y44666D02*
D03*
X73480Y49785D02*
D03*
Y44666D02*
D03*
X131730Y667476D02*
D03*
Y662358D02*
D03*
X133480Y489976D02*
D03*
Y484858D02*
D03*
X125230Y667535D02*
D03*
Y662417D02*
D03*
X126980Y490035D02*
D03*
Y484916D02*
D03*
X113730Y612535D02*
D03*
Y607416D02*
D03*
X114730Y435035D02*
D03*
Y429916D02*
D03*
X112230Y667594D02*
D03*
Y662476D02*
D03*
X113980Y490094D02*
D03*
Y484976D02*
D03*
X120230Y612535D02*
D03*
Y607416D02*
D03*
X121230Y435035D02*
D03*
Y429916D02*
D03*
X234730Y38357D02*
D03*
Y43476D02*
D03*
X215230Y38357D02*
D03*
Y43476D02*
D03*
X246980Y21535D02*
D03*
Y16417D02*
D03*
X185730Y165535D02*
D03*
Y170653D02*
D03*
X190730Y65094D02*
D03*
Y59976D02*
D03*
X252580Y57935D02*
D03*
Y52816D02*
D03*
X197480Y65035D02*
D03*
Y59917D02*
D03*
X227980Y165858D02*
D03*
Y170976D02*
D03*
X206480Y165917D02*
D03*
Y171035D02*
D03*
X178730Y165594D02*
D03*
Y170712D02*
D03*
D34*
X132990Y610909D02*
D03*
X140470D02*
D03*
X136730Y620161D02*
D03*
X133990Y433409D02*
D03*
X141470D02*
D03*
X137730Y442661D02*
D03*
D35*
X255180Y406076D02*
D03*
Y375391D02*
D03*
D36*
X262975Y399591D02*
D03*
Y397623D02*
D03*
Y395654D02*
D03*
Y393686D02*
D03*
Y391717D02*
D03*
Y389749D02*
D03*
Y387780D02*
D03*
Y385812D02*
D03*
Y383843D02*
D03*
Y381875D02*
D03*
D37*
X188878Y292815D02*
D03*
X200689Y303051D02*
D03*
X280244Y391898D02*
D03*
Y401019D02*
D03*
X189480Y418976D02*
D03*
X183480Y459976D02*
D03*
X197480Y511976D02*
D03*
X280244Y382777D02*
D03*
Y373657D02*
D03*
X183980Y598976D02*
D03*
Y610476D02*
D03*
X199980Y657476D02*
D03*
X193504Y279134D02*
D03*
X180980Y563976D02*
D03*
X158480Y483476D02*
D03*
X183980Y659476D02*
D03*
X11480Y349976D02*
D03*
X58480Y113476D02*
D03*
X156480Y630476D02*
D03*
X51980Y608476D02*
D03*
X86980Y671976D02*
D03*
X162980Y299976D02*
D03*
X11480Y300976D02*
D03*
D38*
X173568Y80381D02*
D03*
Y82350D02*
D03*
Y84318D02*
D03*
Y86287D02*
D03*
Y88255D02*
D03*
Y90224D02*
D03*
Y92192D02*
D03*
Y94161D02*
D03*
Y96129D02*
D03*
Y98098D02*
D03*
Y100066D02*
D03*
Y102035D02*
D03*
Y104003D02*
D03*
Y105972D02*
D03*
Y107940D02*
D03*
Y109909D02*
D03*
Y111877D02*
D03*
Y113846D02*
D03*
Y115814D02*
D03*
Y117783D02*
D03*
Y119751D02*
D03*
Y121720D02*
D03*
Y123688D02*
D03*
Y125657D02*
D03*
Y127625D02*
D03*
Y129594D02*
D03*
Y131562D02*
D03*
Y133531D02*
D03*
Y135499D02*
D03*
Y137468D02*
D03*
Y139436D02*
D03*
Y141405D02*
D03*
Y143373D02*
D03*
Y145342D02*
D03*
Y147310D02*
D03*
Y149279D02*
D03*
X257230D02*
D03*
Y147310D02*
D03*
Y145342D02*
D03*
Y143373D02*
D03*
Y141405D02*
D03*
Y139436D02*
D03*
Y137468D02*
D03*
Y135499D02*
D03*
Y133531D02*
D03*
Y131562D02*
D03*
Y129594D02*
D03*
Y127625D02*
D03*
Y125657D02*
D03*
Y123688D02*
D03*
Y121720D02*
D03*
Y119751D02*
D03*
Y117783D02*
D03*
Y115814D02*
D03*
Y113846D02*
D03*
Y111877D02*
D03*
Y109909D02*
D03*
Y107940D02*
D03*
Y105972D02*
D03*
Y104003D02*
D03*
Y102035D02*
D03*
Y100066D02*
D03*
Y98098D02*
D03*
Y96129D02*
D03*
Y94161D02*
D03*
Y92192D02*
D03*
Y90224D02*
D03*
Y88255D02*
D03*
Y86287D02*
D03*
Y84318D02*
D03*
Y82350D02*
D03*
Y80381D02*
D03*
D39*
X180950Y156661D02*
D03*
X182919D02*
D03*
X184887D02*
D03*
X186856D02*
D03*
X188824D02*
D03*
X190793D02*
D03*
X192761D02*
D03*
X194730D02*
D03*
X196698D02*
D03*
X198667D02*
D03*
X200635D02*
D03*
X202604D02*
D03*
X204572D02*
D03*
X206541D02*
D03*
X208509D02*
D03*
X210478D02*
D03*
X212446D02*
D03*
X214415D02*
D03*
X216383D02*
D03*
X218352D02*
D03*
X220320D02*
D03*
X222289D02*
D03*
X224257D02*
D03*
X226226D02*
D03*
X228194D02*
D03*
X230163D02*
D03*
X232131D02*
D03*
X234100D02*
D03*
X236068D02*
D03*
X238037D02*
D03*
X240005D02*
D03*
X241974D02*
D03*
X243942D02*
D03*
X245911D02*
D03*
X247879D02*
D03*
X249848D02*
D03*
Y72999D02*
D03*
X247879D02*
D03*
X245911D02*
D03*
X243942D02*
D03*
X241974D02*
D03*
X240005D02*
D03*
X238037D02*
D03*
X236068D02*
D03*
X234100D02*
D03*
X232131D02*
D03*
X230163D02*
D03*
X228194D02*
D03*
X226226D02*
D03*
X224257D02*
D03*
X222289D02*
D03*
X220320D02*
D03*
X218352D02*
D03*
X216383D02*
D03*
X214415D02*
D03*
X212446D02*
D03*
X210478D02*
D03*
X208509D02*
D03*
X206541D02*
D03*
X204572D02*
D03*
X202604D02*
D03*
X200635D02*
D03*
X198667D02*
D03*
X196698D02*
D03*
X194730D02*
D03*
X192761D02*
D03*
X190793D02*
D03*
X188824D02*
D03*
X186856D02*
D03*
X184887D02*
D03*
X182919D02*
D03*
X180950D02*
D03*
D40*
X199584Y639917D02*
D03*
Y634916D02*
D03*
Y629916D02*
D03*
Y624917D02*
D03*
X218876Y639917D02*
D03*
Y634916D02*
D03*
Y629916D02*
D03*
Y624917D02*
D03*
D41*
X100380Y14776D02*
D03*
D42*
X103333Y9264D02*
D03*
X101364D02*
D03*
X99396D02*
D03*
X97427D02*
D03*
Y20287D02*
D03*
X99396D02*
D03*
X101364D02*
D03*
X103333D02*
D03*
D43*
X55370Y58726D02*
D03*
X64425D02*
D03*
X73480D02*
D03*
D44*
X64425Y84119D02*
D03*
M02*
