G04*
G04 #@! TF.GenerationSoftware,Altium Limited,Altium Designer,20.0.12 (288)*
G04*
G04 Layer_Color=32896*
%FSLAX25Y25*%
%MOIN*%
G70*
G01*
G75*
%ADD11C,0.00787*%
%ADD12C,0.00500*%
%ADD13C,0.00600*%
%ADD16C,0.01000*%
%ADD17C,0.00591*%
%ADD18C,0.00591*%
%ADD113C,0.00945*%
%ADD114C,0.00787*%
G36*
X271273Y417010D02*
X271294Y417006D01*
X271316Y416999D01*
X271330Y416992D01*
X271341Y416985D01*
X271344Y416981D01*
X271348Y416978D01*
X271362Y416963D01*
X271376Y416946D01*
X271387Y416913D01*
X271391Y416899D01*
X271394Y416888D01*
Y416878D01*
X271391Y416856D01*
X271387Y416834D01*
X271373Y416806D01*
X271355Y416784D01*
X271352Y416781D01*
X271348Y416777D01*
X271330Y416763D01*
X271308Y416756D01*
X271262Y416741D01*
X271240D01*
X271223Y416738D01*
X271212D01*
X271208D01*
X271097D01*
Y414583D01*
X271115D01*
X271223Y414704D01*
X271337Y414830D01*
X271455Y414962D01*
X271581Y415095D01*
X271831Y415363D01*
X271956Y415492D01*
X272075Y415617D01*
X272189Y415735D01*
X272293Y415843D01*
X272386Y415940D01*
X272429Y415982D01*
X272468Y416022D01*
X272504Y416058D01*
X272536Y416093D01*
X272565Y416118D01*
X272587Y416144D01*
X272604Y416161D01*
X272619Y416176D01*
X272626Y416183D01*
X272629Y416187D01*
X272701Y416258D01*
X272766Y416323D01*
X272826Y416383D01*
X272884Y416437D01*
X272934Y416487D01*
X272980Y416530D01*
X273023Y416573D01*
X273063Y416605D01*
X273095Y416638D01*
X273127Y416663D01*
X273149Y416684D01*
X273170Y416702D01*
X273184Y416713D01*
X273199Y416723D01*
X273202Y416731D01*
X273206D01*
X273277Y416784D01*
X273342Y416831D01*
X273403Y416867D01*
X273457Y416899D01*
X273499Y416920D01*
X273532Y416938D01*
X273553Y416946D01*
X273560Y416949D01*
X273621Y416970D01*
X273682Y416985D01*
X273743Y416999D01*
X273797Y417006D01*
X273847Y417010D01*
X273883Y417014D01*
X273897D01*
X273908D01*
X273911D01*
X273915D01*
X274001Y417010D01*
X274083Y416996D01*
X274162Y416978D01*
X274237Y416953D01*
X274309Y416924D01*
X274377Y416892D01*
X274441Y416860D01*
X274498Y416824D01*
X274552Y416788D01*
X274599Y416756D01*
X274638Y416723D01*
X274674Y416695D01*
X274702Y416670D01*
X274720Y416652D01*
X274735Y416638D01*
X274738Y416634D01*
X274803Y416562D01*
X274860Y416487D01*
X274906Y416412D01*
X274949Y416337D01*
X274985Y416258D01*
X275014Y416183D01*
X275039Y416111D01*
X275057Y416043D01*
X275071Y415979D01*
X275085Y415922D01*
X275093Y415868D01*
X275096Y415821D01*
X275100Y415786D01*
X275103Y415761D01*
Y415675D01*
X275096Y415617D01*
X275078Y415499D01*
X275053Y415392D01*
X275039Y415345D01*
X275025Y415299D01*
X275010Y415256D01*
X274996Y415216D01*
X274982Y415184D01*
X274971Y415156D01*
X274960Y415134D01*
X274953Y415116D01*
X274949Y415105D01*
X274946Y415102D01*
X274881Y414994D01*
X274813Y414898D01*
X274738Y414815D01*
X274706Y414776D01*
X274670Y414744D01*
X274638Y414715D01*
X274609Y414690D01*
X274581Y414669D01*
X274559Y414651D01*
X274538Y414636D01*
X274523Y414626D01*
X274516Y414622D01*
X274513Y414618D01*
X274463Y414590D01*
X274416Y414561D01*
X274330Y414518D01*
X274258Y414490D01*
X274198Y414468D01*
X274147Y414457D01*
X274112Y414450D01*
X274090Y414447D01*
X274087D01*
X274083D01*
X274047Y414454D01*
X274015Y414465D01*
X273997Y414475D01*
X273993Y414482D01*
X273990D01*
X273968Y414515D01*
X273958Y414547D01*
Y414558D01*
X273954Y414568D01*
Y414579D01*
X273958Y414615D01*
X273972Y414647D01*
X273983Y414665D01*
X273986Y414672D01*
X273997Y414683D01*
X274011Y414694D01*
X274047Y414712D01*
X274061Y414719D01*
X274076Y414722D01*
X274087Y414726D01*
X274090D01*
X274147Y414744D01*
X274201Y414765D01*
X274305Y414819D01*
X274391Y414876D01*
X274434Y414908D01*
X274470Y414941D01*
X274502Y414969D01*
X274531Y414998D01*
X274556Y415023D01*
X274573Y415044D01*
X274591Y415066D01*
X274602Y415080D01*
X274609Y415087D01*
X274613Y415091D01*
X274649Y415145D01*
X274685Y415202D01*
X274710Y415256D01*
X274735Y415313D01*
X274756Y415367D01*
X274774Y415420D01*
X274799Y415524D01*
X274806Y415571D01*
X274813Y415610D01*
X274817Y415650D01*
X274820Y415682D01*
X274824Y415707D01*
Y415743D01*
X274820Y415818D01*
X274813Y415889D01*
X274799Y415957D01*
X274781Y416025D01*
X274760Y416086D01*
X274735Y416144D01*
X274710Y416197D01*
X274685Y416244D01*
X274659Y416290D01*
X274634Y416326D01*
X274609Y416362D01*
X274588Y416391D01*
X274570Y416412D01*
X274556Y416426D01*
X274548Y416437D01*
X274545Y416441D01*
X274491Y416491D01*
X274437Y416537D01*
X274384Y416577D01*
X274330Y416609D01*
X274276Y416638D01*
X274223Y416663D01*
X274172Y416681D01*
X274122Y416698D01*
X274079Y416709D01*
X274037Y416720D01*
X274001Y416727D01*
X273968Y416731D01*
X273943D01*
X273925Y416734D01*
X273911D01*
X273908D01*
X273857Y416731D01*
X273811Y416727D01*
X273764Y416716D01*
X273725Y416709D01*
X273693Y416698D01*
X273664Y416688D01*
X273650Y416684D01*
X273643Y416681D01*
X273592Y416659D01*
X273539Y416630D01*
X273489Y416598D01*
X273439Y416566D01*
X273396Y416534D01*
X273363Y416512D01*
X273342Y416494D01*
X273338Y416487D01*
X273335D01*
X273299Y416459D01*
X273263Y416426D01*
X273220Y416387D01*
X273177Y416348D01*
X273088Y416262D01*
X273002Y416176D01*
X272959Y416136D01*
X272920Y416097D01*
X272884Y416065D01*
X272855Y416033D01*
X272830Y416008D01*
X272812Y415990D01*
X272798Y415975D01*
X272794Y415972D01*
X272501Y415667D01*
X272354Y415517D01*
X272214Y415370D01*
X272078Y415227D01*
X271949Y415091D01*
X271828Y414959D01*
X271713Y414837D01*
X271609Y414726D01*
X271516Y414622D01*
X271434Y414533D01*
X271394Y414493D01*
X271362Y414457D01*
X271334Y414425D01*
X271305Y414393D01*
X271283Y414371D01*
X271266Y414350D01*
X271251Y414332D01*
X271240Y414321D01*
X271233Y414314D01*
X271230Y414311D01*
X270818D01*
Y417017D01*
X271208D01*
X271240D01*
X271273Y417010D01*
D02*
G37*
G36*
X273392Y561445D02*
X273521Y561438D01*
X273582Y561431D01*
X273636Y561424D01*
X273689Y561417D01*
X273736Y561413D01*
X273779Y561406D01*
X273818Y561399D01*
X273850Y561392D01*
X273879Y561384D01*
X273900Y561381D01*
X273915Y561377D01*
X273925Y561374D01*
X273929D01*
X274004Y561352D01*
X274079Y561324D01*
X274155Y561299D01*
X274223Y561270D01*
X274284Y561245D01*
X274309Y561234D01*
X274330Y561223D01*
X274344Y561216D01*
X274359Y561209D01*
X274366Y561205D01*
X274369D01*
X274455Y561166D01*
X274531Y561127D01*
X274591Y561091D01*
X274641Y561059D01*
X274681Y561034D01*
X274706Y561012D01*
X274724Y560998D01*
X274727Y560994D01*
X274792Y560933D01*
X274846Y560873D01*
X274892Y560808D01*
X274932Y560751D01*
X274964Y560701D01*
X274985Y560658D01*
X274992Y560643D01*
X274999Y560633D01*
X275003Y560626D01*
Y560622D01*
X275035Y560539D01*
X275060Y560457D01*
X275078Y560382D01*
X275093Y560310D01*
X275100Y560246D01*
Y560221D01*
X275103Y560199D01*
Y560156D01*
X275100Y560063D01*
X275085Y559974D01*
X275064Y559888D01*
X275039Y559809D01*
X275007Y559734D01*
X274971Y559662D01*
X274935Y559598D01*
X274896Y559541D01*
X274856Y559487D01*
X274820Y559441D01*
X274785Y559401D01*
X274752Y559369D01*
X274727Y559344D01*
X274706Y559322D01*
X274692Y559312D01*
X274688Y559308D01*
X274584Y559233D01*
X274477Y559165D01*
X274359Y559107D01*
X274240Y559061D01*
X274122Y559018D01*
X274004Y558982D01*
X273886Y558954D01*
X273772Y558932D01*
X273668Y558914D01*
X273568Y558900D01*
X273478Y558893D01*
X273403Y558886D01*
X273371Y558882D01*
X273338D01*
X273313Y558878D01*
X273292D01*
X273274D01*
X273263D01*
X273256D01*
X273252D01*
X272562D01*
X272422Y558882D01*
X272297Y558889D01*
X272236Y558896D01*
X272182Y558904D01*
X272128Y558911D01*
X272082Y558918D01*
X272039Y558921D01*
X271999Y558928D01*
X271967Y558936D01*
X271939Y558943D01*
X271917Y558947D01*
X271903Y558950D01*
X271892Y558954D01*
X271888D01*
X271813Y558975D01*
X271734Y559000D01*
X271659Y559029D01*
X271591Y559054D01*
X271534Y559079D01*
X271509Y559090D01*
X271487Y559100D01*
X271470Y559107D01*
X271455Y559115D01*
X271448Y559118D01*
X271445D01*
X271359Y559161D01*
X271287Y559201D01*
X271226Y559236D01*
X271176Y559269D01*
X271137Y559294D01*
X271112Y559312D01*
X271094Y559326D01*
X271090Y559330D01*
X271026Y559390D01*
X270972Y559451D01*
X270925Y559516D01*
X270886Y559573D01*
X270854Y559623D01*
X270832Y559666D01*
X270825Y559680D01*
X270818Y559691D01*
X270814Y559698D01*
Y559702D01*
X270782Y559784D01*
X270757Y559867D01*
X270743Y559945D01*
X270728Y560017D01*
X270721Y560078D01*
Y560103D01*
X270718Y560124D01*
Y560167D01*
X270721Y560260D01*
X270736Y560350D01*
X270757Y560436D01*
X270782Y560514D01*
X270814Y560590D01*
X270847Y560661D01*
X270886Y560726D01*
X270925Y560783D01*
X270961Y560837D01*
X271001Y560883D01*
X271033Y560923D01*
X271065Y560955D01*
X271090Y560980D01*
X271112Y561001D01*
X271126Y561012D01*
X271129Y561016D01*
X271233Y561091D01*
X271341Y561159D01*
X271459Y561216D01*
X271577Y561266D01*
X271695Y561309D01*
X271813Y561341D01*
X271931Y561370D01*
X272042Y561395D01*
X272150Y561413D01*
X272247Y561427D01*
X272336Y561435D01*
X272411Y561442D01*
X272443Y561445D01*
X272476D01*
X272501Y561449D01*
X272522D01*
X272540D01*
X272551D01*
X272558D01*
X272562D01*
X273252D01*
X273392Y561445D01*
D02*
G37*
G36*
X271273Y557289D02*
X271294Y557285D01*
X271316Y557278D01*
X271330Y557271D01*
X271341Y557264D01*
X271344Y557260D01*
X271348Y557257D01*
X271362Y557242D01*
X271376Y557225D01*
X271387Y557192D01*
X271391Y557178D01*
X271394Y557167D01*
Y557157D01*
X271391Y557135D01*
X271387Y557114D01*
X271373Y557085D01*
X271355Y557063D01*
X271352Y557060D01*
X271348Y557056D01*
X271330Y557042D01*
X271308Y557035D01*
X271262Y557020D01*
X271240D01*
X271223Y557017D01*
X271212D01*
X271208D01*
X271097D01*
Y554862D01*
X271115D01*
X271223Y554983D01*
X271337Y555109D01*
X271455Y555241D01*
X271581Y555374D01*
X271831Y555642D01*
X271956Y555771D01*
X272075Y555896D01*
X272189Y556014D01*
X272293Y556122D01*
X272386Y556218D01*
X272429Y556261D01*
X272468Y556301D01*
X272504Y556337D01*
X272536Y556372D01*
X272565Y556397D01*
X272587Y556423D01*
X272604Y556440D01*
X272619Y556455D01*
X272626Y556462D01*
X272629Y556465D01*
X272701Y556537D01*
X272766Y556602D01*
X272826Y556662D01*
X272884Y556716D01*
X272934Y556766D01*
X272980Y556809D01*
X273023Y556852D01*
X273063Y556884D01*
X273095Y556917D01*
X273127Y556942D01*
X273149Y556963D01*
X273170Y556981D01*
X273184Y556992D01*
X273199Y557002D01*
X273202Y557010D01*
X273206D01*
X273277Y557063D01*
X273342Y557110D01*
X273403Y557146D01*
X273457Y557178D01*
X273499Y557199D01*
X273532Y557217D01*
X273553Y557225D01*
X273560Y557228D01*
X273621Y557249D01*
X273682Y557264D01*
X273743Y557278D01*
X273797Y557285D01*
X273847Y557289D01*
X273883Y557293D01*
X273897D01*
X273908D01*
X273911D01*
X273915D01*
X274001Y557289D01*
X274083Y557275D01*
X274162Y557257D01*
X274237Y557232D01*
X274309Y557203D01*
X274377Y557171D01*
X274441Y557139D01*
X274498Y557103D01*
X274552Y557067D01*
X274599Y557035D01*
X274638Y557002D01*
X274674Y556974D01*
X274702Y556949D01*
X274720Y556931D01*
X274735Y556917D01*
X274738Y556913D01*
X274803Y556841D01*
X274860Y556766D01*
X274906Y556691D01*
X274949Y556616D01*
X274985Y556537D01*
X275014Y556462D01*
X275039Y556390D01*
X275057Y556322D01*
X275071Y556258D01*
X275085Y556201D01*
X275093Y556147D01*
X275096Y556100D01*
X275100Y556065D01*
X275103Y556039D01*
Y555954D01*
X275096Y555896D01*
X275078Y555778D01*
X275053Y555671D01*
X275039Y555624D01*
X275025Y555578D01*
X275010Y555535D01*
X274996Y555495D01*
X274982Y555463D01*
X274971Y555435D01*
X274960Y555413D01*
X274953Y555395D01*
X274949Y555384D01*
X274946Y555381D01*
X274881Y555273D01*
X274813Y555177D01*
X274738Y555094D01*
X274706Y555055D01*
X274670Y555023D01*
X274638Y554994D01*
X274609Y554969D01*
X274581Y554948D01*
X274559Y554930D01*
X274538Y554915D01*
X274523Y554905D01*
X274516Y554901D01*
X274513Y554897D01*
X274463Y554869D01*
X274416Y554840D01*
X274330Y554797D01*
X274258Y554769D01*
X274198Y554747D01*
X274147Y554736D01*
X274112Y554729D01*
X274090Y554726D01*
X274087D01*
X274083D01*
X274047Y554733D01*
X274015Y554743D01*
X273997Y554754D01*
X273993Y554761D01*
X273990D01*
X273968Y554794D01*
X273958Y554826D01*
Y554837D01*
X273954Y554847D01*
Y554858D01*
X273958Y554894D01*
X273972Y554926D01*
X273983Y554944D01*
X273986Y554951D01*
X273997Y554962D01*
X274011Y554973D01*
X274047Y554990D01*
X274061Y554998D01*
X274076Y555001D01*
X274087Y555005D01*
X274090D01*
X274147Y555023D01*
X274201Y555044D01*
X274305Y555098D01*
X274391Y555155D01*
X274434Y555187D01*
X274470Y555220D01*
X274502Y555248D01*
X274531Y555277D01*
X274556Y555302D01*
X274573Y555324D01*
X274591Y555345D01*
X274602Y555359D01*
X274609Y555366D01*
X274613Y555370D01*
X274649Y555424D01*
X274685Y555481D01*
X274710Y555535D01*
X274735Y555592D01*
X274756Y555646D01*
X274774Y555699D01*
X274799Y555803D01*
X274806Y555850D01*
X274813Y555889D01*
X274817Y555929D01*
X274820Y555961D01*
X274824Y555986D01*
Y556022D01*
X274820Y556097D01*
X274813Y556168D01*
X274799Y556236D01*
X274781Y556304D01*
X274760Y556365D01*
X274735Y556423D01*
X274710Y556476D01*
X274685Y556523D01*
X274659Y556569D01*
X274634Y556605D01*
X274609Y556641D01*
X274588Y556670D01*
X274570Y556691D01*
X274556Y556705D01*
X274548Y556716D01*
X274545Y556720D01*
X274491Y556770D01*
X274437Y556816D01*
X274384Y556856D01*
X274330Y556888D01*
X274276Y556917D01*
X274223Y556942D01*
X274172Y556960D01*
X274122Y556978D01*
X274079Y556988D01*
X274037Y556999D01*
X274001Y557006D01*
X273968Y557010D01*
X273943D01*
X273925Y557013D01*
X273911D01*
X273908D01*
X273857Y557010D01*
X273811Y557006D01*
X273764Y556995D01*
X273725Y556988D01*
X273693Y556978D01*
X273664Y556967D01*
X273650Y556963D01*
X273643Y556960D01*
X273592Y556938D01*
X273539Y556909D01*
X273489Y556877D01*
X273439Y556845D01*
X273396Y556813D01*
X273363Y556791D01*
X273342Y556773D01*
X273338Y556766D01*
X273335D01*
X273299Y556738D01*
X273263Y556705D01*
X273220Y556666D01*
X273177Y556627D01*
X273088Y556541D01*
X273002Y556455D01*
X272959Y556415D01*
X272920Y556376D01*
X272884Y556344D01*
X272855Y556312D01*
X272830Y556286D01*
X272812Y556269D01*
X272798Y556254D01*
X272794Y556251D01*
X272501Y555946D01*
X272354Y555796D01*
X272214Y555649D01*
X272078Y555506D01*
X271949Y555370D01*
X271828Y555238D01*
X271713Y555116D01*
X271609Y555005D01*
X271516Y554901D01*
X271434Y554811D01*
X271394Y554772D01*
X271362Y554736D01*
X271334Y554704D01*
X271305Y554672D01*
X271283Y554650D01*
X271266Y554629D01*
X271251Y554611D01*
X271240Y554600D01*
X271233Y554593D01*
X271230Y554590D01*
X270818D01*
Y557296D01*
X271208D01*
X271240D01*
X271273Y557289D01*
D02*
G37*
G36*
X260979Y416878D02*
X261001Y416874D01*
X261029Y416860D01*
X261051Y416842D01*
X261058Y416838D01*
Y416834D01*
X261072Y416817D01*
X261079Y416795D01*
X261094Y416749D01*
Y416727D01*
X261097Y416709D01*
Y415735D01*
X265057D01*
X264652Y414454D01*
X264641Y414425D01*
X264631Y414400D01*
X264620Y414382D01*
X264613Y414368D01*
X264606Y414357D01*
X264598Y414350D01*
X264595Y414343D01*
X264563Y414325D01*
X264534Y414314D01*
X264509Y414311D01*
X264506D01*
X264502D01*
X264480Y414314D01*
X264462Y414318D01*
X264430Y414332D01*
X264409Y414343D01*
X264405Y414350D01*
X264402D01*
X264387Y414368D01*
X264380Y414382D01*
X264366Y414414D01*
X264362Y414436D01*
Y414454D01*
X264366Y414472D01*
X264373Y414504D01*
Y414518D01*
X264377Y414529D01*
X264380Y414536D01*
Y414540D01*
X264670Y415456D01*
X261097D01*
Y414461D01*
X261090Y414432D01*
X261087Y414407D01*
X261079Y414389D01*
X261072Y414371D01*
X261065Y414361D01*
X261062Y414357D01*
X261058Y414354D01*
X261044Y414339D01*
X261026Y414328D01*
X260994Y414318D01*
X260979Y414314D01*
X260968Y414311D01*
X260961D01*
X260958D01*
X260936Y414314D01*
X260915Y414318D01*
X260886Y414332D01*
X260865Y414346D01*
X260861Y414354D01*
X260857D01*
X260843Y414371D01*
X260836Y414393D01*
X260822Y414443D01*
Y414465D01*
X260818Y414479D01*
Y416695D01*
X260822Y416727D01*
X260825Y416759D01*
X260832Y416781D01*
X260840Y416802D01*
X260847Y416817D01*
X260850Y416827D01*
X260857Y416831D01*
Y416834D01*
X260872Y416849D01*
X260890Y416863D01*
X260922Y416874D01*
X260936Y416878D01*
X260947Y416881D01*
X260954D01*
X260958D01*
X260979Y416878D01*
D02*
G37*
G36*
X262977Y561410D02*
X263113Y561402D01*
X263245Y561392D01*
X263367Y561377D01*
X263485Y561359D01*
X263596Y561341D01*
X263700Y561320D01*
X263793Y561302D01*
X263879Y561281D01*
X263954Y561259D01*
X264019Y561241D01*
X264076Y561223D01*
X264119Y561209D01*
X264151Y561198D01*
X264169Y561191D01*
X264176Y561188D01*
X264258Y561155D01*
X264334Y561116D01*
X264409Y561080D01*
X264473Y561041D01*
X264534Y560998D01*
X264591Y560958D01*
X264641Y560919D01*
X264688Y560880D01*
X264731Y560844D01*
X264767Y560808D01*
X264795Y560779D01*
X264821Y560754D01*
X264838Y560729D01*
X264853Y560715D01*
X264860Y560704D01*
X264863Y560701D01*
X264906Y560643D01*
X264942Y560582D01*
X264974Y560522D01*
X265003Y560461D01*
X265024Y560400D01*
X265046Y560343D01*
X265060Y560289D01*
X265075Y560235D01*
X265082Y560189D01*
X265089Y560142D01*
X265096Y560106D01*
X265100Y560071D01*
X265103Y560042D01*
Y560006D01*
X265100Y559909D01*
X265085Y559816D01*
X265064Y559730D01*
X265039Y559648D01*
X265007Y559573D01*
X264971Y559501D01*
X264932Y559437D01*
X264892Y559380D01*
X264853Y559330D01*
X264813Y559283D01*
X264777Y559244D01*
X264745Y559211D01*
X264720Y559186D01*
X264699Y559168D01*
X264685Y559158D01*
X264681Y559154D01*
X264602Y559100D01*
X264520Y559050D01*
X264437Y559007D01*
X264355Y558972D01*
X264276Y558943D01*
X264198Y558918D01*
X264122Y558896D01*
X264054Y558878D01*
X263986Y558864D01*
X263929Y558857D01*
X263875Y558850D01*
X263829Y558843D01*
X263793D01*
X263764Y558839D01*
X263750D01*
X263743D01*
X263679Y558843D01*
X263614Y558846D01*
X263489Y558864D01*
X263374Y558889D01*
X263324Y558904D01*
X263274Y558918D01*
X263231Y558932D01*
X263192Y558947D01*
X263156Y558961D01*
X263127Y558972D01*
X263102Y558982D01*
X263084Y558989D01*
X263073Y558997D01*
X263070D01*
X263013Y559029D01*
X262955Y559061D01*
X262905Y559097D01*
X262859Y559133D01*
X262812Y559168D01*
X262773Y559204D01*
X262737Y559240D01*
X262705Y559272D01*
X262676Y559304D01*
X262651Y559337D01*
X262630Y559362D01*
X262612Y559383D01*
X262597Y559405D01*
X262587Y559419D01*
X262583Y559426D01*
X262579Y559430D01*
X262551Y559480D01*
X262526Y559534D01*
X262483Y559634D01*
X262454Y559727D01*
X262436Y559813D01*
X262429Y559852D01*
X262422Y559884D01*
X262418Y559917D01*
Y559942D01*
X262415Y559963D01*
Y559992D01*
X262418Y560049D01*
X262422Y560106D01*
X262443Y560217D01*
X262476Y560321D01*
X262493Y560368D01*
X262511Y560414D01*
X262526Y560454D01*
X262544Y560489D01*
X262561Y560522D01*
X262576Y560550D01*
X262587Y560572D01*
X262597Y560586D01*
X262601Y560597D01*
X262604Y560600D01*
X262644Y560658D01*
X262683Y560708D01*
X262776Y560808D01*
X262873Y560897D01*
X262966Y560973D01*
X263013Y561005D01*
X263052Y561034D01*
X263088Y561059D01*
X263120Y561080D01*
X263149Y561098D01*
X263166Y561109D01*
X263181Y561116D01*
X263184Y561120D01*
X263095Y561123D01*
X263016Y561127D01*
X262948D01*
X262891Y561130D01*
X262848D01*
X262816D01*
X262798D01*
X262791D01*
X262647Y561123D01*
X262515Y561109D01*
X262386Y561084D01*
X262264Y561052D01*
X262150Y561012D01*
X262046Y560969D01*
X261946Y560923D01*
X261860Y560876D01*
X261777Y560829D01*
X261709Y560783D01*
X261649Y560740D01*
X261598Y560701D01*
X261559Y560668D01*
X261530Y560643D01*
X261513Y560629D01*
X261505Y560622D01*
X261416Y560525D01*
X261337Y560425D01*
X261269Y560321D01*
X261212Y560217D01*
X261162Y560113D01*
X261119Y560013D01*
X261087Y559917D01*
X261058Y559824D01*
X261040Y559734D01*
X261022Y559655D01*
X261011Y559584D01*
X261004Y559523D01*
X261001Y559473D01*
X260997Y559437D01*
Y559405D01*
X261001Y559344D01*
X261008Y559286D01*
X261015Y559233D01*
X261029Y559190D01*
X261040Y559154D01*
X261047Y559126D01*
X261054Y559111D01*
X261058Y559104D01*
X261079Y559054D01*
X261090Y559018D01*
X261094Y559007D01*
Y558968D01*
X261087Y558950D01*
X261076Y558921D01*
X261062Y558900D01*
X261058Y558896D01*
X261054Y558893D01*
X261040Y558878D01*
X261026Y558871D01*
X260994Y558857D01*
X260972Y558853D01*
X260965D01*
X260961D01*
X260933Y558857D01*
X260908Y558868D01*
X260886Y558882D01*
X260865Y558896D01*
X260850Y558911D01*
X260840Y558925D01*
X260832Y558936D01*
X260829Y558939D01*
X260793Y559015D01*
X260764Y559097D01*
X260747Y559176D01*
X260732Y559254D01*
X260725Y559322D01*
X260721Y559351D01*
Y559376D01*
X260718Y559398D01*
Y559426D01*
X260721Y559512D01*
X260729Y559594D01*
X260736Y559677D01*
X260750Y559756D01*
X260764Y559831D01*
X260782Y559902D01*
X260804Y559970D01*
X260822Y560035D01*
X260840Y560092D01*
X260861Y560142D01*
X260879Y560189D01*
X260893Y560228D01*
X260908Y560257D01*
X260918Y560282D01*
X260922Y560296D01*
X260926Y560300D01*
X260990Y560411D01*
X261054Y560514D01*
X261122Y560611D01*
X261158Y560650D01*
X261190Y560690D01*
X261219Y560726D01*
X261248Y560758D01*
X261269Y560787D01*
X261291Y560808D01*
X261309Y560826D01*
X261323Y560840D01*
X261330Y560847D01*
X261334Y560851D01*
X261427Y560937D01*
X261520Y561012D01*
X261606Y561077D01*
X261684Y561130D01*
X261720Y561152D01*
X261752Y561170D01*
X261781Y561188D01*
X261803Y561198D01*
X261824Y561209D01*
X261838Y561216D01*
X261845Y561223D01*
X261849D01*
X261924Y561256D01*
X262003Y561288D01*
X262085Y561313D01*
X262171Y561334D01*
X262336Y561367D01*
X262415Y561381D01*
X262490Y561388D01*
X262561Y561399D01*
X262630Y561402D01*
X262687Y561406D01*
X262737Y561410D01*
X262780Y561413D01*
X262812D01*
X262830D01*
X262837D01*
X262977Y561410D01*
D02*
G37*
G36*
X260979Y557157D02*
X261001Y557153D01*
X261029Y557139D01*
X261051Y557121D01*
X261058Y557117D01*
Y557114D01*
X261072Y557096D01*
X261079Y557074D01*
X261094Y557028D01*
Y557006D01*
X261097Y556988D01*
Y556014D01*
X265057D01*
X264652Y554733D01*
X264641Y554704D01*
X264631Y554679D01*
X264620Y554661D01*
X264613Y554647D01*
X264606Y554636D01*
X264598Y554629D01*
X264595Y554622D01*
X264563Y554604D01*
X264534Y554593D01*
X264509Y554590D01*
X264506D01*
X264502D01*
X264480Y554593D01*
X264462Y554597D01*
X264430Y554611D01*
X264409Y554622D01*
X264405Y554629D01*
X264402D01*
X264387Y554647D01*
X264380Y554661D01*
X264366Y554693D01*
X264362Y554715D01*
Y554733D01*
X264366Y554751D01*
X264373Y554783D01*
Y554797D01*
X264377Y554808D01*
X264380Y554815D01*
Y554819D01*
X264670Y555735D01*
X261097D01*
Y554740D01*
X261090Y554711D01*
X261087Y554686D01*
X261079Y554668D01*
X261072Y554650D01*
X261065Y554640D01*
X261062Y554636D01*
X261058Y554633D01*
X261044Y554618D01*
X261026Y554607D01*
X260994Y554597D01*
X260979Y554593D01*
X260968Y554590D01*
X260961D01*
X260958D01*
X260936Y554593D01*
X260915Y554597D01*
X260886Y554611D01*
X260865Y554625D01*
X260861Y554633D01*
X260857D01*
X260843Y554650D01*
X260836Y554672D01*
X260822Y554722D01*
Y554743D01*
X260818Y554758D01*
Y556974D01*
X260822Y557006D01*
X260825Y557038D01*
X260832Y557060D01*
X260840Y557081D01*
X260847Y557096D01*
X260850Y557106D01*
X260857Y557110D01*
Y557114D01*
X260872Y557128D01*
X260890Y557142D01*
X260922Y557153D01*
X260936Y557157D01*
X260947Y557160D01*
X260954D01*
X260958D01*
X260979Y557157D01*
D02*
G37*
%LPC*%
G36*
X273285Y561170D02*
X273256D01*
X273235D01*
X273220D01*
X273217D01*
X272601D01*
X272483Y561166D01*
X272368Y561159D01*
X272261Y561145D01*
X272153Y561127D01*
X272057Y561109D01*
X271964Y561084D01*
X271878Y561062D01*
X271799Y561037D01*
X271727Y561012D01*
X271663Y560987D01*
X271609Y560962D01*
X271563Y560944D01*
X271527Y560926D01*
X271498Y560912D01*
X271484Y560905D01*
X271477Y560901D01*
X271391Y560851D01*
X271319Y560794D01*
X271255Y560736D01*
X271198Y560676D01*
X271151Y560615D01*
X271112Y560554D01*
X271079Y560493D01*
X271054Y560436D01*
X271036Y560382D01*
X271022Y560328D01*
X271011Y560285D01*
X271004Y560246D01*
X271001Y560214D01*
X270997Y560189D01*
Y560167D01*
X271001Y560081D01*
X271015Y559999D01*
X271033Y559927D01*
X271058Y559863D01*
X271079Y559809D01*
X271087Y559788D01*
X271097Y559770D01*
X271104Y559756D01*
X271112Y559745D01*
X271115Y559741D01*
Y559738D01*
X271147Y559691D01*
X271180Y559648D01*
X271215Y559609D01*
X271244Y559580D01*
X271273Y559555D01*
X271294Y559537D01*
X271308Y559526D01*
X271312Y559523D01*
X271394Y559469D01*
X271484Y559423D01*
X271573Y559380D01*
X271663Y559344D01*
X271702Y559326D01*
X271742Y559312D01*
X271774Y559297D01*
X271803Y559290D01*
X271828Y559279D01*
X271846Y559272D01*
X271856Y559269D01*
X271860D01*
X271989Y559233D01*
X272121Y559204D01*
X272247Y559186D01*
X272304Y559179D01*
X272361Y559172D01*
X272411Y559168D01*
X272458Y559165D01*
X272497Y559161D01*
X272533D01*
X272562Y559158D01*
X272583D01*
X272597D01*
X272601D01*
X273217D01*
X273335Y559161D01*
X273449Y559168D01*
X273557Y559179D01*
X273661Y559197D01*
X273761Y559219D01*
X273854Y559240D01*
X273940Y559265D01*
X274019Y559290D01*
X274090Y559315D01*
X274151Y559337D01*
X274205Y559362D01*
X274251Y559380D01*
X274287Y559398D01*
X274316Y559412D01*
X274330Y559419D01*
X274337Y559423D01*
X274423Y559476D01*
X274498Y559530D01*
X274563Y559591D01*
X274616Y559652D01*
X274663Y559713D01*
X274702Y559773D01*
X274735Y559834D01*
X274763Y559892D01*
X274781Y559945D01*
X274799Y559999D01*
X274810Y560042D01*
X274817Y560081D01*
X274820Y560113D01*
X274824Y560139D01*
Y560160D01*
X274820Y560246D01*
X274806Y560325D01*
X274785Y560400D01*
X274763Y560461D01*
X274742Y560514D01*
X274731Y560536D01*
X274720Y560554D01*
X274713Y560568D01*
X274706Y560579D01*
X274702Y560582D01*
Y560586D01*
X274670Y560636D01*
X274634Y560679D01*
X274602Y560715D01*
X274570Y560747D01*
X274541Y560772D01*
X274520Y560790D01*
X274505Y560801D01*
X274502Y560805D01*
X274419Y560855D01*
X274330Y560901D01*
X274240Y560944D01*
X274151Y560984D01*
X274112Y560998D01*
X274072Y561012D01*
X274040Y561026D01*
X274011Y561037D01*
X273986Y561044D01*
X273968Y561052D01*
X273958Y561055D01*
X273954D01*
X273825Y561094D01*
X273696Y561123D01*
X273571Y561141D01*
X273514Y561148D01*
X273457Y561155D01*
X273406Y561159D01*
X273360Y561163D01*
X273321Y561166D01*
X273285Y561170D01*
D02*
G37*
G36*
X263657Y561066D02*
X263653D01*
X263582Y561030D01*
X263517Y560994D01*
X263460Y560962D01*
X263406Y560930D01*
X263356Y560901D01*
X263313Y560876D01*
X263274Y560851D01*
X263242Y560829D01*
X263210Y560812D01*
X263184Y560794D01*
X263166Y560779D01*
X263149Y560769D01*
X263134Y560758D01*
X263127Y560754D01*
X263124Y560747D01*
X263120D01*
X263045Y560683D01*
X262980Y560618D01*
X262923Y560557D01*
X262880Y560504D01*
X262844Y560457D01*
X262819Y560418D01*
X262808Y560403D01*
X262801Y560393D01*
X262798Y560389D01*
Y560386D01*
X262762Y560314D01*
X262737Y560242D01*
X262719Y560178D01*
X262708Y560117D01*
X262701Y560067D01*
X262694Y560028D01*
Y559995D01*
X262698Y559931D01*
X262708Y559870D01*
X262723Y559813D01*
X262740Y559756D01*
X262787Y559652D01*
X262816Y559605D01*
X262844Y559562D01*
X262869Y559523D01*
X262898Y559491D01*
X262923Y559458D01*
X262945Y559433D01*
X262963Y559415D01*
X262977Y559398D01*
X262987Y559390D01*
X262991Y559387D01*
X263048Y559340D01*
X263109Y559297D01*
X263174Y559262D01*
X263238Y559233D01*
X263299Y559204D01*
X263363Y559183D01*
X263424Y559165D01*
X263485Y559151D01*
X263539Y559140D01*
X263589Y559133D01*
X263635Y559126D01*
X263675Y559122D01*
X263707D01*
X263729Y559118D01*
X263747D01*
X263750D01*
X263836Y559122D01*
X263918Y559129D01*
X263997Y559143D01*
X264069Y559161D01*
X264137Y559179D01*
X264201Y559204D01*
X264258Y559229D01*
X264312Y559254D01*
X264359Y559279D01*
X264402Y559301D01*
X264437Y559326D01*
X264466Y559344D01*
X264488Y559362D01*
X264506Y559376D01*
X264516Y559383D01*
X264520Y559387D01*
X264574Y559441D01*
X264620Y559491D01*
X264659Y559544D01*
X264695Y559598D01*
X264724Y559652D01*
X264749Y559705D01*
X264770Y559756D01*
X264785Y559802D01*
X264799Y559845D01*
X264810Y559888D01*
X264813Y559924D01*
X264821Y559952D01*
Y559977D01*
X264824Y559999D01*
Y560013D01*
X264821Y560078D01*
X264813Y560142D01*
X264803Y560199D01*
X264785Y560257D01*
X264767Y560310D01*
X264745Y560360D01*
X264724Y560407D01*
X264702Y560450D01*
X264677Y560489D01*
X264656Y560525D01*
X264634Y560554D01*
X264616Y560579D01*
X264598Y560600D01*
X264588Y560615D01*
X264581Y560622D01*
X264577Y560626D01*
X264527Y560676D01*
X264466Y560722D01*
X264402Y560765D01*
X264330Y560805D01*
X264255Y560844D01*
X264180Y560880D01*
X264026Y560944D01*
X263951Y560973D01*
X263882Y560998D01*
X263818Y561016D01*
X263764Y561034D01*
X263718Y561048D01*
X263682Y561059D01*
X263661Y561062D01*
X263657Y561066D01*
D02*
G37*
%LPD*%
D11*
X133820Y721326D02*
G03*
X133820Y721326I-591J0D01*
G01*
D02*
G03*
X133820Y721326I-591J0D01*
G01*
X134070Y546169D02*
G03*
X134070Y546169I-591J0D01*
G01*
D02*
G03*
X134070Y546169I-591J0D01*
G01*
X133570Y603326D02*
G03*
X133570Y603326I-591J0D01*
G01*
D02*
G03*
X133570Y603326I-591J0D01*
G01*
X134570Y424168D02*
G03*
X134570Y424168I-591J0D01*
G01*
D02*
G03*
X134570Y424168I-591J0D01*
G01*
X230027Y533576D02*
G03*
X230027Y533576I-394J0D01*
G01*
Y460976D02*
G03*
X230027Y460976I-394J0D01*
G01*
X119755Y21028D02*
G03*
X119755Y21028I-394J0D01*
G01*
X167374Y374294D02*
G03*
X167374Y374294I-394J0D01*
G01*
X11444Y140586D02*
G03*
X11444Y140586I-394J0D01*
G01*
Y185271D02*
G03*
X11444Y185271I-394J0D01*
G01*
Y229267D02*
G03*
X11444Y229267I-394J0D01*
G01*
Y272771D02*
G03*
X11444Y272771I-394J0D01*
G01*
X168066Y16752D02*
X198066D01*
X168066D02*
Y26752D01*
X198066D01*
Y16752D02*
Y26752D01*
X121920Y3016D02*
Y25535D01*
X149440Y3016D02*
Y25535D01*
X121920Y3016D02*
X127845D01*
X143515D02*
X149440D01*
X143515Y25535D02*
X149440D01*
X121920D02*
X127845D01*
X171488Y365810D02*
Y371735D01*
Y344216D02*
Y350141D01*
X148968Y344216D02*
Y350141D01*
Y365810D02*
Y371735D01*
Y344216D02*
X171488D01*
X148968Y371735D02*
X171488D01*
D12*
X152915Y696476D02*
G03*
X152915Y696476I-19685J0D01*
G01*
X153165Y521318D02*
G03*
X153165Y521318I-19685J0D01*
G01*
X152665Y578476D02*
G03*
X152665Y578476I-19685J0D01*
G01*
X153665Y399318D02*
G03*
X153665Y399318I-19685J0D01*
G01*
X200696Y697949D02*
Y719602D01*
X184948Y697949D02*
Y719602D01*
X189279D01*
X196365D02*
X200696D01*
X184948Y697949D02*
X189279D01*
X196365D02*
X200696D01*
X226740Y524087D02*
Y543103D01*
X189220D02*
X226740D01*
X189220Y524087D02*
Y543103D01*
Y524087D02*
X226740D01*
Y451487D02*
Y470503D01*
X189220D02*
X226740D01*
X189220Y451487D02*
Y470503D01*
Y451487D02*
X226740D01*
D13*
X289992Y556383D02*
Y719768D01*
X211252Y556383D02*
Y719768D01*
Y556383D02*
X289992D01*
X211252Y719768D02*
X289992D01*
X167972Y4843D02*
Y14842D01*
Y4843D02*
X197972D01*
Y14842D01*
X167972D02*
X197972D01*
X118480Y730876D02*
X138480D01*
X118480D02*
Y740876D01*
X138480D01*
Y730876D02*
Y740876D01*
X74480Y730876D02*
X94480D01*
X74480D02*
Y740876D01*
X94480D01*
Y730876D02*
Y740876D01*
X1523Y137692D02*
X20539D01*
X1523Y100172D02*
Y137692D01*
Y100172D02*
X20539D01*
Y137692D01*
X1523Y182377D02*
X20539D01*
X1523Y144858D02*
Y182377D01*
Y144858D02*
X20539D01*
Y182377D01*
X1523Y226373D02*
X20539D01*
X1523Y188854D02*
Y226373D01*
Y188854D02*
X20539D01*
Y226373D01*
X1523Y269877D02*
X20539D01*
X1523Y232358D02*
Y269877D01*
Y232358D02*
X20539D01*
Y269877D01*
X164480Y461976D02*
X177480D01*
X164480D02*
Y544976D01*
X177480D01*
Y461976D02*
Y544976D01*
X164480Y636476D02*
X177480D01*
X164480D02*
Y719476D01*
X177480D01*
Y636476D02*
Y719476D01*
X164480Y549476D02*
X177480D01*
X164480D02*
Y632476D01*
X177480D01*
Y549476D02*
Y632476D01*
X65423Y686976D02*
X106880D01*
X59951Y595519D02*
Y678432D01*
X6880Y660263D02*
Y719476D01*
Y660263D02*
X53770D01*
Y613688D02*
Y660263D01*
X6880Y613688D02*
X53770D01*
X6880Y554476D02*
Y613688D01*
Y554476D02*
X106880D01*
Y586976D01*
X65423D02*
X106880D01*
Y686976D02*
Y719476D01*
X6880D02*
X106880D01*
X80180Y616476D02*
Y657476D01*
X61680Y616476D02*
X80180D01*
X61680D02*
Y657476D01*
X80180D01*
X65423Y518476D02*
X106880D01*
X59951Y427019D02*
Y509932D01*
X6880Y491763D02*
Y550976D01*
Y491763D02*
X53770D01*
Y445188D02*
Y491763D01*
X6880Y445188D02*
X53770D01*
X6880Y385976D02*
Y445188D01*
Y385976D02*
X106880D01*
Y418476D01*
X65423D02*
X106880D01*
Y518476D02*
Y550976D01*
X6880D02*
X106880D01*
X80180Y447976D02*
Y488976D01*
X61680Y447976D02*
X80180D01*
X61680D02*
Y488976D01*
X80180D01*
D16*
X190934Y333188D02*
X236603D01*
Y362715D01*
X190934D02*
X236603D01*
X190934Y333188D02*
Y362715D01*
X160574Y729627D02*
X159574Y730627D01*
Y732626D01*
X160574Y733626D01*
X164572D01*
X165572Y732626D01*
Y730627D01*
X164572Y729627D01*
X160574Y727628D02*
X159574Y726628D01*
Y724628D01*
X160574Y723629D01*
X161573D01*
X162573Y724628D01*
Y725628D01*
Y724628D01*
X163573Y723629D01*
X164572D01*
X165572Y724628D01*
Y726628D01*
X164572Y727628D01*
X160574Y721629D02*
X159574Y720630D01*
Y718630D01*
X160574Y717631D01*
X161573D01*
X162573Y718630D01*
Y719630D01*
Y718630D01*
X163573Y717631D01*
X164572D01*
X165572Y718630D01*
Y720630D01*
X164572Y721629D01*
X218374Y658927D02*
X217374Y659927D01*
Y661926D01*
X218374Y662926D01*
X222372D01*
X223372Y661926D01*
Y659927D01*
X222372Y658927D01*
X218374Y656927D02*
X217374Y655928D01*
Y653929D01*
X218374Y652929D01*
X219373D01*
X220373Y653929D01*
Y654928D01*
Y653929D01*
X221373Y652929D01*
X222372D01*
X223372Y653929D01*
Y655928D01*
X222372Y656927D01*
X223372Y650929D02*
Y648930D01*
Y649930D01*
X217374D01*
X218374Y650929D01*
D17*
X163291Y22540D02*
X160143D01*
Y20966D01*
X160668Y20441D01*
X161717D01*
X162242Y20966D01*
Y22540D01*
X163291Y19392D02*
Y18342D01*
Y18867D01*
X160143D01*
X160668Y19392D01*
X160143Y14669D02*
Y16768D01*
X161717D01*
X161192Y15718D01*
Y15193D01*
X161717Y14669D01*
X162767D01*
X163291Y15193D01*
Y16243D01*
X162767Y16768D01*
D18*
X235165Y360845D02*
Y358221D01*
X234640Y357696D01*
X233591D01*
X233066Y358221D01*
Y360845D01*
X232017Y357696D02*
X230967D01*
X231492D01*
Y360845D01*
X232017Y360320D01*
X227294Y357696D02*
X229393D01*
X227294Y359795D01*
Y360320D01*
X227818Y360845D01*
X228868D01*
X229393Y360320D01*
X296159Y568999D02*
X297209D01*
X296684D01*
Y566375D01*
X297209Y565850D01*
X297733D01*
X298258Y566375D01*
X295110Y565850D02*
X294060D01*
X294585D01*
Y568999D01*
X295110Y568474D01*
X290387Y568999D02*
X291436Y568474D01*
X292486Y567425D01*
Y566375D01*
X291961Y565850D01*
X290912D01*
X290387Y566375D01*
Y566900D01*
X290912Y567425D01*
X292486D01*
X127039Y664014D02*
X126514Y663490D01*
X125464D01*
X124940Y664014D01*
Y666114D01*
X125464Y666638D01*
X126514D01*
X127039Y666114D01*
X128088Y663490D02*
X130187D01*
Y664014D01*
X128088Y666114D01*
Y666638D01*
X131237D02*
X132286D01*
X131762D01*
Y663490D01*
X131237Y664014D01*
X133861Y667163D02*
X135960D01*
X138583Y663490D02*
X137534D01*
X137009Y664014D01*
Y666114D01*
X137534Y666638D01*
X138583D01*
X139108Y666114D01*
Y664014D01*
X138583Y663490D01*
X140158Y666638D02*
Y663490D01*
X141732D01*
X142257Y664014D01*
Y665064D01*
X141732Y665589D01*
X140158D01*
X143306Y666638D02*
Y664539D01*
X144356Y663490D01*
X145405Y664539D01*
Y666638D01*
Y665064D01*
X143306D01*
X148554Y663490D02*
X146455D01*
Y665064D01*
X147504Y664539D01*
X148029D01*
X148554Y665064D01*
Y666114D01*
X148029Y666638D01*
X146980D01*
X146455Y666114D01*
X151178Y666638D02*
Y663490D01*
X149603Y665064D01*
X151702D01*
X152752Y664014D02*
X153277Y663490D01*
X154326D01*
X154851Y664014D01*
Y664539D01*
X154326Y665064D01*
X154851Y665589D01*
Y666114D01*
X154326Y666638D01*
X153277D01*
X152752Y666114D01*
Y665589D01*
X153277Y665064D01*
X152752Y664539D01*
Y664014D01*
X153277Y665064D02*
X154326D01*
X158000Y666638D02*
X155901D01*
X158000Y664539D01*
Y664014D01*
X157475Y663490D01*
X156425D01*
X155901Y664014D01*
X126814Y488857D02*
X126289Y488332D01*
X125239D01*
X124715Y488857D01*
Y490956D01*
X125239Y491481D01*
X126289D01*
X126814Y490956D01*
X127863Y488332D02*
X129962D01*
Y488857D01*
X127863Y490956D01*
Y491481D01*
X131012D02*
X132061D01*
X131537D01*
Y488332D01*
X131012Y488857D01*
X133636Y492006D02*
X135735D01*
X138358Y488332D02*
X137309D01*
X136784Y488857D01*
Y490956D01*
X137309Y491481D01*
X138358D01*
X138883Y490956D01*
Y488857D01*
X138358Y488332D01*
X139933Y491481D02*
Y488332D01*
X141507D01*
X142032Y488857D01*
Y489907D01*
X141507Y490431D01*
X139933D01*
X143081Y491481D02*
Y489382D01*
X144131Y488332D01*
X145180Y489382D01*
Y491481D01*
Y489907D01*
X143081D01*
X148329Y488332D02*
X146230D01*
Y489907D01*
X147280Y489382D01*
X147804D01*
X148329Y489907D01*
Y490956D01*
X147804Y491481D01*
X146755D01*
X146230Y490956D01*
X150953Y491481D02*
Y488332D01*
X149379Y489907D01*
X151478D01*
X152527Y488857D02*
X153052Y488332D01*
X154101D01*
X154626Y488857D01*
Y489382D01*
X154101Y489907D01*
X154626Y490431D01*
Y490956D01*
X154101Y491481D01*
X153052D01*
X152527Y490956D01*
Y490431D01*
X153052Y489907D01*
X152527Y489382D01*
Y488857D01*
X153052Y489907D02*
X154101D01*
X155676Y491481D02*
X156725D01*
X156201D01*
Y488332D01*
X155676Y488857D01*
X127026Y546014D02*
X126501Y545490D01*
X125452D01*
X124927Y546014D01*
Y548114D01*
X125452Y548638D01*
X126501D01*
X127026Y548114D01*
X128076Y545490D02*
X130175D01*
Y546014D01*
X128076Y548114D01*
Y548638D01*
X131224Y546014D02*
X131749Y545490D01*
X132799D01*
X133323Y546014D01*
Y548114D01*
X132799Y548638D01*
X131749D01*
X131224Y548114D01*
Y546014D01*
X134373Y549163D02*
X136472D01*
X139096Y545490D02*
X138046D01*
X137521Y546014D01*
Y548114D01*
X138046Y548638D01*
X139096D01*
X139620Y548114D01*
Y546014D01*
X139096Y545490D01*
X140670Y548638D02*
Y545490D01*
X142244D01*
X142769Y546014D01*
Y547064D01*
X142244Y547589D01*
X140670D01*
X143818Y548638D02*
Y546539D01*
X144868Y545490D01*
X145918Y546539D01*
Y548638D01*
Y547064D01*
X143818D01*
X149066Y545490D02*
X146967D01*
Y547064D01*
X148017Y546539D01*
X148541D01*
X149066Y547064D01*
Y548114D01*
X148541Y548638D01*
X147492D01*
X146967Y548114D01*
X151690Y548638D02*
Y545490D01*
X150116Y547064D01*
X152215D01*
X153264Y546014D02*
X153789Y545490D01*
X154839D01*
X155363Y546014D01*
Y546539D01*
X154839Y547064D01*
X155363Y547589D01*
Y548114D01*
X154839Y548638D01*
X153789D01*
X153264Y548114D01*
Y547589D01*
X153789Y547064D01*
X153264Y546539D01*
Y546014D01*
X153789Y547064D02*
X154839D01*
X158512Y548638D02*
X156413D01*
X158512Y546539D01*
Y546014D01*
X157987Y545490D01*
X156938D01*
X156413Y546014D01*
X127551Y366857D02*
X127026Y366332D01*
X125977D01*
X125452Y366857D01*
Y368956D01*
X125977Y369481D01*
X127026D01*
X127551Y368956D01*
X128601Y366332D02*
X130700D01*
Y366857D01*
X128601Y368956D01*
Y369481D01*
X131749Y366857D02*
X132274Y366332D01*
X133324D01*
X133848Y366857D01*
Y368956D01*
X133324Y369481D01*
X132274D01*
X131749Y368956D01*
Y366857D01*
X134898Y370006D02*
X136997D01*
X139621Y366332D02*
X138571D01*
X138046Y366857D01*
Y368956D01*
X138571Y369481D01*
X139621D01*
X140146Y368956D01*
Y366857D01*
X139621Y366332D01*
X141195Y369481D02*
Y366332D01*
X142769D01*
X143294Y366857D01*
Y367906D01*
X142769Y368431D01*
X141195D01*
X144344Y369481D02*
Y367382D01*
X145393Y366332D01*
X146443Y367382D01*
Y369481D01*
Y367906D01*
X144344D01*
X149591Y366332D02*
X147492D01*
Y367906D01*
X148542Y367382D01*
X149066D01*
X149591Y367906D01*
Y368956D01*
X149066Y369481D01*
X148017D01*
X147492Y368956D01*
X152215Y369481D02*
Y366332D01*
X150641Y367906D01*
X152740D01*
X153789Y366857D02*
X154314Y366332D01*
X155364D01*
X155888Y366857D01*
Y367382D01*
X155364Y367906D01*
X155888Y368431D01*
Y368956D01*
X155364Y369481D01*
X154314D01*
X153789Y368956D01*
Y368431D01*
X154314Y367906D01*
X153789Y367382D01*
Y366857D01*
X154314Y367906D02*
X155364D01*
X156938Y369481D02*
X157987D01*
X157463D01*
Y366332D01*
X156938Y366857D01*
X125191Y-6848D02*
X124141D01*
X124666D01*
Y-4224D01*
X124141Y-3699D01*
X123616D01*
X123092Y-4224D01*
X126240Y-3699D02*
X127290D01*
X126765D01*
Y-6848D01*
X126240Y-6323D01*
X130963Y-6848D02*
X128864D01*
Y-5273D01*
X129914Y-5798D01*
X130438D01*
X130963Y-5273D01*
Y-4224D01*
X130438Y-3699D01*
X129389D01*
X128864Y-4224D01*
X139104Y368465D02*
Y369514D01*
Y368989D01*
X141728D01*
X142253Y369514D01*
Y370039D01*
X141728Y370564D01*
X142253Y367415D02*
Y366366D01*
Y366890D01*
X139104D01*
X139629Y367415D01*
Y364791D02*
X139104Y364267D01*
Y363217D01*
X139629Y362692D01*
X140154D01*
X140679Y363217D01*
Y363742D01*
Y363217D01*
X141204Y362692D01*
X141728D01*
X142253Y363217D01*
Y364267D01*
X141728Y364791D01*
X182942Y527554D02*
X179794D01*
Y525979D01*
X180319Y525454D01*
X181368D01*
X181893Y525979D01*
Y527554D01*
Y526504D02*
X182942Y525454D01*
Y524405D02*
Y523355D01*
Y523880D01*
X179794D01*
X180319Y524405D01*
X179794Y519682D02*
Y521781D01*
X181368D01*
X180843Y520731D01*
Y520207D01*
X181368Y519682D01*
X182418D01*
X182942Y520207D01*
Y521256D01*
X182418Y521781D01*
X183467Y518633D02*
Y516533D01*
X179794Y513385D02*
X182942D01*
Y514959D01*
X182418Y515484D01*
X181368D01*
X180843Y514959D01*
Y513385D01*
Y510236D02*
Y511811D01*
X181368Y512335D01*
X182418D01*
X182942Y511811D01*
Y510236D01*
Y509187D02*
Y507612D01*
X182418Y507088D01*
X181893Y507612D01*
Y508662D01*
X181368Y509187D01*
X180843Y508662D01*
Y507088D01*
X179794Y506038D02*
X182942D01*
X181368D01*
X180843Y505513D01*
Y504464D01*
X181368Y503939D01*
X182942D01*
Y502890D02*
Y501840D01*
Y502365D01*
X180843D01*
Y502890D01*
X182942Y499741D02*
X180319D01*
X181368D01*
Y500266D01*
Y499216D01*
Y499741D01*
X180319D01*
X179794Y499216D01*
X180319Y497117D02*
X180843D01*
Y497642D01*
Y496592D01*
Y497117D01*
X182418D01*
X182942Y496592D01*
Y492919D02*
Y495018D01*
X180843Y492919D01*
X180319D01*
X179794Y493444D01*
Y494493D01*
X180319Y495018D01*
X182942Y455428D02*
X179794D01*
Y453854D01*
X180319Y453329D01*
X181368D01*
X181893Y453854D01*
Y455428D01*
Y454379D02*
X182942Y453329D01*
Y452280D02*
Y451230D01*
Y451755D01*
X179794D01*
X180319Y452280D01*
X179794Y447557D02*
Y449656D01*
X181368D01*
X180843Y448606D01*
Y448082D01*
X181368Y447557D01*
X182418D01*
X182942Y448082D01*
Y449131D01*
X182418Y449656D01*
X183467Y446507D02*
Y444408D01*
X179794Y441260D02*
X182942D01*
Y442834D01*
X182418Y443359D01*
X181368D01*
X180843Y442834D01*
Y441260D01*
Y438111D02*
Y439685D01*
X181368Y440210D01*
X182418D01*
X182942Y439685D01*
Y438111D01*
Y437062D02*
Y435487D01*
X182418Y434963D01*
X181893Y435487D01*
Y436537D01*
X181368Y437062D01*
X180843Y436537D01*
Y434963D01*
X179794Y433913D02*
X182942D01*
X181368D01*
X180843Y433388D01*
Y432339D01*
X181368Y431814D01*
X182942D01*
Y430764D02*
Y429715D01*
Y430240D01*
X180843D01*
Y430764D01*
X182942Y427616D02*
X180319D01*
X181368D01*
Y428141D01*
Y427091D01*
Y427616D01*
X180319D01*
X179794Y427091D01*
X180319Y424992D02*
X180843D01*
Y425517D01*
Y424467D01*
Y424992D01*
X182418D01*
X182942Y424467D01*
Y422893D02*
Y421843D01*
Y422368D01*
X179794D01*
X180319Y422893D01*
X22739Y545090D02*
Y547714D01*
X23264Y548238D01*
X24314D01*
X24838Y547714D01*
Y545090D01*
X25888Y548238D02*
X26937D01*
X26413D01*
Y545090D01*
X25888Y545614D01*
X28512Y547714D02*
X29037Y548238D01*
X30086D01*
X30611Y547714D01*
Y545614D01*
X30086Y545090D01*
X29037D01*
X28512Y545614D01*
Y546139D01*
X29037Y546664D01*
X30611D01*
X31660Y548763D02*
X33759D01*
X34809D02*
X36908D01*
X39532Y545090D02*
X38482D01*
X37958Y545614D01*
Y547714D01*
X38482Y548238D01*
X39532D01*
X40057Y547714D01*
Y545614D01*
X39532Y545090D01*
X41106Y548238D02*
Y545090D01*
X42680D01*
X43205Y545614D01*
Y546664D01*
X42680Y547189D01*
X41106D01*
X44255Y548238D02*
Y546139D01*
X45304Y545090D01*
X46354Y546139D01*
Y548238D01*
Y546664D01*
X44255D01*
X49502Y545090D02*
X47403D01*
Y546664D01*
X48453Y546139D01*
X48978D01*
X49502Y546664D01*
Y547714D01*
X48978Y548238D01*
X47928D01*
X47403Y547714D01*
X52126Y548238D02*
Y545090D01*
X50552Y546664D01*
X52651D01*
X53700Y545614D02*
X54225Y545090D01*
X55275D01*
X55800Y545614D01*
Y546139D01*
X55275Y546664D01*
X55800Y547189D01*
Y547714D01*
X55275Y548238D01*
X54225D01*
X53700Y547714D01*
Y547189D01*
X54225Y546664D01*
X53700Y546139D01*
Y545614D01*
X54225Y546664D02*
X55275D01*
X58948Y548238D02*
X56849D01*
X58948Y546139D01*
Y545614D01*
X58423Y545090D01*
X57374D01*
X56849Y545614D01*
X22739Y376590D02*
Y379214D01*
X23264Y379738D01*
X24314D01*
X24838Y379214D01*
Y376590D01*
X25888Y379738D02*
X26937D01*
X26413D01*
Y376590D01*
X25888Y377115D01*
X28512Y379214D02*
X29037Y379738D01*
X30086D01*
X30611Y379214D01*
Y377115D01*
X30086Y376590D01*
X29037D01*
X28512Y377115D01*
Y377639D01*
X29037Y378164D01*
X30611D01*
X31660Y380263D02*
X33759D01*
X34809D02*
X36908D01*
X39532Y376590D02*
X38482D01*
X37958Y377115D01*
Y379214D01*
X38482Y379738D01*
X39532D01*
X40057Y379214D01*
Y377115D01*
X39532Y376590D01*
X41106Y379738D02*
Y376590D01*
X42680D01*
X43205Y377115D01*
Y378164D01*
X42680Y378689D01*
X41106D01*
X44255Y379738D02*
Y377639D01*
X45304Y376590D01*
X46354Y377639D01*
Y379738D01*
Y378164D01*
X44255D01*
X49502Y376590D02*
X47403D01*
Y378164D01*
X48453Y377639D01*
X48978D01*
X49502Y378164D01*
Y379214D01*
X48978Y379738D01*
X47928D01*
X47403Y379214D01*
X52126Y379738D02*
Y376590D01*
X50552Y378164D01*
X52651D01*
X53700Y377115D02*
X54225Y376590D01*
X55275D01*
X55800Y377115D01*
Y377639D01*
X55275Y378164D01*
X55800Y378689D01*
Y379214D01*
X55275Y379738D01*
X54225D01*
X53700Y379214D01*
Y378689D01*
X54225Y378164D01*
X53700Y377639D01*
Y377115D01*
X54225Y378164D02*
X55275D01*
X56849Y379738D02*
X57898D01*
X57374D01*
Y376590D01*
X56849Y377115D01*
X17548Y182576D02*
Y179428D01*
X19122D01*
X19647Y179952D01*
Y181002D01*
X19122Y181527D01*
X17548D01*
X18597D02*
X19647Y182576D01*
X22795Y179428D02*
X21746Y179952D01*
X20696Y181002D01*
Y182051D01*
X21221Y182576D01*
X22271D01*
X22795Y182051D01*
Y181527D01*
X22271Y181002D01*
X20696D01*
X23845Y182051D02*
X24370Y182576D01*
X25419D01*
X25944Y182051D01*
Y179952D01*
X25419Y179428D01*
X24370D01*
X23845Y179952D01*
Y180477D01*
X24370Y181002D01*
X25944D01*
X26994Y183101D02*
X29092D01*
X30142Y179428D02*
Y182576D01*
X32241D01*
X34865Y179428D02*
X33815D01*
X33291Y179952D01*
Y182051D01*
X33815Y182576D01*
X34865D01*
X35390Y182051D01*
Y179952D01*
X34865Y179428D01*
X38538Y182576D02*
X36439D01*
X38538Y180477D01*
Y179952D01*
X38013Y179428D01*
X36964D01*
X36439Y179952D01*
X39588Y183101D02*
X41687D01*
X42736Y179428D02*
X43786D01*
X43261D01*
Y182576D01*
X42736D01*
X43786D01*
X45360D02*
Y179428D01*
X47459Y182576D01*
Y179428D01*
X48509Y182576D02*
Y180477D01*
X49558Y179428D01*
X50608Y180477D01*
Y182576D01*
Y181002D01*
X48509D01*
X53756Y182576D02*
X51657D01*
X53756Y180477D01*
Y179952D01*
X53232Y179428D01*
X52182D01*
X51657Y179952D01*
X17548Y226080D02*
Y222931D01*
X19122D01*
X19647Y223456D01*
Y224506D01*
X19122Y225030D01*
X17548D01*
X18597D02*
X19647Y226080D01*
X22795Y222931D02*
X21746Y223456D01*
X20696Y224506D01*
Y225555D01*
X21221Y226080D01*
X22271D01*
X22795Y225555D01*
Y225030D01*
X22271Y224506D01*
X20696D01*
X23845Y225555D02*
X24370Y226080D01*
X25419D01*
X25944Y225555D01*
Y223456D01*
X25419Y222931D01*
X24370D01*
X23845Y223456D01*
Y223981D01*
X24370Y224506D01*
X25944D01*
X26994Y226605D02*
X29092D01*
X30142Y222931D02*
Y226080D01*
X32241D01*
X34865Y222931D02*
X33815D01*
X33291Y223456D01*
Y225555D01*
X33815Y226080D01*
X34865D01*
X35390Y225555D01*
Y223456D01*
X34865Y222931D01*
X38538Y226080D02*
X36439D01*
X38538Y223981D01*
Y223456D01*
X38013Y222931D01*
X36964D01*
X36439Y223456D01*
X39588Y226605D02*
X41687D01*
X42736Y222931D02*
X43786D01*
X43261D01*
Y226080D01*
X42736D01*
X43786D01*
X45360D02*
Y222931D01*
X47459Y226080D01*
Y222931D01*
X48509Y226080D02*
Y223981D01*
X49558Y222931D01*
X50608Y223981D01*
Y226080D01*
Y224506D01*
X48509D01*
X51657Y226080D02*
X52707D01*
X52182D01*
Y222931D01*
X51657Y223456D01*
X17548Y138580D02*
Y135431D01*
X19122D01*
X19647Y135956D01*
Y137006D01*
X19122Y137531D01*
X17548D01*
X18597D02*
X19647Y138580D01*
X22795Y135431D02*
X21746Y135956D01*
X20696Y137006D01*
Y138055D01*
X21221Y138580D01*
X22271D01*
X22795Y138055D01*
Y137531D01*
X22271Y137006D01*
X20696D01*
X23845Y138055D02*
X24370Y138580D01*
X25419D01*
X25944Y138055D01*
Y135956D01*
X25419Y135431D01*
X24370D01*
X23845Y135956D01*
Y136481D01*
X24370Y137006D01*
X25944D01*
X26994Y139105D02*
X29092D01*
X30142Y135431D02*
Y138580D01*
X32241D01*
X34865Y135431D02*
X33815D01*
X33291Y135956D01*
Y138055D01*
X33815Y138580D01*
X34865D01*
X35390Y138055D01*
Y135956D01*
X34865Y135431D01*
X36439Y138580D02*
X37489D01*
X36964D01*
Y135431D01*
X36439Y135956D01*
X39063Y139105D02*
X41162D01*
X42212Y135431D02*
X43261D01*
X42736D01*
Y138580D01*
X42212D01*
X43261D01*
X44835D02*
Y135431D01*
X46935Y138580D01*
Y135431D01*
X47984Y138580D02*
Y136481D01*
X49033Y135431D01*
X50083Y136481D01*
Y138580D01*
Y137006D01*
X47984D01*
X53232Y138580D02*
X51133D01*
X53232Y136481D01*
Y135956D01*
X52707Y135431D01*
X51657D01*
X51133Y135956D01*
X17548Y93895D02*
Y90746D01*
X19122D01*
X19647Y91271D01*
Y92321D01*
X19122Y92845D01*
X17548D01*
X18597D02*
X19647Y93895D01*
X22795Y90746D02*
X21746Y91271D01*
X20696Y92321D01*
Y93370D01*
X21221Y93895D01*
X22271D01*
X22795Y93370D01*
Y92845D01*
X22271Y92321D01*
X20696D01*
X23845Y93370D02*
X24370Y93895D01*
X25419D01*
X25944Y93370D01*
Y91271D01*
X25419Y90746D01*
X24370D01*
X23845Y91271D01*
Y91796D01*
X24370Y92321D01*
X25944D01*
X26994Y94420D02*
X29092D01*
X30142Y90746D02*
Y93895D01*
X32241D01*
X34865Y90746D02*
X33815D01*
X33291Y91271D01*
Y93370D01*
X33815Y93895D01*
X34865D01*
X35390Y93370D01*
Y91271D01*
X34865Y90746D01*
X36439Y93895D02*
X37489D01*
X36964D01*
Y90746D01*
X36439Y91271D01*
X39063Y94420D02*
X41162D01*
X42212Y90746D02*
X43261D01*
X42736D01*
Y93895D01*
X42212D01*
X43261D01*
X44835D02*
Y90746D01*
X46935Y93895D01*
Y90746D01*
X47984Y93895D02*
Y91796D01*
X49033Y90746D01*
X50083Y91796D01*
Y93895D01*
Y92321D01*
X47984D01*
X51133Y93895D02*
X52182D01*
X51657D01*
Y90746D01*
X51133Y91271D01*
X143254Y735087D02*
X146403D01*
Y736662D01*
X145878Y737186D01*
X144829D01*
X144304Y736662D01*
Y735087D01*
X143254Y738236D02*
Y739286D01*
Y738761D01*
X146403D01*
X145878Y738236D01*
X143254Y742959D02*
Y740860D01*
X145354Y742959D01*
X145878D01*
X146403Y742434D01*
Y741385D01*
X145878Y740860D01*
X99255Y733900D02*
X102403D01*
Y735474D01*
X101878Y735999D01*
X100829D01*
X100304Y735474D01*
Y733900D01*
X101878Y737049D02*
X102403Y737573D01*
Y738623D01*
X101878Y739148D01*
X101354D01*
X100829Y738623D01*
Y738098D01*
Y738623D01*
X100304Y739148D01*
X99779D01*
X99255Y738623D01*
Y737573D01*
X99779Y737049D01*
X202747Y7392D02*
X205896D01*
Y8967D01*
X205371Y9491D01*
X204322D01*
X203797Y8967D01*
Y7392D01*
X202747Y10541D02*
Y11590D01*
Y11066D01*
X205896D01*
X205371Y10541D01*
X185978Y663446D02*
X182830D01*
X183879D01*
X185978Y665545D01*
X184404Y663970D01*
X182830Y665545D01*
Y666594D02*
Y667644D01*
Y667119D01*
X185978D01*
X185453Y666594D01*
X182305Y669218D02*
Y671317D01*
X185978Y672367D02*
X182830D01*
Y674466D01*
X184929Y676040D02*
Y677089D01*
X184404Y677614D01*
X182830D01*
Y676040D01*
X183354Y675515D01*
X183879Y676040D01*
Y677614D01*
X184929Y678664D02*
X182830D01*
X183879D01*
X184404Y679188D01*
X184929Y679713D01*
Y680238D01*
X181780Y682862D02*
Y683387D01*
X182305Y683911D01*
X184929D01*
Y682337D01*
X184404Y681812D01*
X183354D01*
X182830Y682337D01*
Y683911D01*
Y686535D02*
Y685486D01*
X183354Y684961D01*
X184404D01*
X184929Y685486D01*
Y686535D01*
X184404Y687060D01*
X183879D01*
Y684961D01*
X182830Y691258D02*
X185978D01*
Y692832D01*
X185453Y693357D01*
X184404D01*
X183879Y692832D01*
Y691258D01*
Y692308D02*
X182830Y693357D01*
Y695981D02*
Y694931D01*
X183354Y694407D01*
X184404D01*
X184929Y694931D01*
Y695981D01*
X184404Y696506D01*
X183879D01*
Y694407D01*
X182830Y697555D02*
Y698605D01*
Y698080D01*
X185978D01*
Y697555D01*
X184929Y700704D02*
Y701753D01*
X184404Y702278D01*
X182830D01*
Y700704D01*
X183354Y700179D01*
X183879Y700704D01*
Y702278D01*
X184929Y703328D02*
X183354D01*
X182830Y703852D01*
Y705427D01*
X182305D01*
X181780Y704902D01*
Y704377D01*
X182830Y705427D02*
X184929D01*
X182830Y709625D02*
Y710674D01*
Y710149D01*
X185978D01*
X185453Y709625D01*
X185978Y576446D02*
X182830D01*
X183879D01*
X185978Y578545D01*
X184404Y576970D01*
X182830Y578545D01*
Y579594D02*
Y580644D01*
Y580119D01*
X185978D01*
X185453Y579594D01*
X182305Y582218D02*
Y584317D01*
X185978Y585366D02*
X182830D01*
Y587466D01*
X184929Y589040D02*
Y590089D01*
X184404Y590614D01*
X182830D01*
Y589040D01*
X183354Y588515D01*
X183879Y589040D01*
Y590614D01*
X184929Y591664D02*
X182830D01*
X183879D01*
X184404Y592189D01*
X184929Y592713D01*
Y593238D01*
X181780Y595862D02*
Y596387D01*
X182305Y596911D01*
X184929D01*
Y595337D01*
X184404Y594812D01*
X183354D01*
X182830Y595337D01*
Y596911D01*
Y599535D02*
Y598486D01*
X183354Y597961D01*
X184404D01*
X184929Y598486D01*
Y599535D01*
X184404Y600060D01*
X183879D01*
Y597961D01*
X182830Y604258D02*
X185978D01*
Y605832D01*
X185453Y606357D01*
X184404D01*
X183879Y605832D01*
Y604258D01*
Y605307D02*
X182830Y606357D01*
Y608981D02*
Y607931D01*
X183354Y607407D01*
X184404D01*
X184929Y607931D01*
Y608981D01*
X184404Y609506D01*
X183879D01*
Y607407D01*
X182830Y610555D02*
Y611605D01*
Y611080D01*
X185978D01*
Y610555D01*
X184929Y613704D02*
Y614753D01*
X184404Y615278D01*
X182830D01*
Y613704D01*
X183354Y613179D01*
X183879Y613704D01*
Y615278D01*
X184929Y616328D02*
X183354D01*
X182830Y616852D01*
Y618427D01*
X182305D01*
X181780Y617902D01*
Y617377D01*
X182830Y618427D02*
X184929D01*
X185453Y622625D02*
X185978Y623149D01*
Y624199D01*
X185453Y624724D01*
X184929D01*
X184404Y624199D01*
Y623674D01*
Y624199D01*
X183879Y624724D01*
X183354D01*
X182830Y624199D01*
Y623149D01*
X183354Y622625D01*
X185978Y488946D02*
X182830D01*
X183879D01*
X185978Y491045D01*
X184404Y489470D01*
X182830Y491045D01*
Y492094D02*
Y493144D01*
Y492619D01*
X185978D01*
X185453Y492094D01*
X182305Y494718D02*
Y496817D01*
X185978Y497866D02*
X182830D01*
Y499966D01*
X184929Y501540D02*
Y502589D01*
X184404Y503114D01*
X182830D01*
Y501540D01*
X183354Y501015D01*
X183879Y501540D01*
Y503114D01*
X184929Y504164D02*
X182830D01*
X183879D01*
X184404Y504689D01*
X184929Y505213D01*
Y505738D01*
X181780Y508362D02*
Y508887D01*
X182305Y509411D01*
X184929D01*
Y507837D01*
X184404Y507312D01*
X183354D01*
X182830Y507837D01*
Y509411D01*
Y512035D02*
Y510986D01*
X183354Y510461D01*
X184404D01*
X184929Y510986D01*
Y512035D01*
X184404Y512560D01*
X183879D01*
Y510461D01*
X182830Y516758D02*
X185978D01*
Y518332D01*
X185453Y518857D01*
X184404D01*
X183879Y518332D01*
Y516758D01*
Y517807D02*
X182830Y518857D01*
Y521481D02*
Y520431D01*
X183354Y519907D01*
X184404D01*
X184929Y520431D01*
Y521481D01*
X184404Y522006D01*
X183879D01*
Y519907D01*
X182830Y523055D02*
Y524105D01*
Y523580D01*
X185978D01*
Y523055D01*
X184929Y526204D02*
Y527253D01*
X184404Y527778D01*
X182830D01*
Y526204D01*
X183354Y525679D01*
X183879Y526204D01*
Y527778D01*
X184929Y528828D02*
X183354D01*
X182830Y529352D01*
Y530927D01*
X182305D01*
X181780Y530402D01*
Y529877D01*
X182830Y530927D02*
X184929D01*
X182830Y537224D02*
Y535125D01*
X184929Y537224D01*
X185453D01*
X185978Y536699D01*
Y535649D01*
X185453Y535125D01*
D113*
X162110Y468476D02*
G03*
X162110Y468476I-472J0D01*
G01*
Y642976D02*
G03*
X162110Y642976I-472J0D01*
G01*
Y555976D02*
G03*
X162110Y555976I-472J0D01*
G01*
D114*
X249046Y419704D02*
X289094D01*
X249046Y553248D02*
X289094D01*
X249046Y419704D02*
Y553248D01*
X289094Y419704D02*
Y553248D01*
M02*
