G04*
G04 #@! TF.GenerationSoftware,Altium Limited,Altium Designer,20.0.12 (288)*
G04*
G04 Layer_Physical_Order=3*
G04 Layer_Color=16440176*
%FSLAX25Y25*%
%MOIN*%
G70*
G01*
G75*
%ADD16C,0.00600*%
%ADD57C,0.06693*%
%ADD58C,0.01772*%
G36*
X157270Y117980D02*
X159958Y115293D01*
X159766Y114831D01*
X142417D01*
X142322Y114973D01*
X141831Y115301D01*
X141251Y115417D01*
X140671Y115301D01*
X140180Y114973D01*
X140085Y114831D01*
X78727D01*
Y121430D01*
X78751Y121450D01*
X79331Y121565D01*
X79822Y121893D01*
X80151Y122385D01*
X80266Y122965D01*
X80151Y123544D01*
X79822Y124036D01*
X79331Y124364D01*
X78751Y124479D01*
X78727Y124499D01*
Y255776D01*
X78825Y255874D01*
X157270D01*
Y117980D01*
D02*
G37*
G36*
X177987Y123902D02*
Y119902D01*
X179487Y118402D01*
X201987D01*
X204487Y115902D01*
Y101402D01*
X196987Y93902D01*
X32487D01*
X26987Y88402D01*
X14487D01*
X11487Y91402D01*
Y108402D01*
X15487Y112402D01*
X102487D01*
X116987Y97902D01*
X160987D01*
X166987Y103902D01*
Y123902D01*
X169487Y126402D01*
X175487D01*
X177987Y123902D01*
D02*
G37*
%LPC*%
G36*
X89251Y124479D02*
X88671Y124364D01*
X88180Y124036D01*
X87852Y123544D01*
X87736Y122965D01*
X87852Y122385D01*
X88180Y121893D01*
X88671Y121565D01*
X89251Y121450D01*
X89831Y121565D01*
X90322Y121893D01*
X90651Y122385D01*
X90766Y122965D01*
X90651Y123544D01*
X90322Y124036D01*
X89831Y124364D01*
X89251Y124479D01*
D02*
G37*
G36*
X110251Y124416D02*
X109671Y124301D01*
X109180Y123973D01*
X108852Y123481D01*
X108736Y122902D01*
X108852Y122322D01*
X109180Y121830D01*
X109671Y121502D01*
X110251Y121387D01*
X110831Y121502D01*
X111322Y121830D01*
X111651Y122322D01*
X111766Y122902D01*
X111651Y123481D01*
X111322Y123973D01*
X110831Y124301D01*
X110251Y124416D01*
D02*
G37*
G36*
X99751D02*
X99171Y124301D01*
X98680Y123973D01*
X98352Y123481D01*
X98236Y122902D01*
X98352Y122322D01*
X98680Y121830D01*
X99171Y121502D01*
X99751Y121387D01*
X100331Y121502D01*
X100822Y121830D01*
X101151Y122322D01*
X101266Y122902D01*
X101151Y123481D01*
X100822Y123973D01*
X100331Y124301D01*
X99751Y124416D01*
D02*
G37*
%LPD*%
D16*
X220338Y31050D02*
X232135D01*
X247755Y46669D01*
X219987Y31402D02*
Y51339D01*
Y31402D02*
X220338Y31050D01*
X222838Y32250D02*
X228835D01*
X222487Y32601D02*
Y40213D01*
X228835Y32250D02*
X242254Y45669D01*
X222487Y32601D02*
X222838Y32250D01*
X224550Y34402D02*
X239272Y49124D01*
X213050Y103965D02*
X233463Y124378D01*
X249010D02*
X257487Y115902D01*
X233463Y124378D02*
X249010D01*
X243755Y103588D02*
X251030Y110864D01*
Y111864D01*
X227754Y110588D02*
X236754D01*
X243755Y103588D01*
X251030Y111864D02*
X251255Y112088D01*
X257487Y113320D02*
Y115902D01*
X254255Y110088D02*
X257487Y113320D01*
X213050Y85402D02*
Y103965D01*
X219987Y51339D02*
X224050Y55402D01*
X247755Y46669D02*
Y100588D01*
X224050Y55402D02*
Y65902D01*
X224550Y42276D02*
Y44902D01*
X222487Y40213D02*
X224550Y42276D01*
X242254Y45669D02*
Y100588D01*
X224487Y108902D02*
X232800Y100588D01*
X240619Y114088D02*
X254255D01*
X239805Y114902D02*
X240619Y114088D01*
X239272Y49124D02*
Y100588D01*
X232800D02*
X239272D01*
X226487Y114902D02*
X239805D01*
X224487Y112902D02*
X226487Y114902D01*
X224487Y108902D02*
Y112902D01*
X121751Y103402D02*
X130751D01*
X138027Y111677D02*
X138251Y111902D01*
X130751Y103402D02*
X138027Y110677D01*
Y111677D01*
X114751Y110402D02*
X121751Y103402D01*
D57*
X19987Y92402D02*
D03*
D58*
X224550Y34402D02*
D03*
X129908Y117193D02*
D03*
X129613Y119653D02*
D03*
X129514Y122508D02*
D03*
X127574Y116886D02*
D03*
X127054Y119752D02*
D03*
X127152Y122606D02*
D03*
X124199Y122705D02*
D03*
X124101Y119850D02*
D03*
X124199Y117095D02*
D03*
X199487Y112902D02*
D03*
Y109402D02*
D03*
Y106402D02*
D03*
Y103402D02*
D03*
X171755Y123151D02*
D03*
X227754Y110588D02*
D03*
X251255Y112088D02*
D03*
X114751Y110402D02*
D03*
X138251Y111902D02*
D03*
X254255Y114088D02*
D03*
X239272Y100588D02*
D03*
X242254D02*
D03*
X224550Y44902D02*
D03*
X243755Y103588D02*
D03*
X247755Y100588D02*
D03*
X224050Y65902D02*
D03*
Y55402D02*
D03*
X254255Y110088D02*
D03*
X213050Y85402D02*
D03*
X130751Y103402D02*
D03*
M02*
