G04*
G04 #@! TF.GenerationSoftware,Altium Limited,Altium Designer,20.0.12 (288)*
G04*
G04 Layer_Color=8421504*
%FSLAX25Y25*%
%MOIN*%
G70*
G01*
G75*
%ADD19R,0.09095X0.09921*%
%ADD20R,0.02913X0.11496*%
%ADD21R,0.11496X0.02913*%
%ADD22R,0.25591X0.09843*%
%ADD23R,0.07500X0.10984*%
%ADD24R,0.13622X0.05236*%
%ADD25R,0.05236X0.13622*%
%ADD26R,0.06299X0.13780*%
%ADD27R,0.05906X0.05512*%
%ADD28R,0.05512X0.05906*%
%ADD29R,0.01063X0.03386*%
%ADD30R,0.03386X0.01063*%
G04:AMPARAMS|DCode=31|XSize=70mil|YSize=70mil|CornerRadius=17.5mil|HoleSize=0mil|Usage=FLASHONLY|Rotation=90.000|XOffset=0mil|YOffset=0mil|HoleType=Round|Shape=RoundedRectangle|*
%AMROUNDEDRECTD31*
21,1,0.07000,0.03500,0,0,90.0*
21,1,0.03500,0.07000,0,0,90.0*
1,1,0.03500,0.01750,0.01750*
1,1,0.03500,0.01750,-0.01750*
1,1,0.03500,-0.01750,-0.01750*
1,1,0.03500,-0.01750,0.01750*
%
%ADD31ROUNDEDRECTD31*%
D19*
X62191Y61902D02*
D03*
X37782D02*
D03*
X62191Y103902D02*
D03*
X37782D02*
D03*
X62191Y82902D02*
D03*
X37782D02*
D03*
X42782Y210402D02*
D03*
X67191D02*
D03*
X167782Y211902D02*
D03*
X192191D02*
D03*
X43282Y319402D02*
D03*
X67691D02*
D03*
X168782D02*
D03*
X193191D02*
D03*
D20*
X12987Y304150D02*
D03*
Y317653D02*
D03*
X17987Y304150D02*
D03*
Y317653D02*
D03*
X22987Y304150D02*
D03*
Y317653D02*
D03*
X62987Y22154D02*
D03*
Y8650D02*
D03*
X57987Y22154D02*
D03*
Y8650D02*
D03*
X52987Y22154D02*
D03*
Y8650D02*
D03*
D21*
X206739Y56902D02*
D03*
X193235D02*
D03*
X206739Y61902D02*
D03*
X193235D02*
D03*
X206739Y66902D02*
D03*
X193235D02*
D03*
X92239Y53402D02*
D03*
X78735D02*
D03*
X92239Y58402D02*
D03*
X78735D02*
D03*
X92239Y63402D02*
D03*
X78735D02*
D03*
D22*
X93880Y245402D02*
D03*
X143093D02*
D03*
X218880Y246902D02*
D03*
X268093D02*
D03*
X93774Y315902D02*
D03*
X142987D02*
D03*
X218880Y317402D02*
D03*
X268093D02*
D03*
X93880Y174902D02*
D03*
X143093D02*
D03*
X218880Y176402D02*
D03*
X268093D02*
D03*
D23*
X142437Y127902D02*
D03*
X161536D02*
D03*
X259937Y129402D02*
D03*
X279036D02*
D03*
D24*
X68487Y150721D02*
D03*
Y173902D02*
D03*
X192987Y176402D02*
D03*
Y153220D02*
D03*
D25*
X66077Y41402D02*
D03*
X42896D02*
D03*
X11396D02*
D03*
X34577D02*
D03*
X66077Y298902D02*
D03*
X42896D02*
D03*
X66168Y282402D02*
D03*
X42987D02*
D03*
X168806D02*
D03*
X191987D02*
D03*
X168806Y299402D02*
D03*
X191987D02*
D03*
D26*
X199487Y108402D02*
D03*
Y87142D02*
D03*
X84987Y107531D02*
D03*
Y86272D02*
D03*
D27*
X57751Y130839D02*
D03*
Y122965D02*
D03*
X68251Y130776D02*
D03*
Y122902D02*
D03*
X65487Y240902D02*
D03*
Y248776D02*
D03*
X78751Y130839D02*
D03*
Y122965D02*
D03*
X99751Y130776D02*
D03*
Y122902D02*
D03*
X110251Y130776D02*
D03*
Y122902D02*
D03*
X89251Y130839D02*
D03*
Y122965D02*
D03*
X104550Y76729D02*
D03*
Y84603D02*
D03*
X219113Y77465D02*
D03*
Y85339D02*
D03*
X203255Y131025D02*
D03*
Y123151D02*
D03*
X224254Y130962D02*
D03*
Y123088D02*
D03*
X213755Y130962D02*
D03*
Y123088D02*
D03*
X192754Y131025D02*
D03*
Y123151D02*
D03*
X189987Y240528D02*
D03*
Y248402D02*
D03*
X182255Y130962D02*
D03*
Y123088D02*
D03*
X171755Y131025D02*
D03*
Y123151D02*
D03*
D28*
X115050Y33666D02*
D03*
X122924D02*
D03*
X148050Y111902D02*
D03*
X155924D02*
D03*
X122924Y65166D02*
D03*
X115050D02*
D03*
Y86166D02*
D03*
X122924D02*
D03*
X123050Y44166D02*
D03*
X115176D02*
D03*
X115113Y75666D02*
D03*
X122987D02*
D03*
X115113Y54666D02*
D03*
X122987D02*
D03*
X237613Y44902D02*
D03*
X229739D02*
D03*
X237487Y65902D02*
D03*
X229613D02*
D03*
X229676Y55402D02*
D03*
X237550D02*
D03*
X229676Y76402D02*
D03*
X237550D02*
D03*
X229613Y86902D02*
D03*
X237487D02*
D03*
X265550Y113402D02*
D03*
X273424D02*
D03*
X229613Y34402D02*
D03*
X237487D02*
D03*
D29*
X122653Y126472D02*
D03*
X124621D02*
D03*
X126590D02*
D03*
X128558D02*
D03*
X130527D02*
D03*
X132495D02*
D03*
Y107299D02*
D03*
X130527D02*
D03*
X128558D02*
D03*
X126590D02*
D03*
X124621D02*
D03*
X122653D02*
D03*
X235656Y126659D02*
D03*
X237625D02*
D03*
X239593D02*
D03*
X241562D02*
D03*
X243530D02*
D03*
X245499D02*
D03*
Y107486D02*
D03*
X243530D02*
D03*
X241562D02*
D03*
X239593D02*
D03*
X237625D02*
D03*
X235656D02*
D03*
D30*
X135192Y123776D02*
D03*
Y121807D02*
D03*
Y119839D02*
D03*
Y117870D02*
D03*
Y115902D02*
D03*
Y113933D02*
D03*
Y111965D02*
D03*
Y109996D02*
D03*
X119956D02*
D03*
Y111965D02*
D03*
Y113933D02*
D03*
Y115902D02*
D03*
Y117870D02*
D03*
Y119839D02*
D03*
Y121807D02*
D03*
Y123776D02*
D03*
X248195Y123962D02*
D03*
Y121994D02*
D03*
Y120025D02*
D03*
Y118057D02*
D03*
Y116088D02*
D03*
Y114120D02*
D03*
Y112151D02*
D03*
Y110183D02*
D03*
X232959D02*
D03*
Y112151D02*
D03*
Y114120D02*
D03*
Y116088D02*
D03*
Y118057D02*
D03*
Y120025D02*
D03*
Y121994D02*
D03*
Y123962D02*
D03*
D31*
X8987Y279402D02*
D03*
X75487Y331902D02*
D03*
X221487Y102902D02*
D03*
X55987Y340402D02*
D03*
M02*
