G04*
G04 #@! TF.GenerationSoftware,Altium Limited,Altium Designer,20.0.12 (288)*
G04*
G04 Layer_Color=32768*
%FSLAX25Y25*%
%MOIN*%
G70*
G01*
G75*
%ADD63C,0.00100*%
D63*
X290469Y354778D02*
X290476Y354701D01*
X290469Y353653D02*
X290476Y354701D01*
X290469Y353653D02*
Y354778D01*
X290469Y369900D01*
X290280Y356787D02*
X290469Y354778D01*
X289806Y358828D02*
X290280Y356787D01*
X289064Y360787D02*
X289806Y358828D01*
X288065Y362629D02*
X289064Y360787D01*
X286829Y364321D02*
X288065Y362629D01*
X285378Y365832D02*
X286829Y364321D01*
X283738Y367135D02*
X285378Y365832D01*
X281938Y368207D02*
X283738Y367135D01*
X280010Y369029D02*
X281938Y368207D01*
X277990Y369585D02*
X280010Y369029D01*
X275914Y369865D02*
X277990Y369585D01*
X274866Y369900D02*
X275914Y369865D01*
X274866Y369900D02*
X290469Y369900D01*
X16014Y369900D02*
X16014D01*
X16014D02*
X16014D01*
X191714D02*
X191714D01*
X191714D02*
X191714D01*
X14965Y369907D02*
X16014Y369900D01*
X14888D02*
X16014D01*
X14888D02*
X14965Y369907D01*
X190665D02*
X191714Y369900D01*
X190588D02*
X191714D01*
X190588D02*
X190665Y369907D01*
X290698Y370000D02*
X290707Y15028D01*
X175518Y370000D02*
X290698Y370000D01*
X175518Y369900D02*
Y370000D01*
Y369900D02*
X190588Y369900D01*
X188579Y369711D02*
X190588Y369900D01*
X186539Y369237D02*
X188579Y369711D01*
X184580Y368495D02*
X186539Y369237D01*
X182737Y367496D02*
X184580Y368495D01*
X181046Y366261D02*
X182737Y367496D01*
X179534Y364809D02*
X181046Y366261D01*
X178231Y363169D02*
X179534Y364809D01*
X177159Y361369D02*
X178231Y363169D01*
X176338Y359441D02*
X177159Y361369D01*
X175782Y357421D02*
X176338Y359441D01*
X175518Y355469D02*
X175782Y357421D01*
X175518Y350174D02*
Y355469D01*
X30566Y350174D02*
X175518D01*
X30566D02*
Y355941D01*
X30477Y356887D02*
X30566Y355941D01*
X30003Y358928D02*
X30477Y356887D01*
X29261Y360887D02*
X30003Y358928D01*
X28262Y362729D02*
X29261Y360887D01*
X27027Y364421D02*
X28262Y362729D01*
X25576Y365932D02*
X27027Y364421D01*
X23935Y367235D02*
X25576Y365932D01*
X22135Y368307D02*
X23935Y367235D01*
X20207Y369128D02*
X22135Y368307D01*
X18187Y369684D02*
X20207Y369128D01*
X16111Y369965D02*
X18187Y369684D01*
X15065Y370000D02*
X16111Y369965D01*
X-50Y370000D02*
X15065D01*
X-50D02*
X-50Y369900D01*
X14888Y369900D01*
X12879Y369711D02*
X14888Y369900D01*
X10839Y369237D02*
X12879Y369711D01*
X8879Y368495D02*
X10839Y369237D01*
X7037Y367496D02*
X8879Y368495D01*
X5346Y366261D02*
X7037Y367496D01*
X3834Y364809D02*
X5346Y366261D01*
X2531Y363169D02*
X3834Y364809D01*
X1459Y361369D02*
X2531Y363169D01*
X638Y359441D02*
X1459Y361369D01*
X82Y357421D02*
X638Y359441D01*
X-48Y356461D02*
X82Y357421D01*
X-48Y356461D02*
X-2Y12523D01*
X364Y10949D01*
X1106Y8990D01*
X2105Y7147D01*
X3341Y5456D01*
X4792Y3944D01*
X6432Y2641D01*
X8232Y1569D01*
X10160Y748D01*
X12180Y192D01*
X13600Y0D01*
X74866D01*
Y26855D01*
X260166Y26855D01*
Y10658D02*
Y26855D01*
Y10658D02*
X260789Y9015D01*
X261788Y7173D01*
X263023Y5481D01*
X264475Y3969D01*
X266115Y2666D01*
X267915Y1594D01*
X269843Y773D01*
X271863Y217D01*
X273469Y-0D01*
X276293D01*
X277610Y124D01*
X279651Y598D01*
X281610Y1340D01*
X283453Y2338D01*
X285144Y3574D01*
X286656Y5026D01*
X287959Y6666D01*
X289031Y8466D01*
X289852Y10394D01*
X290408Y12414D01*
X290689Y14490D01*
X290707Y15028D01*
M02*
