G04*
G04 #@! TF.GenerationSoftware,Altium Limited,Altium Designer,20.0.12 (288)*
G04*
G04 Layer_Color=8388736*
%FSLAX25Y25*%
%MOIN*%
G70*
G01*
G75*
%ADD38R,0.05315X0.01378*%
%ADD39R,0.01378X0.05315*%
%ADD41R,0.09370X0.06496*%
%ADD42R,0.00984X0.02756*%
%ADD45C,0.00000*%
%ADD46R,0.07099X0.06706*%
%ADD47R,0.03556X0.04343*%
%ADD48R,0.24816X0.24816*%
%ADD49O,0.01784X0.04737*%
%ADD50O,0.04737X0.01784*%
%ADD51R,0.10721X0.09894*%
%ADD52R,0.42139X0.39580*%
%ADD53R,0.04737X0.14383*%
%ADD54R,0.04737X0.11036*%
%ADD55R,0.04737X0.14580*%
%ADD56R,0.11036X0.04737*%
%ADD57R,0.14580X0.04737*%
%ADD58R,0.03162X0.06902*%
%ADD59R,0.05524X0.07887*%
G04:AMPARAMS|DCode=60|XSize=85.56mil|YSize=31.62mil|CornerRadius=6.95mil|HoleSize=0mil|Usage=FLASHONLY|Rotation=0.000|XOffset=0mil|YOffset=0mil|HoleType=Round|Shape=RoundedRectangle|*
%AMROUNDEDRECTD60*
21,1,0.08556,0.01772,0,0,0.0*
21,1,0.07165,0.03162,0,0,0.0*
1,1,0.01391,0.03583,-0.00886*
1,1,0.01391,-0.03583,-0.00886*
1,1,0.01391,-0.03583,0.00886*
1,1,0.01391,0.03583,0.00886*
%
%ADD60ROUNDEDRECTD60*%
%ADD61R,0.04343X0.03556*%
%ADD62R,0.03162X0.06509*%
%ADD63R,0.13084X0.09619*%
%ADD64R,0.07099X0.01981*%
G04:AMPARAMS|DCode=65|XSize=78mil|YSize=78mil|CornerRadius=21.5mil|HoleSize=0mil|Usage=FLASHONLY|Rotation=90.000|XOffset=0mil|YOffset=0mil|HoleType=Round|Shape=RoundedRectangle|*
%AMROUNDEDRECTD65*
21,1,0.07800,0.03500,0,0,90.0*
21,1,0.03500,0.07800,0,0,90.0*
1,1,0.04300,0.01750,0.01750*
1,1,0.04300,0.01750,-0.01750*
1,1,0.04300,-0.01750,-0.01750*
1,1,0.04300,-0.01750,0.01750*
%
%ADD65ROUNDEDRECTD65*%
%ADD66O,0.10642X0.03556*%
%ADD67R,0.04737X0.09265*%
%ADD68R,0.13595X0.09265*%
%ADD69C,0.06706*%
%ADD70R,0.06706X0.06706*%
%ADD71C,0.06800*%
%ADD72R,0.06706X0.06706*%
%ADD73C,0.10642*%
%ADD74C,0.05328*%
%ADD75C,0.07178*%
%ADD76R,0.06737X0.06737*%
%ADD77C,0.06737*%
%ADD78R,0.06737X0.06737*%
%ADD79C,0.07591*%
%ADD80R,0.07591X0.07591*%
%ADD81C,0.15312*%
%ADD82R,0.08600X0.08600*%
%ADD83C,0.08600*%
%ADD84C,0.26391*%
%ADD85C,0.04855*%
G36*
X35657Y34976D02*
Y44818D01*
X40381D01*
Y34976D01*
X35657D01*
D02*
G37*
G36*
X50224Y268539D02*
X40381D01*
Y273263D01*
X50224D01*
Y268539D01*
D02*
G37*
G36*
X273846Y30350D02*
X264003D01*
Y35074D01*
X273846D01*
Y30350D01*
D02*
G37*
G36*
X278570Y268637D02*
Y258794D01*
X273846D01*
Y268637D01*
X278570D01*
D02*
G37*
D38*
X173568Y80381D02*
D03*
Y82350D02*
D03*
Y84318D02*
D03*
Y86287D02*
D03*
Y88255D02*
D03*
Y90224D02*
D03*
Y92192D02*
D03*
Y94161D02*
D03*
Y96129D02*
D03*
Y98098D02*
D03*
Y100066D02*
D03*
Y102035D02*
D03*
Y104003D02*
D03*
Y105972D02*
D03*
Y107940D02*
D03*
Y109909D02*
D03*
Y111877D02*
D03*
Y113846D02*
D03*
Y115814D02*
D03*
Y117783D02*
D03*
Y119751D02*
D03*
Y121720D02*
D03*
Y123688D02*
D03*
Y125657D02*
D03*
Y127625D02*
D03*
Y129594D02*
D03*
Y131562D02*
D03*
Y133531D02*
D03*
Y135499D02*
D03*
Y137468D02*
D03*
Y139436D02*
D03*
Y141405D02*
D03*
Y143373D02*
D03*
Y145342D02*
D03*
Y147310D02*
D03*
Y149279D02*
D03*
X257230D02*
D03*
Y147310D02*
D03*
Y145342D02*
D03*
Y143373D02*
D03*
Y141405D02*
D03*
Y139436D02*
D03*
Y137468D02*
D03*
Y135499D02*
D03*
Y133531D02*
D03*
Y131562D02*
D03*
Y129594D02*
D03*
Y127625D02*
D03*
Y125657D02*
D03*
Y123688D02*
D03*
Y121720D02*
D03*
Y119751D02*
D03*
Y117783D02*
D03*
Y115814D02*
D03*
Y113846D02*
D03*
Y111877D02*
D03*
Y109909D02*
D03*
Y107940D02*
D03*
Y105972D02*
D03*
Y104003D02*
D03*
Y102035D02*
D03*
Y100066D02*
D03*
Y98098D02*
D03*
Y96129D02*
D03*
Y94161D02*
D03*
Y92192D02*
D03*
Y90224D02*
D03*
Y88255D02*
D03*
Y86287D02*
D03*
Y84318D02*
D03*
Y82350D02*
D03*
Y80381D02*
D03*
D39*
X180950Y156661D02*
D03*
X182919D02*
D03*
X184887D02*
D03*
X186856D02*
D03*
X188824D02*
D03*
X190793D02*
D03*
X192761D02*
D03*
X194730D02*
D03*
X196698D02*
D03*
X198667D02*
D03*
X200635D02*
D03*
X202604D02*
D03*
X204572D02*
D03*
X206541D02*
D03*
X208509D02*
D03*
X210478D02*
D03*
X212446D02*
D03*
X214415D02*
D03*
X216383D02*
D03*
X218352D02*
D03*
X220320D02*
D03*
X222289D02*
D03*
X224257D02*
D03*
X226226D02*
D03*
X228194D02*
D03*
X230163D02*
D03*
X232131D02*
D03*
X234100D02*
D03*
X236068D02*
D03*
X238037D02*
D03*
X240005D02*
D03*
X241974D02*
D03*
X243942D02*
D03*
X245911D02*
D03*
X247879D02*
D03*
X249848D02*
D03*
Y72999D02*
D03*
X247879D02*
D03*
X245911D02*
D03*
X243942D02*
D03*
X241974D02*
D03*
X240005D02*
D03*
X238037D02*
D03*
X236068D02*
D03*
X234100D02*
D03*
X232131D02*
D03*
X230163D02*
D03*
X228194D02*
D03*
X226226D02*
D03*
X224257D02*
D03*
X222289D02*
D03*
X220320D02*
D03*
X218352D02*
D03*
X216383D02*
D03*
X214415D02*
D03*
X212446D02*
D03*
X210478D02*
D03*
X208509D02*
D03*
X206541D02*
D03*
X204572D02*
D03*
X202604D02*
D03*
X200635D02*
D03*
X198667D02*
D03*
X196698D02*
D03*
X194730D02*
D03*
X192761D02*
D03*
X190793D02*
D03*
X188824D02*
D03*
X186856D02*
D03*
X184887D02*
D03*
X182919D02*
D03*
X180950D02*
D03*
D41*
X100380Y14776D02*
D03*
D42*
X103333Y9264D02*
D03*
X101364D02*
D03*
X99396D02*
D03*
X97427D02*
D03*
Y20287D02*
D03*
X99396D02*
D03*
X101364D02*
D03*
X103333D02*
D03*
D45*
X276712Y531476D02*
G03*
X276712Y531476I-3390J0D01*
G01*
X266712D02*
G03*
X266712Y531476I-3390J0D01*
G01*
X276712Y521476D02*
G03*
X276712Y521476I-3390J0D01*
G01*
X266712D02*
G03*
X266712Y521476I-3390J0D01*
G01*
X276712Y511476D02*
G03*
X276712Y511476I-3390J0D01*
G01*
X266712D02*
G03*
X266712Y511476I-3390J0D01*
G01*
X276712Y501476D02*
G03*
X276712Y501476I-3390J0D01*
G01*
X266712D02*
G03*
X266712Y501476I-3390J0D01*
G01*
X276712Y491476D02*
G03*
X276712Y491476I-3390J0D01*
G01*
X266712D02*
G03*
X266712Y491476I-3390J0D01*
G01*
X276712Y481476D02*
G03*
X276712Y481476I-3390J0D01*
G01*
X266712D02*
G03*
X266712Y481476I-3390J0D01*
G01*
X276712Y471476D02*
G03*
X276712Y471476I-3390J0D01*
G01*
X266712D02*
G03*
X266712Y471476I-3390J0D01*
G01*
X276712Y461476D02*
G03*
X276712Y461476I-3390J0D01*
G01*
X266712D02*
G03*
X266712Y461476I-3390J0D01*
G01*
X276712Y451476D02*
G03*
X276712Y451476I-3390J0D01*
G01*
X266712D02*
G03*
X266712Y451476I-3390J0D01*
G01*
X276712Y441476D02*
G03*
X276712Y441476I-3390J0D01*
G01*
X266712D02*
G03*
X266712Y441476I-3390J0D01*
G01*
D46*
X232972Y355610D02*
D03*
Y347146D02*
D03*
X194783Y347244D02*
D03*
Y355709D02*
D03*
X113380Y10076D02*
D03*
Y18540D02*
D03*
X155230Y620940D02*
D03*
Y612476D02*
D03*
X156230Y443440D02*
D03*
Y434976D02*
D03*
X254480Y4476D02*
D03*
Y12940D02*
D03*
D47*
X259154Y222835D02*
D03*
X264272D02*
D03*
X147539Y125386D02*
D03*
X152657D02*
D03*
X259154Y229626D02*
D03*
X264272D02*
D03*
X147539Y131928D02*
D03*
X152657D02*
D03*
X259154Y195669D02*
D03*
X264272D02*
D03*
X147539Y99220D02*
D03*
X152657D02*
D03*
X259154Y202461D02*
D03*
X264272D02*
D03*
X147539Y105762D02*
D03*
X152657D02*
D03*
X192671Y249476D02*
D03*
X197789D02*
D03*
X81171Y151976D02*
D03*
X86289D02*
D03*
X259154Y209252D02*
D03*
X264272D02*
D03*
X147539Y112303D02*
D03*
X152657D02*
D03*
X192671Y242976D02*
D03*
X197789D02*
D03*
X81171Y145476D02*
D03*
X86289D02*
D03*
X197730Y203976D02*
D03*
X192612D02*
D03*
X86230Y106476D02*
D03*
X81112D02*
D03*
X197789Y210476D02*
D03*
X192671D02*
D03*
X86289Y112976D02*
D03*
X81171D02*
D03*
X197848Y223476D02*
D03*
X192730D02*
D03*
X86348Y125976D02*
D03*
X81230D02*
D03*
X197789Y229976D02*
D03*
X192671D02*
D03*
X86289Y132476D02*
D03*
X81171D02*
D03*
X259154Y216043D02*
D03*
X264272D02*
D03*
X147539Y118845D02*
D03*
X152657D02*
D03*
X259154Y236417D02*
D03*
X264272D02*
D03*
X147539Y138469D02*
D03*
X152657D02*
D03*
X197789Y216976D02*
D03*
X192671D02*
D03*
X86289Y119476D02*
D03*
X81171D02*
D03*
X197789Y236476D02*
D03*
X192671D02*
D03*
X86289Y138976D02*
D03*
X81171D02*
D03*
X259154Y243209D02*
D03*
X264272D02*
D03*
X147539Y145011D02*
D03*
X152657D02*
D03*
X184171Y644417D02*
D03*
X189289D02*
D03*
Y631417D02*
D03*
X184171D02*
D03*
X184730Y499476D02*
D03*
X189848D02*
D03*
Y486476D02*
D03*
X184730D02*
D03*
X97339Y25876D02*
D03*
X92221D02*
D03*
X95739Y3976D02*
D03*
X90621D02*
D03*
X101062D02*
D03*
X106180D02*
D03*
X160671Y92476D02*
D03*
X165789D02*
D03*
X189289Y650916D02*
D03*
X184171D02*
D03*
X189289Y637917D02*
D03*
X184171D02*
D03*
X189848Y505976D02*
D03*
X184730D02*
D03*
X189848Y492976D02*
D03*
X184730D02*
D03*
X264421Y147476D02*
D03*
X269539D02*
D03*
X264421Y84476D02*
D03*
X269539D02*
D03*
X264421Y109976D02*
D03*
X269539D02*
D03*
X264421Y129476D02*
D03*
X269539D02*
D03*
X165730Y105976D02*
D03*
X160612D02*
D03*
X165789Y82476D02*
D03*
X160671D02*
D03*
X165730Y125476D02*
D03*
X160612D02*
D03*
D48*
X226730Y226007D02*
D03*
X115230Y128507D02*
D03*
D49*
X213934Y241755D02*
D03*
X215903D02*
D03*
X217871D02*
D03*
X219840D02*
D03*
X221809D02*
D03*
X223777D02*
D03*
X225746D02*
D03*
X227714D02*
D03*
X229683D02*
D03*
X231651D02*
D03*
X233620D02*
D03*
X235588D02*
D03*
X237557D02*
D03*
X239525D02*
D03*
Y210259D02*
D03*
X237557D02*
D03*
X235588D02*
D03*
X233620D02*
D03*
X231651D02*
D03*
X229683D02*
D03*
X227714D02*
D03*
X225746D02*
D03*
X223777D02*
D03*
X221809D02*
D03*
X219840D02*
D03*
X217871D02*
D03*
X215903D02*
D03*
X213934D02*
D03*
X102435Y144255D02*
D03*
X104403D02*
D03*
X106371D02*
D03*
X108340D02*
D03*
X110309D02*
D03*
X112277D02*
D03*
X114246D02*
D03*
X116214D02*
D03*
X118183D02*
D03*
X120151D02*
D03*
X122120D02*
D03*
X124088D02*
D03*
X126057D02*
D03*
X128025D02*
D03*
Y112759D02*
D03*
X126057D02*
D03*
X124088D02*
D03*
X122120D02*
D03*
X120151D02*
D03*
X118183D02*
D03*
X116214D02*
D03*
X114246D02*
D03*
X112277D02*
D03*
X110309D02*
D03*
X108340D02*
D03*
X106371D02*
D03*
X104403D02*
D03*
X102435D02*
D03*
D50*
X242478Y238802D02*
D03*
Y236834D02*
D03*
Y234865D02*
D03*
Y232897D02*
D03*
Y230928D02*
D03*
Y228960D02*
D03*
Y226991D02*
D03*
Y225023D02*
D03*
Y223054D02*
D03*
Y221086D02*
D03*
Y219117D02*
D03*
Y217149D02*
D03*
Y215180D02*
D03*
Y213212D02*
D03*
X210982D02*
D03*
Y215180D02*
D03*
Y217149D02*
D03*
Y219117D02*
D03*
Y221086D02*
D03*
Y223054D02*
D03*
Y225023D02*
D03*
Y226991D02*
D03*
Y228960D02*
D03*
Y230928D02*
D03*
Y232897D02*
D03*
Y234865D02*
D03*
Y236834D02*
D03*
Y238802D02*
D03*
X130978Y141302D02*
D03*
Y139334D02*
D03*
Y137365D02*
D03*
Y135397D02*
D03*
Y133428D02*
D03*
Y131460D02*
D03*
Y129491D02*
D03*
Y127523D02*
D03*
Y125554D02*
D03*
Y123586D02*
D03*
Y121617D02*
D03*
Y119649D02*
D03*
Y117680D02*
D03*
Y115712D02*
D03*
X99482D02*
D03*
Y117680D02*
D03*
Y119649D02*
D03*
Y121617D02*
D03*
Y123586D02*
D03*
Y125554D02*
D03*
Y127523D02*
D03*
Y129491D02*
D03*
Y131460D02*
D03*
Y133428D02*
D03*
Y135397D02*
D03*
Y137365D02*
D03*
Y139334D02*
D03*
Y141302D02*
D03*
D51*
X97480Y335180D02*
D03*
Y310771D02*
D03*
X162980Y311771D02*
D03*
Y336180D02*
D03*
X76480Y310771D02*
D03*
Y335180D02*
D03*
X11480Y312180D02*
D03*
Y336590D02*
D03*
D52*
X130022Y297071D02*
D03*
X43980Y297476D02*
D03*
D53*
X120022Y334079D02*
D03*
X140022D02*
D03*
X53980Y334484D02*
D03*
X33980D02*
D03*
D54*
X38019Y166570D02*
D03*
Y186255D02*
D03*
Y205940D02*
D03*
Y225625D02*
D03*
Y245310D02*
D03*
X276208Y166570D02*
D03*
Y186255D02*
D03*
Y205940D02*
D03*
Y225625D02*
D03*
Y245310D02*
D03*
Y137042D02*
D03*
Y117358D02*
D03*
Y97672D02*
D03*
Y77987D02*
D03*
Y58302D02*
D03*
X38019Y137042D02*
D03*
Y117358D02*
D03*
Y97672D02*
D03*
Y77987D02*
D03*
Y58302D02*
D03*
D55*
Y265980D02*
D03*
X276208Y37633D02*
D03*
D56*
X142350Y270901D02*
D03*
X122665D02*
D03*
X102980D02*
D03*
X83295D02*
D03*
X63610D02*
D03*
X171877D02*
D03*
X191562D02*
D03*
X211247D02*
D03*
X230933D02*
D03*
X250618D02*
D03*
X171877Y32712D02*
D03*
X191562D02*
D03*
X211247D02*
D03*
X230933D02*
D03*
X250618D02*
D03*
X142350D02*
D03*
X122665D02*
D03*
X102980D02*
D03*
X83295D02*
D03*
X63610D02*
D03*
D57*
X271287Y270901D02*
D03*
X42940Y32712D02*
D03*
D58*
X235417Y20476D02*
D03*
X231480D02*
D03*
X227543D02*
D03*
X223606D02*
D03*
X219669D02*
D03*
X215732D02*
D03*
D59*
X240535Y10535D02*
D03*
X210614D02*
D03*
D60*
X198230Y495476D02*
D03*
Y490476D02*
D03*
Y485476D02*
D03*
Y480476D02*
D03*
X217679D02*
D03*
Y485476D02*
D03*
Y490476D02*
D03*
Y495476D02*
D03*
X83480Y241476D02*
D03*
Y236476D02*
D03*
Y231476D02*
D03*
Y226476D02*
D03*
X102929D02*
D03*
Y231476D02*
D03*
Y236476D02*
D03*
Y241476D02*
D03*
X128480Y240976D02*
D03*
Y235976D02*
D03*
Y230976D02*
D03*
Y225976D02*
D03*
X147929D02*
D03*
Y230976D02*
D03*
Y235976D02*
D03*
Y240976D02*
D03*
X83480Y218976D02*
D03*
Y213976D02*
D03*
Y208976D02*
D03*
Y203976D02*
D03*
X102929D02*
D03*
Y208976D02*
D03*
Y213976D02*
D03*
Y218976D02*
D03*
X128480Y218476D02*
D03*
Y213476D02*
D03*
Y208476D02*
D03*
Y203476D02*
D03*
X147929D02*
D03*
Y208476D02*
D03*
Y213476D02*
D03*
Y218476D02*
D03*
X198755Y591358D02*
D03*
Y586357D02*
D03*
Y581357D02*
D03*
Y576358D02*
D03*
X218204D02*
D03*
Y581357D02*
D03*
Y586357D02*
D03*
Y591358D02*
D03*
X198505Y446476D02*
D03*
Y441476D02*
D03*
Y436476D02*
D03*
Y431476D02*
D03*
X217954D02*
D03*
Y436476D02*
D03*
Y441476D02*
D03*
Y446476D02*
D03*
D61*
X237730Y198416D02*
D03*
Y203535D02*
D03*
X126230Y100917D02*
D03*
Y106035D02*
D03*
X250480Y203535D02*
D03*
Y198416D02*
D03*
X138980Y106035D02*
D03*
Y100917D02*
D03*
X231230Y198416D02*
D03*
Y203535D02*
D03*
X119730Y100917D02*
D03*
Y106035D02*
D03*
X213730Y203535D02*
D03*
Y198416D02*
D03*
X102230Y106035D02*
D03*
Y100917D02*
D03*
X243980Y203535D02*
D03*
Y198416D02*
D03*
X132480Y106035D02*
D03*
Y100917D02*
D03*
X217230Y165917D02*
D03*
Y171035D02*
D03*
X105730Y68417D02*
D03*
Y73535D02*
D03*
X236730Y165948D02*
D03*
Y171066D02*
D03*
X125230Y68448D02*
D03*
Y73566D02*
D03*
X235230Y249416D02*
D03*
Y254535D02*
D03*
X123730Y151917D02*
D03*
Y157035D02*
D03*
X220230Y203535D02*
D03*
Y198416D02*
D03*
X108730Y106035D02*
D03*
Y100917D02*
D03*
X241899Y249416D02*
D03*
Y254535D02*
D03*
X97438Y151903D02*
D03*
Y157021D02*
D03*
X207230Y203535D02*
D03*
Y198416D02*
D03*
X95730Y106035D02*
D03*
Y100917D02*
D03*
X215730Y249416D02*
D03*
Y254535D02*
D03*
X104230Y151917D02*
D03*
Y157035D02*
D03*
X209072Y249411D02*
D03*
Y254529D02*
D03*
X130413Y151910D02*
D03*
Y157028D02*
D03*
X182980Y582298D02*
D03*
Y587417D02*
D03*
X182730Y437417D02*
D03*
Y442535D02*
D03*
X227980Y575239D02*
D03*
Y580358D02*
D03*
X227730Y430358D02*
D03*
Y435476D02*
D03*
X163980Y650035D02*
D03*
Y644916D02*
D03*
Y564535D02*
D03*
Y559416D02*
D03*
Y477035D02*
D03*
Y471916D02*
D03*
X131230Y632976D02*
D03*
Y638094D02*
D03*
X132230Y455476D02*
D03*
Y460594D02*
D03*
X118230Y632916D02*
D03*
Y638035D02*
D03*
X119230Y455416D02*
D03*
Y460535D02*
D03*
X124730Y637976D02*
D03*
Y632858D02*
D03*
X125730Y460476D02*
D03*
Y455358D02*
D03*
X118730Y662476D02*
D03*
Y667594D02*
D03*
X120480Y484976D02*
D03*
Y490094D02*
D03*
X147730Y610917D02*
D03*
Y616035D02*
D03*
X148730Y433417D02*
D03*
Y438535D02*
D03*
X189730Y587417D02*
D03*
Y582298D02*
D03*
X189480Y442594D02*
D03*
Y437476D02*
D03*
X254480Y26558D02*
D03*
Y21440D02*
D03*
X118704Y231417D02*
D03*
Y236535D02*
D03*
X163704Y230917D02*
D03*
Y236035D02*
D03*
X118704Y208916D02*
D03*
Y214035D02*
D03*
X163704Y208417D02*
D03*
Y213535D02*
D03*
X112204Y231417D02*
D03*
Y236535D02*
D03*
X157204Y230917D02*
D03*
Y236035D02*
D03*
X112204Y208916D02*
D03*
Y214035D02*
D03*
X157204Y208417D02*
D03*
Y213535D02*
D03*
X73704Y220917D02*
D03*
Y226035D02*
D03*
X118704Y220416D02*
D03*
Y225535D02*
D03*
X73704Y198416D02*
D03*
Y203535D02*
D03*
X118704Y197916D02*
D03*
Y203035D02*
D03*
X67204Y220976D02*
D03*
Y226094D02*
D03*
X112204Y220476D02*
D03*
Y225594D02*
D03*
X67204Y198476D02*
D03*
Y203594D02*
D03*
X112204Y197976D02*
D03*
Y203094D02*
D03*
X227980Y591417D02*
D03*
Y586298D02*
D03*
X227730Y446535D02*
D03*
Y441417D02*
D03*
X234980Y591417D02*
D03*
Y586298D02*
D03*
X234730Y446535D02*
D03*
Y441417D02*
D03*
X189480Y571357D02*
D03*
Y576476D02*
D03*
Y426358D02*
D03*
Y431476D02*
D03*
X182980Y571298D02*
D03*
Y576416D02*
D03*
Y426416D02*
D03*
Y431535D02*
D03*
X229230Y645476D02*
D03*
Y640357D02*
D03*
X235671Y645476D02*
D03*
Y640357D02*
D03*
X189230Y619858D02*
D03*
Y624976D02*
D03*
X182789Y619858D02*
D03*
Y624976D02*
D03*
X226230Y500594D02*
D03*
Y495476D02*
D03*
X232730Y500535D02*
D03*
Y495416D02*
D03*
X189730Y475417D02*
D03*
Y480535D02*
D03*
X183230Y475357D02*
D03*
Y480476D02*
D03*
X64980Y49785D02*
D03*
Y44666D02*
D03*
X73480Y49785D02*
D03*
Y44666D02*
D03*
X131730Y667476D02*
D03*
Y662358D02*
D03*
X133480Y489976D02*
D03*
Y484858D02*
D03*
X125230Y667535D02*
D03*
Y662417D02*
D03*
X126980Y490035D02*
D03*
Y484916D02*
D03*
X113730Y612535D02*
D03*
Y607416D02*
D03*
X114730Y435035D02*
D03*
Y429916D02*
D03*
X112230Y667594D02*
D03*
Y662476D02*
D03*
X113980Y490094D02*
D03*
Y484976D02*
D03*
X120230Y612535D02*
D03*
Y607416D02*
D03*
X121230Y435035D02*
D03*
Y429916D02*
D03*
X234730Y38357D02*
D03*
Y43476D02*
D03*
X215230Y38357D02*
D03*
Y43476D02*
D03*
X246980Y21535D02*
D03*
Y16417D02*
D03*
X185730Y165535D02*
D03*
Y170653D02*
D03*
X190730Y65094D02*
D03*
Y59976D02*
D03*
X252580Y57935D02*
D03*
Y52816D02*
D03*
X197480Y65035D02*
D03*
Y59917D02*
D03*
X227980Y165858D02*
D03*
Y170976D02*
D03*
X206480Y165917D02*
D03*
Y171035D02*
D03*
X178730Y165594D02*
D03*
Y170712D02*
D03*
D62*
X132990Y610909D02*
D03*
X140470D02*
D03*
X136730Y620161D02*
D03*
X133990Y433409D02*
D03*
X141470D02*
D03*
X137730Y442661D02*
D03*
D63*
X255180Y406076D02*
D03*
Y375391D02*
D03*
D64*
X262975Y399591D02*
D03*
Y397623D02*
D03*
Y395654D02*
D03*
Y393686D02*
D03*
Y391717D02*
D03*
Y389749D02*
D03*
Y387780D02*
D03*
Y385812D02*
D03*
Y383843D02*
D03*
Y381875D02*
D03*
D65*
X188878Y292815D02*
D03*
X200689Y303051D02*
D03*
X280244Y391898D02*
D03*
Y401019D02*
D03*
X189480Y418976D02*
D03*
X183480Y459976D02*
D03*
X197480Y511976D02*
D03*
X280244Y382777D02*
D03*
Y373657D02*
D03*
X183980Y598976D02*
D03*
Y610476D02*
D03*
X199980Y657476D02*
D03*
X193504Y279134D02*
D03*
X180980Y563976D02*
D03*
X158480Y483476D02*
D03*
X183980Y659476D02*
D03*
X11480Y349976D02*
D03*
X58480Y113476D02*
D03*
X156480Y630476D02*
D03*
X51980Y608476D02*
D03*
X86980Y671976D02*
D03*
X162980Y299976D02*
D03*
X11480Y300976D02*
D03*
D66*
X199584Y639917D02*
D03*
Y634916D02*
D03*
Y629916D02*
D03*
Y624917D02*
D03*
X218876Y639917D02*
D03*
Y634916D02*
D03*
Y629916D02*
D03*
Y624917D02*
D03*
D67*
X55370Y58726D02*
D03*
X64425D02*
D03*
X73480D02*
D03*
D68*
X64425Y84119D02*
D03*
D69*
X133230Y686633D02*
D03*
X133480Y511476D02*
D03*
X132980Y568633D02*
D03*
X133980Y389476D02*
D03*
X7443Y374991D02*
D03*
Y384991D02*
D03*
Y394991D02*
D03*
X183066Y21752D02*
D03*
X173066D02*
D03*
X192972Y9843D02*
D03*
X182972D02*
D03*
X133480Y735876D02*
D03*
X89480D02*
D03*
D70*
X133230Y706318D02*
D03*
X133480Y531161D02*
D03*
X132980Y588318D02*
D03*
X133980Y409161D02*
D03*
X7443Y404991D02*
D03*
D71*
X203769Y355629D02*
D03*
X213769D02*
D03*
X223769D02*
D03*
D72*
X193066Y21752D02*
D03*
X172972Y9843D02*
D03*
X123480Y735876D02*
D03*
X79480D02*
D03*
D73*
X250622Y711895D02*
D03*
Y564257D02*
D03*
D74*
X192822Y718618D02*
D03*
Y698933D02*
D03*
D75*
X273322Y531476D02*
D03*
X263322D02*
D03*
X273322Y521476D02*
D03*
X263322D02*
D03*
X273322Y511476D02*
D03*
X263322D02*
D03*
X273322Y501476D02*
D03*
X263322D02*
D03*
X273322Y491476D02*
D03*
X263322D02*
D03*
X273322Y481476D02*
D03*
X263322D02*
D03*
X273322Y471476D02*
D03*
X263322D02*
D03*
X273322Y461476D02*
D03*
X263322D02*
D03*
X273322Y451476D02*
D03*
X263322D02*
D03*
X273322Y441476D02*
D03*
X263322D02*
D03*
D76*
X217822Y533576D02*
D03*
Y460976D02*
D03*
D77*
X207980Y533576D02*
D03*
X198137D02*
D03*
X207980Y460976D02*
D03*
X198137D02*
D03*
X11051Y118932D02*
D03*
Y109090D02*
D03*
Y163617D02*
D03*
Y153775D02*
D03*
Y207613D02*
D03*
Y197771D02*
D03*
Y251117D02*
D03*
Y241275D02*
D03*
D78*
Y128775D02*
D03*
Y173460D02*
D03*
Y217456D02*
D03*
Y260960D02*
D03*
D79*
X171480Y538476D02*
D03*
Y518476D02*
D03*
Y478476D02*
D03*
Y712976D02*
D03*
Y692976D02*
D03*
Y652976D02*
D03*
Y625976D02*
D03*
Y605976D02*
D03*
Y565976D02*
D03*
D80*
Y468476D02*
D03*
Y642976D02*
D03*
Y555976D02*
D03*
D81*
X56880Y586976D02*
D03*
Y686976D02*
D03*
Y418476D02*
D03*
Y518476D02*
D03*
D82*
X92980Y651976D02*
D03*
Y483476D02*
D03*
D83*
X72980Y646976D02*
D03*
X92980Y641976D02*
D03*
X72980Y636976D02*
D03*
X92980Y631976D02*
D03*
X72980Y626976D02*
D03*
X92980Y621976D02*
D03*
X72980Y478476D02*
D03*
X92980Y473476D02*
D03*
X72980Y468476D02*
D03*
X92980Y463476D02*
D03*
X72980Y458476D02*
D03*
X92980Y453476D02*
D03*
D84*
X99980Y353976D02*
D03*
X274980D02*
D03*
X15480Y731976D02*
D03*
X274980D02*
D03*
Y15476D02*
D03*
X15480D02*
D03*
D85*
X217623Y184476D02*
D03*
X236836D02*
D03*
X106123Y86976D02*
D03*
X125336D02*
D03*
X234586Y56976D02*
D03*
X215373D02*
D03*
M02*
