M48
;Layer_Color=9474304
;FILE_FORMAT=2:5
INCH,LZ
;TYPE=PLATED
T1F00S00C0.00787
T2F00S00C0.01968
T3F00S00C0.04331
T4F00S00C0.05197
T5F00S00C0.13780
%
T01
X0078735Y0053402
Y0058402
Y0063402
X0092239
Y0058402
Y0053402
X0109487Y0054666
Y0065166
X0109987Y0044166
X0110273Y0033666
X0193235Y0056902
Y0061902
Y0066902
X0206739
Y0061902
Y0056902
X022405Y0055402
Y0065902
X022455Y0044902
Y0034402
X021305Y0085402
X0199487Y0103402
Y0106402
Y0109402
Y0112902
X0203255Y0123151
X0192754
X0182255Y0123088
X0171755Y0123151
X0213755Y0123088
X0224254
X0236601Y0121425
X0239357Y0121031
X0242309Y0121228
X024103Y0118965
X0237979Y0119063
X0236601Y0116996
X0239554Y0117095
X0242309Y0116996
X0251255Y0112088
X0254255Y0114088
Y0110088
X0247755Y0100588
X0242254
X0239272
X0243755Y0103588
X0227754Y0110588
X0141251Y0109902
Y0113902
X0138251Y0111902
X0129908Y0117193
X0127574Y0116886
X0127054Y0119752
X0129613Y0119653
X0129514Y0122508
X0127152Y0122606
X0124199Y0122705
X0124101Y011985
X0124199Y0117095
X0114751Y0110402
X0110251Y0122902
X0099751
X0089251Y0122965
X0078751
X0068251Y0122902
X0098487Y0084666
X0126407Y0100402
X0129251
X0130751Y0103402
X0134751Y0100402
X0065487Y0248776
X0042987Y0282402
T02
X0008987Y0009402
X0006487Y0015902
X0008487Y0022402
X0015487Y0025402
X0021987Y0022902
X0024987Y0015902
X0021987Y0008902
X0015487Y0006402
X0268487Y0009402
X0265987Y0015902
X0267987Y0022402
X0274987Y0025402
X0281487Y0022902
X0284487Y0015902
X0281487Y0008902
X0274987Y0006402
X0008987Y0347902
X0006487Y0354402
X0008487Y0360902
X0015487Y0363902
X0021987Y0361402
X0024987Y0354402
X0021987Y0347402
X0015487Y0344902
X0183987Y0347902
X0181487Y0354402
X0183487Y0360902
X0190487Y0363902
X0196987Y0361402
X0199987Y0354402
X0196987Y0347402
X0190487Y0344902
T03
X0019987Y0072402
Y0082402
Y0092402
T04
X0174987Y0166402
Y0176402
Y0186402
X0049987Y0184902
Y0174902
Y0164902
Y0240902
Y0250902
Y0260902
X0175487
Y0250902
Y0240902
T05
X0015487Y0015902
X0274987
X0015487Y0354402
X0190487
M30
