G04*
G04 #@! TF.GenerationSoftware,Altium Limited,Altium Designer,20.0.12 (288)*
G04*
G04 Layer_Color=65535*
%FSLAX25Y25*%
%MOIN*%
G70*
G01*
G75*
%ADD10C,0.00787*%
%ADD11C,0.01575*%
%ADD12C,0.01181*%
%ADD13C,0.00984*%
%ADD14C,0.00472*%
%ADD15C,0.00500*%
%ADD16C,0.00600*%
%ADD17C,0.00394*%
%ADD18C,0.00591*%
G36*
X200542Y217502D02*
X199024D01*
Y216988D01*
X198687D01*
Y217856D01*
X200542D01*
Y217502D01*
D02*
G37*
G36*
Y216393D02*
X198687D01*
Y216744D01*
X200542D01*
Y216393D01*
D02*
G37*
G36*
Y215657D02*
X199321Y214863D01*
X200542D01*
Y214510D01*
X198687D01*
Y214853D01*
X199904Y215642D01*
X198687D01*
Y215996D01*
X200542D01*
Y215657D01*
D02*
G37*
G36*
Y213074D02*
X200197D01*
Y213735D01*
X199862D01*
Y213074D01*
X199523D01*
Y213735D01*
X199034D01*
Y213074D01*
X198687D01*
Y214086D01*
X200542D01*
Y213074D01*
D02*
G37*
G36*
Y211666D02*
X199843D01*
Y211046D01*
X200542D01*
Y210689D01*
X198687D01*
Y211046D01*
X199501D01*
Y211666D01*
X198687D01*
Y212024D01*
X200542D01*
Y211666D01*
D02*
G37*
G36*
Y209254D02*
X200197D01*
Y209915D01*
X199862D01*
Y209254D01*
X199523D01*
Y209915D01*
X199034D01*
Y209254D01*
X198687D01*
Y210266D01*
X200542D01*
Y209254D01*
D02*
G37*
G36*
Y208498D02*
X200541Y208476D01*
Y208452D01*
X200539Y208423D01*
X200538Y208391D01*
X200535Y208357D01*
X200532Y208321D01*
X200529Y208285D01*
X200519Y208212D01*
X200513Y208178D01*
X200506Y208146D01*
X200497Y208115D01*
X200487Y208089D01*
Y208088D01*
X200484Y208083D01*
X200481Y208076D01*
X200477Y208067D01*
X200471Y208056D01*
X200462Y208044D01*
X200453Y208030D01*
X200443Y208014D01*
X200432Y207998D01*
X200419Y207980D01*
X200403Y207963D01*
X200387Y207946D01*
X200368Y207928D01*
X200349Y207911D01*
X200327Y207895D01*
X200304Y207879D01*
X200303Y207877D01*
X200298Y207876D01*
X200291Y207872D01*
X200281Y207866D01*
X200269Y207860D01*
X200255Y207854D01*
X200237Y207847D01*
X200219Y207838D01*
X200197Y207831D01*
X200175Y207824D01*
X200149Y207818D01*
X200123Y207812D01*
X200095Y207806D01*
X200065Y207802D01*
X200034Y207801D01*
X200003Y207799D01*
X200001D01*
X199994D01*
X199985D01*
X199972Y207801D01*
X199956Y207802D01*
X199939Y207804D01*
X199918Y207806D01*
X199895Y207811D01*
X199847Y207821D01*
X199823Y207828D01*
X199797Y207837D01*
X199771Y207847D01*
X199746Y207859D01*
X199720Y207872D01*
X199697Y207888D01*
X199695Y207889D01*
X199691Y207892D01*
X199685Y207896D01*
X199676Y207904D01*
X199666Y207914D01*
X199655Y207925D01*
X199642Y207938D01*
X199628Y207954D01*
X199613Y207972D01*
X199598Y207991D01*
X199582Y208012D01*
X199568Y208035D01*
X199552Y208062D01*
X199537Y208089D01*
X199524Y208120D01*
X199511Y208152D01*
X198687Y207712D01*
Y208098D01*
X199473Y208517D01*
Y208547D01*
X198687D01*
Y208900D01*
X200542D01*
Y208498D01*
D02*
G37*
G36*
Y206413D02*
X200197D01*
Y207074D01*
X199862D01*
Y206413D01*
X199523D01*
Y207074D01*
X199034D01*
Y206413D01*
X198687D01*
Y207425D01*
X200542D01*
Y206413D01*
D02*
G37*
G36*
X266275Y59651D02*
X266308Y59648D01*
X266350Y59642D01*
X266397Y59634D01*
X266449Y59623D01*
X266508Y59609D01*
X266568Y59590D01*
X266635Y59567D01*
X266701Y59540D01*
X266771Y59504D01*
X266837Y59465D01*
X266906Y59418D01*
X266973Y59363D01*
X267037Y59302D01*
X267039Y59299D01*
X267050Y59285D01*
X267067Y59266D01*
X267089Y59238D01*
X267114Y59205D01*
X267142Y59160D01*
X267169Y59113D01*
X267200Y59058D01*
X267233Y58997D01*
X267261Y58928D01*
X267289Y58853D01*
X267314Y58775D01*
X267336Y58689D01*
X267352Y58601D01*
X267363Y58504D01*
X267366Y58404D01*
Y58382D01*
X267363Y58354D01*
X267361Y58318D01*
X267358Y58274D01*
X267350Y58224D01*
X267341Y58169D01*
X267327Y58105D01*
X267311Y58041D01*
X267291Y57972D01*
X267267Y57903D01*
X267236Y57833D01*
X267200Y57761D01*
X267158Y57695D01*
X267111Y57629D01*
X267056Y57565D01*
X267053Y57562D01*
X267042Y57551D01*
X267023Y57534D01*
X266998Y57515D01*
X266967Y57490D01*
X266929Y57459D01*
X266884Y57432D01*
X266832Y57399D01*
X266773Y57368D01*
X266710Y57335D01*
X266640Y57307D01*
X266566Y57279D01*
X266482Y57254D01*
X266397Y57235D01*
X266302Y57218D01*
X266206Y57210D01*
Y57878D01*
X266208D01*
X266217Y57881D01*
X266233Y57883D01*
X266250Y57886D01*
X266275Y57892D01*
X266300Y57900D01*
X266330Y57908D01*
X266361Y57916D01*
X266427Y57942D01*
X266496Y57975D01*
X266560Y58016D01*
X266588Y58041D01*
X266616Y58066D01*
X266618Y58069D01*
X266621Y58074D01*
X266627Y58083D01*
X266635Y58094D01*
X266646Y58108D01*
X266657Y58124D01*
X266668Y58147D01*
X266682Y58169D01*
X266707Y58224D01*
X266726Y58288D01*
X266743Y58360D01*
X266746Y58398D01*
X266748Y58440D01*
Y58462D01*
X266746Y58479D01*
X266743Y58501D01*
X266740Y58523D01*
X266729Y58579D01*
X266712Y58640D01*
X266685Y58706D01*
X266668Y58739D01*
X266649Y58772D01*
X266624Y58803D01*
X266599Y58833D01*
X266596Y58836D01*
X266591Y58839D01*
X266582Y58847D01*
X266571Y58858D01*
X266557Y58869D01*
X266538Y58883D01*
X266519Y58897D01*
X266496Y58911D01*
X266441Y58939D01*
X266377Y58964D01*
X266305Y58983D01*
X266266Y58986D01*
X266228Y58988D01*
X266225D01*
X266217D01*
X266203D01*
X266186Y58986D01*
X266167Y58983D01*
X266142Y58978D01*
X266114Y58972D01*
X266084Y58964D01*
X266053Y58952D01*
X266020Y58936D01*
X265987Y58919D01*
X265951Y58900D01*
X265917Y58875D01*
X265884Y58847D01*
X265851Y58814D01*
X265818Y58778D01*
X265815Y58775D01*
X265809Y58770D01*
X265801Y58756D01*
X265793Y58739D01*
X265779Y58717D01*
X265765Y58692D01*
X265749Y58662D01*
X265735Y58626D01*
X265718Y58584D01*
X265701Y58540D01*
X265688Y58490D01*
X265674Y58437D01*
X265663Y58379D01*
X265654Y58315D01*
X265649Y58249D01*
X265646Y58177D01*
X265067D01*
Y58188D01*
X265064Y58199D01*
Y58216D01*
X265061Y58238D01*
X265059Y58260D01*
X265051Y58313D01*
X265042Y58371D01*
X265028Y58432D01*
X265014Y58487D01*
X265006Y58512D01*
X264995Y58537D01*
Y58540D01*
X264992Y58543D01*
X264984Y58556D01*
X264970Y58579D01*
X264953Y58606D01*
X264931Y58634D01*
X264904Y58664D01*
X264873Y58695D01*
X264840Y58723D01*
X264834Y58725D01*
X264823Y58734D01*
X264801Y58745D01*
X264776Y58756D01*
X264746Y58767D01*
X264710Y58778D01*
X264671Y58786D01*
X264629Y58789D01*
X264627D01*
X264624D01*
X264616D01*
X264604Y58786D01*
X264580Y58784D01*
X264546Y58775D01*
X264508Y58764D01*
X264469Y58745D01*
X264427Y58720D01*
X264391Y58687D01*
X264386Y58681D01*
X264375Y58667D01*
X264361Y58645D01*
X264341Y58617D01*
X264325Y58579D01*
X264308Y58531D01*
X264297Y58479D01*
X264294Y58421D01*
Y58396D01*
X264300Y58368D01*
X264305Y58335D01*
X264316Y58293D01*
X264330Y58249D01*
X264352Y58202D01*
X264383Y58157D01*
X264386Y58152D01*
X264400Y58138D01*
X264419Y58119D01*
X264444Y58094D01*
X264477Y58069D01*
X264516Y58041D01*
X264560Y58019D01*
X264610Y58000D01*
Y57351D01*
X264604D01*
X264593Y57354D01*
X264571Y57357D01*
X264546Y57363D01*
X264513Y57371D01*
X264474Y57379D01*
X264430Y57390D01*
X264386Y57404D01*
X264336Y57421D01*
X264286Y57443D01*
X264233Y57465D01*
X264181Y57490D01*
X264128Y57520D01*
X264075Y57554D01*
X264028Y57590D01*
X263981Y57631D01*
X263979Y57634D01*
X263967Y57645D01*
X263951Y57665D01*
X263929Y57689D01*
X263904Y57723D01*
X263876Y57759D01*
X263845Y57803D01*
X263812Y57856D01*
X263782Y57911D01*
X263751Y57972D01*
X263724Y58038D01*
X263699Y58110D01*
X263677Y58188D01*
X263660Y58268D01*
X263649Y58354D01*
X263646Y58443D01*
Y58462D01*
X263649Y58484D01*
X263652Y58515D01*
X263654Y58554D01*
X263660Y58598D01*
X263668Y58645D01*
X263679Y58698D01*
X263696Y58756D01*
X263713Y58814D01*
X263735Y58875D01*
X263762Y58936D01*
X263796Y58997D01*
X263832Y59058D01*
X263873Y59119D01*
X263923Y59174D01*
X263926Y59177D01*
X263937Y59188D01*
X263951Y59202D01*
X263973Y59221D01*
X263998Y59243D01*
X264031Y59268D01*
X264067Y59296D01*
X264109Y59324D01*
X264156Y59351D01*
X264206Y59376D01*
X264258Y59401D01*
X264316Y59423D01*
X264377Y59443D01*
X264441Y59457D01*
X264510Y59468D01*
X264580Y59470D01*
X264582D01*
X264591D01*
X264602D01*
X264618Y59468D01*
X264640D01*
X264665Y59465D01*
X264693Y59459D01*
X264724Y59454D01*
X264790Y59440D01*
X264862Y59415D01*
X264937Y59385D01*
X264976Y59363D01*
X265012Y59340D01*
X265014Y59338D01*
X265020Y59335D01*
X265031Y59326D01*
X265045Y59315D01*
X265061Y59302D01*
X265078Y59288D01*
X265100Y59268D01*
X265123Y59246D01*
X265147Y59218D01*
X265175Y59191D01*
X265200Y59160D01*
X265228Y59127D01*
X265278Y59052D01*
X265328Y58966D01*
Y58969D01*
X265333Y58980D01*
X265338Y58997D01*
X265347Y59019D01*
X265358Y59047D01*
X265369Y59077D01*
X265386Y59113D01*
X265405Y59149D01*
X265427Y59191D01*
X265449Y59229D01*
X265477Y59274D01*
X265508Y59315D01*
X265541Y59357D01*
X265580Y59396D01*
X265618Y59434D01*
X265663Y59470D01*
X265665Y59473D01*
X265674Y59479D01*
X265688Y59487D01*
X265704Y59498D01*
X265729Y59512D01*
X265757Y59529D01*
X265787Y59545D01*
X265823Y59562D01*
X265862Y59579D01*
X265906Y59595D01*
X265953Y59612D01*
X266003Y59626D01*
X266056Y59637D01*
X266111Y59645D01*
X266167Y59651D01*
X266228Y59653D01*
X266233D01*
X266250D01*
X266275Y59651D01*
D02*
G37*
G36*
X265599Y56922D02*
X265624D01*
X265682Y56919D01*
X265751Y56917D01*
X265829Y56911D01*
X265909Y56906D01*
X265998Y56897D01*
X266086Y56886D01*
X266178Y56875D01*
X266269Y56858D01*
X266361Y56839D01*
X266446Y56820D01*
X266530Y56795D01*
X266607Y56767D01*
X266613Y56764D01*
X266624Y56759D01*
X266643Y56750D01*
X266671Y56739D01*
X266704Y56723D01*
X266740Y56703D01*
X266782Y56681D01*
X266826Y56656D01*
X266873Y56629D01*
X266920Y56598D01*
X266967Y56562D01*
X267014Y56526D01*
X267061Y56485D01*
X267106Y56443D01*
X267147Y56396D01*
X267183Y56349D01*
X267186Y56346D01*
X267192Y56338D01*
X267200Y56321D01*
X267211Y56302D01*
X267225Y56277D01*
X267242Y56246D01*
X267258Y56210D01*
X267275Y56169D01*
X267291Y56124D01*
X267308Y56075D01*
X267325Y56019D01*
X267338Y55961D01*
X267350Y55897D01*
X267358Y55834D01*
X267363Y55761D01*
X267366Y55690D01*
Y55651D01*
X267363Y55623D01*
X267361Y55590D01*
X267355Y55548D01*
X267350Y55504D01*
X267344Y55457D01*
X267333Y55404D01*
X267322Y55352D01*
X267308Y55296D01*
X267289Y55238D01*
X267269Y55183D01*
X267244Y55127D01*
X267217Y55072D01*
X267183Y55019D01*
X267181Y55016D01*
X267175Y55008D01*
X267164Y54994D01*
X267147Y54975D01*
X267128Y54953D01*
X267106Y54925D01*
X267075Y54895D01*
X267042Y54864D01*
X267006Y54831D01*
X266965Y54795D01*
X266917Y54761D01*
X266868Y54725D01*
X266812Y54690D01*
X266754Y54656D01*
X266690Y54623D01*
X266621Y54593D01*
X266616Y54590D01*
X266604Y54587D01*
X266582Y54579D01*
X266552Y54568D01*
X266513Y54557D01*
X266463Y54545D01*
X266408Y54532D01*
X266344Y54518D01*
X266272Y54501D01*
X266192Y54487D01*
X266103Y54476D01*
X266006Y54465D01*
X265901Y54454D01*
X265790Y54446D01*
X265671Y54443D01*
X265544Y54440D01*
X265541D01*
X265532D01*
X265519D01*
X265502D01*
X265477D01*
X265449Y54443D01*
X265419D01*
X265383Y54446D01*
X265347D01*
X265302Y54448D01*
X265258Y54451D01*
X265211Y54457D01*
X265109Y54465D01*
X265001Y54479D01*
X264887Y54493D01*
X264771Y54512D01*
X264652Y54537D01*
X264535Y54568D01*
X264422Y54601D01*
X264316Y54640D01*
X264217Y54687D01*
X264170Y54712D01*
X264128Y54739D01*
X264125D01*
X264123Y54742D01*
X264106Y54756D01*
X264084Y54775D01*
X264053Y54800D01*
X264017Y54836D01*
X263976Y54878D01*
X263931Y54925D01*
X263887Y54980D01*
X263843Y55044D01*
X263798Y55113D01*
X263757Y55191D01*
X263721Y55274D01*
X263690Y55363D01*
X263666Y55460D01*
X263652Y55562D01*
X263646Y55615D01*
Y55709D01*
X263649Y55734D01*
X263652Y55770D01*
X263657Y55809D01*
X263663Y55850D01*
X263671Y55900D01*
X263679Y55950D01*
X263693Y56002D01*
X263707Y56058D01*
X263726Y56116D01*
X263749Y56172D01*
X263773Y56230D01*
X263804Y56285D01*
X263837Y56338D01*
X263840Y56340D01*
X263845Y56349D01*
X263857Y56365D01*
X263873Y56385D01*
X263893Y56407D01*
X263917Y56435D01*
X263948Y56465D01*
X263981Y56495D01*
X264020Y56532D01*
X264064Y56568D01*
X264111Y56601D01*
X264164Y56637D01*
X264219Y56673D01*
X264280Y56709D01*
X264347Y56739D01*
X264419Y56770D01*
X264424Y56773D01*
X264438Y56775D01*
X264460Y56784D01*
X264491Y56795D01*
X264530Y56806D01*
X264580Y56820D01*
X264635Y56833D01*
X264701Y56847D01*
X264774Y56861D01*
X264857Y56875D01*
X264945Y56889D01*
X265042Y56900D01*
X265147Y56911D01*
X265261Y56919D01*
X265380Y56922D01*
X265508Y56925D01*
X265510D01*
X265516D01*
X265524D01*
X265538D01*
X265555D01*
X265574D01*
X265599Y56922D01*
D02*
G37*
G36*
Y54160D02*
X265624D01*
X265682Y54158D01*
X265751Y54155D01*
X265829Y54149D01*
X265909Y54144D01*
X265998Y54136D01*
X266086Y54124D01*
X266178Y54113D01*
X266269Y54097D01*
X266361Y54077D01*
X266446Y54058D01*
X266530Y54033D01*
X266607Y54005D01*
X266613Y54002D01*
X266624Y53997D01*
X266643Y53989D01*
X266671Y53978D01*
X266704Y53961D01*
X266740Y53942D01*
X266782Y53919D01*
X266826Y53895D01*
X266873Y53867D01*
X266920Y53836D01*
X266967Y53800D01*
X267014Y53764D01*
X267061Y53723D01*
X267106Y53681D01*
X267147Y53634D01*
X267183Y53587D01*
X267186Y53584D01*
X267192Y53576D01*
X267200Y53559D01*
X267211Y53540D01*
X267225Y53515D01*
X267242Y53485D01*
X267258Y53448D01*
X267275Y53407D01*
X267291Y53363D01*
X267308Y53313D01*
X267325Y53257D01*
X267338Y53199D01*
X267350Y53136D01*
X267358Y53072D01*
X267363Y53000D01*
X267366Y52928D01*
Y52889D01*
X267363Y52861D01*
X267361Y52828D01*
X267355Y52786D01*
X267350Y52742D01*
X267344Y52695D01*
X267333Y52643D01*
X267322Y52590D01*
X267308Y52534D01*
X267289Y52476D01*
X267269Y52421D01*
X267244Y52365D01*
X267217Y52310D01*
X267183Y52257D01*
X267181Y52255D01*
X267175Y52246D01*
X267164Y52232D01*
X267147Y52213D01*
X267128Y52191D01*
X267106Y52163D01*
X267075Y52133D01*
X267042Y52102D01*
X267006Y52069D01*
X266965Y52033D01*
X266917Y52000D01*
X266868Y51964D01*
X266812Y51928D01*
X266754Y51895D01*
X266690Y51861D01*
X266621Y51831D01*
X266616Y51828D01*
X266604Y51825D01*
X266582Y51817D01*
X266552Y51806D01*
X266513Y51795D01*
X266463Y51784D01*
X266408Y51770D01*
X266344Y51756D01*
X266272Y51739D01*
X266192Y51726D01*
X266103Y51714D01*
X266006Y51703D01*
X265901Y51692D01*
X265790Y51684D01*
X265671Y51681D01*
X265544Y51679D01*
X265541D01*
X265532D01*
X265519D01*
X265502D01*
X265477D01*
X265449Y51681D01*
X265419D01*
X265383Y51684D01*
X265347D01*
X265302Y51687D01*
X265258Y51690D01*
X265211Y51695D01*
X265109Y51703D01*
X265001Y51717D01*
X264887Y51731D01*
X264771Y51750D01*
X264652Y51775D01*
X264535Y51806D01*
X264422Y51839D01*
X264316Y51878D01*
X264217Y51925D01*
X264170Y51950D01*
X264128Y51978D01*
X264125D01*
X264123Y51980D01*
X264106Y51994D01*
X264084Y52014D01*
X264053Y52039D01*
X264017Y52075D01*
X263976Y52116D01*
X263931Y52163D01*
X263887Y52219D01*
X263843Y52282D01*
X263798Y52352D01*
X263757Y52429D01*
X263721Y52512D01*
X263690Y52601D01*
X263666Y52698D01*
X263652Y52800D01*
X263646Y52853D01*
Y52947D01*
X263649Y52972D01*
X263652Y53008D01*
X263657Y53047D01*
X263663Y53088D01*
X263671Y53138D01*
X263679Y53188D01*
X263693Y53241D01*
X263707Y53296D01*
X263726Y53354D01*
X263749Y53410D01*
X263773Y53468D01*
X263804Y53523D01*
X263837Y53576D01*
X263840Y53579D01*
X263845Y53587D01*
X263857Y53604D01*
X263873Y53623D01*
X263893Y53645D01*
X263917Y53673D01*
X263948Y53703D01*
X263981Y53734D01*
X264020Y53770D01*
X264064Y53806D01*
X264111Y53839D01*
X264164Y53875D01*
X264219Y53911D01*
X264280Y53947D01*
X264347Y53978D01*
X264419Y54008D01*
X264424Y54011D01*
X264438Y54014D01*
X264460Y54022D01*
X264491Y54033D01*
X264530Y54044D01*
X264580Y54058D01*
X264635Y54072D01*
X264701Y54086D01*
X264774Y54100D01*
X264857Y54113D01*
X264945Y54127D01*
X265042Y54138D01*
X265147Y54149D01*
X265261Y54158D01*
X265380Y54160D01*
X265508Y54163D01*
X265510D01*
X265516D01*
X265524D01*
X265538D01*
X265555D01*
X265574D01*
X265599Y54160D01*
D02*
G37*
G36*
X266278Y49892D02*
X265665D01*
Y51116D01*
X266278D01*
Y49892D01*
D02*
G37*
G36*
X265599Y49327D02*
X265624D01*
X265682Y49324D01*
X265751Y49321D01*
X265829Y49316D01*
X265909Y49310D01*
X265998Y49302D01*
X266086Y49291D01*
X266178Y49280D01*
X266269Y49263D01*
X266361Y49244D01*
X266446Y49224D01*
X266530Y49199D01*
X266607Y49172D01*
X266613Y49169D01*
X266624Y49163D01*
X266643Y49155D01*
X266671Y49144D01*
X266704Y49127D01*
X266740Y49108D01*
X266782Y49086D01*
X266826Y49061D01*
X266873Y49033D01*
X266920Y49003D01*
X266967Y48967D01*
X267014Y48931D01*
X267061Y48889D01*
X267106Y48848D01*
X267147Y48801D01*
X267183Y48753D01*
X267186Y48751D01*
X267192Y48742D01*
X267200Y48726D01*
X267211Y48706D01*
X267225Y48681D01*
X267242Y48651D01*
X267258Y48615D01*
X267275Y48573D01*
X267291Y48529D01*
X267308Y48479D01*
X267325Y48424D01*
X267338Y48366D01*
X267350Y48302D01*
X267358Y48238D01*
X267363Y48166D01*
X267366Y48094D01*
Y48055D01*
X267363Y48028D01*
X267361Y47994D01*
X267355Y47953D01*
X267350Y47908D01*
X267344Y47861D01*
X267333Y47809D01*
X267322Y47756D01*
X267308Y47701D01*
X267289Y47643D01*
X267269Y47587D01*
X267244Y47532D01*
X267217Y47476D01*
X267183Y47424D01*
X267181Y47421D01*
X267175Y47413D01*
X267164Y47399D01*
X267147Y47379D01*
X267128Y47357D01*
X267106Y47330D01*
X267075Y47299D01*
X267042Y47269D01*
X267006Y47235D01*
X266965Y47199D01*
X266917Y47166D01*
X266868Y47130D01*
X266812Y47094D01*
X266754Y47061D01*
X266690Y47028D01*
X266621Y46997D01*
X266616Y46994D01*
X266604Y46992D01*
X266582Y46983D01*
X266552Y46972D01*
X266513Y46961D01*
X266463Y46950D01*
X266408Y46936D01*
X266344Y46922D01*
X266272Y46906D01*
X266192Y46892D01*
X266103Y46881D01*
X266006Y46870D01*
X265901Y46859D01*
X265790Y46850D01*
X265671Y46848D01*
X265544Y46845D01*
X265541D01*
X265532D01*
X265519D01*
X265502D01*
X265477D01*
X265449Y46848D01*
X265419D01*
X265383Y46850D01*
X265347D01*
X265302Y46853D01*
X265258Y46856D01*
X265211Y46861D01*
X265109Y46870D01*
X265001Y46884D01*
X264887Y46898D01*
X264771Y46917D01*
X264652Y46942D01*
X264535Y46972D01*
X264422Y47006D01*
X264316Y47044D01*
X264217Y47091D01*
X264170Y47116D01*
X264128Y47144D01*
X264125D01*
X264123Y47147D01*
X264106Y47161D01*
X264084Y47180D01*
X264053Y47205D01*
X264017Y47241D01*
X263976Y47282D01*
X263931Y47330D01*
X263887Y47385D01*
X263843Y47449D01*
X263798Y47518D01*
X263757Y47596D01*
X263721Y47679D01*
X263690Y47767D01*
X263666Y47864D01*
X263652Y47967D01*
X263646Y48019D01*
Y48114D01*
X263649Y48138D01*
X263652Y48175D01*
X263657Y48213D01*
X263663Y48255D01*
X263671Y48305D01*
X263679Y48355D01*
X263693Y48407D01*
X263707Y48463D01*
X263726Y48521D01*
X263749Y48576D01*
X263773Y48634D01*
X263804Y48690D01*
X263837Y48742D01*
X263840Y48745D01*
X263845Y48753D01*
X263857Y48770D01*
X263873Y48789D01*
X263893Y48812D01*
X263917Y48839D01*
X263948Y48870D01*
X263981Y48900D01*
X264020Y48936D01*
X264064Y48972D01*
X264111Y49005D01*
X264164Y49042D01*
X264219Y49077D01*
X264280Y49114D01*
X264347Y49144D01*
X264419Y49174D01*
X264424Y49177D01*
X264438Y49180D01*
X264460Y49188D01*
X264491Y49199D01*
X264530Y49210D01*
X264580Y49224D01*
X264635Y49238D01*
X264701Y49252D01*
X264774Y49266D01*
X264857Y49280D01*
X264945Y49294D01*
X265042Y49305D01*
X265147Y49316D01*
X265261Y49324D01*
X265380Y49327D01*
X265508Y49330D01*
X265510D01*
X265516D01*
X265524D01*
X265538D01*
X265555D01*
X265574D01*
X265599Y49327D01*
D02*
G37*
G36*
Y46565D02*
X265624D01*
X265682Y46562D01*
X265751Y46560D01*
X265829Y46554D01*
X265909Y46549D01*
X265998Y46540D01*
X266086Y46529D01*
X266178Y46518D01*
X266269Y46501D01*
X266361Y46482D01*
X266446Y46463D01*
X266530Y46438D01*
X266607Y46410D01*
X266613Y46407D01*
X266624Y46402D01*
X266643Y46393D01*
X266671Y46382D01*
X266704Y46366D01*
X266740Y46346D01*
X266782Y46324D01*
X266826Y46299D01*
X266873Y46271D01*
X266920Y46241D01*
X266967Y46205D01*
X267014Y46169D01*
X267061Y46127D01*
X267106Y46086D01*
X267147Y46039D01*
X267183Y45992D01*
X267186Y45989D01*
X267192Y45981D01*
X267200Y45964D01*
X267211Y45945D01*
X267225Y45920D01*
X267242Y45889D01*
X267258Y45853D01*
X267275Y45812D01*
X267291Y45767D01*
X267308Y45717D01*
X267325Y45662D01*
X267338Y45604D01*
X267350Y45540D01*
X267358Y45476D01*
X267363Y45404D01*
X267366Y45332D01*
Y45294D01*
X267363Y45266D01*
X267361Y45233D01*
X267355Y45191D01*
X267350Y45147D01*
X267344Y45100D01*
X267333Y45047D01*
X267322Y44995D01*
X267308Y44939D01*
X267289Y44881D01*
X267269Y44826D01*
X267244Y44770D01*
X267217Y44715D01*
X267183Y44662D01*
X267181Y44659D01*
X267175Y44651D01*
X267164Y44637D01*
X267147Y44618D01*
X267128Y44596D01*
X267106Y44568D01*
X267075Y44537D01*
X267042Y44507D01*
X267006Y44474D01*
X266965Y44438D01*
X266917Y44405D01*
X266868Y44368D01*
X266812Y44333D01*
X266754Y44299D01*
X266690Y44266D01*
X266621Y44236D01*
X266616Y44233D01*
X266604Y44230D01*
X266582Y44222D01*
X266552Y44211D01*
X266513Y44199D01*
X266463Y44188D01*
X266408Y44175D01*
X266344Y44161D01*
X266272Y44144D01*
X266192Y44130D01*
X266103Y44119D01*
X266006Y44108D01*
X265901Y44097D01*
X265790Y44089D01*
X265671Y44086D01*
X265544Y44083D01*
X265541D01*
X265532D01*
X265519D01*
X265502D01*
X265477D01*
X265449Y44086D01*
X265419D01*
X265383Y44089D01*
X265347D01*
X265302Y44091D01*
X265258Y44094D01*
X265211Y44100D01*
X265109Y44108D01*
X265001Y44122D01*
X264887Y44136D01*
X264771Y44155D01*
X264652Y44180D01*
X264535Y44211D01*
X264422Y44244D01*
X264316Y44283D01*
X264217Y44330D01*
X264170Y44355D01*
X264128Y44382D01*
X264125D01*
X264123Y44385D01*
X264106Y44399D01*
X264084Y44418D01*
X264053Y44443D01*
X264017Y44479D01*
X263976Y44521D01*
X263931Y44568D01*
X263887Y44623D01*
X263843Y44687D01*
X263798Y44756D01*
X263757Y44834D01*
X263721Y44917D01*
X263690Y45006D01*
X263666Y45103D01*
X263652Y45205D01*
X263646Y45258D01*
Y45352D01*
X263649Y45377D01*
X263652Y45413D01*
X263657Y45452D01*
X263663Y45493D01*
X263671Y45543D01*
X263679Y45593D01*
X263693Y45645D01*
X263707Y45701D01*
X263726Y45759D01*
X263749Y45814D01*
X263773Y45873D01*
X263804Y45928D01*
X263837Y45981D01*
X263840Y45983D01*
X263845Y45992D01*
X263857Y46008D01*
X263873Y46028D01*
X263893Y46050D01*
X263917Y46078D01*
X263948Y46108D01*
X263981Y46139D01*
X264020Y46174D01*
X264064Y46211D01*
X264111Y46244D01*
X264164Y46280D01*
X264219Y46316D01*
X264280Y46352D01*
X264347Y46382D01*
X264419Y46413D01*
X264424Y46415D01*
X264438Y46418D01*
X264460Y46427D01*
X264491Y46438D01*
X264530Y46449D01*
X264580Y46463D01*
X264635Y46476D01*
X264701Y46490D01*
X264774Y46504D01*
X264857Y46518D01*
X264945Y46532D01*
X265042Y46543D01*
X265147Y46554D01*
X265261Y46562D01*
X265380Y46565D01*
X265508Y46568D01*
X265510D01*
X265516D01*
X265524D01*
X265538D01*
X265555D01*
X265574D01*
X265599Y46565D01*
D02*
G37*
G36*
Y43803D02*
X265624D01*
X265682Y43801D01*
X265751Y43798D01*
X265829Y43792D01*
X265909Y43787D01*
X265998Y43778D01*
X266086Y43767D01*
X266178Y43756D01*
X266269Y43740D01*
X266361Y43720D01*
X266446Y43701D01*
X266530Y43676D01*
X266607Y43648D01*
X266613Y43646D01*
X266624Y43640D01*
X266643Y43632D01*
X266671Y43621D01*
X266704Y43604D01*
X266740Y43585D01*
X266782Y43562D01*
X266826Y43538D01*
X266873Y43510D01*
X266920Y43479D01*
X266967Y43443D01*
X267014Y43407D01*
X267061Y43366D01*
X267106Y43324D01*
X267147Y43277D01*
X267183Y43230D01*
X267186Y43227D01*
X267192Y43219D01*
X267200Y43202D01*
X267211Y43183D01*
X267225Y43158D01*
X267242Y43128D01*
X267258Y43091D01*
X267275Y43050D01*
X267291Y43006D01*
X267308Y42956D01*
X267325Y42900D01*
X267338Y42842D01*
X267350Y42779D01*
X267358Y42715D01*
X267363Y42643D01*
X267366Y42571D01*
Y42532D01*
X267363Y42504D01*
X267361Y42471D01*
X267355Y42430D01*
X267350Y42385D01*
X267344Y42338D01*
X267333Y42285D01*
X267322Y42233D01*
X267308Y42177D01*
X267289Y42119D01*
X267269Y42064D01*
X267244Y42008D01*
X267217Y41953D01*
X267183Y41900D01*
X267181Y41898D01*
X267175Y41889D01*
X267164Y41875D01*
X267147Y41856D01*
X267128Y41834D01*
X267106Y41806D01*
X267075Y41776D01*
X267042Y41745D01*
X267006Y41712D01*
X266965Y41676D01*
X266917Y41643D01*
X266868Y41607D01*
X266812Y41571D01*
X266754Y41537D01*
X266690Y41504D01*
X266621Y41474D01*
X266616Y41471D01*
X266604Y41468D01*
X266582Y41460D01*
X266552Y41449D01*
X266513Y41438D01*
X266463Y41427D01*
X266408Y41413D01*
X266344Y41399D01*
X266272Y41382D01*
X266192Y41369D01*
X266103Y41357D01*
X266006Y41346D01*
X265901Y41335D01*
X265790Y41327D01*
X265671Y41324D01*
X265544Y41322D01*
X265541D01*
X265532D01*
X265519D01*
X265502D01*
X265477D01*
X265449Y41324D01*
X265419D01*
X265383Y41327D01*
X265347D01*
X265302Y41330D01*
X265258Y41333D01*
X265211Y41338D01*
X265109Y41346D01*
X265001Y41360D01*
X264887Y41374D01*
X264771Y41394D01*
X264652Y41418D01*
X264535Y41449D01*
X264422Y41482D01*
X264316Y41521D01*
X264217Y41568D01*
X264170Y41593D01*
X264128Y41621D01*
X264125D01*
X264123Y41623D01*
X264106Y41637D01*
X264084Y41657D01*
X264053Y41682D01*
X264017Y41718D01*
X263976Y41759D01*
X263931Y41806D01*
X263887Y41862D01*
X263843Y41925D01*
X263798Y41995D01*
X263757Y42072D01*
X263721Y42155D01*
X263690Y42244D01*
X263666Y42341D01*
X263652Y42443D01*
X263646Y42496D01*
Y42590D01*
X263649Y42615D01*
X263652Y42651D01*
X263657Y42690D01*
X263663Y42731D01*
X263671Y42781D01*
X263679Y42831D01*
X263693Y42884D01*
X263707Y42939D01*
X263726Y42997D01*
X263749Y43053D01*
X263773Y43111D01*
X263804Y43166D01*
X263837Y43219D01*
X263840Y43222D01*
X263845Y43230D01*
X263857Y43247D01*
X263873Y43266D01*
X263893Y43288D01*
X263917Y43316D01*
X263948Y43346D01*
X263981Y43377D01*
X264020Y43413D01*
X264064Y43449D01*
X264111Y43482D01*
X264164Y43518D01*
X264219Y43554D01*
X264280Y43590D01*
X264347Y43621D01*
X264419Y43651D01*
X264424Y43654D01*
X264438Y43657D01*
X264460Y43665D01*
X264491Y43676D01*
X264530Y43687D01*
X264580Y43701D01*
X264635Y43715D01*
X264701Y43729D01*
X264774Y43742D01*
X264857Y43756D01*
X264945Y43770D01*
X265042Y43781D01*
X265147Y43792D01*
X265261Y43801D01*
X265380Y43803D01*
X265508Y43806D01*
X265510D01*
X265516D01*
X265524D01*
X265538D01*
X265555D01*
X265574D01*
X265599Y43803D01*
D02*
G37*
G36*
X262021Y40308D02*
X262051Y40305D01*
X262087Y40297D01*
X262131Y40283D01*
X262176Y40263D01*
X262220Y40236D01*
X262264Y40200D01*
X262270Y40194D01*
X262281Y40180D01*
X262298Y40155D01*
X262317Y40125D01*
X262339Y40086D01*
X262356Y40039D01*
X262367Y39989D01*
X262372Y39931D01*
Y39917D01*
X262370Y39906D01*
X262367Y39876D01*
X262359Y39840D01*
X262345Y39795D01*
X262328Y39751D01*
X262300Y39707D01*
X262264Y39662D01*
X262259Y39657D01*
X262245Y39646D01*
X262220Y39629D01*
X262190Y39610D01*
X262151Y39588D01*
X262104Y39571D01*
X262054Y39560D01*
X261996Y39554D01*
X261993D01*
X261987D01*
X261982D01*
X261971Y39557D01*
X261940Y39560D01*
X261904Y39568D01*
X261863Y39582D01*
X261818Y39599D01*
X261774Y39626D01*
X261730Y39662D01*
X261724Y39668D01*
X261713Y39682D01*
X261694Y39707D01*
X261674Y39737D01*
X261655Y39776D01*
X261636Y39823D01*
X261625Y39873D01*
X261619Y39931D01*
Y39948D01*
X261622Y39959D01*
X261625Y39986D01*
X261633Y40025D01*
X261647Y40067D01*
X261666Y40111D01*
X261694Y40155D01*
X261730Y40200D01*
X261735Y40205D01*
X261749Y40216D01*
X261774Y40236D01*
X261805Y40255D01*
X261843Y40274D01*
X261888Y40294D01*
X261940Y40305D01*
X261996Y40310D01*
X261999D01*
X262001D01*
X262010D01*
X262021Y40308D01*
D02*
G37*
G36*
X260023D02*
X260054Y40305D01*
X260090Y40297D01*
X260132Y40283D01*
X260176Y40263D01*
X260220Y40236D01*
X260264Y40200D01*
X260270Y40194D01*
X260281Y40180D01*
X260298Y40155D01*
X260317Y40125D01*
X260339Y40086D01*
X260356Y40039D01*
X260367Y39989D01*
X260372Y39931D01*
Y39917D01*
X260370Y39906D01*
X260367Y39876D01*
X260359Y39840D01*
X260345Y39795D01*
X260328Y39751D01*
X260300Y39707D01*
X260264Y39662D01*
X260259Y39657D01*
X260245Y39646D01*
X260220Y39629D01*
X260190Y39610D01*
X260151Y39588D01*
X260107Y39571D01*
X260054Y39560D01*
X259998Y39554D01*
X259996D01*
X259990D01*
X259982D01*
X259971Y39557D01*
X259943Y39560D01*
X259904Y39568D01*
X259863Y39582D01*
X259819Y39599D01*
X259774Y39626D01*
X259730Y39662D01*
X259724Y39668D01*
X259713Y39682D01*
X259694Y39707D01*
X259674Y39737D01*
X259655Y39776D01*
X259636Y39823D01*
X259625Y39873D01*
X259619Y39931D01*
Y39948D01*
X259622Y39959D01*
X259625Y39986D01*
X259633Y40025D01*
X259647Y40067D01*
X259666Y40111D01*
X259694Y40155D01*
X259730Y40200D01*
X259735Y40205D01*
X259749Y40216D01*
X259774Y40236D01*
X259805Y40255D01*
X259843Y40274D01*
X259891Y40294D01*
X259940Y40305D01*
X259998Y40310D01*
X260001D01*
X260004D01*
X260012D01*
X260023Y40308D01*
D02*
G37*
G36*
X266278Y39535D02*
X265665D01*
Y40759D01*
X266278D01*
Y39535D01*
D02*
G37*
G36*
X265599Y38970D02*
X265624D01*
X265682Y38967D01*
X265751Y38964D01*
X265829Y38959D01*
X265909Y38953D01*
X265998Y38945D01*
X266086Y38934D01*
X266178Y38923D01*
X266269Y38906D01*
X266361Y38887D01*
X266446Y38867D01*
X266530Y38842D01*
X266607Y38815D01*
X266613Y38812D01*
X266624Y38806D01*
X266643Y38798D01*
X266671Y38787D01*
X266704Y38770D01*
X266740Y38751D01*
X266782Y38729D01*
X266826Y38704D01*
X266873Y38676D01*
X266920Y38646D01*
X266967Y38610D01*
X267014Y38574D01*
X267061Y38532D01*
X267106Y38491D01*
X267147Y38443D01*
X267183Y38396D01*
X267186Y38394D01*
X267192Y38385D01*
X267200Y38369D01*
X267211Y38349D01*
X267225Y38324D01*
X267242Y38294D01*
X267258Y38258D01*
X267275Y38216D01*
X267291Y38172D01*
X267308Y38122D01*
X267325Y38067D01*
X267338Y38009D01*
X267350Y37945D01*
X267358Y37881D01*
X267363Y37809D01*
X267366Y37737D01*
Y37698D01*
X267363Y37671D01*
X267361Y37637D01*
X267355Y37596D01*
X267350Y37552D01*
X267344Y37504D01*
X267333Y37452D01*
X267322Y37399D01*
X267308Y37344D01*
X267289Y37286D01*
X267269Y37230D01*
X267244Y37175D01*
X267217Y37119D01*
X267183Y37067D01*
X267181Y37064D01*
X267175Y37056D01*
X267164Y37042D01*
X267147Y37022D01*
X267128Y37000D01*
X267106Y36973D01*
X267075Y36942D01*
X267042Y36912D01*
X267006Y36878D01*
X266965Y36842D01*
X266917Y36809D01*
X266868Y36773D01*
X266812Y36737D01*
X266754Y36704D01*
X266690Y36671D01*
X266621Y36640D01*
X266616Y36637D01*
X266604Y36635D01*
X266582Y36626D01*
X266552Y36615D01*
X266513Y36604D01*
X266463Y36593D01*
X266408Y36579D01*
X266344Y36565D01*
X266272Y36549D01*
X266192Y36535D01*
X266103Y36524D01*
X266006Y36513D01*
X265901Y36502D01*
X265790Y36493D01*
X265671Y36491D01*
X265544Y36488D01*
X265541D01*
X265532D01*
X265519D01*
X265502D01*
X265477D01*
X265449Y36491D01*
X265419D01*
X265383Y36493D01*
X265347D01*
X265302Y36496D01*
X265258Y36499D01*
X265211Y36505D01*
X265109Y36513D01*
X265001Y36527D01*
X264887Y36540D01*
X264771Y36560D01*
X264652Y36585D01*
X264535Y36615D01*
X264422Y36648D01*
X264316Y36687D01*
X264217Y36734D01*
X264170Y36759D01*
X264128Y36787D01*
X264125D01*
X264123Y36790D01*
X264106Y36804D01*
X264084Y36823D01*
X264053Y36848D01*
X264017Y36884D01*
X263976Y36926D01*
X263931Y36973D01*
X263887Y37028D01*
X263843Y37092D01*
X263798Y37161D01*
X263757Y37238D01*
X263721Y37322D01*
X263690Y37410D01*
X263666Y37507D01*
X263652Y37610D01*
X263646Y37662D01*
Y37756D01*
X263649Y37781D01*
X263652Y37817D01*
X263657Y37856D01*
X263663Y37898D01*
X263671Y37948D01*
X263679Y37997D01*
X263693Y38050D01*
X263707Y38105D01*
X263726Y38164D01*
X263749Y38219D01*
X263773Y38277D01*
X263804Y38333D01*
X263837Y38385D01*
X263840Y38388D01*
X263845Y38396D01*
X263857Y38413D01*
X263873Y38432D01*
X263893Y38454D01*
X263917Y38482D01*
X263948Y38513D01*
X263981Y38543D01*
X264020Y38579D01*
X264064Y38615D01*
X264111Y38648D01*
X264164Y38684D01*
X264219Y38720D01*
X264280Y38756D01*
X264347Y38787D01*
X264419Y38817D01*
X264424Y38820D01*
X264438Y38823D01*
X264460Y38831D01*
X264491Y38842D01*
X264530Y38853D01*
X264580Y38867D01*
X264635Y38881D01*
X264701Y38895D01*
X264774Y38909D01*
X264857Y38923D01*
X264945Y38936D01*
X265042Y38948D01*
X265147Y38959D01*
X265261Y38967D01*
X265380Y38970D01*
X265508Y38972D01*
X265510D01*
X265516D01*
X265524D01*
X265538D01*
X265555D01*
X265574D01*
X265599Y38970D01*
D02*
G37*
G36*
X262306Y38183D02*
X259982Y36676D01*
X262306D01*
Y36000D01*
X258763D01*
Y36648D01*
X261095Y38164D01*
X258763D01*
Y38840D01*
X262306D01*
Y38183D01*
D02*
G37*
G36*
X265599Y36208D02*
X265624D01*
X265682Y36205D01*
X265751Y36202D01*
X265829Y36197D01*
X265909Y36191D01*
X265998Y36183D01*
X266086Y36172D01*
X266178Y36161D01*
X266269Y36144D01*
X266361Y36125D01*
X266446Y36106D01*
X266530Y36081D01*
X266607Y36053D01*
X266613Y36050D01*
X266624Y36045D01*
X266643Y36036D01*
X266671Y36025D01*
X266704Y36009D01*
X266740Y35989D01*
X266782Y35967D01*
X266826Y35942D01*
X266873Y35914D01*
X266920Y35884D01*
X266967Y35848D01*
X267014Y35812D01*
X267061Y35770D01*
X267106Y35729D01*
X267147Y35682D01*
X267183Y35635D01*
X267186Y35632D01*
X267192Y35624D01*
X267200Y35607D01*
X267211Y35588D01*
X267225Y35563D01*
X267242Y35532D01*
X267258Y35496D01*
X267275Y35455D01*
X267291Y35410D01*
X267308Y35360D01*
X267325Y35305D01*
X267338Y35247D01*
X267350Y35183D01*
X267358Y35120D01*
X267363Y35047D01*
X267366Y34975D01*
Y34937D01*
X267363Y34909D01*
X267361Y34876D01*
X267355Y34834D01*
X267350Y34790D01*
X267344Y34743D01*
X267333Y34690D01*
X267322Y34637D01*
X267308Y34582D01*
X267289Y34524D01*
X267269Y34468D01*
X267244Y34413D01*
X267217Y34358D01*
X267183Y34305D01*
X267181Y34302D01*
X267175Y34294D01*
X267164Y34280D01*
X267147Y34261D01*
X267128Y34239D01*
X267106Y34211D01*
X267075Y34180D01*
X267042Y34150D01*
X267006Y34117D01*
X266965Y34081D01*
X266917Y34047D01*
X266868Y34012D01*
X266812Y33975D01*
X266754Y33942D01*
X266690Y33909D01*
X266621Y33878D01*
X266616Y33876D01*
X266604Y33873D01*
X266582Y33865D01*
X266552Y33854D01*
X266513Y33843D01*
X266463Y33831D01*
X266408Y33817D01*
X266344Y33804D01*
X266272Y33787D01*
X266192Y33773D01*
X266103Y33762D01*
X266006Y33751D01*
X265901Y33740D01*
X265790Y33732D01*
X265671Y33729D01*
X265544Y33726D01*
X265541D01*
X265532D01*
X265519D01*
X265502D01*
X265477D01*
X265449Y33729D01*
X265419D01*
X265383Y33732D01*
X265347D01*
X265302Y33734D01*
X265258Y33737D01*
X265211Y33743D01*
X265109Y33751D01*
X265001Y33765D01*
X264887Y33779D01*
X264771Y33798D01*
X264652Y33823D01*
X264535Y33854D01*
X264422Y33887D01*
X264316Y33926D01*
X264217Y33973D01*
X264170Y33998D01*
X264128Y34025D01*
X264125D01*
X264123Y34028D01*
X264106Y34042D01*
X264084Y34061D01*
X264053Y34086D01*
X264017Y34122D01*
X263976Y34164D01*
X263931Y34211D01*
X263887Y34266D01*
X263843Y34330D01*
X263798Y34399D01*
X263757Y34477D01*
X263721Y34560D01*
X263690Y34649D01*
X263666Y34745D01*
X263652Y34848D01*
X263646Y34901D01*
Y34995D01*
X263649Y35020D01*
X263652Y35056D01*
X263657Y35094D01*
X263663Y35136D01*
X263671Y35186D01*
X263679Y35236D01*
X263693Y35288D01*
X263707Y35344D01*
X263726Y35402D01*
X263749Y35457D01*
X263773Y35516D01*
X263804Y35571D01*
X263837Y35624D01*
X263840Y35626D01*
X263845Y35635D01*
X263857Y35651D01*
X263873Y35671D01*
X263893Y35693D01*
X263917Y35721D01*
X263948Y35751D01*
X263981Y35781D01*
X264020Y35818D01*
X264064Y35853D01*
X264111Y35887D01*
X264164Y35923D01*
X264219Y35959D01*
X264280Y35995D01*
X264347Y36025D01*
X264419Y36056D01*
X264424Y36059D01*
X264438Y36061D01*
X264460Y36070D01*
X264491Y36081D01*
X264530Y36092D01*
X264580Y36106D01*
X264635Y36119D01*
X264701Y36133D01*
X264774Y36147D01*
X264857Y36161D01*
X264945Y36175D01*
X265042Y36186D01*
X265147Y36197D01*
X265261Y36205D01*
X265380Y36208D01*
X265508Y36211D01*
X265510D01*
X265516D01*
X265524D01*
X265538D01*
X265555D01*
X265574D01*
X265599Y36208D01*
D02*
G37*
G36*
X262937Y33895D02*
Y33427D01*
X258661Y35020D01*
Y35488D01*
X262937Y33895D01*
D02*
G37*
G36*
X265599Y33446D02*
X265624D01*
X265682Y33444D01*
X265751Y33441D01*
X265829Y33435D01*
X265909Y33430D01*
X265998Y33421D01*
X266086Y33410D01*
X266178Y33399D01*
X266269Y33383D01*
X266361Y33363D01*
X266446Y33344D01*
X266530Y33319D01*
X266607Y33291D01*
X266613Y33288D01*
X266624Y33283D01*
X266643Y33275D01*
X266671Y33263D01*
X266704Y33247D01*
X266740Y33228D01*
X266782Y33205D01*
X266826Y33180D01*
X266873Y33153D01*
X266920Y33122D01*
X266967Y33086D01*
X267014Y33050D01*
X267061Y33009D01*
X267106Y32967D01*
X267147Y32920D01*
X267183Y32873D01*
X267186Y32870D01*
X267192Y32862D01*
X267200Y32845D01*
X267211Y32826D01*
X267225Y32801D01*
X267242Y32770D01*
X267258Y32735D01*
X267275Y32693D01*
X267291Y32649D01*
X267308Y32599D01*
X267325Y32543D01*
X267338Y32485D01*
X267350Y32421D01*
X267358Y32358D01*
X267363Y32286D01*
X267366Y32214D01*
Y32175D01*
X267363Y32147D01*
X267361Y32114D01*
X267355Y32072D01*
X267350Y32028D01*
X267344Y31981D01*
X267333Y31928D01*
X267322Y31876D01*
X267308Y31820D01*
X267289Y31762D01*
X267269Y31707D01*
X267244Y31651D01*
X267217Y31596D01*
X267183Y31543D01*
X267181Y31541D01*
X267175Y31532D01*
X267164Y31519D01*
X267147Y31499D01*
X267128Y31477D01*
X267106Y31449D01*
X267075Y31419D01*
X267042Y31388D01*
X267006Y31355D01*
X266965Y31319D01*
X266917Y31286D01*
X266868Y31250D01*
X266812Y31214D01*
X266754Y31181D01*
X266690Y31147D01*
X266621Y31117D01*
X266616Y31114D01*
X266604Y31111D01*
X266582Y31103D01*
X266552Y31092D01*
X266513Y31081D01*
X266463Y31070D01*
X266408Y31056D01*
X266344Y31042D01*
X266272Y31025D01*
X266192Y31012D01*
X266103Y31001D01*
X266006Y30989D01*
X265901Y30978D01*
X265790Y30970D01*
X265671Y30967D01*
X265544Y30964D01*
X265541D01*
X265532D01*
X265519D01*
X265502D01*
X265477D01*
X265449Y30967D01*
X265419D01*
X265383Y30970D01*
X265347D01*
X265302Y30973D01*
X265258Y30975D01*
X265211Y30981D01*
X265109Y30989D01*
X265001Y31003D01*
X264887Y31017D01*
X264771Y31036D01*
X264652Y31061D01*
X264535Y31092D01*
X264422Y31125D01*
X264316Y31164D01*
X264217Y31211D01*
X264170Y31236D01*
X264128Y31264D01*
X264125D01*
X264123Y31266D01*
X264106Y31280D01*
X264084Y31300D01*
X264053Y31324D01*
X264017Y31361D01*
X263976Y31402D01*
X263931Y31449D01*
X263887Y31505D01*
X263843Y31568D01*
X263798Y31638D01*
X263757Y31715D01*
X263721Y31798D01*
X263690Y31887D01*
X263666Y31984D01*
X263652Y32086D01*
X263646Y32139D01*
Y32233D01*
X263649Y32258D01*
X263652Y32294D01*
X263657Y32333D01*
X263663Y32374D01*
X263671Y32424D01*
X263679Y32474D01*
X263693Y32527D01*
X263707Y32582D01*
X263726Y32640D01*
X263749Y32696D01*
X263773Y32754D01*
X263804Y32809D01*
X263837Y32862D01*
X263840Y32865D01*
X263845Y32873D01*
X263857Y32890D01*
X263873Y32909D01*
X263893Y32931D01*
X263917Y32959D01*
X263948Y32989D01*
X263981Y33020D01*
X264020Y33056D01*
X264064Y33092D01*
X264111Y33125D01*
X264164Y33161D01*
X264219Y33197D01*
X264280Y33233D01*
X264347Y33263D01*
X264419Y33294D01*
X264424Y33297D01*
X264438Y33300D01*
X264460Y33308D01*
X264491Y33319D01*
X264530Y33330D01*
X264580Y33344D01*
X264635Y33358D01*
X264701Y33372D01*
X264774Y33385D01*
X264857Y33399D01*
X264945Y33413D01*
X265042Y33424D01*
X265147Y33435D01*
X265261Y33444D01*
X265380Y33446D01*
X265508Y33449D01*
X265510D01*
X265516D01*
X265524D01*
X265538D01*
X265555D01*
X265574D01*
X265599Y33446D01*
D02*
G37*
G36*
X259855Y33067D02*
X259888Y33064D01*
X259924Y33059D01*
X259965Y33053D01*
X260010Y33045D01*
X260057Y33034D01*
X260107Y33023D01*
X260156Y33006D01*
X260209Y32987D01*
X260259Y32964D01*
X260312Y32937D01*
X260361Y32909D01*
X260408Y32873D01*
X260411Y32870D01*
X260420Y32865D01*
X260431Y32854D01*
X260447Y32837D01*
X260469Y32818D01*
X260492Y32795D01*
X260517Y32768D01*
X260544Y32735D01*
X260572Y32699D01*
X260600Y32660D01*
X260630Y32615D01*
X260658Y32568D01*
X260685Y32518D01*
X260710Y32466D01*
X260733Y32408D01*
X260752Y32347D01*
Y32344D01*
X260755Y32338D01*
X260757Y32324D01*
X260760Y32308D01*
X260763Y32286D01*
X260769Y32258D01*
X260774Y32225D01*
X260777Y32186D01*
X260782Y32139D01*
X260788Y32089D01*
X260793Y32031D01*
X260796Y31967D01*
X260799Y31895D01*
X260802Y31815D01*
X260805Y31732D01*
Y31638D01*
X262306D01*
Y30964D01*
X258763D01*
Y31734D01*
X258766Y31773D01*
Y31820D01*
X258769Y31876D01*
X258771Y31937D01*
X258777Y32000D01*
X258783Y32070D01*
X258788Y32139D01*
X258807Y32277D01*
X258821Y32344D01*
X258835Y32405D01*
X258852Y32463D01*
X258871Y32516D01*
Y32518D01*
X258877Y32527D01*
X258882Y32541D01*
X258891Y32557D01*
X258904Y32579D01*
X258918Y32604D01*
X258935Y32632D01*
X258954Y32662D01*
X258979Y32696D01*
X259004Y32729D01*
X259032Y32762D01*
X259065Y32795D01*
X259098Y32829D01*
X259137Y32862D01*
X259176Y32892D01*
X259220Y32920D01*
X259223Y32923D01*
X259231Y32926D01*
X259245Y32934D01*
X259262Y32942D01*
X259287Y32956D01*
X259314Y32967D01*
X259345Y32981D01*
X259381Y32995D01*
X259422Y33009D01*
X259464Y33023D01*
X259511Y33036D01*
X259564Y33048D01*
X259616Y33056D01*
X259672Y33064D01*
X259733Y33067D01*
X259794Y33070D01*
X259796D01*
X259810D01*
X259830D01*
X259855Y33067D01*
D02*
G37*
G36*
X201542Y325003D02*
X200024D01*
Y324488D01*
X199687D01*
Y325356D01*
X201542D01*
Y325003D01*
D02*
G37*
G36*
Y323893D02*
X199687D01*
Y324244D01*
X201542D01*
Y323893D01*
D02*
G37*
G36*
Y323157D02*
X200321Y322363D01*
X201542D01*
Y322010D01*
X199687D01*
Y322353D01*
X200904Y323142D01*
X199687D01*
Y323496D01*
X201542D01*
Y323157D01*
D02*
G37*
G36*
Y320574D02*
X201197D01*
Y321235D01*
X200862D01*
Y320574D01*
X200523D01*
Y321235D01*
X200034D01*
Y320574D01*
X199687D01*
Y321586D01*
X201542D01*
Y320574D01*
D02*
G37*
G36*
Y319166D02*
X200843D01*
Y318546D01*
X201542D01*
Y318189D01*
X199687D01*
Y318546D01*
X200501D01*
Y319166D01*
X199687D01*
Y319524D01*
X201542D01*
Y319166D01*
D02*
G37*
G36*
Y316754D02*
X201197D01*
Y317415D01*
X200862D01*
Y316754D01*
X200523D01*
Y317415D01*
X200034D01*
Y316754D01*
X199687D01*
Y317766D01*
X201542D01*
Y316754D01*
D02*
G37*
G36*
Y315998D02*
X201541Y315976D01*
Y315952D01*
X201539Y315923D01*
X201538Y315891D01*
X201535Y315857D01*
X201532Y315821D01*
X201529Y315785D01*
X201519Y315712D01*
X201513Y315678D01*
X201506Y315646D01*
X201497Y315615D01*
X201487Y315589D01*
Y315588D01*
X201484Y315583D01*
X201481Y315576D01*
X201477Y315567D01*
X201471Y315556D01*
X201462Y315544D01*
X201453Y315530D01*
X201443Y315514D01*
X201432Y315498D01*
X201419Y315480D01*
X201403Y315463D01*
X201387Y315446D01*
X201368Y315428D01*
X201349Y315411D01*
X201327Y315395D01*
X201304Y315379D01*
X201303Y315377D01*
X201298Y315376D01*
X201291Y315372D01*
X201281Y315366D01*
X201269Y315360D01*
X201255Y315354D01*
X201238Y315347D01*
X201219Y315338D01*
X201197Y315331D01*
X201175Y315324D01*
X201149Y315318D01*
X201123Y315312D01*
X201095Y315306D01*
X201065Y315302D01*
X201034Y315301D01*
X201003Y315299D01*
X201001D01*
X200994D01*
X200985D01*
X200972Y315301D01*
X200956Y315302D01*
X200939Y315303D01*
X200919Y315306D01*
X200895Y315311D01*
X200848Y315321D01*
X200823Y315328D01*
X200797Y315337D01*
X200771Y315347D01*
X200746Y315359D01*
X200720Y315372D01*
X200697Y315388D01*
X200695Y315389D01*
X200691Y315392D01*
X200685Y315396D01*
X200676Y315404D01*
X200666Y315414D01*
X200655Y315425D01*
X200642Y315438D01*
X200628Y315454D01*
X200613Y315472D01*
X200598Y315491D01*
X200582Y315512D01*
X200568Y315535D01*
X200552Y315562D01*
X200537Y315589D01*
X200524Y315620D01*
X200511Y315651D01*
X199687Y315212D01*
Y315598D01*
X200473Y316017D01*
Y316047D01*
X199687D01*
Y316400D01*
X201542D01*
Y315998D01*
D02*
G37*
G36*
Y313913D02*
X201197D01*
Y314574D01*
X200862D01*
Y313913D01*
X200523D01*
Y314574D01*
X200034D01*
Y313913D01*
X199687D01*
Y314925D01*
X201542D01*
Y313913D01*
D02*
G37*
G36*
X76042Y325003D02*
X74524D01*
Y324488D01*
X74187D01*
Y325356D01*
X76042D01*
Y325003D01*
D02*
G37*
G36*
Y323893D02*
X74187D01*
Y324244D01*
X76042D01*
Y323893D01*
D02*
G37*
G36*
Y323157D02*
X74821Y322363D01*
X76042D01*
Y322010D01*
X74187D01*
Y322353D01*
X75404Y323142D01*
X74187D01*
Y323496D01*
X76042D01*
Y323157D01*
D02*
G37*
G36*
Y320574D02*
X75697D01*
Y321235D01*
X75362D01*
Y320574D01*
X75023D01*
Y321235D01*
X74534D01*
Y320574D01*
X74187D01*
Y321586D01*
X76042D01*
Y320574D01*
D02*
G37*
G36*
Y319166D02*
X75343D01*
Y318546D01*
X76042D01*
Y318189D01*
X74187D01*
Y318546D01*
X75001D01*
Y319166D01*
X74187D01*
Y319524D01*
X76042D01*
Y319166D01*
D02*
G37*
G36*
Y316754D02*
X75697D01*
Y317415D01*
X75362D01*
Y316754D01*
X75023D01*
Y317415D01*
X74534D01*
Y316754D01*
X74187D01*
Y317766D01*
X76042D01*
Y316754D01*
D02*
G37*
G36*
Y315998D02*
X76041Y315976D01*
Y315952D01*
X76039Y315923D01*
X76038Y315891D01*
X76035Y315857D01*
X76032Y315821D01*
X76029Y315785D01*
X76019Y315712D01*
X76013Y315678D01*
X76006Y315646D01*
X75997Y315615D01*
X75987Y315589D01*
Y315588D01*
X75984Y315583D01*
X75981Y315576D01*
X75977Y315567D01*
X75971Y315556D01*
X75962Y315544D01*
X75954Y315530D01*
X75943Y315514D01*
X75932Y315498D01*
X75919Y315480D01*
X75903Y315463D01*
X75887Y315446D01*
X75868Y315428D01*
X75849Y315411D01*
X75827Y315395D01*
X75804Y315379D01*
X75803Y315377D01*
X75798Y315376D01*
X75791Y315372D01*
X75781Y315366D01*
X75769Y315360D01*
X75755Y315354D01*
X75738Y315347D01*
X75719Y315338D01*
X75697Y315331D01*
X75675Y315324D01*
X75649Y315318D01*
X75623Y315312D01*
X75595Y315306D01*
X75565Y315302D01*
X75534Y315301D01*
X75503Y315299D01*
X75501D01*
X75494D01*
X75485D01*
X75472Y315301D01*
X75456Y315302D01*
X75439Y315303D01*
X75419Y315306D01*
X75395Y315311D01*
X75348Y315321D01*
X75323Y315328D01*
X75297Y315337D01*
X75271Y315347D01*
X75246Y315359D01*
X75220Y315372D01*
X75197Y315388D01*
X75195Y315389D01*
X75191Y315392D01*
X75185Y315396D01*
X75176Y315404D01*
X75166Y315414D01*
X75155Y315425D01*
X75142Y315438D01*
X75129Y315454D01*
X75112Y315472D01*
X75098Y315491D01*
X75082Y315512D01*
X75068Y315535D01*
X75052Y315562D01*
X75037Y315589D01*
X75024Y315620D01*
X75011Y315651D01*
X74187Y315212D01*
Y315598D01*
X74973Y316017D01*
Y316047D01*
X74187D01*
Y316400D01*
X76042D01*
Y315998D01*
D02*
G37*
G36*
Y313913D02*
X75697D01*
Y314574D01*
X75362D01*
Y313913D01*
X75023D01*
Y314574D01*
X74534D01*
Y313913D01*
X74187D01*
Y314925D01*
X76042D01*
Y313913D01*
D02*
G37*
G36*
X31286Y66378D02*
X29431D01*
Y67390D01*
X29776D01*
Y66729D01*
X30111D01*
Y67390D01*
X30451D01*
Y66729D01*
X30939D01*
Y67390D01*
X31286D01*
Y66378D01*
D02*
G37*
G36*
Y65705D02*
X30500Y65286D01*
Y65256D01*
X31286D01*
Y64903D01*
X29431D01*
Y65305D01*
X29433Y65327D01*
Y65351D01*
X29434Y65381D01*
X29436Y65412D01*
X29438Y65446D01*
X29441Y65482D01*
X29444Y65518D01*
X29454Y65591D01*
X29460Y65626D01*
X29467Y65658D01*
X29476Y65688D01*
X29486Y65714D01*
Y65715D01*
X29489Y65720D01*
X29492Y65727D01*
X29497Y65736D01*
X29502Y65747D01*
X29511Y65759D01*
X29520Y65773D01*
X29530Y65789D01*
X29542Y65805D01*
X29555Y65823D01*
X29570Y65840D01*
X29586Y65858D01*
X29605Y65875D01*
X29624Y65892D01*
X29646Y65908D01*
X29669Y65924D01*
X29671Y65926D01*
X29675Y65927D01*
X29682Y65932D01*
X29692Y65937D01*
X29704Y65943D01*
X29718Y65949D01*
X29736Y65956D01*
X29755Y65965D01*
X29776Y65972D01*
X29798Y65979D01*
X29824Y65985D01*
X29850Y65991D01*
X29878Y65997D01*
X29908Y66001D01*
X29939Y66003D01*
X29971Y66004D01*
X29972D01*
X29979D01*
X29988D01*
X30001Y66003D01*
X30017Y66001D01*
X30035Y66000D01*
X30055Y65997D01*
X30078Y65992D01*
X30126Y65982D01*
X30150Y65975D01*
X30177Y65966D01*
X30203Y65956D01*
X30227Y65945D01*
X30253Y65932D01*
X30277Y65916D01*
X30278Y65914D01*
X30283Y65911D01*
X30288Y65907D01*
X30297Y65900D01*
X30307Y65890D01*
X30319Y65878D01*
X30332Y65865D01*
X30345Y65849D01*
X30361Y65832D01*
X30375Y65813D01*
X30391Y65791D01*
X30406Y65768D01*
X30422Y65742D01*
X30436Y65714D01*
X30449Y65684D01*
X30462Y65652D01*
X31286Y66091D01*
Y65705D01*
D02*
G37*
G36*
Y63538D02*
X29431D01*
Y64550D01*
X29776D01*
Y63889D01*
X30111D01*
Y64550D01*
X30451D01*
Y63889D01*
X30939D01*
Y64550D01*
X31286D01*
Y63538D01*
D02*
G37*
G36*
Y62757D02*
X30472D01*
Y62137D01*
X31286D01*
Y61779D01*
X29431D01*
Y62137D01*
X30130D01*
Y62757D01*
X29431D01*
Y63114D01*
X31286D01*
Y62757D01*
D02*
G37*
G36*
Y59717D02*
X29431D01*
Y60729D01*
X29776D01*
Y60068D01*
X30111D01*
Y60729D01*
X30451D01*
Y60068D01*
X30939D01*
Y60729D01*
X31286D01*
Y59717D01*
D02*
G37*
G36*
Y58950D02*
X30069Y58161D01*
X31286D01*
Y57807D01*
X29431D01*
Y58147D01*
X30652Y58940D01*
X29431D01*
Y59293D01*
X31286D01*
Y58950D01*
D02*
G37*
G36*
Y57059D02*
X29431D01*
Y57410D01*
X31286D01*
Y57059D01*
D02*
G37*
G36*
Y55947D02*
X29431D01*
Y56301D01*
X30950D01*
Y56815D01*
X31286D01*
Y55947D01*
D02*
G37*
G36*
X75542Y216002D02*
X74024D01*
Y215488D01*
X73687D01*
Y216356D01*
X75542D01*
Y216002D01*
D02*
G37*
G36*
Y214893D02*
X73687D01*
Y215244D01*
X75542D01*
Y214893D01*
D02*
G37*
G36*
Y214157D02*
X74321Y213364D01*
X75542D01*
Y213010D01*
X73687D01*
Y213353D01*
X74904Y214142D01*
X73687D01*
Y214496D01*
X75542D01*
Y214157D01*
D02*
G37*
G36*
Y211574D02*
X75197D01*
Y212235D01*
X74862D01*
Y211574D01*
X74523D01*
Y212235D01*
X74034D01*
Y211574D01*
X73687D01*
Y212586D01*
X75542D01*
Y211574D01*
D02*
G37*
G36*
Y210166D02*
X74843D01*
Y209546D01*
X75542D01*
Y209189D01*
X73687D01*
Y209546D01*
X74501D01*
Y210166D01*
X73687D01*
Y210524D01*
X75542D01*
Y210166D01*
D02*
G37*
G36*
Y207753D02*
X75197D01*
Y208415D01*
X74862D01*
Y207753D01*
X74523D01*
Y208415D01*
X74034D01*
Y207753D01*
X73687D01*
Y208766D01*
X75542D01*
Y207753D01*
D02*
G37*
G36*
Y206998D02*
X75541Y206976D01*
Y206952D01*
X75539Y206923D01*
X75538Y206891D01*
X75535Y206857D01*
X75532Y206821D01*
X75529Y206785D01*
X75519Y206712D01*
X75513Y206678D01*
X75506Y206646D01*
X75497Y206615D01*
X75487Y206589D01*
Y206588D01*
X75484Y206583D01*
X75481Y206576D01*
X75477Y206567D01*
X75471Y206556D01*
X75462Y206544D01*
X75454Y206530D01*
X75443Y206514D01*
X75432Y206498D01*
X75419Y206480D01*
X75403Y206463D01*
X75387Y206446D01*
X75368Y206428D01*
X75349Y206411D01*
X75327Y206395D01*
X75304Y206379D01*
X75303Y206377D01*
X75298Y206376D01*
X75291Y206372D01*
X75281Y206366D01*
X75269Y206360D01*
X75255Y206354D01*
X75238Y206347D01*
X75219Y206338D01*
X75197Y206331D01*
X75175Y206324D01*
X75149Y206318D01*
X75123Y206312D01*
X75095Y206306D01*
X75065Y206302D01*
X75034Y206301D01*
X75003Y206299D01*
X75001D01*
X74994D01*
X74985D01*
X74972Y206301D01*
X74956Y206302D01*
X74939Y206304D01*
X74919Y206306D01*
X74895Y206311D01*
X74848Y206321D01*
X74823Y206328D01*
X74797Y206337D01*
X74771Y206347D01*
X74746Y206359D01*
X74720Y206372D01*
X74697Y206388D01*
X74695Y206389D01*
X74691Y206392D01*
X74685Y206396D01*
X74676Y206403D01*
X74666Y206414D01*
X74655Y206425D01*
X74642Y206438D01*
X74629Y206454D01*
X74612Y206472D01*
X74598Y206490D01*
X74582Y206512D01*
X74568Y206536D01*
X74552Y206562D01*
X74537Y206589D01*
X74524Y206620D01*
X74511Y206651D01*
X73687Y206212D01*
Y206598D01*
X74473Y207017D01*
Y207047D01*
X73687D01*
Y207400D01*
X75542D01*
Y206998D01*
D02*
G37*
G36*
Y204913D02*
X75197D01*
Y205574D01*
X74862D01*
Y204913D01*
X74523D01*
Y205574D01*
X74034D01*
Y204913D01*
X73687D01*
Y205925D01*
X75542D01*
Y204913D01*
D02*
G37*
G36*
X273349Y59911D02*
X269806D01*
Y60581D01*
X273349D01*
Y59911D01*
D02*
G37*
G36*
X271698Y59313D02*
X271734D01*
X271776Y59307D01*
X271825Y59304D01*
X271875Y59299D01*
X271933Y59290D01*
X271992Y59282D01*
X272119Y59257D01*
X272185Y59241D01*
X272252Y59224D01*
X272316Y59202D01*
X272382Y59177D01*
X272385Y59174D01*
X272396Y59171D01*
X272415Y59163D01*
X272438Y59152D01*
X272468Y59138D01*
X272501Y59122D01*
X272540Y59102D01*
X272582Y59080D01*
X272626Y59052D01*
X272670Y59025D01*
X272764Y58961D01*
X272861Y58886D01*
X272950Y58800D01*
X272953Y58797D01*
X272961Y58789D01*
X272972Y58775D01*
X272986Y58759D01*
X273005Y58736D01*
X273027Y58709D01*
X273050Y58681D01*
X273075Y58645D01*
X273100Y58609D01*
X273127Y58570D01*
X273177Y58482D01*
X273224Y58385D01*
X273246Y58335D01*
X273263Y58282D01*
Y58279D01*
X273266Y58268D01*
X273271Y58252D01*
X273277Y58230D01*
X273282Y58196D01*
X273291Y58157D01*
X273299Y58113D01*
X273305Y58058D01*
X273313Y57994D01*
X273321Y57925D01*
X273329Y57845D01*
X273335Y57759D01*
X273341Y57662D01*
X273346Y57556D01*
X273349Y57440D01*
Y56507D01*
X269806D01*
Y57379D01*
X269809Y57404D01*
Y57432D01*
X269812Y57462D01*
Y57495D01*
X269817Y57568D01*
X269823Y57651D01*
X269831Y57736D01*
X269839Y57831D01*
X269853Y57925D01*
X269870Y58019D01*
X269886Y58113D01*
X269911Y58207D01*
X269936Y58293D01*
X269967Y58376D01*
X270000Y58451D01*
X270003Y58457D01*
X270008Y58468D01*
X270019Y58487D01*
X270036Y58515D01*
X270058Y58545D01*
X270083Y58584D01*
X270113Y58626D01*
X270149Y58670D01*
X270191Y58717D01*
X270235Y58767D01*
X270288Y58820D01*
X270343Y58872D01*
X270404Y58925D01*
X270474Y58975D01*
X270546Y59025D01*
X270623Y59072D01*
X270629Y59074D01*
X270643Y59083D01*
X270668Y59094D01*
X270698Y59110D01*
X270740Y59127D01*
X270789Y59149D01*
X270845Y59171D01*
X270908Y59193D01*
X270981Y59216D01*
X271058Y59238D01*
X271141Y59260D01*
X271227Y59277D01*
X271321Y59293D01*
X271421Y59304D01*
X271523Y59313D01*
X271629Y59315D01*
X271634D01*
X271648D01*
X271668D01*
X271698Y59313D01*
D02*
G37*
G36*
X276071Y57418D02*
X276093D01*
X276118Y57415D01*
X276149Y57412D01*
X276179Y57410D01*
X276215Y57404D01*
X276293Y57393D01*
X276379Y57376D01*
X276473Y57354D01*
X276575Y57327D01*
X276681Y57291D01*
X276789Y57246D01*
X276899Y57196D01*
X277010Y57135D01*
X277121Y57063D01*
X277174Y57022D01*
X277229Y56980D01*
X277282Y56936D01*
X277332Y56886D01*
X277334Y56883D01*
X277337Y56881D01*
X277345Y56872D01*
X277354Y56861D01*
X277368Y56847D01*
X277381Y56831D01*
X277398Y56811D01*
X277415Y56792D01*
X277456Y56739D01*
X277501Y56676D01*
X277548Y56606D01*
X277597Y56523D01*
X277647Y56435D01*
X277697Y56335D01*
X277742Y56227D01*
X277783Y56113D01*
X277816Y55991D01*
X277844Y55864D01*
X277861Y55731D01*
X277863Y55662D01*
X277866Y55590D01*
Y55554D01*
X277863Y55534D01*
Y55512D01*
X277861Y55487D01*
X277858Y55457D01*
X277855Y55424D01*
X277850Y55388D01*
X277836Y55310D01*
X277819Y55221D01*
X277797Y55124D01*
X277769Y55022D01*
X277730Y54917D01*
X277686Y54806D01*
X277634Y54692D01*
X277570Y54581D01*
X277534Y54526D01*
X277498Y54471D01*
X277456Y54418D01*
X277412Y54365D01*
X277365Y54313D01*
X277315Y54263D01*
X277312Y54260D01*
X277309Y54257D01*
X277301Y54249D01*
X277290Y54241D01*
X277276Y54230D01*
X277259Y54213D01*
X277240Y54199D01*
X277218Y54180D01*
X277163Y54141D01*
X277102Y54097D01*
X277027Y54050D01*
X276944Y54000D01*
X276852Y53950D01*
X276753Y53903D01*
X276645Y53859D01*
X276531Y53820D01*
X276409Y53786D01*
X276282Y53759D01*
X276146Y53742D01*
X276077Y53739D01*
X276008Y53737D01*
X276005D01*
X276002D01*
X275994D01*
X275985D01*
X275958Y53739D01*
X275922D01*
X275877Y53745D01*
X275825Y53750D01*
X275764Y53756D01*
X275700Y53767D01*
X275628Y53781D01*
X275556Y53798D01*
X275478Y53817D01*
X275398Y53839D01*
X275315Y53867D01*
X275235Y53900D01*
X275152Y53939D01*
X275071Y53980D01*
X275066Y53983D01*
X275052Y53992D01*
X275030Y54005D01*
X274999Y54025D01*
X274966Y54050D01*
X274922Y54080D01*
X274877Y54116D01*
X274828Y54158D01*
X274775Y54202D01*
X274720Y54255D01*
X274661Y54310D01*
X274606Y54371D01*
X274551Y54435D01*
X274495Y54504D01*
X274445Y54579D01*
X274395Y54656D01*
X274393Y54662D01*
X274384Y54676D01*
X274373Y54701D01*
X274357Y54731D01*
X274337Y54773D01*
X274315Y54820D01*
X274293Y54872D01*
X274271Y54933D01*
X274249Y55000D01*
X274224Y55072D01*
X274204Y55149D01*
X274185Y55230D01*
X274168Y55316D01*
X274157Y55401D01*
X274149Y55493D01*
X274146Y55584D01*
Y55617D01*
X274149Y55637D01*
Y55656D01*
X274152Y55681D01*
X274154Y55712D01*
X274157Y55742D01*
X274163Y55775D01*
X274174Y55850D01*
X274190Y55936D01*
X274215Y56027D01*
X274243Y56127D01*
X274279Y56232D01*
X274323Y56338D01*
X274376Y56449D01*
X274440Y56559D01*
X274473Y56612D01*
X274512Y56667D01*
X274553Y56720D01*
X274595Y56775D01*
X274642Y56828D01*
X274692Y56878D01*
X274694Y56881D01*
X274697Y56883D01*
X274706Y56892D01*
X274717Y56900D01*
X274730Y56914D01*
X274747Y56928D01*
X274767Y56944D01*
X274789Y56964D01*
X274841Y57002D01*
X274905Y57050D01*
X274977Y57099D01*
X275060Y57149D01*
X275154Y57199D01*
X275254Y57249D01*
X275362Y57296D01*
X275481Y57335D01*
X275606Y57371D01*
X275736Y57399D01*
X275805Y57407D01*
X275874Y57415D01*
X275947Y57418D01*
X276019Y57421D01*
X276021D01*
X276027D01*
X276038D01*
X276052D01*
X276071Y57418D01*
D02*
G37*
G36*
X273349Y53900D02*
X272618Y53623D01*
Y52177D01*
X273349Y51889D01*
Y51188D01*
X269806Y52554D01*
Y53241D01*
X273349Y54601D01*
Y53900D01*
D02*
G37*
G36*
X277778Y52717D02*
X275542Y52338D01*
X277778Y51584D01*
Y50992D01*
X275542Y50246D01*
X277778Y49859D01*
Y49202D01*
X274235Y49814D01*
Y50468D01*
X276708Y51291D01*
X274235Y52122D01*
Y52773D01*
X277778Y53371D01*
Y52717D01*
D02*
G37*
G36*
X273063Y49379D02*
X273094Y49377D01*
X273130Y49368D01*
X273174Y49354D01*
X273219Y49335D01*
X273263Y49307D01*
X273307Y49271D01*
X273313Y49266D01*
X273324Y49252D01*
X273341Y49227D01*
X273360Y49197D01*
X273382Y49158D01*
X273399Y49111D01*
X273410Y49061D01*
X273415Y49003D01*
Y48989D01*
X273413Y48978D01*
X273410Y48947D01*
X273401Y48911D01*
X273388Y48867D01*
X273371Y48823D01*
X273343Y48778D01*
X273307Y48734D01*
X273302Y48728D01*
X273288Y48717D01*
X273263Y48701D01*
X273233Y48681D01*
X273194Y48659D01*
X273147Y48643D01*
X273097Y48632D01*
X273039Y48626D01*
X273036D01*
X273030D01*
X273025D01*
X273014Y48629D01*
X272983Y48632D01*
X272947Y48640D01*
X272906Y48654D01*
X272861Y48670D01*
X272817Y48698D01*
X272773Y48734D01*
X272767Y48739D01*
X272756Y48753D01*
X272737Y48778D01*
X272717Y48809D01*
X272698Y48848D01*
X272678Y48895D01*
X272667Y48945D01*
X272662Y49003D01*
Y49019D01*
X272665Y49030D01*
X272667Y49058D01*
X272676Y49097D01*
X272690Y49138D01*
X272709Y49183D01*
X272737Y49227D01*
X272773Y49271D01*
X272778Y49277D01*
X272792Y49288D01*
X272817Y49307D01*
X272848Y49327D01*
X272886Y49346D01*
X272931Y49366D01*
X272983Y49377D01*
X273039Y49382D01*
X273041D01*
X273044D01*
X273053D01*
X273063Y49379D01*
D02*
G37*
G36*
X271066D02*
X271097Y49377D01*
X271133Y49368D01*
X271174Y49354D01*
X271219Y49335D01*
X271263Y49307D01*
X271307Y49271D01*
X271313Y49266D01*
X271324Y49252D01*
X271341Y49227D01*
X271360Y49197D01*
X271382Y49158D01*
X271399Y49111D01*
X271410Y49061D01*
X271415Y49003D01*
Y48989D01*
X271413Y48978D01*
X271410Y48947D01*
X271402Y48911D01*
X271388Y48867D01*
X271371Y48823D01*
X271343Y48778D01*
X271307Y48734D01*
X271302Y48728D01*
X271288Y48717D01*
X271263Y48701D01*
X271233Y48681D01*
X271194Y48659D01*
X271149Y48643D01*
X271097Y48632D01*
X271041Y48626D01*
X271039D01*
X271033D01*
X271025D01*
X271014Y48629D01*
X270986Y48632D01*
X270947Y48640D01*
X270906Y48654D01*
X270861Y48670D01*
X270817Y48698D01*
X270773Y48734D01*
X270767Y48739D01*
X270756Y48753D01*
X270737Y48778D01*
X270717Y48809D01*
X270698Y48848D01*
X270679Y48895D01*
X270668Y48945D01*
X270662Y49003D01*
Y49019D01*
X270665Y49030D01*
X270668Y49058D01*
X270676Y49097D01*
X270690Y49138D01*
X270709Y49183D01*
X270737Y49227D01*
X270773Y49271D01*
X270778Y49277D01*
X270792Y49288D01*
X270817Y49307D01*
X270848Y49327D01*
X270886Y49346D01*
X270933Y49366D01*
X270983Y49377D01*
X271041Y49382D01*
X271044D01*
X271047D01*
X271055D01*
X271066Y49379D01*
D02*
G37*
G36*
X277778Y48246D02*
X277046Y47969D01*
Y46523D01*
X277778Y46235D01*
Y45535D01*
X274235Y46900D01*
Y47587D01*
X277778Y48947D01*
Y48246D01*
D02*
G37*
G36*
X273349Y47255D02*
X271025Y45748D01*
X273349D01*
Y45072D01*
X269806D01*
Y45720D01*
X272138Y47235D01*
X269806D01*
Y47911D01*
X273349D01*
Y47255D01*
D02*
G37*
G36*
X277778Y43651D02*
X274235D01*
Y44327D01*
X277135D01*
Y45310D01*
X277778D01*
Y43651D01*
D02*
G37*
G36*
X271745Y44449D02*
X271781D01*
X271823Y44443D01*
X271870Y44438D01*
X271925Y44432D01*
X271986Y44421D01*
X272053Y44410D01*
X272122Y44393D01*
X272194Y44374D01*
X272269Y44349D01*
X272346Y44321D01*
X272427Y44291D01*
X272507Y44252D01*
X272584Y44211D01*
X272590Y44208D01*
X272604Y44199D01*
X272623Y44186D01*
X272654Y44166D01*
X272687Y44144D01*
X272728Y44114D01*
X272773Y44080D01*
X272820Y44042D01*
X272870Y44000D01*
X272922Y43953D01*
X272975Y43900D01*
X273027Y43845D01*
X273077Y43787D01*
X273127Y43723D01*
X273174Y43654D01*
X273219Y43585D01*
X273221Y43579D01*
X273227Y43568D01*
X273238Y43546D01*
X273252Y43518D01*
X273269Y43479D01*
X273288Y43438D01*
X273307Y43385D01*
X273327Y43330D01*
X273349Y43266D01*
X273368Y43197D01*
X273388Y43125D01*
X273404Y43044D01*
X273418Y42961D01*
X273429Y42873D01*
X273435Y42781D01*
X273438Y42687D01*
Y42662D01*
X273435Y42634D01*
Y42593D01*
X273429Y42546D01*
X273424Y42490D01*
X273418Y42427D01*
X273407Y42358D01*
X273396Y42283D01*
X273379Y42205D01*
X273360Y42122D01*
X273338Y42039D01*
X273310Y41953D01*
X273277Y41867D01*
X273241Y41784D01*
X273199Y41701D01*
X273197Y41695D01*
X273188Y41682D01*
X273174Y41659D01*
X273155Y41629D01*
X273130Y41593D01*
X273100Y41551D01*
X273066Y41504D01*
X273025Y41454D01*
X272978Y41399D01*
X272928Y41344D01*
X272872Y41288D01*
X272812Y41230D01*
X272745Y41175D01*
X272673Y41119D01*
X272598Y41067D01*
X272518Y41017D01*
X272512Y41014D01*
X272498Y41006D01*
X272474Y40995D01*
X272440Y40978D01*
X272399Y40959D01*
X272352Y40939D01*
X272293Y40914D01*
X272233Y40892D01*
X272163Y40870D01*
X272089Y40848D01*
X272011Y40826D01*
X271925Y40806D01*
X271839Y40790D01*
X271748Y40779D01*
X271656Y40770D01*
X271559Y40767D01*
X271557D01*
X271551D01*
X271543D01*
X271529D01*
X271512Y40770D01*
X271490D01*
X271468Y40773D01*
X271440Y40776D01*
X271413Y40779D01*
X271382Y40781D01*
X271310Y40792D01*
X271230Y40806D01*
X271144Y40826D01*
X271050Y40851D01*
X270953Y40881D01*
X270853Y40917D01*
X270748Y40961D01*
X270643Y41017D01*
X270540Y41078D01*
X270438Y41150D01*
X270338Y41230D01*
X270335Y41233D01*
X270330Y41236D01*
X270321Y41244D01*
X270310Y41255D01*
X270296Y41269D01*
X270280Y41288D01*
X270263Y41308D01*
X270241Y41330D01*
X270219Y41357D01*
X270194Y41385D01*
X270169Y41418D01*
X270141Y41452D01*
X270086Y41529D01*
X270028Y41618D01*
X269970Y41715D01*
X269914Y41826D01*
X269861Y41942D01*
X269814Y42069D01*
X269776Y42208D01*
X269745Y42352D01*
X269734Y42430D01*
X269723Y42507D01*
X269720Y42585D01*
X269717Y42668D01*
Y42712D01*
X269720Y42745D01*
X269723Y42787D01*
X269726Y42837D01*
X269731Y42889D01*
X269740Y42950D01*
X269748Y43014D01*
X269759Y43083D01*
X269773Y43152D01*
X269789Y43227D01*
X269809Y43302D01*
X269834Y43380D01*
X269859Y43457D01*
X269889Y43532D01*
X269892Y43535D01*
X269895Y43549D01*
X269906Y43565D01*
X269917Y43590D01*
X269933Y43621D01*
X269953Y43657D01*
X269978Y43698D01*
X270005Y43742D01*
X270036Y43792D01*
X270075Y43845D01*
X270113Y43900D01*
X270158Y43956D01*
X270208Y44014D01*
X270263Y44075D01*
X270321Y44136D01*
X270385Y44197D01*
X270856Y43723D01*
X270853D01*
X270850Y43718D01*
X270836Y43704D01*
X270812Y43679D01*
X270781Y43643D01*
X270745Y43601D01*
X270704Y43549D01*
X270662Y43490D01*
X270615Y43421D01*
X270571Y43349D01*
X270529Y43269D01*
X270487Y43180D01*
X270451Y43089D01*
X270421Y42992D01*
X270396Y42889D01*
X270382Y42781D01*
X270377Y42726D01*
Y42648D01*
X270379Y42621D01*
X270382Y42585D01*
X270388Y42538D01*
X270396Y42488D01*
X270407Y42430D01*
X270421Y42366D01*
X270438Y42296D01*
X270462Y42227D01*
X270490Y42155D01*
X270524Y42081D01*
X270565Y42006D01*
X270609Y41934D01*
X270665Y41864D01*
X270726Y41795D01*
X270728Y41792D01*
X270742Y41781D01*
X270762Y41762D01*
X270787Y41740D01*
X270820Y41715D01*
X270861Y41684D01*
X270908Y41651D01*
X270961Y41621D01*
X271019Y41587D01*
X271083Y41554D01*
X271152Y41524D01*
X271227Y41499D01*
X271305Y41477D01*
X271391Y41457D01*
X271476Y41446D01*
X271568Y41443D01*
X271570D01*
X271573D01*
X271590D01*
X271618Y41446D01*
X271654Y41449D01*
X271698Y41454D01*
X271748Y41463D01*
X271806Y41474D01*
X271870Y41490D01*
X271936Y41510D01*
X272005Y41532D01*
X272077Y41563D01*
X272149Y41598D01*
X272224Y41640D01*
X272296Y41687D01*
X272368Y41745D01*
X272438Y41809D01*
X272440Y41815D01*
X272451Y41826D01*
X272471Y41845D01*
X272493Y41875D01*
X272521Y41912D01*
X272548Y41953D01*
X272582Y42003D01*
X272615Y42058D01*
X272648Y42122D01*
X272678Y42191D01*
X272709Y42263D01*
X272737Y42344D01*
X272759Y42430D01*
X272776Y42518D01*
X272789Y42612D01*
X272792Y42712D01*
Y42745D01*
X272789Y42770D01*
X272786Y42801D01*
X272784Y42834D01*
X272781Y42875D01*
X272773Y42917D01*
X272767Y42961D01*
X272756Y43008D01*
X272731Y43108D01*
X272714Y43158D01*
X272692Y43208D01*
X272670Y43255D01*
X272645Y43302D01*
X272642Y43305D01*
X272637Y43313D01*
X272629Y43324D01*
X272618Y43341D01*
X272601Y43363D01*
X272582Y43385D01*
X272559Y43413D01*
X272532Y43440D01*
X272501Y43471D01*
X272468Y43501D01*
X272432Y43535D01*
X272390Y43568D01*
X272343Y43598D01*
X272296Y43632D01*
X272241Y43662D01*
X272185Y43690D01*
Y42665D01*
X271551D01*
Y44446D01*
X271701Y44452D01*
X271706D01*
X271720D01*
X271745Y44449D01*
D02*
G37*
G36*
X273349Y39499D02*
X269806D01*
Y40169D01*
X273349D01*
Y39499D01*
D02*
G37*
G36*
X276071Y43014D02*
X276093D01*
X276118Y43011D01*
X276149Y43008D01*
X276179Y43006D01*
X276215Y43000D01*
X276293Y42989D01*
X276379Y42972D01*
X276473Y42950D01*
X276575Y42922D01*
X276681Y42886D01*
X276789Y42842D01*
X276899Y42792D01*
X277010Y42731D01*
X277121Y42659D01*
X277174Y42618D01*
X277229Y42576D01*
X277282Y42532D01*
X277332Y42482D01*
X277334Y42479D01*
X277337Y42477D01*
X277345Y42468D01*
X277354Y42457D01*
X277368Y42443D01*
X277381Y42427D01*
X277398Y42407D01*
X277415Y42388D01*
X277456Y42335D01*
X277501Y42272D01*
X277548Y42202D01*
X277597Y42119D01*
X277647Y42031D01*
X277697Y41931D01*
X277742Y41823D01*
X277783Y41709D01*
X277816Y41587D01*
X277844Y41460D01*
X277861Y41327D01*
X277863Y41258D01*
X277866Y41186D01*
Y41150D01*
X277863Y41130D01*
Y41108D01*
X277861Y41083D01*
X277858Y41053D01*
X277855Y41019D01*
X277850Y40984D01*
X277836Y40906D01*
X277819Y40817D01*
X277797Y40720D01*
X277769Y40618D01*
X277730Y40513D01*
X277686Y40402D01*
X277634Y40288D01*
X277570Y40178D01*
X277534Y40122D01*
X277498Y40067D01*
X277456Y40014D01*
X277412Y39961D01*
X277365Y39909D01*
X277315Y39859D01*
X277312Y39856D01*
X277309Y39853D01*
X277301Y39845D01*
X277290Y39837D01*
X277276Y39826D01*
X277259Y39809D01*
X277240Y39795D01*
X277218Y39776D01*
X277163Y39737D01*
X277102Y39693D01*
X277027Y39646D01*
X276944Y39596D01*
X276852Y39546D01*
X276753Y39499D01*
X276645Y39454D01*
X276531Y39416D01*
X276409Y39382D01*
X276282Y39355D01*
X276146Y39338D01*
X276077Y39335D01*
X276008Y39333D01*
X276005D01*
X276002D01*
X275994D01*
X275985D01*
X275958Y39335D01*
X275922D01*
X275877Y39341D01*
X275825Y39347D01*
X275764Y39352D01*
X275700Y39363D01*
X275628Y39377D01*
X275556Y39394D01*
X275478Y39413D01*
X275398Y39435D01*
X275315Y39463D01*
X275235Y39496D01*
X275152Y39535D01*
X275071Y39576D01*
X275066Y39579D01*
X275052Y39588D01*
X275030Y39601D01*
X274999Y39621D01*
X274966Y39646D01*
X274922Y39676D01*
X274877Y39712D01*
X274828Y39754D01*
X274775Y39798D01*
X274720Y39851D01*
X274661Y39906D01*
X274606Y39967D01*
X274551Y40031D01*
X274495Y40100D01*
X274445Y40175D01*
X274395Y40252D01*
X274393Y40258D01*
X274384Y40272D01*
X274373Y40297D01*
X274357Y40327D01*
X274337Y40369D01*
X274315Y40416D01*
X274293Y40468D01*
X274271Y40529D01*
X274249Y40596D01*
X274224Y40668D01*
X274204Y40745D01*
X274185Y40826D01*
X274168Y40911D01*
X274157Y40997D01*
X274149Y41089D01*
X274146Y41180D01*
Y41214D01*
X274149Y41233D01*
Y41252D01*
X274152Y41277D01*
X274154Y41308D01*
X274157Y41338D01*
X274163Y41371D01*
X274174Y41446D01*
X274190Y41532D01*
X274215Y41623D01*
X274243Y41723D01*
X274279Y41828D01*
X274323Y41934D01*
X274376Y42044D01*
X274440Y42155D01*
X274473Y42208D01*
X274512Y42263D01*
X274553Y42316D01*
X274595Y42371D01*
X274642Y42424D01*
X274692Y42474D01*
X274694Y42477D01*
X274697Y42479D01*
X274706Y42488D01*
X274717Y42496D01*
X274730Y42510D01*
X274747Y42524D01*
X274767Y42540D01*
X274789Y42560D01*
X274841Y42599D01*
X274905Y42645D01*
X274977Y42695D01*
X275060Y42745D01*
X275154Y42795D01*
X275254Y42845D01*
X275362Y42892D01*
X275481Y42931D01*
X275606Y42967D01*
X275736Y42995D01*
X275805Y43003D01*
X275874Y43011D01*
X275947Y43014D01*
X276019Y43017D01*
X276021D01*
X276027D01*
X276038D01*
X276052D01*
X276071Y43014D01*
D02*
G37*
G36*
X277778Y38225D02*
X276276Y37424D01*
Y37366D01*
X277778D01*
Y36693D01*
X274235D01*
Y37460D01*
X274237Y37502D01*
Y37549D01*
X274240Y37604D01*
X274243Y37665D01*
X274249Y37729D01*
X274254Y37798D01*
X274260Y37867D01*
X274279Y38006D01*
X274290Y38072D01*
X274304Y38133D01*
X274321Y38191D01*
X274340Y38241D01*
Y38244D01*
X274345Y38252D01*
X274351Y38266D01*
X274359Y38283D01*
X274370Y38305D01*
X274387Y38327D01*
X274404Y38355D01*
X274423Y38385D01*
X274445Y38416D01*
X274470Y38449D01*
X274501Y38482D01*
X274531Y38515D01*
X274567Y38549D01*
X274603Y38582D01*
X274645Y38612D01*
X274689Y38643D01*
X274692Y38646D01*
X274700Y38648D01*
X274714Y38657D01*
X274733Y38668D01*
X274756Y38679D01*
X274783Y38690D01*
X274816Y38704D01*
X274852Y38720D01*
X274894Y38734D01*
X274936Y38748D01*
X274985Y38759D01*
X275035Y38770D01*
X275088Y38781D01*
X275146Y38790D01*
X275204Y38792D01*
X275265Y38795D01*
X275268D01*
X275282D01*
X275298D01*
X275323Y38792D01*
X275354Y38790D01*
X275387Y38787D01*
X275426Y38781D01*
X275470Y38773D01*
X275561Y38754D01*
X275609Y38740D01*
X275658Y38723D01*
X275708Y38704D01*
X275755Y38682D01*
X275805Y38657D01*
X275850Y38626D01*
X275852Y38623D01*
X275861Y38618D01*
X275872Y38610D01*
X275888Y38596D01*
X275908Y38576D01*
X275930Y38554D01*
X275955Y38529D01*
X275980Y38499D01*
X276010Y38466D01*
X276038Y38430D01*
X276068Y38388D01*
X276096Y38344D01*
X276127Y38294D01*
X276154Y38241D01*
X276179Y38183D01*
X276204Y38122D01*
X277778Y38961D01*
Y38225D01*
D02*
G37*
G36*
X272476Y38901D02*
X272507Y38898D01*
X272546Y38895D01*
X272587Y38887D01*
X272634Y38878D01*
X272687Y38864D01*
X272742Y38851D01*
X272800Y38829D01*
X272861Y38806D01*
X272922Y38776D01*
X272983Y38743D01*
X273041Y38701D01*
X273100Y38654D01*
X273155Y38601D01*
X273158Y38599D01*
X273166Y38587D01*
X273180Y38571D01*
X273199Y38546D01*
X273221Y38515D01*
X273244Y38480D01*
X273269Y38438D01*
X273296Y38391D01*
X273321Y38335D01*
X273349Y38277D01*
X273371Y38211D01*
X273393Y38142D01*
X273413Y38067D01*
X273426Y37986D01*
X273435Y37903D01*
X273438Y37815D01*
Y37779D01*
X273435Y37751D01*
X273432Y37718D01*
X273426Y37679D01*
X273421Y37637D01*
X273415Y37590D01*
X273404Y37540D01*
X273393Y37488D01*
X273379Y37432D01*
X273360Y37377D01*
X273341Y37322D01*
X273316Y37263D01*
X273288Y37208D01*
X273255Y37155D01*
X273252Y37153D01*
X273246Y37144D01*
X273235Y37128D01*
X273219Y37108D01*
X273199Y37083D01*
X273174Y37056D01*
X273147Y37025D01*
X273111Y36992D01*
X273075Y36953D01*
X273030Y36914D01*
X272983Y36876D01*
X272931Y36834D01*
X272872Y36795D01*
X272809Y36754D01*
X272742Y36715D01*
X272670Y36676D01*
X272327Y37241D01*
X272332Y37244D01*
X272346Y37252D01*
X272371Y37266D01*
X272401Y37286D01*
X272435Y37310D01*
X272476Y37341D01*
X272518Y37374D01*
X272562Y37410D01*
X272606Y37452D01*
X272648Y37496D01*
X272690Y37546D01*
X272723Y37599D01*
X272753Y37651D01*
X272778Y37709D01*
X272792Y37770D01*
X272798Y37831D01*
Y37848D01*
X272795Y37859D01*
X272792Y37892D01*
X272784Y37931D01*
X272773Y37978D01*
X272756Y38025D01*
X272731Y38075D01*
X272698Y38122D01*
Y38125D01*
X272692Y38128D01*
X272678Y38142D01*
X272659Y38161D01*
X272631Y38183D01*
X272595Y38203D01*
X272557Y38222D01*
X272512Y38236D01*
X272490Y38241D01*
X272465D01*
X272463D01*
X272460D01*
X272443D01*
X272421Y38236D01*
X272390Y38230D01*
X272352Y38219D01*
X272313Y38203D01*
X272269Y38180D01*
X272224Y38150D01*
X272221D01*
X272219Y38144D01*
X272210Y38139D01*
X272202Y38130D01*
X272188Y38119D01*
X272172Y38105D01*
X272155Y38089D01*
X272133Y38067D01*
X272108Y38042D01*
X272080Y38014D01*
X272050Y37984D01*
X272017Y37948D01*
X271981Y37906D01*
X271942Y37862D01*
X271900Y37812D01*
X271856Y37756D01*
X271853Y37754D01*
X271850Y37751D01*
X271845Y37743D01*
X271834Y37732D01*
X271812Y37701D01*
X271778Y37662D01*
X271740Y37618D01*
X271692Y37565D01*
X271642Y37507D01*
X271587Y37446D01*
X271529Y37383D01*
X271471Y37319D01*
X271410Y37258D01*
X271349Y37197D01*
X271288Y37142D01*
X271233Y37089D01*
X271177Y37045D01*
X271127Y37009D01*
X271125Y37006D01*
X271116Y37000D01*
X271102Y36992D01*
X271083Y36984D01*
X271061Y36970D01*
X271033Y36956D01*
X271000Y36942D01*
X270967Y36926D01*
X270928Y36909D01*
X270889Y36895D01*
X270803Y36867D01*
X270756Y36859D01*
X270709Y36851D01*
X270662Y36845D01*
X270615Y36842D01*
X270609D01*
X270598D01*
X270579Y36845D01*
X270554Y36848D01*
X270521Y36851D01*
X270485Y36856D01*
X270443Y36865D01*
X270399Y36878D01*
X270349Y36892D01*
X270299Y36912D01*
X270247Y36934D01*
X270194Y36961D01*
X270138Y36992D01*
X270086Y37031D01*
X270033Y37072D01*
X269983Y37122D01*
X269981Y37125D01*
X269972Y37136D01*
X269958Y37150D01*
X269942Y37172D01*
X269922Y37200D01*
X269900Y37233D01*
X269875Y37272D01*
X269850Y37313D01*
X269825Y37360D01*
X269800Y37413D01*
X269778Y37471D01*
X269759Y37532D01*
X269742Y37599D01*
X269728Y37668D01*
X269720Y37740D01*
X269717Y37815D01*
Y37840D01*
X269720Y37859D01*
Y37884D01*
X269723Y37912D01*
X269728Y37942D01*
X269734Y37978D01*
X269740Y38014D01*
X269748Y38056D01*
X269770Y38139D01*
X269800Y38230D01*
X269820Y38274D01*
X269842Y38319D01*
Y38322D01*
X269848Y38330D01*
X269856Y38344D01*
X269867Y38360D01*
X269881Y38383D01*
X269897Y38410D01*
X269920Y38441D01*
X269945Y38474D01*
X269972Y38513D01*
X270005Y38552D01*
X270041Y38596D01*
X270080Y38640D01*
X270127Y38687D01*
X270174Y38737D01*
X270230Y38787D01*
X270288Y38840D01*
X270728Y38338D01*
X270723Y38335D01*
X270712Y38327D01*
X270695Y38313D01*
X270670Y38294D01*
X270643Y38269D01*
X270612Y38241D01*
X270579Y38211D01*
X270546Y38175D01*
X270512Y38136D01*
X270479Y38094D01*
X270449Y38050D01*
X270421Y38003D01*
X270396Y37956D01*
X270379Y37906D01*
X270366Y37856D01*
X270363Y37804D01*
Y37781D01*
X270366Y37756D01*
X270371Y37726D01*
X270379Y37693D01*
X270393Y37657D01*
X270410Y37621D01*
X270435Y37587D01*
X270438Y37585D01*
X270449Y37574D01*
X270462Y37563D01*
X270482Y37546D01*
X270507Y37532D01*
X270532Y37518D01*
X270562Y37507D01*
X270596Y37504D01*
X270598D01*
X270609D01*
X270629Y37507D01*
X270651Y37513D01*
X270676Y37518D01*
X270704Y37529D01*
X270734Y37543D01*
X270764Y37563D01*
X270770Y37568D01*
X270776Y37574D01*
X270787Y37582D01*
X270800Y37596D01*
X270817Y37610D01*
X270836Y37632D01*
X270861Y37657D01*
X270889Y37685D01*
X270922Y37721D01*
X270958Y37759D01*
X271000Y37806D01*
X271047Y37859D01*
X271100Y37920D01*
X271155Y37984D01*
X271219Y38058D01*
X271221Y38064D01*
X271233Y38075D01*
X271249Y38094D01*
X271271Y38119D01*
X271296Y38150D01*
X271327Y38186D01*
X271357Y38222D01*
X271391Y38261D01*
X271460Y38341D01*
X271496Y38383D01*
X271526Y38418D01*
X271557Y38452D01*
X271584Y38482D01*
X271606Y38507D01*
X271626Y38526D01*
X271629Y38529D01*
X271634Y38535D01*
X271645Y38546D01*
X271662Y38560D01*
X271678Y38576D01*
X271701Y38596D01*
X271726Y38618D01*
X271753Y38640D01*
X271814Y38687D01*
X271881Y38737D01*
X271950Y38781D01*
X271986Y38801D01*
X272022Y38817D01*
X272025D01*
X272030Y38820D01*
X272041Y38826D01*
X272055Y38831D01*
X272072Y38837D01*
X272094Y38845D01*
X272116Y38853D01*
X272144Y38862D01*
X272205Y38876D01*
X272277Y38889D01*
X272352Y38901D01*
X272435Y38903D01*
X272440D01*
X272454D01*
X272476Y38901D01*
D02*
G37*
G36*
X277778Y35219D02*
X274235D01*
Y35890D01*
X277778D01*
Y35219D01*
D02*
G37*
G36*
X273349Y34419D02*
X269806D01*
Y36352D01*
X270465D01*
Y35089D01*
X271105D01*
Y36352D01*
X271753D01*
Y35089D01*
X272687D01*
Y36352D01*
X273349D01*
Y34419D01*
D02*
G37*
G36*
X276174Y34646D02*
X276210D01*
X276251Y34640D01*
X276298Y34635D01*
X276354Y34629D01*
X276415Y34618D01*
X276481Y34607D01*
X276550Y34590D01*
X276622Y34571D01*
X276697Y34546D01*
X276775Y34518D01*
X276855Y34488D01*
X276936Y34449D01*
X277013Y34408D01*
X277019Y34405D01*
X277032Y34396D01*
X277052Y34383D01*
X277082Y34363D01*
X277116Y34341D01*
X277157Y34311D01*
X277201Y34277D01*
X277249Y34239D01*
X277298Y34197D01*
X277351Y34150D01*
X277404Y34097D01*
X277456Y34042D01*
X277506Y33984D01*
X277556Y33920D01*
X277603Y33851D01*
X277647Y33781D01*
X277650Y33776D01*
X277656Y33765D01*
X277667Y33743D01*
X277681Y33715D01*
X277697Y33676D01*
X277717Y33635D01*
X277736Y33582D01*
X277755Y33527D01*
X277778Y33463D01*
X277797Y33394D01*
X277816Y33322D01*
X277833Y33241D01*
X277847Y33158D01*
X277858Y33070D01*
X277863Y32978D01*
X277866Y32884D01*
Y32859D01*
X277863Y32831D01*
Y32790D01*
X277858Y32743D01*
X277852Y32687D01*
X277847Y32624D01*
X277836Y32554D01*
X277825Y32480D01*
X277808Y32402D01*
X277789Y32319D01*
X277766Y32236D01*
X277739Y32150D01*
X277706Y32064D01*
X277670Y31981D01*
X277628Y31898D01*
X277625Y31892D01*
X277617Y31879D01*
X277603Y31856D01*
X277584Y31826D01*
X277559Y31790D01*
X277528Y31748D01*
X277495Y31701D01*
X277453Y31651D01*
X277406Y31596D01*
X277357Y31541D01*
X277301Y31485D01*
X277240Y31427D01*
X277174Y31372D01*
X277102Y31316D01*
X277027Y31264D01*
X276946Y31214D01*
X276941Y31211D01*
X276927Y31203D01*
X276902Y31192D01*
X276869Y31175D01*
X276827Y31156D01*
X276780Y31136D01*
X276722Y31111D01*
X276661Y31089D01*
X276592Y31067D01*
X276517Y31045D01*
X276440Y31023D01*
X276354Y31003D01*
X276268Y30987D01*
X276177Y30975D01*
X276085Y30967D01*
X275988Y30964D01*
X275985D01*
X275980D01*
X275972D01*
X275958D01*
X275941Y30967D01*
X275919D01*
X275897Y30970D01*
X275869Y30973D01*
X275841Y30975D01*
X275811Y30978D01*
X275739Y30989D01*
X275658Y31003D01*
X275573Y31023D01*
X275478Y31048D01*
X275381Y31078D01*
X275282Y31114D01*
X275177Y31158D01*
X275071Y31214D01*
X274969Y31275D01*
X274866Y31347D01*
X274767Y31427D01*
X274764Y31430D01*
X274758Y31433D01*
X274750Y31441D01*
X274739Y31452D01*
X274725Y31466D01*
X274708Y31485D01*
X274692Y31505D01*
X274670Y31527D01*
X274647Y31554D01*
X274623Y31582D01*
X274598Y31615D01*
X274570Y31649D01*
X274515Y31726D01*
X274456Y31815D01*
X274398Y31912D01*
X274343Y32023D01*
X274290Y32139D01*
X274243Y32266D01*
X274204Y32405D01*
X274174Y32549D01*
X274163Y32626D01*
X274152Y32704D01*
X274149Y32782D01*
X274146Y32865D01*
Y32909D01*
X274149Y32942D01*
X274152Y32984D01*
X274154Y33034D01*
X274160Y33086D01*
X274168Y33147D01*
X274177Y33211D01*
X274188Y33280D01*
X274201Y33349D01*
X274218Y33424D01*
X274237Y33499D01*
X274262Y33577D01*
X274287Y33654D01*
X274318Y33729D01*
X274321Y33732D01*
X274323Y33746D01*
X274334Y33762D01*
X274345Y33787D01*
X274362Y33817D01*
X274381Y33854D01*
X274406Y33895D01*
X274434Y33939D01*
X274465Y33989D01*
X274503Y34042D01*
X274542Y34097D01*
X274587Y34153D01*
X274636Y34211D01*
X274692Y34272D01*
X274750Y34333D01*
X274814Y34394D01*
X275285Y33920D01*
X275282D01*
X275279Y33915D01*
X275265Y33901D01*
X275240Y33876D01*
X275210Y33840D01*
X275174Y33798D01*
X275132Y33746D01*
X275091Y33687D01*
X275044Y33618D01*
X274999Y33546D01*
X274958Y33466D01*
X274916Y33377D01*
X274880Y33286D01*
X274850Y33189D01*
X274825Y33086D01*
X274811Y32978D01*
X274805Y32923D01*
Y32845D01*
X274808Y32818D01*
X274811Y32782D01*
X274816Y32735D01*
X274825Y32685D01*
X274836Y32626D01*
X274850Y32563D01*
X274866Y32493D01*
X274891Y32424D01*
X274919Y32352D01*
X274952Y32277D01*
X274994Y32203D01*
X275038Y32131D01*
X275093Y32061D01*
X275154Y31992D01*
X275157Y31989D01*
X275171Y31978D01*
X275190Y31959D01*
X275215Y31937D01*
X275249Y31912D01*
X275290Y31881D01*
X275337Y31848D01*
X275390Y31818D01*
X275448Y31784D01*
X275512Y31751D01*
X275581Y31721D01*
X275656Y31696D01*
X275733Y31674D01*
X275819Y31654D01*
X275905Y31643D01*
X275996Y31640D01*
X275999D01*
X276002D01*
X276019D01*
X276046Y31643D01*
X276082Y31646D01*
X276127Y31651D01*
X276177Y31660D01*
X276235Y31671D01*
X276298Y31687D01*
X276365Y31707D01*
X276434Y31729D01*
X276506Y31759D01*
X276578Y31795D01*
X276653Y31837D01*
X276725Y31884D01*
X276797Y31942D01*
X276866Y32006D01*
X276869Y32012D01*
X276880Y32023D01*
X276899Y32042D01*
X276922Y32072D01*
X276949Y32109D01*
X276977Y32150D01*
X277010Y32200D01*
X277044Y32255D01*
X277077Y32319D01*
X277107Y32388D01*
X277138Y32460D01*
X277165Y32541D01*
X277187Y32626D01*
X277204Y32715D01*
X277218Y32809D01*
X277221Y32909D01*
Y32942D01*
X277218Y32967D01*
X277215Y32998D01*
X277213Y33031D01*
X277210Y33072D01*
X277201Y33114D01*
X277196Y33158D01*
X277185Y33205D01*
X277160Y33305D01*
X277143Y33355D01*
X277121Y33405D01*
X277099Y33452D01*
X277074Y33499D01*
X277071Y33502D01*
X277066Y33510D01*
X277057Y33521D01*
X277046Y33538D01*
X277030Y33560D01*
X277010Y33582D01*
X276988Y33610D01*
X276960Y33637D01*
X276930Y33668D01*
X276897Y33698D01*
X276861Y33732D01*
X276819Y33765D01*
X276772Y33795D01*
X276725Y33829D01*
X276670Y33859D01*
X276614Y33887D01*
Y32862D01*
X275980D01*
Y34643D01*
X276129Y34649D01*
X276135D01*
X276149D01*
X276174Y34646D01*
D02*
G37*
G36*
X271698Y33770D02*
X271734D01*
X271776Y33765D01*
X271825Y33762D01*
X271875Y33757D01*
X271933Y33748D01*
X271992Y33740D01*
X272119Y33715D01*
X272185Y33698D01*
X272252Y33682D01*
X272316Y33660D01*
X272382Y33635D01*
X272385Y33632D01*
X272396Y33629D01*
X272415Y33621D01*
X272438Y33610D01*
X272468Y33596D01*
X272501Y33579D01*
X272540Y33560D01*
X272582Y33538D01*
X272626Y33510D01*
X272670Y33482D01*
X272764Y33419D01*
X272861Y33344D01*
X272950Y33258D01*
X272953Y33255D01*
X272961Y33247D01*
X272972Y33233D01*
X272986Y33217D01*
X273005Y33194D01*
X273027Y33167D01*
X273050Y33139D01*
X273075Y33103D01*
X273100Y33067D01*
X273127Y33028D01*
X273177Y32939D01*
X273224Y32842D01*
X273246Y32793D01*
X273263Y32740D01*
Y32737D01*
X273266Y32726D01*
X273271Y32710D01*
X273277Y32687D01*
X273282Y32654D01*
X273291Y32615D01*
X273299Y32571D01*
X273305Y32516D01*
X273313Y32452D01*
X273321Y32383D01*
X273329Y32302D01*
X273335Y32217D01*
X273341Y32120D01*
X273346Y32014D01*
X273349Y31898D01*
Y30964D01*
X269806D01*
Y31837D01*
X269809Y31862D01*
Y31890D01*
X269812Y31920D01*
Y31953D01*
X269817Y32025D01*
X269823Y32109D01*
X269831Y32194D01*
X269839Y32289D01*
X269853Y32383D01*
X269870Y32477D01*
X269886Y32571D01*
X269911Y32665D01*
X269936Y32751D01*
X269967Y32834D01*
X270000Y32909D01*
X270003Y32915D01*
X270008Y32926D01*
X270019Y32945D01*
X270036Y32973D01*
X270058Y33003D01*
X270083Y33042D01*
X270113Y33084D01*
X270149Y33128D01*
X270191Y33175D01*
X270235Y33225D01*
X270288Y33277D01*
X270343Y33330D01*
X270404Y33383D01*
X270474Y33432D01*
X270546Y33482D01*
X270623Y33529D01*
X270629Y33532D01*
X270643Y33541D01*
X270668Y33552D01*
X270698Y33568D01*
X270740Y33585D01*
X270789Y33607D01*
X270845Y33629D01*
X270908Y33651D01*
X270981Y33674D01*
X271058Y33696D01*
X271141Y33718D01*
X271227Y33734D01*
X271321Y33751D01*
X271421Y33762D01*
X271523Y33770D01*
X271629Y33773D01*
X271634D01*
X271648D01*
X271668D01*
X271698Y33770D01*
D02*
G37*
G36*
X31286Y87378D02*
X29431D01*
Y88390D01*
X29776D01*
Y87729D01*
X30111D01*
Y88390D01*
X30451D01*
Y87729D01*
X30939D01*
Y88390D01*
X31286D01*
Y87378D01*
D02*
G37*
G36*
Y86705D02*
X30500Y86286D01*
Y86256D01*
X31286D01*
Y85904D01*
X29431D01*
Y86305D01*
X29433Y86327D01*
Y86352D01*
X29434Y86381D01*
X29436Y86413D01*
X29438Y86446D01*
X29441Y86482D01*
X29444Y86518D01*
X29454Y86591D01*
X29460Y86626D01*
X29467Y86658D01*
X29476Y86688D01*
X29486Y86714D01*
Y86716D01*
X29489Y86720D01*
X29492Y86727D01*
X29497Y86736D01*
X29502Y86747D01*
X29511Y86759D01*
X29520Y86774D01*
X29530Y86789D01*
X29542Y86805D01*
X29555Y86823D01*
X29570Y86840D01*
X29586Y86858D01*
X29605Y86875D01*
X29624Y86892D01*
X29646Y86908D01*
X29669Y86924D01*
X29671Y86926D01*
X29675Y86927D01*
X29682Y86932D01*
X29692Y86937D01*
X29704Y86943D01*
X29718Y86949D01*
X29736Y86956D01*
X29755Y86965D01*
X29776Y86972D01*
X29798Y86979D01*
X29824Y86985D01*
X29850Y86991D01*
X29878Y86997D01*
X29908Y87001D01*
X29939Y87003D01*
X29971Y87004D01*
X29972D01*
X29979D01*
X29988D01*
X30001Y87003D01*
X30017Y87001D01*
X30035Y87000D01*
X30055Y86997D01*
X30078Y86992D01*
X30126Y86982D01*
X30150Y86975D01*
X30177Y86966D01*
X30203Y86956D01*
X30227Y86945D01*
X30253Y86932D01*
X30277Y86916D01*
X30278Y86914D01*
X30283Y86911D01*
X30288Y86907D01*
X30297Y86900D01*
X30307Y86889D01*
X30319Y86878D01*
X30332Y86865D01*
X30345Y86849D01*
X30361Y86831D01*
X30375Y86813D01*
X30391Y86791D01*
X30406Y86768D01*
X30422Y86742D01*
X30436Y86714D01*
X30449Y86684D01*
X30462Y86652D01*
X31286Y87091D01*
Y86705D01*
D02*
G37*
G36*
Y84538D02*
X29431D01*
Y85550D01*
X29776D01*
Y84888D01*
X30111D01*
Y85550D01*
X30451D01*
Y84888D01*
X30939D01*
Y85550D01*
X31286D01*
Y84538D01*
D02*
G37*
G36*
Y83758D02*
X30472D01*
Y83137D01*
X31286D01*
Y82779D01*
X29431D01*
Y83137D01*
X30130D01*
Y83758D01*
X29431D01*
Y84114D01*
X31286D01*
Y83758D01*
D02*
G37*
G36*
Y80717D02*
X29431D01*
Y81729D01*
X29776D01*
Y81068D01*
X30111D01*
Y81729D01*
X30451D01*
Y81068D01*
X30939D01*
Y81729D01*
X31286D01*
Y80717D01*
D02*
G37*
G36*
Y79950D02*
X30069Y79161D01*
X31286D01*
Y78807D01*
X29431D01*
Y79146D01*
X30652Y79940D01*
X29431D01*
Y80293D01*
X31286D01*
Y79950D01*
D02*
G37*
G36*
Y78059D02*
X29431D01*
Y78410D01*
X31286D01*
Y78059D01*
D02*
G37*
G36*
Y76947D02*
X29431D01*
Y77301D01*
X30950D01*
Y77815D01*
X31286D01*
Y76947D01*
D02*
G37*
G36*
Y108378D02*
X29431D01*
Y109390D01*
X29776D01*
Y108729D01*
X30111D01*
Y109390D01*
X30451D01*
Y108729D01*
X30939D01*
Y109390D01*
X31286D01*
Y108378D01*
D02*
G37*
G36*
Y107705D02*
X30500Y107286D01*
Y107256D01*
X31286D01*
Y106904D01*
X29431D01*
Y107305D01*
X29433Y107327D01*
Y107352D01*
X29434Y107380D01*
X29436Y107412D01*
X29438Y107446D01*
X29441Y107482D01*
X29444Y107518D01*
X29454Y107591D01*
X29460Y107626D01*
X29467Y107658D01*
X29476Y107688D01*
X29486Y107714D01*
Y107715D01*
X29489Y107720D01*
X29492Y107727D01*
X29497Y107736D01*
X29502Y107747D01*
X29511Y107759D01*
X29520Y107773D01*
X29530Y107790D01*
X29542Y107805D01*
X29555Y107823D01*
X29570Y107840D01*
X29586Y107858D01*
X29605Y107875D01*
X29624Y107892D01*
X29646Y107908D01*
X29669Y107924D01*
X29671Y107926D01*
X29675Y107927D01*
X29682Y107931D01*
X29692Y107937D01*
X29704Y107943D01*
X29718Y107949D01*
X29736Y107956D01*
X29755Y107965D01*
X29776Y107972D01*
X29798Y107979D01*
X29824Y107985D01*
X29850Y107991D01*
X29878Y107997D01*
X29908Y108001D01*
X29939Y108003D01*
X29971Y108004D01*
X29972D01*
X29979D01*
X29988D01*
X30001Y108003D01*
X30017Y108001D01*
X30035Y108000D01*
X30055Y107997D01*
X30078Y107992D01*
X30126Y107982D01*
X30150Y107975D01*
X30177Y107966D01*
X30203Y107956D01*
X30227Y107945D01*
X30253Y107931D01*
X30277Y107916D01*
X30278Y107914D01*
X30283Y107911D01*
X30288Y107907D01*
X30297Y107900D01*
X30307Y107889D01*
X30319Y107878D01*
X30332Y107865D01*
X30345Y107849D01*
X30361Y107832D01*
X30375Y107813D01*
X30391Y107791D01*
X30406Y107768D01*
X30422Y107742D01*
X30436Y107714D01*
X30449Y107684D01*
X30462Y107652D01*
X31286Y108091D01*
Y107705D01*
D02*
G37*
G36*
Y105538D02*
X29431D01*
Y106550D01*
X29776D01*
Y105888D01*
X30111D01*
Y106550D01*
X30451D01*
Y105888D01*
X30939D01*
Y106550D01*
X31286D01*
Y105538D01*
D02*
G37*
G36*
Y104757D02*
X30472D01*
Y104137D01*
X31286D01*
Y103779D01*
X29431D01*
Y104137D01*
X30130D01*
Y104757D01*
X29431D01*
Y105114D01*
X31286D01*
Y104757D01*
D02*
G37*
G36*
Y101717D02*
X29431D01*
Y102729D01*
X29776D01*
Y102068D01*
X30111D01*
Y102729D01*
X30451D01*
Y102068D01*
X30939D01*
Y102729D01*
X31286D01*
Y101717D01*
D02*
G37*
G36*
Y100950D02*
X30069Y100161D01*
X31286D01*
Y99807D01*
X29431D01*
Y100146D01*
X30652Y100940D01*
X29431D01*
Y101293D01*
X31286D01*
Y100950D01*
D02*
G37*
G36*
Y99059D02*
X29431D01*
Y99410D01*
X31286D01*
Y99059D01*
D02*
G37*
G36*
Y97947D02*
X29431D01*
Y98301D01*
X30950D01*
Y98815D01*
X31286D01*
Y97947D01*
D02*
G37*
%LPC*%
G36*
X200198Y208547D02*
X199817D01*
Y208421D01*
X199819Y208410D01*
Y208397D01*
X199820Y208381D01*
X199821Y208363D01*
X199823Y208344D01*
X199827Y208307D01*
X199836Y208269D01*
X199840Y208250D01*
X199846Y208233D01*
X199853Y208218D01*
X199861Y208205D01*
Y208204D01*
X199863Y208202D01*
X199869Y208195D01*
X199881Y208185D01*
X199895Y208173D01*
X199916Y208162D01*
X199942Y208152D01*
X199972Y208144D01*
X199988Y208141D01*
X200007D01*
X200010D01*
X200017D01*
X200029Y208143D01*
X200043Y208146D01*
X200059Y208149D01*
X200078Y208154D01*
X200095Y208163D01*
X200113Y208173D01*
X200114Y208175D01*
X200120Y208179D01*
X200129Y208186D01*
X200137Y208196D01*
X200149Y208208D01*
X200159Y208223D01*
X200169Y208240D01*
X200178Y208259D01*
X200180Y208262D01*
X200181Y208269D01*
X200182Y208275D01*
X200184Y208282D01*
X200187Y208292D01*
X200188Y208302D01*
X200190Y208315D01*
X200193Y208328D01*
X200194Y208344D01*
X200196Y208362D01*
X200197Y208382D01*
Y208402D01*
X200198Y208425D01*
Y208547D01*
D02*
G37*
G36*
X265516Y56249D02*
X265513D01*
X265508D01*
X265499D01*
X265485D01*
X265469D01*
X265449D01*
X265427Y56246D01*
X265402D01*
X265347Y56243D01*
X265280Y56241D01*
X265208Y56235D01*
X265134Y56230D01*
X265053Y56221D01*
X264973Y56210D01*
X264893Y56199D01*
X264815Y56182D01*
X264740Y56163D01*
X264668Y56144D01*
X264607Y56119D01*
X264552Y56091D01*
X264549Y56088D01*
X264541Y56083D01*
X264527Y56075D01*
X264510Y56063D01*
X264491Y56047D01*
X264469Y56027D01*
X264444Y56005D01*
X264419Y55980D01*
X264394Y55953D01*
X264369Y55922D01*
X264347Y55889D01*
X264328Y55853D01*
X264311Y55817D01*
X264297Y55775D01*
X264289Y55731D01*
X264286Y55687D01*
Y55670D01*
X264289Y55659D01*
Y55642D01*
X264292Y55626D01*
X264300Y55584D01*
X264314Y55537D01*
X264333Y55487D01*
X264361Y55435D01*
X264397Y55385D01*
Y55382D01*
X264402Y55379D01*
X264408Y55374D01*
X264419Y55363D01*
X264430Y55352D01*
X264447Y55340D01*
X264463Y55327D01*
X264485Y55310D01*
X264510Y55296D01*
X264538Y55279D01*
X264568Y55263D01*
X264604Y55246D01*
X264640Y55230D01*
X264682Y55213D01*
X264726Y55199D01*
X264776Y55185D01*
X264779D01*
X264787Y55183D01*
X264804Y55180D01*
X264826Y55174D01*
X264854Y55169D01*
X264887Y55163D01*
X264929Y55158D01*
X264973Y55152D01*
X265025Y55144D01*
X265084Y55138D01*
X265147Y55133D01*
X265217Y55127D01*
X265294Y55122D01*
X265374Y55119D01*
X265463Y55116D01*
X265557D01*
X265560D01*
X265566D01*
X265574D01*
X265588D01*
X265602D01*
X265621D01*
X265665Y55119D01*
X265721Y55122D01*
X265782Y55124D01*
X265851Y55130D01*
X265926Y55136D01*
X266001Y55144D01*
X266078Y55155D01*
X266156Y55169D01*
X266231Y55183D01*
X266305Y55202D01*
X266372Y55221D01*
X266433Y55246D01*
X266485Y55274D01*
X266488Y55277D01*
X266496Y55282D01*
X266508Y55291D01*
X266524Y55302D01*
X266544Y55318D01*
X266566Y55338D01*
X266588Y55360D01*
X266613Y55385D01*
X266638Y55413D01*
X266660Y55443D01*
X266682Y55479D01*
X266701Y55515D01*
X266715Y55554D01*
X266729Y55595D01*
X266737Y55640D01*
X266740Y55687D01*
Y55698D01*
X266737Y55709D01*
Y55728D01*
X266732Y55748D01*
X266726Y55773D01*
X266721Y55797D01*
X266710Y55828D01*
X266696Y55856D01*
X266682Y55889D01*
X266663Y55922D01*
X266638Y55953D01*
X266610Y55986D01*
X266580Y56016D01*
X266541Y56047D01*
X266499Y56075D01*
X266496Y56077D01*
X266485Y56083D01*
X266469Y56091D01*
X266444Y56102D01*
X266410Y56116D01*
X266369Y56130D01*
X266322Y56147D01*
X266266Y56163D01*
X266203Y56177D01*
X266131Y56194D01*
X266050Y56208D01*
X265959Y56221D01*
X265862Y56232D01*
X265757Y56241D01*
X265640Y56246D01*
X265516Y56249D01*
D02*
G37*
G36*
Y53487D02*
X265513D01*
X265508D01*
X265499D01*
X265485D01*
X265469D01*
X265449D01*
X265427Y53485D01*
X265402D01*
X265347Y53482D01*
X265280Y53479D01*
X265208Y53474D01*
X265134Y53468D01*
X265053Y53460D01*
X264973Y53448D01*
X264893Y53438D01*
X264815Y53421D01*
X264740Y53401D01*
X264668Y53382D01*
X264607Y53357D01*
X264552Y53329D01*
X264549Y53327D01*
X264541Y53321D01*
X264527Y53313D01*
X264510Y53302D01*
X264491Y53285D01*
X264469Y53266D01*
X264444Y53244D01*
X264419Y53219D01*
X264394Y53191D01*
X264369Y53161D01*
X264347Y53127D01*
X264328Y53091D01*
X264311Y53055D01*
X264297Y53014D01*
X264289Y52969D01*
X264286Y52925D01*
Y52908D01*
X264289Y52897D01*
Y52881D01*
X264292Y52864D01*
X264300Y52823D01*
X264314Y52775D01*
X264333Y52726D01*
X264361Y52673D01*
X264397Y52623D01*
Y52620D01*
X264402Y52618D01*
X264408Y52612D01*
X264419Y52601D01*
X264430Y52590D01*
X264447Y52579D01*
X264463Y52565D01*
X264485Y52548D01*
X264510Y52534D01*
X264538Y52518D01*
X264568Y52501D01*
X264604Y52485D01*
X264640Y52468D01*
X264682Y52451D01*
X264726Y52438D01*
X264776Y52424D01*
X264779D01*
X264787Y52421D01*
X264804Y52418D01*
X264826Y52413D01*
X264854Y52407D01*
X264887Y52402D01*
X264929Y52396D01*
X264973Y52390D01*
X265025Y52382D01*
X265084Y52377D01*
X265147Y52371D01*
X265217Y52365D01*
X265294Y52360D01*
X265374Y52357D01*
X265463Y52354D01*
X265557D01*
X265560D01*
X265566D01*
X265574D01*
X265588D01*
X265602D01*
X265621D01*
X265665Y52357D01*
X265721Y52360D01*
X265782Y52363D01*
X265851Y52368D01*
X265926Y52374D01*
X266001Y52382D01*
X266078Y52393D01*
X266156Y52407D01*
X266231Y52421D01*
X266305Y52440D01*
X266372Y52460D01*
X266433Y52485D01*
X266485Y52512D01*
X266488Y52515D01*
X266496Y52521D01*
X266508Y52529D01*
X266524Y52540D01*
X266544Y52557D01*
X266566Y52576D01*
X266588Y52598D01*
X266613Y52623D01*
X266638Y52651D01*
X266660Y52681D01*
X266682Y52717D01*
X266701Y52753D01*
X266715Y52792D01*
X266729Y52834D01*
X266737Y52878D01*
X266740Y52925D01*
Y52936D01*
X266737Y52947D01*
Y52967D01*
X266732Y52986D01*
X266726Y53011D01*
X266721Y53036D01*
X266710Y53066D01*
X266696Y53094D01*
X266682Y53127D01*
X266663Y53161D01*
X266638Y53191D01*
X266610Y53224D01*
X266580Y53255D01*
X266541Y53285D01*
X266499Y53313D01*
X266496Y53316D01*
X266485Y53321D01*
X266469Y53329D01*
X266444Y53341D01*
X266410Y53354D01*
X266369Y53368D01*
X266322Y53385D01*
X266266Y53401D01*
X266203Y53415D01*
X266131Y53432D01*
X266050Y53446D01*
X265959Y53460D01*
X265862Y53471D01*
X265757Y53479D01*
X265640Y53485D01*
X265516Y53487D01*
D02*
G37*
G36*
Y48654D02*
X265513D01*
X265508D01*
X265499D01*
X265485D01*
X265469D01*
X265449D01*
X265427Y48651D01*
X265402D01*
X265347Y48648D01*
X265280Y48645D01*
X265208Y48640D01*
X265134Y48634D01*
X265053Y48626D01*
X264973Y48615D01*
X264893Y48604D01*
X264815Y48587D01*
X264740Y48568D01*
X264668Y48548D01*
X264607Y48524D01*
X264552Y48496D01*
X264549Y48493D01*
X264541Y48487D01*
X264527Y48479D01*
X264510Y48468D01*
X264491Y48452D01*
X264469Y48432D01*
X264444Y48410D01*
X264419Y48385D01*
X264394Y48357D01*
X264369Y48327D01*
X264347Y48294D01*
X264328Y48258D01*
X264311Y48222D01*
X264297Y48180D01*
X264289Y48136D01*
X264286Y48091D01*
Y48075D01*
X264289Y48064D01*
Y48047D01*
X264292Y48030D01*
X264300Y47989D01*
X264314Y47942D01*
X264333Y47892D01*
X264361Y47839D01*
X264397Y47789D01*
Y47787D01*
X264402Y47784D01*
X264408Y47778D01*
X264419Y47767D01*
X264430Y47756D01*
X264447Y47745D01*
X264463Y47731D01*
X264485Y47715D01*
X264510Y47701D01*
X264538Y47684D01*
X264568Y47668D01*
X264604Y47651D01*
X264640Y47634D01*
X264682Y47618D01*
X264726Y47604D01*
X264776Y47590D01*
X264779D01*
X264787Y47587D01*
X264804Y47584D01*
X264826Y47579D01*
X264854Y47573D01*
X264887Y47568D01*
X264929Y47562D01*
X264973Y47557D01*
X265025Y47548D01*
X265084Y47543D01*
X265147Y47537D01*
X265217Y47532D01*
X265294Y47526D01*
X265374Y47523D01*
X265463Y47521D01*
X265557D01*
X265560D01*
X265566D01*
X265574D01*
X265588D01*
X265602D01*
X265621D01*
X265665Y47523D01*
X265721Y47526D01*
X265782Y47529D01*
X265851Y47535D01*
X265926Y47540D01*
X266001Y47548D01*
X266078Y47559D01*
X266156Y47573D01*
X266231Y47587D01*
X266305Y47607D01*
X266372Y47626D01*
X266433Y47651D01*
X266485Y47679D01*
X266488Y47681D01*
X266496Y47687D01*
X266508Y47695D01*
X266524Y47706D01*
X266544Y47723D01*
X266566Y47742D01*
X266588Y47765D01*
X266613Y47789D01*
X266638Y47817D01*
X266660Y47848D01*
X266682Y47884D01*
X266701Y47920D01*
X266715Y47958D01*
X266729Y48000D01*
X266737Y48044D01*
X266740Y48091D01*
Y48102D01*
X266737Y48114D01*
Y48133D01*
X266732Y48152D01*
X266726Y48177D01*
X266721Y48202D01*
X266710Y48233D01*
X266696Y48260D01*
X266682Y48294D01*
X266663Y48327D01*
X266638Y48357D01*
X266610Y48390D01*
X266580Y48421D01*
X266541Y48452D01*
X266499Y48479D01*
X266496Y48482D01*
X266485Y48487D01*
X266469Y48496D01*
X266444Y48507D01*
X266410Y48521D01*
X266369Y48535D01*
X266322Y48551D01*
X266266Y48568D01*
X266203Y48582D01*
X266131Y48598D01*
X266050Y48612D01*
X265959Y48626D01*
X265862Y48637D01*
X265757Y48645D01*
X265640Y48651D01*
X265516Y48654D01*
D02*
G37*
G36*
Y45892D02*
X265513D01*
X265508D01*
X265499D01*
X265485D01*
X265469D01*
X265449D01*
X265427Y45889D01*
X265402D01*
X265347Y45886D01*
X265280Y45884D01*
X265208Y45878D01*
X265134Y45873D01*
X265053Y45864D01*
X264973Y45853D01*
X264893Y45842D01*
X264815Y45825D01*
X264740Y45806D01*
X264668Y45787D01*
X264607Y45762D01*
X264552Y45734D01*
X264549Y45731D01*
X264541Y45726D01*
X264527Y45717D01*
X264510Y45706D01*
X264491Y45690D01*
X264469Y45670D01*
X264444Y45648D01*
X264419Y45623D01*
X264394Y45596D01*
X264369Y45565D01*
X264347Y45532D01*
X264328Y45496D01*
X264311Y45460D01*
X264297Y45418D01*
X264289Y45374D01*
X264286Y45330D01*
Y45313D01*
X264289Y45302D01*
Y45285D01*
X264292Y45269D01*
X264300Y45227D01*
X264314Y45180D01*
X264333Y45130D01*
X264361Y45078D01*
X264397Y45028D01*
Y45025D01*
X264402Y45022D01*
X264408Y45017D01*
X264419Y45006D01*
X264430Y44995D01*
X264447Y44983D01*
X264463Y44970D01*
X264485Y44953D01*
X264510Y44939D01*
X264538Y44923D01*
X264568Y44906D01*
X264604Y44889D01*
X264640Y44873D01*
X264682Y44856D01*
X264726Y44842D01*
X264776Y44828D01*
X264779D01*
X264787Y44826D01*
X264804Y44823D01*
X264826Y44817D01*
X264854Y44812D01*
X264887Y44806D01*
X264929Y44801D01*
X264973Y44795D01*
X265025Y44787D01*
X265084Y44781D01*
X265147Y44776D01*
X265217Y44770D01*
X265294Y44765D01*
X265374Y44762D01*
X265463Y44759D01*
X265557D01*
X265560D01*
X265566D01*
X265574D01*
X265588D01*
X265602D01*
X265621D01*
X265665Y44762D01*
X265721Y44765D01*
X265782Y44767D01*
X265851Y44773D01*
X265926Y44778D01*
X266001Y44787D01*
X266078Y44798D01*
X266156Y44812D01*
X266231Y44826D01*
X266305Y44845D01*
X266372Y44864D01*
X266433Y44889D01*
X266485Y44917D01*
X266488Y44920D01*
X266496Y44925D01*
X266508Y44934D01*
X266524Y44945D01*
X266544Y44961D01*
X266566Y44981D01*
X266588Y45003D01*
X266613Y45028D01*
X266638Y45055D01*
X266660Y45086D01*
X266682Y45122D01*
X266701Y45158D01*
X266715Y45197D01*
X266729Y45238D01*
X266737Y45283D01*
X266740Y45330D01*
Y45341D01*
X266737Y45352D01*
Y45371D01*
X266732Y45391D01*
X266726Y45415D01*
X266721Y45441D01*
X266710Y45471D01*
X266696Y45499D01*
X266682Y45532D01*
X266663Y45565D01*
X266638Y45596D01*
X266610Y45629D01*
X266580Y45659D01*
X266541Y45690D01*
X266499Y45717D01*
X266496Y45720D01*
X266485Y45726D01*
X266469Y45734D01*
X266444Y45745D01*
X266410Y45759D01*
X266369Y45773D01*
X266322Y45790D01*
X266266Y45806D01*
X266203Y45820D01*
X266131Y45837D01*
X266050Y45850D01*
X265959Y45864D01*
X265862Y45875D01*
X265757Y45884D01*
X265640Y45889D01*
X265516Y45892D01*
D02*
G37*
G36*
Y43130D02*
X265513D01*
X265508D01*
X265499D01*
X265485D01*
X265469D01*
X265449D01*
X265427Y43128D01*
X265402D01*
X265347Y43125D01*
X265280Y43122D01*
X265208Y43116D01*
X265134Y43111D01*
X265053Y43103D01*
X264973Y43091D01*
X264893Y43080D01*
X264815Y43064D01*
X264740Y43044D01*
X264668Y43025D01*
X264607Y43000D01*
X264552Y42972D01*
X264549Y42970D01*
X264541Y42964D01*
X264527Y42956D01*
X264510Y42945D01*
X264491Y42928D01*
X264469Y42909D01*
X264444Y42886D01*
X264419Y42862D01*
X264394Y42834D01*
X264369Y42803D01*
X264347Y42770D01*
X264328Y42734D01*
X264311Y42698D01*
X264297Y42657D01*
X264289Y42612D01*
X264286Y42568D01*
Y42551D01*
X264289Y42540D01*
Y42524D01*
X264292Y42507D01*
X264300Y42465D01*
X264314Y42418D01*
X264333Y42369D01*
X264361Y42316D01*
X264397Y42266D01*
Y42263D01*
X264402Y42261D01*
X264408Y42255D01*
X264419Y42244D01*
X264430Y42233D01*
X264447Y42222D01*
X264463Y42208D01*
X264485Y42191D01*
X264510Y42177D01*
X264538Y42161D01*
X264568Y42144D01*
X264604Y42128D01*
X264640Y42111D01*
X264682Y42094D01*
X264726Y42081D01*
X264776Y42067D01*
X264779D01*
X264787Y42064D01*
X264804Y42061D01*
X264826Y42055D01*
X264854Y42050D01*
X264887Y42044D01*
X264929Y42039D01*
X264973Y42033D01*
X265025Y42025D01*
X265084Y42020D01*
X265147Y42014D01*
X265217Y42008D01*
X265294Y42003D01*
X265374Y42000D01*
X265463Y41997D01*
X265557D01*
X265560D01*
X265566D01*
X265574D01*
X265588D01*
X265602D01*
X265621D01*
X265665Y42000D01*
X265721Y42003D01*
X265782Y42006D01*
X265851Y42011D01*
X265926Y42017D01*
X266001Y42025D01*
X266078Y42036D01*
X266156Y42050D01*
X266231Y42064D01*
X266305Y42083D01*
X266372Y42103D01*
X266433Y42128D01*
X266485Y42155D01*
X266488Y42158D01*
X266496Y42164D01*
X266508Y42172D01*
X266524Y42183D01*
X266544Y42200D01*
X266566Y42219D01*
X266588Y42241D01*
X266613Y42266D01*
X266638Y42294D01*
X266660Y42324D01*
X266682Y42360D01*
X266701Y42396D01*
X266715Y42435D01*
X266729Y42477D01*
X266737Y42521D01*
X266740Y42568D01*
Y42579D01*
X266737Y42590D01*
Y42610D01*
X266732Y42629D01*
X266726Y42654D01*
X266721Y42679D01*
X266710Y42709D01*
X266696Y42737D01*
X266682Y42770D01*
X266663Y42803D01*
X266638Y42834D01*
X266610Y42867D01*
X266580Y42898D01*
X266541Y42928D01*
X266499Y42956D01*
X266496Y42959D01*
X266485Y42964D01*
X266469Y42972D01*
X266444Y42983D01*
X266410Y42997D01*
X266369Y43011D01*
X266322Y43028D01*
X266266Y43044D01*
X266203Y43058D01*
X266131Y43075D01*
X266050Y43089D01*
X265959Y43103D01*
X265862Y43114D01*
X265757Y43122D01*
X265640Y43128D01*
X265516Y43130D01*
D02*
G37*
G36*
Y38297D02*
X265513D01*
X265508D01*
X265499D01*
X265485D01*
X265469D01*
X265449D01*
X265427Y38294D01*
X265402D01*
X265347Y38291D01*
X265280Y38288D01*
X265208Y38283D01*
X265134Y38277D01*
X265053Y38269D01*
X264973Y38258D01*
X264893Y38247D01*
X264815Y38230D01*
X264740Y38211D01*
X264668Y38191D01*
X264607Y38166D01*
X264552Y38139D01*
X264549Y38136D01*
X264541Y38130D01*
X264527Y38122D01*
X264510Y38111D01*
X264491Y38094D01*
X264469Y38075D01*
X264444Y38053D01*
X264419Y38028D01*
X264394Y38000D01*
X264369Y37970D01*
X264347Y37936D01*
X264328Y37901D01*
X264311Y37865D01*
X264297Y37823D01*
X264289Y37779D01*
X264286Y37734D01*
Y37718D01*
X264289Y37707D01*
Y37690D01*
X264292Y37673D01*
X264300Y37632D01*
X264314Y37585D01*
X264333Y37535D01*
X264361Y37482D01*
X264397Y37432D01*
Y37430D01*
X264402Y37427D01*
X264408Y37421D01*
X264419Y37410D01*
X264430Y37399D01*
X264447Y37388D01*
X264463Y37374D01*
X264485Y37358D01*
X264510Y37344D01*
X264538Y37327D01*
X264568Y37310D01*
X264604Y37294D01*
X264640Y37277D01*
X264682Y37261D01*
X264726Y37247D01*
X264776Y37233D01*
X264779D01*
X264787Y37230D01*
X264804Y37227D01*
X264826Y37222D01*
X264854Y37216D01*
X264887Y37211D01*
X264929Y37205D01*
X264973Y37200D01*
X265025Y37191D01*
X265084Y37186D01*
X265147Y37180D01*
X265217Y37175D01*
X265294Y37169D01*
X265374Y37167D01*
X265463Y37164D01*
X265557D01*
X265560D01*
X265566D01*
X265574D01*
X265588D01*
X265602D01*
X265621D01*
X265665Y37167D01*
X265721Y37169D01*
X265782Y37172D01*
X265851Y37178D01*
X265926Y37183D01*
X266001Y37191D01*
X266078Y37203D01*
X266156Y37216D01*
X266231Y37230D01*
X266305Y37250D01*
X266372Y37269D01*
X266433Y37294D01*
X266485Y37322D01*
X266488Y37324D01*
X266496Y37330D01*
X266508Y37338D01*
X266524Y37349D01*
X266544Y37366D01*
X266566Y37385D01*
X266588Y37407D01*
X266613Y37432D01*
X266638Y37460D01*
X266660Y37491D01*
X266682Y37527D01*
X266701Y37563D01*
X266715Y37601D01*
X266729Y37643D01*
X266737Y37687D01*
X266740Y37734D01*
Y37745D01*
X266737Y37756D01*
Y37776D01*
X266732Y37795D01*
X266726Y37820D01*
X266721Y37845D01*
X266710Y37876D01*
X266696Y37903D01*
X266682Y37936D01*
X266663Y37970D01*
X266638Y38000D01*
X266610Y38034D01*
X266580Y38064D01*
X266541Y38094D01*
X266499Y38122D01*
X266496Y38125D01*
X266485Y38130D01*
X266469Y38139D01*
X266444Y38150D01*
X266410Y38164D01*
X266369Y38177D01*
X266322Y38194D01*
X266266Y38211D01*
X266203Y38225D01*
X266131Y38241D01*
X266050Y38255D01*
X265959Y38269D01*
X265862Y38280D01*
X265757Y38288D01*
X265640Y38294D01*
X265516Y38297D01*
D02*
G37*
G36*
Y35535D02*
X265513D01*
X265508D01*
X265499D01*
X265485D01*
X265469D01*
X265449D01*
X265427Y35532D01*
X265402D01*
X265347Y35529D01*
X265280Y35527D01*
X265208Y35521D01*
X265134Y35516D01*
X265053Y35507D01*
X264973Y35496D01*
X264893Y35485D01*
X264815Y35469D01*
X264740Y35449D01*
X264668Y35430D01*
X264607Y35405D01*
X264552Y35377D01*
X264549Y35374D01*
X264541Y35369D01*
X264527Y35360D01*
X264510Y35349D01*
X264491Y35333D01*
X264469Y35313D01*
X264444Y35291D01*
X264419Y35266D01*
X264394Y35239D01*
X264369Y35208D01*
X264347Y35175D01*
X264328Y35139D01*
X264311Y35103D01*
X264297Y35061D01*
X264289Y35017D01*
X264286Y34973D01*
Y34956D01*
X264289Y34945D01*
Y34928D01*
X264292Y34912D01*
X264300Y34870D01*
X264314Y34823D01*
X264333Y34773D01*
X264361Y34721D01*
X264397Y34671D01*
Y34668D01*
X264402Y34665D01*
X264408Y34660D01*
X264419Y34649D01*
X264430Y34637D01*
X264447Y34626D01*
X264463Y34613D01*
X264485Y34596D01*
X264510Y34582D01*
X264538Y34565D01*
X264568Y34549D01*
X264604Y34532D01*
X264640Y34516D01*
X264682Y34499D01*
X264726Y34485D01*
X264776Y34471D01*
X264779D01*
X264787Y34468D01*
X264804Y34466D01*
X264826Y34460D01*
X264854Y34455D01*
X264887Y34449D01*
X264929Y34444D01*
X264973Y34438D01*
X265025Y34430D01*
X265084Y34424D01*
X265147Y34419D01*
X265217Y34413D01*
X265294Y34408D01*
X265374Y34405D01*
X265463Y34402D01*
X265557D01*
X265560D01*
X265566D01*
X265574D01*
X265588D01*
X265602D01*
X265621D01*
X265665Y34405D01*
X265721Y34408D01*
X265782Y34410D01*
X265851Y34416D01*
X265926Y34421D01*
X266001Y34430D01*
X266078Y34441D01*
X266156Y34455D01*
X266231Y34468D01*
X266305Y34488D01*
X266372Y34507D01*
X266433Y34532D01*
X266485Y34560D01*
X266488Y34563D01*
X266496Y34568D01*
X266508Y34576D01*
X266524Y34588D01*
X266544Y34604D01*
X266566Y34624D01*
X266588Y34646D01*
X266613Y34671D01*
X266638Y34698D01*
X266660Y34729D01*
X266682Y34765D01*
X266701Y34801D01*
X266715Y34840D01*
X266729Y34881D01*
X266737Y34925D01*
X266740Y34973D01*
Y34984D01*
X266737Y34995D01*
Y35014D01*
X266732Y35034D01*
X266726Y35059D01*
X266721Y35083D01*
X266710Y35114D01*
X266696Y35142D01*
X266682Y35175D01*
X266663Y35208D01*
X266638Y35239D01*
X266610Y35272D01*
X266580Y35302D01*
X266541Y35333D01*
X266499Y35360D01*
X266496Y35363D01*
X266485Y35369D01*
X266469Y35377D01*
X266444Y35388D01*
X266410Y35402D01*
X266369Y35416D01*
X266322Y35432D01*
X266266Y35449D01*
X266203Y35463D01*
X266131Y35480D01*
X266050Y35493D01*
X265959Y35507D01*
X265862Y35518D01*
X265757Y35527D01*
X265640Y35532D01*
X265516Y35535D01*
D02*
G37*
G36*
Y32773D02*
X265513D01*
X265508D01*
X265499D01*
X265485D01*
X265469D01*
X265449D01*
X265427Y32770D01*
X265402D01*
X265347Y32768D01*
X265280Y32765D01*
X265208Y32759D01*
X265134Y32754D01*
X265053Y32746D01*
X264973Y32735D01*
X264893Y32723D01*
X264815Y32707D01*
X264740Y32687D01*
X264668Y32668D01*
X264607Y32643D01*
X264552Y32615D01*
X264549Y32613D01*
X264541Y32607D01*
X264527Y32599D01*
X264510Y32588D01*
X264491Y32571D01*
X264469Y32552D01*
X264444Y32530D01*
X264419Y32505D01*
X264394Y32477D01*
X264369Y32446D01*
X264347Y32413D01*
X264328Y32377D01*
X264311Y32341D01*
X264297Y32300D01*
X264289Y32255D01*
X264286Y32211D01*
Y32194D01*
X264289Y32183D01*
Y32167D01*
X264292Y32150D01*
X264300Y32109D01*
X264314Y32061D01*
X264333Y32012D01*
X264361Y31959D01*
X264397Y31909D01*
Y31906D01*
X264402Y31903D01*
X264408Y31898D01*
X264419Y31887D01*
X264430Y31876D01*
X264447Y31865D01*
X264463Y31851D01*
X264485Y31834D01*
X264510Y31820D01*
X264538Y31804D01*
X264568Y31787D01*
X264604Y31771D01*
X264640Y31754D01*
X264682Y31737D01*
X264726Y31723D01*
X264776Y31710D01*
X264779D01*
X264787Y31707D01*
X264804Y31704D01*
X264826Y31699D01*
X264854Y31693D01*
X264887Y31687D01*
X264929Y31682D01*
X264973Y31676D01*
X265025Y31668D01*
X265084Y31662D01*
X265147Y31657D01*
X265217Y31651D01*
X265294Y31646D01*
X265374Y31643D01*
X265463Y31640D01*
X265557D01*
X265560D01*
X265566D01*
X265574D01*
X265588D01*
X265602D01*
X265621D01*
X265665Y31643D01*
X265721Y31646D01*
X265782Y31649D01*
X265851Y31654D01*
X265926Y31660D01*
X266001Y31668D01*
X266078Y31679D01*
X266156Y31693D01*
X266231Y31707D01*
X266305Y31726D01*
X266372Y31746D01*
X266433Y31771D01*
X266485Y31798D01*
X266488Y31801D01*
X266496Y31806D01*
X266508Y31815D01*
X266524Y31826D01*
X266544Y31842D01*
X266566Y31862D01*
X266588Y31884D01*
X266613Y31909D01*
X266638Y31937D01*
X266660Y31967D01*
X266682Y32003D01*
X266701Y32039D01*
X266715Y32078D01*
X266729Y32120D01*
X266737Y32164D01*
X266740Y32211D01*
Y32222D01*
X266737Y32233D01*
Y32252D01*
X266732Y32272D01*
X266726Y32297D01*
X266721Y32322D01*
X266710Y32352D01*
X266696Y32380D01*
X266682Y32413D01*
X266663Y32446D01*
X266638Y32477D01*
X266610Y32510D01*
X266580Y32541D01*
X266541Y32571D01*
X266499Y32599D01*
X266496Y32601D01*
X266485Y32607D01*
X266469Y32615D01*
X266444Y32626D01*
X266410Y32640D01*
X266369Y32654D01*
X266322Y32671D01*
X266266Y32687D01*
X266203Y32701D01*
X266131Y32718D01*
X266050Y32732D01*
X265959Y32746D01*
X265862Y32757D01*
X265757Y32765D01*
X265640Y32770D01*
X265516Y32773D01*
D02*
G37*
G36*
X259791Y32416D02*
X259788D01*
X259783D01*
X259771D01*
X259757Y32413D01*
X259741Y32410D01*
X259721Y32408D01*
X259677Y32397D01*
X259627Y32377D01*
X259602Y32363D01*
X259577Y32350D01*
X259555Y32330D01*
X259530Y32308D01*
X259511Y32283D01*
X259492Y32255D01*
X259489Y32250D01*
X259486Y32241D01*
X259481Y32233D01*
X259475Y32219D01*
X259470Y32203D01*
X259461Y32181D01*
X259456Y32158D01*
X259450Y32131D01*
X259442Y32100D01*
X259436Y32064D01*
X259431Y32025D01*
X259425Y31981D01*
X259422Y31934D01*
X259420Y31881D01*
Y31638D01*
X260148D01*
Y31912D01*
X260145Y31937D01*
X260143Y31989D01*
X260140Y32048D01*
X260132Y32106D01*
X260123Y32158D01*
X260118Y32183D01*
X260112Y32203D01*
X260109Y32208D01*
X260104Y32219D01*
X260096Y32236D01*
X260084Y32261D01*
X260068Y32286D01*
X260046Y32311D01*
X260021Y32336D01*
X259993Y32358D01*
X259990Y32361D01*
X259979Y32366D01*
X259960Y32377D01*
X259938Y32388D01*
X259907Y32397D01*
X259874Y32408D01*
X259832Y32413D01*
X259791Y32416D01*
D02*
G37*
G36*
X201198Y316047D02*
X200817D01*
Y315921D01*
X200818Y315910D01*
Y315897D01*
X200820Y315881D01*
X200821Y315863D01*
X200823Y315844D01*
X200827Y315807D01*
X200836Y315769D01*
X200840Y315750D01*
X200846Y315733D01*
X200853Y315718D01*
X200861Y315705D01*
Y315704D01*
X200863Y315702D01*
X200869Y315695D01*
X200881Y315685D01*
X200895Y315673D01*
X200916Y315662D01*
X200942Y315651D01*
X200972Y315644D01*
X200988Y315641D01*
X201007D01*
X201010D01*
X201017D01*
X201029Y315643D01*
X201043Y315646D01*
X201059Y315649D01*
X201078Y315654D01*
X201095Y315663D01*
X201113Y315673D01*
X201114Y315675D01*
X201120Y315679D01*
X201129Y315686D01*
X201137Y315696D01*
X201149Y315708D01*
X201159Y315722D01*
X201169Y315740D01*
X201178Y315759D01*
X201180Y315762D01*
X201181Y315769D01*
X201182Y315775D01*
X201184Y315782D01*
X201187Y315792D01*
X201188Y315802D01*
X201190Y315815D01*
X201193Y315828D01*
X201194Y315844D01*
X201196Y315862D01*
X201197Y315882D01*
Y315902D01*
X201198Y315926D01*
Y316047D01*
D02*
G37*
G36*
X75698D02*
X75317D01*
Y315921D01*
X75318Y315910D01*
Y315897D01*
X75320Y315881D01*
X75321Y315863D01*
X75323Y315844D01*
X75327Y315807D01*
X75336Y315769D01*
X75340Y315750D01*
X75346Y315733D01*
X75353Y315718D01*
X75361Y315705D01*
Y315704D01*
X75363Y315702D01*
X75369Y315695D01*
X75381Y315685D01*
X75395Y315673D01*
X75416Y315662D01*
X75442Y315651D01*
X75472Y315644D01*
X75488Y315641D01*
X75507D01*
X75510D01*
X75517D01*
X75529Y315643D01*
X75543Y315646D01*
X75559Y315649D01*
X75578Y315654D01*
X75595Y315663D01*
X75613Y315673D01*
X75614Y315675D01*
X75620Y315679D01*
X75629Y315686D01*
X75638Y315696D01*
X75649Y315708D01*
X75659Y315722D01*
X75669Y315740D01*
X75678Y315759D01*
X75679Y315762D01*
X75681Y315769D01*
X75682Y315775D01*
X75684Y315782D01*
X75687Y315792D01*
X75688Y315802D01*
X75690Y315815D01*
X75693Y315828D01*
X75694Y315844D01*
X75696Y315862D01*
X75697Y315882D01*
Y315902D01*
X75698Y315926D01*
Y316047D01*
D02*
G37*
G36*
X29985Y65662D02*
X29966D01*
X29963D01*
X29956D01*
X29945Y65660D01*
X29930Y65658D01*
X29914Y65655D01*
X29895Y65649D01*
X29878Y65640D01*
X29860Y65630D01*
X29859Y65628D01*
X29853Y65624D01*
X29844Y65617D01*
X29836Y65607D01*
X29824Y65595D01*
X29814Y65581D01*
X29804Y65563D01*
X29795Y65544D01*
X29794Y65541D01*
X29792Y65534D01*
X29791Y65528D01*
X29789Y65521D01*
X29787Y65511D01*
X29785Y65501D01*
X29784Y65488D01*
X29781Y65475D01*
X29779Y65459D01*
X29778Y65441D01*
X29776Y65421D01*
Y65401D01*
X29775Y65378D01*
Y65256D01*
X30156D01*
Y65382D01*
X30155Y65394D01*
Y65407D01*
X30153Y65423D01*
X30152Y65440D01*
X30150Y65459D01*
X30146Y65497D01*
X30138Y65534D01*
X30133Y65553D01*
X30127Y65570D01*
X30120Y65585D01*
X30113Y65598D01*
Y65600D01*
X30110Y65601D01*
X30104Y65608D01*
X30092Y65618D01*
X30078Y65630D01*
X30058Y65641D01*
X30032Y65652D01*
X30001Y65659D01*
X29985Y65662D01*
D02*
G37*
G36*
X75198Y207047D02*
X74817D01*
Y206921D01*
X74818Y206910D01*
Y206896D01*
X74820Y206881D01*
X74821Y206863D01*
X74823Y206844D01*
X74827Y206807D01*
X74836Y206769D01*
X74840Y206750D01*
X74846Y206733D01*
X74853Y206718D01*
X74861Y206705D01*
Y206704D01*
X74863Y206702D01*
X74869Y206695D01*
X74881Y206685D01*
X74895Y206673D01*
X74916Y206662D01*
X74942Y206651D01*
X74972Y206644D01*
X74988Y206641D01*
X75007D01*
X75010D01*
X75017D01*
X75029Y206643D01*
X75043Y206646D01*
X75059Y206649D01*
X75078Y206654D01*
X75095Y206663D01*
X75113Y206673D01*
X75114Y206675D01*
X75120Y206679D01*
X75129Y206686D01*
X75138Y206696D01*
X75149Y206708D01*
X75159Y206722D01*
X75169Y206740D01*
X75178Y206759D01*
X75179Y206762D01*
X75181Y206769D01*
X75182Y206775D01*
X75184Y206782D01*
X75187Y206792D01*
X75188Y206802D01*
X75190Y206815D01*
X75193Y206828D01*
X75194Y206844D01*
X75195Y206862D01*
X75197Y206882D01*
Y206902D01*
X75198Y206926D01*
Y207047D01*
D02*
G37*
G36*
X271612Y58634D02*
X271609D01*
X271606D01*
X271598D01*
X271587D01*
X271557Y58631D01*
X271518Y58628D01*
X271471Y58626D01*
X271418Y58617D01*
X271357Y58606D01*
X271291Y58595D01*
X271221Y58579D01*
X271152Y58556D01*
X271077Y58531D01*
X271005Y58501D01*
X270933Y58465D01*
X270864Y58424D01*
X270798Y58374D01*
X270737Y58318D01*
X270734Y58315D01*
X270726Y58304D01*
X270712Y58288D01*
X270692Y58263D01*
X270673Y58232D01*
X270648Y58194D01*
X270623Y58149D01*
X270596Y58097D01*
X270571Y58038D01*
X270546Y57969D01*
X270521Y57894D01*
X270501Y57811D01*
X270482Y57723D01*
X270468Y57623D01*
X270460Y57518D01*
X270457Y57404D01*
Y57177D01*
X272692D01*
Y57534D01*
X272690Y57565D01*
Y57604D01*
X272687Y57648D01*
X272684Y57695D01*
X272678Y57745D01*
X272667Y57856D01*
X272648Y57966D01*
X272637Y58019D01*
X272623Y58069D01*
X272606Y58116D01*
X272587Y58157D01*
Y58160D01*
X272582Y58166D01*
X272576Y58177D01*
X272568Y58194D01*
X272554Y58210D01*
X272540Y58232D01*
X272523Y58254D01*
X272504Y58279D01*
X272479Y58307D01*
X272454Y58335D01*
X272427Y58363D01*
X272393Y58390D01*
X272357Y58421D01*
X272318Y58448D01*
X272277Y58476D01*
X272233Y58501D01*
X272230Y58504D01*
X272221Y58507D01*
X272208Y58512D01*
X272188Y58523D01*
X272163Y58531D01*
X272133Y58543D01*
X272100Y58556D01*
X272061Y58568D01*
X272017Y58581D01*
X271969Y58592D01*
X271919Y58604D01*
X271864Y58615D01*
X271806Y58623D01*
X271745Y58628D01*
X271678Y58631D01*
X271612Y58634D01*
D02*
G37*
G36*
X276013Y56745D02*
X276010D01*
X276008D01*
X275991D01*
X275963Y56742D01*
X275927Y56739D01*
X275886Y56734D01*
X275833Y56728D01*
X275778Y56717D01*
X275717Y56703D01*
X275650Y56684D01*
X275581Y56662D01*
X275509Y56634D01*
X275437Y56601D01*
X275365Y56562D01*
X275293Y56518D01*
X275224Y56465D01*
X275157Y56404D01*
X275154Y56401D01*
X275143Y56388D01*
X275124Y56371D01*
X275102Y56343D01*
X275077Y56310D01*
X275046Y56271D01*
X275013Y56224D01*
X274980Y56174D01*
X274949Y56116D01*
X274916Y56052D01*
X274886Y55983D01*
X274861Y55911D01*
X274839Y55834D01*
X274819Y55750D01*
X274808Y55664D01*
X274805Y55576D01*
Y55554D01*
X274808Y55529D01*
X274811Y55493D01*
X274816Y55451D01*
X274825Y55404D01*
X274833Y55349D01*
X274847Y55288D01*
X274866Y55224D01*
X274888Y55158D01*
X274916Y55091D01*
X274949Y55022D01*
X274988Y54950D01*
X275035Y54883D01*
X275088Y54814D01*
X275149Y54750D01*
X275152Y54748D01*
X275165Y54737D01*
X275185Y54720D01*
X275210Y54698D01*
X275243Y54673D01*
X275285Y54645D01*
X275332Y54615D01*
X275384Y54584D01*
X275445Y54551D01*
X275512Y54520D01*
X275584Y54493D01*
X275658Y54468D01*
X275742Y54446D01*
X275830Y54429D01*
X275922Y54418D01*
X276019Y54415D01*
X276021D01*
X276024D01*
X276032D01*
X276044D01*
X276057Y54418D01*
X276074D01*
X276115Y54421D01*
X276165Y54429D01*
X276224Y54437D01*
X276285Y54451D01*
X276354Y54468D01*
X276429Y54490D01*
X276503Y54518D01*
X276581Y54551D01*
X276659Y54593D01*
X276733Y54642D01*
X276808Y54698D01*
X276880Y54761D01*
X276946Y54836D01*
X276949Y54839D01*
X276958Y54850D01*
X276972Y54870D01*
X276988Y54895D01*
X277008Y54925D01*
X277030Y54961D01*
X277055Y55005D01*
X277080Y55052D01*
X277104Y55105D01*
X277129Y55163D01*
X277151Y55224D01*
X277171Y55291D01*
X277187Y55360D01*
X277201Y55432D01*
X277210Y55509D01*
X277213Y55587D01*
Y55609D01*
X277210Y55634D01*
X277207Y55667D01*
X277201Y55709D01*
X277193Y55759D01*
X277185Y55811D01*
X277168Y55870D01*
X277151Y55933D01*
X277127Y56000D01*
X277099Y56066D01*
X277066Y56135D01*
X277027Y56205D01*
X276980Y56274D01*
X276927Y56343D01*
X276866Y56407D01*
X276863Y56410D01*
X276850Y56421D01*
X276830Y56437D01*
X276805Y56459D01*
X276769Y56485D01*
X276730Y56515D01*
X276683Y56545D01*
X276631Y56576D01*
X276570Y56606D01*
X276506Y56637D01*
X276434Y56667D01*
X276359Y56692D01*
X276279Y56714D01*
X276196Y56731D01*
X276107Y56742D01*
X276013Y56745D01*
D02*
G37*
G36*
X271961Y53374D02*
X270748Y52900D01*
X271961Y52426D01*
Y53374D01*
D02*
G37*
G36*
X276390Y47720D02*
X275177Y47247D01*
X276390Y46773D01*
Y47720D01*
D02*
G37*
G36*
X276013Y42341D02*
X276010D01*
X276008D01*
X275991D01*
X275963Y42338D01*
X275927Y42335D01*
X275886Y42330D01*
X275833Y42324D01*
X275778Y42313D01*
X275717Y42299D01*
X275650Y42280D01*
X275581Y42258D01*
X275509Y42230D01*
X275437Y42197D01*
X275365Y42158D01*
X275293Y42114D01*
X275224Y42061D01*
X275157Y42000D01*
X275154Y41997D01*
X275143Y41984D01*
X275124Y41967D01*
X275102Y41939D01*
X275077Y41906D01*
X275046Y41867D01*
X275013Y41820D01*
X274980Y41770D01*
X274949Y41712D01*
X274916Y41648D01*
X274886Y41579D01*
X274861Y41507D01*
X274839Y41429D01*
X274819Y41346D01*
X274808Y41260D01*
X274805Y41172D01*
Y41150D01*
X274808Y41125D01*
X274811Y41089D01*
X274816Y41047D01*
X274825Y41000D01*
X274833Y40945D01*
X274847Y40884D01*
X274866Y40820D01*
X274888Y40754D01*
X274916Y40687D01*
X274949Y40618D01*
X274988Y40546D01*
X275035Y40479D01*
X275088Y40410D01*
X275149Y40346D01*
X275152Y40344D01*
X275165Y40333D01*
X275185Y40316D01*
X275210Y40294D01*
X275243Y40269D01*
X275285Y40241D01*
X275332Y40211D01*
X275384Y40180D01*
X275445Y40147D01*
X275512Y40117D01*
X275584Y40089D01*
X275658Y40064D01*
X275742Y40042D01*
X275830Y40025D01*
X275922Y40014D01*
X276019Y40011D01*
X276021D01*
X276024D01*
X276032D01*
X276044D01*
X276057Y40014D01*
X276074D01*
X276115Y40017D01*
X276165Y40025D01*
X276224Y40033D01*
X276285Y40047D01*
X276354Y40064D01*
X276429Y40086D01*
X276503Y40114D01*
X276581Y40147D01*
X276659Y40189D01*
X276733Y40238D01*
X276808Y40294D01*
X276880Y40358D01*
X276946Y40432D01*
X276949Y40435D01*
X276958Y40446D01*
X276972Y40466D01*
X276988Y40490D01*
X277008Y40521D01*
X277030Y40557D01*
X277055Y40601D01*
X277080Y40648D01*
X277104Y40701D01*
X277129Y40759D01*
X277151Y40820D01*
X277171Y40887D01*
X277187Y40956D01*
X277201Y41028D01*
X277210Y41105D01*
X277213Y41183D01*
Y41205D01*
X277210Y41230D01*
X277207Y41263D01*
X277201Y41305D01*
X277193Y41355D01*
X277185Y41407D01*
X277168Y41465D01*
X277151Y41529D01*
X277127Y41596D01*
X277099Y41662D01*
X277066Y41731D01*
X277027Y41801D01*
X276980Y41870D01*
X276927Y41939D01*
X276866Y42003D01*
X276863Y42006D01*
X276850Y42017D01*
X276830Y42033D01*
X276805Y42055D01*
X276769Y42081D01*
X276730Y42111D01*
X276683Y42141D01*
X276631Y42172D01*
X276570Y42202D01*
X276506Y42233D01*
X276434Y42263D01*
X276359Y42288D01*
X276279Y42310D01*
X276196Y42327D01*
X276107Y42338D01*
X276013Y42341D01*
D02*
G37*
G36*
X275293Y38142D02*
X275257D01*
X275251D01*
X275237D01*
X275215Y38139D01*
X275188Y38133D01*
X275157Y38128D01*
X275121Y38117D01*
X275088Y38100D01*
X275055Y38081D01*
X275052Y38078D01*
X275041Y38069D01*
X275024Y38056D01*
X275008Y38036D01*
X274985Y38014D01*
X274966Y37986D01*
X274947Y37953D01*
X274930Y37917D01*
X274927Y37912D01*
X274924Y37898D01*
X274922Y37887D01*
X274919Y37873D01*
X274913Y37853D01*
X274911Y37834D01*
X274908Y37809D01*
X274902Y37784D01*
X274900Y37754D01*
X274897Y37721D01*
X274894Y37682D01*
Y37643D01*
X274891Y37599D01*
Y37366D01*
X275620D01*
Y37607D01*
X275617Y37629D01*
Y37654D01*
X275614Y37685D01*
X275611Y37718D01*
X275609Y37754D01*
X275600Y37826D01*
X275584Y37898D01*
X275575Y37934D01*
X275564Y37967D01*
X275551Y37995D01*
X275537Y38020D01*
Y38022D01*
X275531Y38025D01*
X275520Y38039D01*
X275498Y38058D01*
X275470Y38081D01*
X275431Y38103D01*
X275381Y38122D01*
X275323Y38136D01*
X275293Y38142D01*
D02*
G37*
G36*
X271612Y33092D02*
X271609D01*
X271606D01*
X271598D01*
X271587D01*
X271557Y33089D01*
X271518Y33086D01*
X271471Y33084D01*
X271418Y33075D01*
X271357Y33064D01*
X271291Y33053D01*
X271221Y33036D01*
X271152Y33014D01*
X271077Y32989D01*
X271005Y32959D01*
X270933Y32923D01*
X270864Y32881D01*
X270798Y32831D01*
X270737Y32776D01*
X270734Y32773D01*
X270726Y32762D01*
X270712Y32746D01*
X270692Y32721D01*
X270673Y32690D01*
X270648Y32651D01*
X270623Y32607D01*
X270596Y32554D01*
X270571Y32496D01*
X270546Y32427D01*
X270521Y32352D01*
X270501Y32269D01*
X270482Y32181D01*
X270468Y32081D01*
X270460Y31975D01*
X270457Y31862D01*
Y31635D01*
X272692D01*
Y31992D01*
X272690Y32023D01*
Y32061D01*
X272687Y32106D01*
X272684Y32153D01*
X272678Y32203D01*
X272667Y32313D01*
X272648Y32424D01*
X272637Y32477D01*
X272623Y32527D01*
X272606Y32574D01*
X272587Y32615D01*
Y32618D01*
X272582Y32624D01*
X272576Y32635D01*
X272568Y32651D01*
X272554Y32668D01*
X272540Y32690D01*
X272523Y32712D01*
X272504Y32737D01*
X272479Y32765D01*
X272454Y32793D01*
X272427Y32820D01*
X272393Y32848D01*
X272357Y32879D01*
X272318Y32906D01*
X272277Y32934D01*
X272233Y32959D01*
X272230Y32962D01*
X272221Y32964D01*
X272208Y32970D01*
X272188Y32981D01*
X272163Y32989D01*
X272133Y33000D01*
X272100Y33014D01*
X272061Y33025D01*
X272017Y33039D01*
X271969Y33050D01*
X271919Y33061D01*
X271864Y33072D01*
X271806Y33081D01*
X271745Y33086D01*
X271678Y33089D01*
X271612Y33092D01*
D02*
G37*
G36*
X29985Y86662D02*
X29966D01*
X29963D01*
X29956D01*
X29945Y86660D01*
X29930Y86658D01*
X29914Y86655D01*
X29895Y86649D01*
X29878Y86640D01*
X29860Y86630D01*
X29859Y86629D01*
X29853Y86624D01*
X29844Y86617D01*
X29836Y86607D01*
X29824Y86595D01*
X29814Y86581D01*
X29804Y86563D01*
X29795Y86544D01*
X29794Y86541D01*
X29792Y86534D01*
X29791Y86528D01*
X29789Y86521D01*
X29787Y86511D01*
X29785Y86501D01*
X29784Y86488D01*
X29781Y86475D01*
X29779Y86459D01*
X29778Y86441D01*
X29776Y86421D01*
Y86401D01*
X29775Y86378D01*
Y86256D01*
X30156D01*
Y86382D01*
X30155Y86394D01*
Y86407D01*
X30153Y86423D01*
X30152Y86440D01*
X30150Y86459D01*
X30146Y86497D01*
X30138Y86534D01*
X30133Y86553D01*
X30127Y86571D01*
X30120Y86585D01*
X30113Y86598D01*
Y86599D01*
X30110Y86601D01*
X30104Y86608D01*
X30092Y86618D01*
X30078Y86630D01*
X30058Y86642D01*
X30032Y86652D01*
X30001Y86659D01*
X29985Y86662D01*
D02*
G37*
G36*
Y107662D02*
X29966D01*
X29963D01*
X29956D01*
X29945Y107660D01*
X29930Y107658D01*
X29914Y107655D01*
X29895Y107649D01*
X29878Y107640D01*
X29860Y107630D01*
X29859Y107629D01*
X29853Y107624D01*
X29844Y107617D01*
X29836Y107607D01*
X29824Y107595D01*
X29814Y107581D01*
X29804Y107563D01*
X29795Y107544D01*
X29794Y107542D01*
X29792Y107534D01*
X29791Y107528D01*
X29789Y107521D01*
X29787Y107511D01*
X29785Y107501D01*
X29784Y107488D01*
X29781Y107475D01*
X29779Y107459D01*
X29778Y107441D01*
X29776Y107421D01*
Y107401D01*
X29775Y107378D01*
Y107256D01*
X30156D01*
Y107382D01*
X30155Y107394D01*
Y107407D01*
X30153Y107423D01*
X30152Y107440D01*
X30150Y107459D01*
X30146Y107497D01*
X30138Y107534D01*
X30133Y107553D01*
X30127Y107571D01*
X30120Y107585D01*
X30113Y107598D01*
Y107599D01*
X30110Y107601D01*
X30104Y107608D01*
X30092Y107618D01*
X30078Y107630D01*
X30058Y107642D01*
X30032Y107652D01*
X30001Y107659D01*
X29985Y107662D01*
D02*
G37*
%LPD*%
D10*
X34699Y317653D02*
G03*
X34699Y317653I-394J0D01*
G01*
X193628Y78220D02*
G03*
X193628Y78220I-394J0D01*
G01*
X79128Y74721D02*
G03*
X79128Y74721I-394J0D01*
G01*
X42061Y8650D02*
G03*
X42061Y8650I-394J0D01*
G01*
X116157Y123972D02*
G03*
X116157Y123972I-394J0D01*
G01*
X229160Y124159D02*
G03*
X229160Y124159I-394J0D01*
G01*
X25821Y322161D02*
X31747D01*
X4227D02*
X10152D01*
X4227Y299642D02*
X10152D01*
X25821D02*
X31747D01*
X4227D02*
Y322161D01*
X31747Y299642D02*
Y322161D01*
X188727Y69736D02*
Y75661D01*
Y48142D02*
Y54067D01*
X211246Y48142D02*
Y54067D01*
Y69736D02*
Y75661D01*
X188727Y48142D02*
X211246D01*
X188727Y75661D02*
X211246D01*
X74227Y66236D02*
Y72161D01*
Y44642D02*
Y50567D01*
X96746Y44642D02*
Y50567D01*
Y66236D02*
Y72161D01*
X74227Y44642D02*
X96746D01*
X74227Y72161D02*
X96746D01*
X44227Y4142D02*
X50152D01*
X65821D02*
X71746D01*
X65821Y26661D02*
X71746D01*
X44227D02*
X50152D01*
X71746Y4142D02*
Y26661D01*
X44227Y4142D02*
Y26661D01*
D11*
X163368Y245402D02*
G03*
X163368Y245402I-787J0D01*
G01*
X288369Y246902D02*
G03*
X288369Y246902I-787J0D01*
G01*
X163262Y315902D02*
G03*
X163262Y315902I-787J0D01*
G01*
X288369Y317402D02*
G03*
X288369Y317402I-787J0D01*
G01*
X163368Y174902D02*
G03*
X163368Y174902I-787J0D01*
G01*
X288369Y176402D02*
G03*
X288369Y176402I-787J0D01*
G01*
D12*
X50543Y226728D02*
G03*
X50543Y226728I-557J0D01*
G01*
X176043D02*
G03*
X176043Y226728I-557J0D01*
G01*
X50543Y150728D02*
G03*
X50543Y150728I-557J0D01*
G01*
X175543Y152228D02*
G03*
X175543Y152228I-557J0D01*
G01*
D13*
X20479Y58976D02*
G03*
X20479Y58976I-492J0D01*
G01*
D14*
X31975Y52571D02*
Y71232D01*
Y94571D02*
Y113232D01*
Y73571D02*
Y92232D01*
X72998Y201071D02*
Y219732D01*
X197998Y202571D02*
Y221232D01*
X73498Y310071D02*
Y328732D01*
X198998Y310071D02*
Y328732D01*
D15*
X35223Y53043D02*
X64750D01*
X35223Y70760D02*
X64750D01*
X35223Y95043D02*
X64750D01*
X35223Y112760D02*
X64750D01*
X35223Y74043D02*
X64750D01*
X35223Y91760D02*
X64750D01*
X40223Y219260D02*
X69750D01*
X40223Y201543D02*
X69750D01*
X165223Y220760D02*
X194750D01*
X165223Y203043D02*
X194750D01*
X40723Y328260D02*
X70250D01*
X40723Y310543D02*
X70250D01*
X166223Y328260D02*
X195750D01*
X166223Y310543D02*
X195750D01*
X152345Y251583D02*
Y265717D01*
X138802Y279260D02*
X152345Y265717D01*
X84628Y279260D02*
X138802D01*
X84628Y251583D02*
Y279260D01*
Y211543D02*
Y239220D01*
Y211543D02*
X138802D01*
X152345Y225087D01*
Y239220D01*
X277345Y253083D02*
Y267216D01*
X263802Y280760D02*
X277345Y267216D01*
X209628Y280760D02*
X263802D01*
X209628Y253083D02*
Y280760D01*
Y213043D02*
Y240721D01*
Y213043D02*
X263802D01*
X277345Y226587D01*
Y240721D01*
X152239Y322083D02*
Y336216D01*
X138695Y349760D02*
X152239Y336216D01*
X84522Y349760D02*
X138695D01*
X84522Y322083D02*
Y349760D01*
Y282043D02*
Y309720D01*
Y282043D02*
X138695D01*
X152239Y295587D01*
Y309720D01*
X277345Y323583D02*
Y337717D01*
X263802Y351260D02*
X277345Y337717D01*
X209628Y351260D02*
X263802D01*
X209628Y323583D02*
Y351260D01*
Y283543D02*
Y311221D01*
Y283543D02*
X263802D01*
X277345Y297087D01*
Y311221D01*
X152345Y181083D02*
Y195217D01*
X138802Y208760D02*
X152345Y195217D01*
X84628Y208760D02*
X138802D01*
X84628Y181083D02*
Y208760D01*
Y141043D02*
Y168720D01*
Y141043D02*
X138802D01*
X152345Y154587D01*
Y168720D01*
X277345Y182583D02*
Y196716D01*
X263802Y210260D02*
X277345Y196716D01*
X209628Y210260D02*
X263802D01*
X209628Y182583D02*
Y210260D01*
Y142543D02*
Y170220D01*
Y142543D02*
X263802D01*
X277345Y156087D01*
Y170220D01*
X61676Y154595D02*
Y170028D01*
X75298Y154595D02*
Y170028D01*
X199798Y157095D02*
Y172528D01*
X186176Y157095D02*
Y172528D01*
X46770Y34591D02*
X62203D01*
X46770Y48213D02*
X62203D01*
X15270D02*
X30703D01*
X15270Y34591D02*
X30703D01*
X46770Y292091D02*
X62203D01*
X46770Y305713D02*
X62203D01*
X46861Y275591D02*
X62294D01*
X46861Y289213D02*
X62294D01*
X172680D02*
X188113D01*
X172680Y275591D02*
X188113D01*
X172680Y306213D02*
X188113D01*
X172680Y292591D02*
X188113D01*
X40223Y229878D02*
Y271925D01*
X58727D01*
X40223Y229878D02*
X58727D01*
Y271925D01*
X165723Y229878D02*
Y271925D01*
X184227D01*
X165723Y229878D02*
X184227D01*
Y271925D01*
X40223Y153878D02*
Y195925D01*
X58727D01*
X40223Y153878D02*
X58727D01*
Y195925D01*
X165223Y155378D02*
Y197425D01*
X183727D01*
X165223Y155378D02*
X183727D01*
Y197425D01*
D16*
X90466Y40300D02*
X93766Y37000D01*
Y31800D02*
Y37000D01*
X70566Y249500D02*
X74766Y253700D01*
Y254700D01*
X186101Y84386D02*
X194762D01*
X186101D02*
X186101Y107614D01*
X190038Y111158D02*
X194762D01*
X204211D02*
X208935D01*
X212873Y84386D02*
Y107614D01*
X204211Y84386D02*
X212873Y84386D01*
X208935Y111158D02*
X209329D01*
X212873Y107614D01*
X189644Y111158D02*
X190038D01*
X186101Y107614D02*
X189644Y111158D01*
X71601Y83516D02*
X80262D01*
X71601D02*
X71601Y106744D01*
X75538Y110287D02*
X80262D01*
X89711D02*
X94436D01*
X98373Y83516D02*
Y106744D01*
X89711Y83516D02*
X98373Y83516D01*
X94436Y110287D02*
X94829D01*
X98373Y106744D01*
X75144Y110287D02*
X75538D01*
X71601Y106744D02*
X75144Y110287D01*
X55192Y126902D02*
X60310D01*
X118987Y31107D02*
Y36225D01*
X65692Y126839D02*
X70810D01*
X62928Y244839D02*
X68046D01*
X119503Y106846D02*
Y108736D01*
Y125035D02*
Y126925D01*
X133755D02*
X135645D01*
Y106846D02*
Y108736D01*
X119503Y106846D02*
X121393D01*
X133755D02*
X135645D01*
Y125035D02*
Y126925D01*
X119503D02*
X121393D01*
X76192Y126902D02*
X81310D01*
X151987Y109343D02*
Y114461D01*
X97192Y126839D02*
X102310D01*
X107692D02*
X112810D01*
X118987Y62607D02*
Y67725D01*
X86692Y126902D02*
X91810D01*
X101991Y80666D02*
X107109D01*
X118987Y83607D02*
Y88725D01*
X119113Y41607D02*
Y46725D01*
X119050Y73107D02*
Y78225D01*
Y52107D02*
Y57225D01*
X8569Y61535D02*
X26680D01*
X8569Y103268D02*
X26680D01*
Y61535D02*
Y103268D01*
X8569Y61535D02*
Y103268D01*
X10538Y61535D02*
Y103268D01*
X232506Y107033D02*
Y108923D01*
Y125222D02*
Y127112D01*
X246758D02*
X248648D01*
Y107033D02*
Y108923D01*
X232506Y107033D02*
X234396D01*
X246758D02*
X248648D01*
Y125222D02*
Y127112D01*
X232506D02*
X234396D01*
X233676Y42342D02*
Y47461D01*
X216554Y81402D02*
X221672D01*
X233550Y63342D02*
Y68461D01*
X233613Y52842D02*
Y57961D01*
Y73843D02*
Y78961D01*
X233550Y84342D02*
Y89461D01*
X200695Y127088D02*
X205814D01*
X221695Y127025D02*
X226814D01*
X211195D02*
X216314D01*
X269487Y110843D02*
Y115961D01*
X190195Y127088D02*
X195314D01*
X187428Y244465D02*
X192546D01*
X233550Y31842D02*
Y36961D01*
X179695Y127025D02*
X184814D01*
X169195Y127088D02*
X174314D01*
D17*
X165987Y117402D02*
Y138902D01*
X137987D02*
X165987D01*
X137987Y117402D02*
Y138902D01*
Y117402D02*
X165987D01*
X283487Y118902D02*
Y140402D01*
X255487D02*
X283487D01*
X255487Y118902D02*
Y140402D01*
Y118902D02*
X283487D01*
D18*
X28476Y289778D02*
X29525D01*
X29000D01*
Y292402D01*
X29525Y292927D01*
X30050D01*
X30575Y292402D01*
X27426Y292927D02*
X26377D01*
X26902D01*
Y289778D01*
X27426Y290303D01*
X22703Y292927D02*
X24802D01*
X22703Y290828D01*
Y290303D01*
X23228Y289778D01*
X24278D01*
X24802Y290303D01*
X74828Y30999D02*
X73778D01*
X74303D01*
Y28375D01*
X73778Y27850D01*
X73254D01*
X72729Y28375D01*
X75877Y27850D02*
X76927D01*
X76402D01*
Y30999D01*
X75877Y30474D01*
X78501Y27850D02*
X79551D01*
X79026D01*
Y30999D01*
X78501Y30474D01*
X81125Y27326D02*
X83224D01*
X84274Y27850D02*
Y30999D01*
X86373Y27850D01*
Y30999D01*
X88997Y27850D02*
X87947D01*
X87422Y28375D01*
Y29425D01*
X87947Y29950D01*
X88997D01*
X89521Y29425D01*
Y28900D01*
X87422D01*
X91620Y26801D02*
X92145D01*
X92670Y27326D01*
Y29950D01*
X91096D01*
X90571Y29425D01*
Y28375D01*
X91096Y27850D01*
X92670D01*
X94244Y29950D02*
X95294D01*
X95819Y29425D01*
Y27850D01*
X94244D01*
X93720Y28375D01*
X94244Y28900D01*
X95819D01*
X97393Y30474D02*
Y29950D01*
X96868D01*
X97918D01*
X97393D01*
Y28375D01*
X97918Y27850D01*
X99492D02*
X100541D01*
X100017D01*
Y29950D01*
X99492D01*
X102116D02*
X103165Y27850D01*
X104215Y29950D01*
X106839Y27850D02*
X105789D01*
X105264Y28375D01*
Y29425D01*
X105789Y29950D01*
X106839D01*
X107363Y29425D01*
Y28900D01*
X105264D01*
X111562Y30999D02*
Y27850D01*
X113136D01*
X113661Y28375D01*
Y30474D01*
X113136Y30999D01*
X111562D01*
X116809Y30474D02*
X116284Y30999D01*
X115235D01*
X114710Y30474D01*
Y28375D01*
X115235Y27850D01*
X116284D01*
X116809Y28375D01*
X117859Y29425D02*
X119958D01*
X121007Y30999D02*
Y27850D01*
X122582D01*
X123106Y28375D01*
Y30474D01*
X122582Y30999D01*
X121007D01*
X126255Y30474D02*
X125730Y30999D01*
X124680D01*
X124156Y30474D01*
Y28375D01*
X124680Y27850D01*
X125730D01*
X126255Y28375D01*
X129403Y27850D02*
X127304D01*
X129403Y29950D01*
Y30474D01*
X128879Y30999D01*
X127829D01*
X127304Y30474D01*
X159953Y46199D02*
X158903D01*
X159428D01*
Y43575D01*
X158903Y43051D01*
X158379D01*
X157854Y43575D01*
X161002Y43051D02*
X162052D01*
X161527D01*
Y46199D01*
X161002Y45674D01*
X163626Y43051D02*
X164676D01*
X164151D01*
Y46199D01*
X163626Y45674D01*
X166250Y42526D02*
X168349D01*
X169398Y43051D02*
Y46199D01*
X171498Y43051D01*
Y46199D01*
X174121Y43051D02*
X173072D01*
X172547Y43575D01*
Y44625D01*
X173072Y45149D01*
X174121D01*
X174646Y44625D01*
Y44100D01*
X172547D01*
X176745Y42001D02*
X177270D01*
X177795Y42526D01*
Y45149D01*
X176220D01*
X175696Y44625D01*
Y43575D01*
X176220Y43051D01*
X177795D01*
X179369Y45149D02*
X180419D01*
X180943Y44625D01*
Y43051D01*
X179369D01*
X178844Y43575D01*
X179369Y44100D01*
X180943D01*
X182518Y45674D02*
Y45149D01*
X181993D01*
X183042D01*
X182518D01*
Y43575D01*
X183042Y43051D01*
X184617D02*
X185666D01*
X185141D01*
Y45149D01*
X184617D01*
X187241D02*
X188290Y43051D01*
X189339Y45149D01*
X191963Y43051D02*
X190914D01*
X190389Y43575D01*
Y44625D01*
X190914Y45149D01*
X191963D01*
X192488Y44625D01*
Y44100D01*
X190389D01*
X196686Y46199D02*
Y43051D01*
X198260D01*
X198785Y43575D01*
Y45674D01*
X198260Y46199D01*
X196686D01*
X201934Y45674D02*
X201409Y46199D01*
X200360D01*
X199835Y45674D01*
Y43575D01*
X200360Y43051D01*
X201409D01*
X201934Y43575D01*
X202983Y44625D02*
X205082D01*
X206132Y46199D02*
Y43051D01*
X207706D01*
X208231Y43575D01*
Y45674D01*
X207706Y46199D01*
X206132D01*
X211380Y45674D02*
X210855Y46199D01*
X209805D01*
X209280Y45674D01*
Y43575D01*
X209805Y43051D01*
X210855D01*
X211380Y43575D01*
X212429Y43051D02*
X213479D01*
X212954D01*
Y46199D01*
X212429Y45674D01*
X38841Y20074D02*
X37792D01*
X38317D01*
Y17450D01*
X37792Y16926D01*
X37267D01*
X36742Y17450D01*
X41990Y20074D02*
X40940Y19549D01*
X39891Y18500D01*
Y17450D01*
X40416Y16926D01*
X41465D01*
X41990Y17450D01*
Y17975D01*
X41465Y18500D01*
X39891D01*
X61167Y234999D02*
Y232375D01*
X61691Y231851D01*
X62741D01*
X63266Y232375D01*
Y234999D01*
X64315Y231851D02*
X65365D01*
X64840D01*
Y234999D01*
X64315Y234474D01*
X66939D02*
X67464Y234999D01*
X68513D01*
X69038Y234474D01*
Y233949D01*
X68513Y233425D01*
X69038Y232900D01*
Y232375D01*
X68513Y231851D01*
X67464D01*
X66939Y232375D01*
Y232900D01*
X67464Y233425D01*
X66939Y233949D01*
Y234474D01*
X67464Y233425D02*
X68513D01*
X70088Y231326D02*
X72187D01*
X73236Y231851D02*
Y234999D01*
X75335Y231851D01*
Y234999D01*
X77959Y231851D02*
X76910D01*
X76385Y232375D01*
Y233425D01*
X76910Y233949D01*
X77959D01*
X78484Y233425D01*
Y232900D01*
X76385D01*
X80583Y230801D02*
X81108D01*
X81632Y231326D01*
Y233949D01*
X80058D01*
X79533Y233425D01*
Y232375D01*
X80058Y231851D01*
X81632D01*
X83207Y233949D02*
X84256D01*
X84781Y233425D01*
Y231851D01*
X83207D01*
X82682Y232375D01*
X83207Y232900D01*
X84781D01*
X86355Y234474D02*
Y233949D01*
X85830D01*
X86880D01*
X86355D01*
Y232375D01*
X86880Y231851D01*
X88454D02*
X89504D01*
X88979D01*
Y233949D01*
X88454D01*
X91078D02*
X92128Y231851D01*
X93177Y233949D01*
X95801Y231851D02*
X94751D01*
X94227Y232375D01*
Y233425D01*
X94751Y233949D01*
X95801D01*
X96326Y233425D01*
Y232900D01*
X94227D01*
X100524Y234999D02*
Y231851D01*
X102098D01*
X102623Y232375D01*
Y234474D01*
X102098Y234999D01*
X100524D01*
X105772Y234474D02*
X105247Y234999D01*
X104197D01*
X103672Y234474D01*
Y232375D01*
X104197Y231851D01*
X105247D01*
X105772Y232375D01*
X106821Y233425D02*
X108920D01*
X109970Y234999D02*
Y231851D01*
X111544D01*
X112069Y232375D01*
Y234474D01*
X111544Y234999D01*
X109970D01*
X115217Y234474D02*
X114692Y234999D01*
X113643D01*
X113118Y234474D01*
Y232375D01*
X113643Y231851D01*
X114692D01*
X115217Y232375D01*
X118366Y231851D02*
X116267D01*
X118366Y233949D01*
Y234474D01*
X117841Y234999D01*
X116791D01*
X116267Y234474D01*
X185591Y234399D02*
Y231775D01*
X186116Y231251D01*
X187166D01*
X187690Y231775D01*
Y234399D01*
X188740Y231251D02*
X189789D01*
X189265D01*
Y234399D01*
X188740Y233874D01*
X191364D02*
X191888Y234399D01*
X192938D01*
X193463Y233874D01*
Y233349D01*
X192938Y232825D01*
X193463Y232300D01*
Y231775D01*
X192938Y231251D01*
X191888D01*
X191364Y231775D01*
Y232300D01*
X191888Y232825D01*
X191364Y233349D01*
Y233874D01*
X191888Y232825D02*
X192938D01*
X194512Y230726D02*
X196611D01*
X197661Y231251D02*
Y234399D01*
X199760Y231251D01*
Y234399D01*
X202384Y231251D02*
X201334D01*
X200810Y231775D01*
Y232825D01*
X201334Y233349D01*
X202384D01*
X202908Y232825D01*
Y232300D01*
X200810D01*
X205008Y230201D02*
X205532D01*
X206057Y230726D01*
Y233349D01*
X204483D01*
X203958Y232825D01*
Y231775D01*
X204483Y231251D01*
X206057D01*
X207631Y233349D02*
X208681D01*
X209206Y232825D01*
Y231251D01*
X207631D01*
X207107Y231775D01*
X207631Y232300D01*
X209206D01*
X210780Y233874D02*
Y233349D01*
X210255D01*
X211305D01*
X210780D01*
Y231775D01*
X211305Y231251D01*
X212879D02*
X213929D01*
X213404D01*
Y233349D01*
X212879D01*
X215503D02*
X216552Y231251D01*
X217602Y233349D01*
X220226Y231251D02*
X219176D01*
X218651Y231775D01*
Y232825D01*
X219176Y233349D01*
X220226D01*
X220750Y232825D01*
Y232300D01*
X218651D01*
X224949Y234399D02*
Y231251D01*
X226523D01*
X227048Y231775D01*
Y233874D01*
X226523Y234399D01*
X224949D01*
X230196Y233874D02*
X229672Y234399D01*
X228622D01*
X228097Y233874D01*
Y231775D01*
X228622Y231251D01*
X229672D01*
X230196Y231775D01*
X231246Y232825D02*
X233345D01*
X234394Y234399D02*
Y231251D01*
X235969D01*
X236493Y231775D01*
Y233874D01*
X235969Y234399D01*
X234394D01*
X239642Y233874D02*
X239117Y234399D01*
X238068D01*
X237543Y233874D01*
Y231775D01*
X238068Y231251D01*
X239117D01*
X239642Y231775D01*
X240691Y231251D02*
X241741D01*
X241216D01*
Y234399D01*
X240691Y233874D01*
X134786Y135209D02*
Y138357D01*
X132687D01*
X129539D02*
X131638D01*
X129539Y136258D01*
Y135734D01*
X130063Y135209D01*
X131113D01*
X131638Y135734D01*
X128489Y138882D02*
X126390D01*
X125340Y138357D02*
Y135209D01*
X123241Y138357D01*
Y135209D01*
X120617Y138357D02*
X121667D01*
X122192Y137833D01*
Y136783D01*
X121667Y136258D01*
X120617D01*
X120093Y136783D01*
Y137308D01*
X122192D01*
X117994Y139407D02*
X117469D01*
X116944Y138882D01*
Y136258D01*
X118518D01*
X119043Y136783D01*
Y137833D01*
X118518Y138357D01*
X116944D01*
X115370Y136258D02*
X114320D01*
X113796Y136783D01*
Y138357D01*
X115370D01*
X115895Y137833D01*
X115370Y137308D01*
X113796D01*
X112221Y135734D02*
Y136258D01*
X112746D01*
X111697D01*
X112221D01*
Y137833D01*
X111697Y138357D01*
X110122D02*
X109073D01*
X109598D01*
Y136258D01*
X110122D01*
X107499D02*
X106449Y138357D01*
X105399Y136258D01*
X102776Y138357D02*
X103825D01*
X104350Y137833D01*
Y136783D01*
X103825Y136258D01*
X102776D01*
X102251Y136783D01*
Y137308D01*
X104350D01*
X98053Y135209D02*
Y138357D01*
X96478D01*
X95954Y137833D01*
Y135734D01*
X96478Y135209D01*
X98053D01*
X92805Y135734D02*
X93330Y135209D01*
X94379D01*
X94904Y135734D01*
Y137833D01*
X94379Y138357D01*
X93330D01*
X92805Y137833D01*
X91756Y136783D02*
X89657D01*
X88607Y135209D02*
Y138357D01*
X87033D01*
X86508Y137833D01*
Y135734D01*
X87033Y135209D01*
X88607D01*
X83359Y135734D02*
X83884Y135209D01*
X84934D01*
X85458Y135734D01*
Y137833D01*
X84934Y138357D01*
X83884D01*
X83359Y137833D01*
X82310Y138357D02*
X81260D01*
X81785D01*
Y135209D01*
X82310Y135734D01*
X8468Y59074D02*
Y56450D01*
X8993Y55926D01*
X10042D01*
X10567Y56450D01*
Y59074D01*
X13716Y55926D02*
X11617D01*
X13716Y58025D01*
Y58549D01*
X13191Y59074D01*
X12141D01*
X11617Y58549D01*
X14765Y59074D02*
X16864D01*
Y58549D01*
X14765Y56450D01*
Y55926D01*
X102204Y95799D02*
Y93175D01*
X102729Y92651D01*
X103779D01*
X104303Y93175D01*
Y95799D01*
X107452Y92651D02*
X105353D01*
X107452Y94749D01*
Y95274D01*
X106927Y95799D01*
X105877D01*
X105353Y95274D01*
X110600Y95799D02*
X109551Y95274D01*
X108501Y94225D01*
Y93175D01*
X109026Y92651D01*
X110076D01*
X110600Y93175D01*
Y93700D01*
X110076Y94225D01*
X108501D01*
X111650Y92126D02*
X113749D01*
X114798Y92651D02*
Y95799D01*
X116898Y92651D01*
Y95799D01*
X119521Y92651D02*
X118472D01*
X117947Y93175D01*
Y94225D01*
X118472Y94749D01*
X119521D01*
X120046Y94225D01*
Y93700D01*
X117947D01*
X122145Y91601D02*
X122670D01*
X123195Y92126D01*
Y94749D01*
X121620D01*
X121096Y94225D01*
Y93175D01*
X121620Y92651D01*
X123195D01*
X124769Y94749D02*
X125819D01*
X126343Y94225D01*
Y92651D01*
X124769D01*
X124244Y93175D01*
X124769Y93700D01*
X126343D01*
X127918Y95274D02*
Y94749D01*
X127393D01*
X128442D01*
X127918D01*
Y93175D01*
X128442Y92651D01*
X130017D02*
X131066D01*
X130541D01*
Y94749D01*
X130017D01*
X132641D02*
X133690Y92651D01*
X134739Y94749D01*
X137363Y92651D02*
X136314D01*
X135789Y93175D01*
Y94225D01*
X136314Y94749D01*
X137363D01*
X137888Y94225D01*
Y93700D01*
X135789D01*
X142086Y95799D02*
Y92651D01*
X143660D01*
X144185Y93175D01*
Y95274D01*
X143660Y95799D01*
X142086D01*
X147334Y95274D02*
X146809Y95799D01*
X145760D01*
X145235Y95274D01*
Y93175D01*
X145760Y92651D01*
X146809D01*
X147334Y93175D01*
X148383Y94225D02*
X150482D01*
X151532Y95799D02*
Y92651D01*
X153106D01*
X153631Y93175D01*
Y95274D01*
X153106Y95799D01*
X151532D01*
X156780Y95274D02*
X156255Y95799D01*
X155205D01*
X154681Y95274D01*
Y93175D01*
X155205Y92651D01*
X156255D01*
X156780Y93175D01*
X159928Y92651D02*
X157829D01*
X159928Y94749D01*
Y95274D01*
X159403Y95799D01*
X158354D01*
X157829Y95274D01*
X230829Y96499D02*
Y93875D01*
X231354Y93350D01*
X232403D01*
X232928Y93875D01*
Y96499D01*
X236077Y93350D02*
X233978D01*
X236077Y95450D01*
Y95974D01*
X235552Y96499D01*
X234502D01*
X233978Y95974D01*
X239225Y96499D02*
X238176Y95974D01*
X237126Y94925D01*
Y93875D01*
X237651Y93350D01*
X238700D01*
X239225Y93875D01*
Y94400D01*
X238700Y94925D01*
X237126D01*
X240275Y92826D02*
X242374D01*
X243423Y93350D02*
Y96499D01*
X245522Y93350D01*
Y96499D01*
X248146Y93350D02*
X247097D01*
X246572Y93875D01*
Y94925D01*
X247097Y95450D01*
X248146D01*
X248671Y94925D01*
Y94400D01*
X246572D01*
X250770Y92301D02*
X251295D01*
X251819Y92826D01*
Y95450D01*
X250245D01*
X249720Y94925D01*
Y93875D01*
X250245Y93350D01*
X251819D01*
X253394Y95450D02*
X254443D01*
X254968Y94925D01*
Y93350D01*
X253394D01*
X252869Y93875D01*
X253394Y94400D01*
X254968D01*
X256542Y95974D02*
Y95450D01*
X256018D01*
X257067D01*
X256542D01*
Y93875D01*
X257067Y93350D01*
X258641D02*
X259691D01*
X259166D01*
Y95450D01*
X258641D01*
X261265D02*
X262315Y93350D01*
X263364Y95450D01*
X265988Y93350D02*
X264939D01*
X264414Y93875D01*
Y94925D01*
X264939Y95450D01*
X265988D01*
X266513Y94925D01*
Y94400D01*
X264414D01*
X270711Y96499D02*
Y93350D01*
X272285D01*
X272810Y93875D01*
Y95974D01*
X272285Y96499D01*
X270711D01*
X275959Y95974D02*
X275434Y96499D01*
X274384D01*
X273860Y95974D01*
Y93875D01*
X274384Y93350D01*
X275434D01*
X275959Y93875D01*
X277008Y94925D02*
X279107D01*
X280157Y96499D02*
Y93350D01*
X281731D01*
X282256Y93875D01*
Y95974D01*
X281731Y96499D01*
X280157D01*
X285404Y95974D02*
X284880Y96499D01*
X283830D01*
X283305Y95974D01*
Y93875D01*
X283830Y93350D01*
X284880D01*
X285404Y93875D01*
X286454Y93350D02*
X287503D01*
X286979D01*
Y96499D01*
X286454Y95974D01*
X37918Y341374D02*
X40018D01*
X38968D01*
Y338226D01*
X41067D02*
Y341374D01*
X42641D01*
X43166Y340849D01*
Y339800D01*
X42641Y339275D01*
X41067D01*
X46315Y341374D02*
X44216D01*
Y339800D01*
X45265Y340325D01*
X45790D01*
X46315Y339800D01*
Y338751D01*
X45790Y338226D01*
X44741D01*
X44216Y338751D01*
X47364Y338226D02*
X48414D01*
X47889D01*
Y341374D01*
X47364Y340849D01*
X217094Y96874D02*
X219193D01*
X218143D01*
Y93726D01*
X220242D02*
Y96874D01*
X221817D01*
X222341Y96350D01*
Y95300D01*
X221817Y94775D01*
X220242D01*
X224965Y93726D02*
Y96874D01*
X223391Y95300D01*
X225490D01*
X228639Y96874D02*
X226539D01*
Y95300D01*
X227589Y95825D01*
X228114D01*
X228639Y95300D01*
Y94251D01*
X228114Y93726D01*
X227064D01*
X226539Y94251D01*
X69994Y342574D02*
X72093D01*
X71043D01*
Y339426D01*
X73142D02*
Y342574D01*
X74717D01*
X75241Y342050D01*
Y341000D01*
X74717Y340475D01*
X73142D01*
X76291Y342050D02*
X76816Y342574D01*
X77865D01*
X78390Y342050D01*
Y341525D01*
X77865Y341000D01*
X77341D01*
X77865D01*
X78390Y340475D01*
Y339950D01*
X77865Y339426D01*
X76816D01*
X76291Y339950D01*
X81539Y339426D02*
X79440D01*
X81539Y341525D01*
Y342050D01*
X81014Y342574D01*
X79964D01*
X79440Y342050D01*
X3856Y274774D02*
X5955D01*
X4906D01*
Y271626D01*
X7005D02*
Y274774D01*
X8579D01*
X9104Y274250D01*
Y273200D01*
X8579Y272675D01*
X7005D01*
X10153Y271626D02*
X11203D01*
X10678D01*
Y274774D01*
X10153Y274250D01*
X12777Y274774D02*
X14876D01*
Y274250D01*
X12777Y272150D01*
Y271626D01*
X58868Y30126D02*
Y33274D01*
X60442D01*
X60967Y32750D01*
Y31700D01*
X60442Y31175D01*
X58868D01*
X59918D02*
X60967Y30126D01*
X64116Y33274D02*
X63066Y32750D01*
X62017Y31700D01*
Y30650D01*
X62541Y30126D01*
X63591D01*
X64116Y30650D01*
Y31175D01*
X63591Y31700D01*
X62017D01*
X67264Y33274D02*
X65165D01*
Y31700D01*
X66215Y32225D01*
X66739D01*
X67264Y31700D01*
Y30650D01*
X66739Y30126D01*
X65690D01*
X65165Y30650D01*
X25268Y27826D02*
Y30974D01*
X26842D01*
X27367Y30450D01*
Y29400D01*
X26842Y28875D01*
X25268D01*
X26318D02*
X27367Y27826D01*
X30516Y30974D02*
X29466Y30450D01*
X28417Y29400D01*
Y28350D01*
X28941Y27826D01*
X29991D01*
X30516Y28350D01*
Y28875D01*
X29991Y29400D01*
X28417D01*
X33140Y27826D02*
Y30974D01*
X31565Y29400D01*
X33664D01*
X20104Y271850D02*
Y274999D01*
X21678D01*
X22203Y274474D01*
Y273425D01*
X21678Y272900D01*
X20104D01*
X21154D02*
X22203Y271850D01*
X24827D02*
Y274999D01*
X23253Y273425D01*
X25352D01*
X26401Y274474D02*
X26926Y274999D01*
X27976D01*
X28500Y274474D01*
Y273950D01*
X27976Y273425D01*
X27451D01*
X27976D01*
X28500Y272900D01*
Y272375D01*
X27976Y271850D01*
X26926D01*
X26401Y272375D01*
X29550Y271326D02*
X31649D01*
X32699Y271850D02*
Y274999D01*
X34798Y271850D01*
Y274999D01*
X37421Y271850D02*
X36372D01*
X35847Y272375D01*
Y273425D01*
X36372Y273950D01*
X37421D01*
X37946Y273425D01*
Y272900D01*
X35847D01*
X40045Y270801D02*
X40570D01*
X41095Y271326D01*
Y273950D01*
X39520D01*
X38996Y273425D01*
Y272375D01*
X39520Y271850D01*
X41095D01*
X42669Y273950D02*
X43718D01*
X44243Y273425D01*
Y271850D01*
X42669D01*
X42144Y272375D01*
X42669Y272900D01*
X44243D01*
X45818Y274474D02*
Y273950D01*
X45293D01*
X46342D01*
X45818D01*
Y272375D01*
X46342Y271850D01*
X47917D02*
X48966D01*
X48441D01*
Y273950D01*
X47917D01*
X50541D02*
X51590Y271850D01*
X52640Y273950D01*
X55263Y271850D02*
X54214D01*
X53689Y272375D01*
Y273425D01*
X54214Y273950D01*
X55263D01*
X55788Y273425D01*
Y272900D01*
X53689D01*
X59986Y274999D02*
Y271850D01*
X61560D01*
X62085Y272375D01*
Y274474D01*
X61560Y274999D01*
X59986D01*
X65234Y274474D02*
X64709Y274999D01*
X63660D01*
X63135Y274474D01*
Y272375D01*
X63660Y271850D01*
X64709D01*
X65234Y272375D01*
X66283Y273425D02*
X68382D01*
X69432Y274999D02*
Y271850D01*
X71006D01*
X71531Y272375D01*
Y274474D01*
X71006Y274999D01*
X69432D01*
X74680Y274474D02*
X74155Y274999D01*
X73105D01*
X72580Y274474D01*
Y272375D01*
X73105Y271850D01*
X74155D01*
X74680Y272375D01*
X77828Y271850D02*
X75729D01*
X77828Y273950D01*
Y274474D01*
X77303Y274999D01*
X76254D01*
X75729Y274474D01*
X152059Y291541D02*
Y294690D01*
X153633D01*
X154158Y294165D01*
Y293115D01*
X153633Y292591D01*
X152059D01*
X153108D02*
X154158Y291541D01*
X156782D02*
Y294690D01*
X155208Y293115D01*
X157307D01*
X158356Y294165D02*
X158881Y294690D01*
X159930D01*
X160455Y294165D01*
Y293640D01*
X159930Y293115D01*
X159406D01*
X159930D01*
X160455Y292591D01*
Y292066D01*
X159930Y291541D01*
X158881D01*
X158356Y292066D01*
X161505Y291016D02*
X163604D01*
X164653Y291541D02*
Y294690D01*
X166752Y291541D01*
Y294690D01*
X169376Y291541D02*
X168326D01*
X167802Y292066D01*
Y293115D01*
X168326Y293640D01*
X169376D01*
X169901Y293115D01*
Y292591D01*
X167802D01*
X172000Y290492D02*
X172525D01*
X173049Y291016D01*
Y293640D01*
X171475D01*
X170950Y293115D01*
Y292066D01*
X171475Y291541D01*
X173049D01*
X174624Y293640D02*
X175673D01*
X176198Y293115D01*
Y291541D01*
X174624D01*
X174099Y292066D01*
X174624Y292591D01*
X176198D01*
X177772Y294165D02*
Y293640D01*
X177248D01*
X178297D01*
X177772D01*
Y292066D01*
X178297Y291541D01*
X179871D02*
X180921D01*
X180396D01*
Y293640D01*
X179871D01*
X182495D02*
X183545Y291541D01*
X184594Y293640D01*
X187218Y291541D02*
X186169D01*
X185644Y292066D01*
Y293115D01*
X186169Y293640D01*
X187218D01*
X187743Y293115D01*
Y292591D01*
X185644D01*
X191941Y294690D02*
Y291541D01*
X193515D01*
X194040Y292066D01*
Y294165D01*
X193515Y294690D01*
X191941D01*
X197188Y294165D02*
X196664Y294690D01*
X195614D01*
X195089Y294165D01*
Y292066D01*
X195614Y291541D01*
X196664D01*
X197188Y292066D01*
X198238Y293115D02*
X200337D01*
X201387Y294690D02*
Y291541D01*
X202961D01*
X203486Y292066D01*
Y294165D01*
X202961Y294690D01*
X201387D01*
X206634Y294165D02*
X206109Y294690D01*
X205060D01*
X204535Y294165D01*
Y292066D01*
X205060Y291541D01*
X206109D01*
X206634Y292066D01*
X207684Y291541D02*
X208733D01*
X208209D01*
Y294690D01*
X207684Y294165D01*
X64304Y181950D02*
Y185099D01*
X65878D01*
X66403Y184574D01*
Y183525D01*
X65878Y183000D01*
X64304D01*
X65354D02*
X66403Y181950D01*
X69027D02*
Y185099D01*
X67453Y183525D01*
X69552D01*
X72700Y181950D02*
X70601D01*
X72700Y184049D01*
Y184574D01*
X72176Y185099D01*
X71126D01*
X70601Y184574D01*
X73750Y181426D02*
X75849D01*
X76898Y181950D02*
Y185099D01*
X78998Y181950D01*
Y185099D01*
X81621Y181950D02*
X80572D01*
X80047Y182475D01*
Y183525D01*
X80572Y184049D01*
X81621D01*
X82146Y183525D01*
Y183000D01*
X80047D01*
X84245Y180901D02*
X84770D01*
X85295Y181426D01*
Y184049D01*
X83720D01*
X83196Y183525D01*
Y182475D01*
X83720Y181950D01*
X85295D01*
X86869Y184049D02*
X87919D01*
X88443Y183525D01*
Y181950D01*
X86869D01*
X86344Y182475D01*
X86869Y183000D01*
X88443D01*
X90018Y184574D02*
Y184049D01*
X89493D01*
X90542D01*
X90018D01*
Y182475D01*
X90542Y181950D01*
X92117D02*
X93166D01*
X92641D01*
Y184049D01*
X92117D01*
X94740D02*
X95790Y181950D01*
X96839Y184049D01*
X99463Y181950D02*
X98414D01*
X97889Y182475D01*
Y183525D01*
X98414Y184049D01*
X99463D01*
X99988Y183525D01*
Y183000D01*
X97889D01*
X104186Y185099D02*
Y181950D01*
X105761D01*
X106285Y182475D01*
Y184574D01*
X105761Y185099D01*
X104186D01*
X109434Y184574D02*
X108909Y185099D01*
X107860D01*
X107335Y184574D01*
Y182475D01*
X107860Y181950D01*
X108909D01*
X109434Y182475D01*
X110483Y183525D02*
X112582D01*
X113632Y185099D02*
Y181950D01*
X115206D01*
X115731Y182475D01*
Y184574D01*
X115206Y185099D01*
X113632D01*
X118880Y184574D02*
X118355Y185099D01*
X117305D01*
X116780Y184574D01*
Y182475D01*
X117305Y181950D01*
X118355D01*
X118880Y182475D01*
X122028Y181950D02*
X119929D01*
X122028Y184049D01*
Y184574D01*
X121503Y185099D01*
X120454D01*
X119929Y184574D01*
X190429Y185250D02*
Y188399D01*
X192003D01*
X192528Y187874D01*
Y186825D01*
X192003Y186300D01*
X190429D01*
X191479D02*
X192528Y185250D01*
X195152D02*
Y188399D01*
X193578Y186825D01*
X195677D01*
X198825Y185250D02*
X196726D01*
X198825Y187349D01*
Y187874D01*
X198300Y188399D01*
X197251D01*
X196726Y187874D01*
X199875Y184726D02*
X201974D01*
X203023Y185250D02*
Y188399D01*
X205122Y185250D01*
Y188399D01*
X207746Y185250D02*
X206697D01*
X206172Y185775D01*
Y186825D01*
X206697Y187349D01*
X207746D01*
X208271Y186825D01*
Y186300D01*
X206172D01*
X210370Y184201D02*
X210895D01*
X211420Y184726D01*
Y187349D01*
X209845D01*
X209320Y186825D01*
Y185775D01*
X209845Y185250D01*
X211420D01*
X212994Y187349D02*
X214043D01*
X214568Y186825D01*
Y185250D01*
X212994D01*
X212469Y185775D01*
X212994Y186300D01*
X214568D01*
X216142Y187874D02*
Y187349D01*
X215618D01*
X216667D01*
X216142D01*
Y185775D01*
X216667Y185250D01*
X218241D02*
X219291D01*
X218766D01*
Y187349D01*
X218241D01*
X220865D02*
X221915Y185250D01*
X222964Y187349D01*
X225588Y185250D02*
X224539D01*
X224014Y185775D01*
Y186825D01*
X224539Y187349D01*
X225588D01*
X226113Y186825D01*
Y186300D01*
X224014D01*
X230311Y188399D02*
Y185250D01*
X231885D01*
X232410Y185775D01*
Y187874D01*
X231885Y188399D01*
X230311D01*
X235559Y187874D02*
X235034Y188399D01*
X233984D01*
X233460Y187874D01*
Y185775D01*
X233984Y185250D01*
X235034D01*
X235559Y185775D01*
X236608Y186825D02*
X238707D01*
X239757Y188399D02*
Y185250D01*
X241331D01*
X241856Y185775D01*
Y187874D01*
X241331Y188399D01*
X239757D01*
X245004Y187874D02*
X244480Y188399D01*
X243430D01*
X242905Y187874D01*
Y185775D01*
X243430Y185250D01*
X244480D01*
X245004Y185775D01*
X246054Y185250D02*
X247103D01*
X246579D01*
Y188399D01*
X246054Y187874D01*
X30204Y307250D02*
Y310399D01*
X31778D01*
X32303Y309874D01*
Y308825D01*
X31778Y308300D01*
X30204D01*
X31254D02*
X32303Y307250D01*
X33353Y309874D02*
X33878Y310399D01*
X34927D01*
X35452Y309874D01*
Y309349D01*
X34927Y308825D01*
X34402D01*
X34927D01*
X35452Y308300D01*
Y307775D01*
X34927Y307250D01*
X33878D01*
X33353Y307775D01*
X36501D02*
X37026Y307250D01*
X38076D01*
X38600Y307775D01*
Y309874D01*
X38076Y310399D01*
X37026D01*
X36501Y309874D01*
Y309349D01*
X37026Y308825D01*
X38600D01*
X39650Y306726D02*
X41749D01*
X42799Y307250D02*
Y310399D01*
X44898Y307250D01*
Y310399D01*
X47521Y307250D02*
X46472D01*
X45947Y307775D01*
Y308825D01*
X46472Y309349D01*
X47521D01*
X48046Y308825D01*
Y308300D01*
X45947D01*
X50145Y306201D02*
X50670D01*
X51195Y306726D01*
Y309349D01*
X49620D01*
X49096Y308825D01*
Y307775D01*
X49620Y307250D01*
X51195D01*
X52769Y309349D02*
X53819D01*
X54343Y308825D01*
Y307250D01*
X52769D01*
X52244Y307775D01*
X52769Y308300D01*
X54343D01*
X55918Y309874D02*
Y309349D01*
X55393D01*
X56442D01*
X55918D01*
Y307775D01*
X56442Y307250D01*
X58017D02*
X59066D01*
X58541D01*
Y309349D01*
X58017D01*
X60641D02*
X61690Y307250D01*
X62739Y309349D01*
X65363Y307250D02*
X64314D01*
X63789Y307775D01*
Y308825D01*
X64314Y309349D01*
X65363D01*
X65888Y308825D01*
Y308300D01*
X63789D01*
X70086Y310399D02*
Y307250D01*
X71661D01*
X72185Y307775D01*
Y309874D01*
X71661Y310399D01*
X70086D01*
X75334Y309874D02*
X74809Y310399D01*
X73760D01*
X73235Y309874D01*
Y307775D01*
X73760Y307250D01*
X74809D01*
X75334Y307775D01*
X76383Y308825D02*
X78482D01*
X79532Y310399D02*
Y307250D01*
X81106D01*
X81631Y307775D01*
Y309874D01*
X81106Y310399D01*
X79532D01*
X84780Y309874D02*
X84255Y310399D01*
X83205D01*
X82680Y309874D01*
Y307775D01*
X83205Y307250D01*
X84255D01*
X84780Y307775D01*
X87928Y307250D02*
X85829D01*
X87928Y309349D01*
Y309874D01*
X87403Y310399D01*
X86354D01*
X85829Y309874D01*
X147829Y307950D02*
Y311099D01*
X149403D01*
X149928Y310574D01*
Y309525D01*
X149403Y309000D01*
X147829D01*
X148879D02*
X149928Y307950D01*
X150978Y310574D02*
X151502Y311099D01*
X152552D01*
X153077Y310574D01*
Y310050D01*
X152552Y309525D01*
X152027D01*
X152552D01*
X153077Y309000D01*
Y308475D01*
X152552Y307950D01*
X151502D01*
X150978Y308475D01*
X154126D02*
X154651Y307950D01*
X155700D01*
X156225Y308475D01*
Y310574D01*
X155700Y311099D01*
X154651D01*
X154126Y310574D01*
Y310050D01*
X154651Y309525D01*
X156225D01*
X157275Y307426D02*
X159374D01*
X160423Y307950D02*
Y311099D01*
X162522Y307950D01*
Y311099D01*
X165146Y307950D02*
X164097D01*
X163572Y308475D01*
Y309525D01*
X164097Y310050D01*
X165146D01*
X165671Y309525D01*
Y309000D01*
X163572D01*
X167770Y306901D02*
X168295D01*
X168819Y307426D01*
Y310050D01*
X167245D01*
X166720Y309525D01*
Y308475D01*
X167245Y307950D01*
X168819D01*
X170394Y310050D02*
X171443D01*
X171968Y309525D01*
Y307950D01*
X170394D01*
X169869Y308475D01*
X170394Y309000D01*
X171968D01*
X173542Y310574D02*
Y310050D01*
X173018D01*
X174067D01*
X173542D01*
Y308475D01*
X174067Y307950D01*
X175641D02*
X176691D01*
X176166D01*
Y310050D01*
X175641D01*
X178265D02*
X179315Y307950D01*
X180364Y310050D01*
X182988Y307950D02*
X181939D01*
X181414Y308475D01*
Y309525D01*
X181939Y310050D01*
X182988D01*
X183513Y309525D01*
Y309000D01*
X181414D01*
X187711Y311099D02*
Y307950D01*
X189285D01*
X189810Y308475D01*
Y310574D01*
X189285Y311099D01*
X187711D01*
X192959Y310574D02*
X192434Y311099D01*
X191384D01*
X190860Y310574D01*
Y308475D01*
X191384Y307950D01*
X192434D01*
X192959Y308475D01*
X194008Y309525D02*
X196107D01*
X197157Y311099D02*
Y307950D01*
X198731D01*
X199256Y308475D01*
Y310574D01*
X198731Y311099D01*
X197157D01*
X202404Y310574D02*
X201880Y311099D01*
X200830D01*
X200305Y310574D01*
Y308475D01*
X200830Y307950D01*
X201880D01*
X202404Y308475D01*
X203454Y307950D02*
X204503D01*
X203979D01*
Y311099D01*
X203454Y310574D01*
X49578Y142175D02*
Y144274D01*
X49053Y144799D01*
X48003D01*
X47479Y144274D01*
Y142175D01*
X48003Y141650D01*
X49053D01*
X48528Y142700D02*
X49578Y141650D01*
X49053D02*
X49578Y142175D01*
X52726Y141650D02*
X50627D01*
X52726Y143749D01*
Y144274D01*
X52201Y144799D01*
X51152D01*
X50627Y144274D01*
X53776Y141126D02*
X55875D01*
X56924Y141650D02*
Y144799D01*
X59023Y141650D01*
Y144799D01*
X61647Y141650D02*
X60598D01*
X60073Y142175D01*
Y143225D01*
X60598Y143749D01*
X61647D01*
X62172Y143225D01*
Y142700D01*
X60073D01*
X64271Y140601D02*
X64796D01*
X65320Y141126D01*
Y143749D01*
X63746D01*
X63221Y143225D01*
Y142175D01*
X63746Y141650D01*
X65320D01*
X66895Y143749D02*
X67944D01*
X68469Y143225D01*
Y141650D01*
X66895D01*
X66370Y142175D01*
X66895Y142700D01*
X68469D01*
X70043Y144274D02*
Y143749D01*
X69519D01*
X70568D01*
X70043D01*
Y142175D01*
X70568Y141650D01*
X72142D02*
X73192D01*
X72667D01*
Y143749D01*
X72142D01*
X74766D02*
X75816Y141650D01*
X76865Y143749D01*
X79489Y141650D02*
X78439D01*
X77915Y142175D01*
Y143225D01*
X78439Y143749D01*
X79489D01*
X80014Y143225D01*
Y142700D01*
X77915D01*
X84212Y144799D02*
Y141650D01*
X85786D01*
X86311Y142175D01*
Y144274D01*
X85786Y144799D01*
X84212D01*
X89460Y144274D02*
X88935Y144799D01*
X87885D01*
X87361Y144274D01*
Y142175D01*
X87885Y141650D01*
X88935D01*
X89460Y142175D01*
X90509Y143225D02*
X92608D01*
X93658Y144799D02*
Y141650D01*
X95232D01*
X95757Y142175D01*
Y144274D01*
X95232Y144799D01*
X93658D01*
X98905Y144274D02*
X98381Y144799D01*
X97331D01*
X96806Y144274D01*
Y142175D01*
X97331Y141650D01*
X98381D01*
X98905Y142175D01*
X102054Y141650D02*
X99955D01*
X102054Y143749D01*
Y144274D01*
X101529Y144799D01*
X100480D01*
X99955Y144274D01*
X172802Y144475D02*
Y146574D01*
X172277Y147099D01*
X171228D01*
X170703Y146574D01*
Y144475D01*
X171228Y143950D01*
X172277D01*
X171753Y145000D02*
X172802Y143950D01*
X172277D02*
X172802Y144475D01*
X175951Y143950D02*
X173852D01*
X175951Y146049D01*
Y146574D01*
X175426Y147099D01*
X174377D01*
X173852Y146574D01*
X177000Y143426D02*
X179100D01*
X180149Y143950D02*
Y147099D01*
X182248Y143950D01*
Y147099D01*
X184872Y143950D02*
X183822D01*
X183298Y144475D01*
Y145525D01*
X183822Y146049D01*
X184872D01*
X185397Y145525D01*
Y145000D01*
X183298D01*
X187496Y142901D02*
X188020D01*
X188545Y143426D01*
Y146049D01*
X186971D01*
X186446Y145525D01*
Y144475D01*
X186971Y143950D01*
X188545D01*
X190120Y146049D02*
X191169D01*
X191694Y145525D01*
Y143950D01*
X190120D01*
X189595Y144475D01*
X190120Y145000D01*
X191694D01*
X193268Y146574D02*
Y146049D01*
X192743D01*
X193793D01*
X193268D01*
Y144475D01*
X193793Y143950D01*
X195367D02*
X196417D01*
X195892D01*
Y146049D01*
X195367D01*
X197991D02*
X199040Y143950D01*
X200090Y146049D01*
X202714Y143950D02*
X201664D01*
X201139Y144475D01*
Y145525D01*
X201664Y146049D01*
X202714D01*
X203239Y145525D01*
Y145000D01*
X201139D01*
X207437Y147099D02*
Y143950D01*
X209011D01*
X209536Y144475D01*
Y146574D01*
X209011Y147099D01*
X207437D01*
X212684Y146574D02*
X212160Y147099D01*
X211110D01*
X210585Y146574D01*
Y144475D01*
X211110Y143950D01*
X212160D01*
X212684Y144475D01*
X213734Y145525D02*
X215833D01*
X216882Y147099D02*
Y143950D01*
X218457D01*
X218982Y144475D01*
Y146574D01*
X218457Y147099D01*
X216882D01*
X222130Y146574D02*
X221605Y147099D01*
X220556D01*
X220031Y146574D01*
Y144475D01*
X220556Y143950D01*
X221605D01*
X222130Y144475D01*
X223180Y143950D02*
X224229D01*
X223704D01*
Y147099D01*
X223180Y146574D01*
X46455Y73150D02*
X45930Y73674D01*
X44881D01*
X44356Y73150D01*
Y71051D01*
X44881Y70526D01*
X45930D01*
X46455Y71051D01*
X47505Y70526D02*
X48554D01*
X48030D01*
Y73674D01*
X47505Y73150D01*
X51703Y70526D02*
Y73674D01*
X50129Y72100D01*
X52228D01*
X53277Y71051D02*
X53802Y70526D01*
X54851D01*
X55376Y71051D01*
Y73150D01*
X54851Y73674D01*
X53802D01*
X53277Y73150D01*
Y72625D01*
X53802Y72100D01*
X55376D01*
X45155Y117050D02*
X44631Y117574D01*
X43581D01*
X43056Y117050D01*
Y114951D01*
X43581Y114426D01*
X44631D01*
X45155Y114951D01*
X46205Y114426D02*
X47254D01*
X46729D01*
Y117574D01*
X46205Y117050D01*
X50403Y114426D02*
Y117574D01*
X48829Y116000D01*
X50928D01*
X54076Y117574D02*
X53027Y117050D01*
X51977Y116000D01*
Y114951D01*
X52502Y114426D01*
X53551D01*
X54076Y114951D01*
Y115475D01*
X53551Y116000D01*
X51977D01*
X45955Y93950D02*
X45430Y94474D01*
X44381D01*
X43856Y93950D01*
Y91851D01*
X44381Y91326D01*
X45430D01*
X45955Y91851D01*
X47005Y91326D02*
X48054D01*
X47530D01*
Y94474D01*
X47005Y93950D01*
X51203Y91326D02*
Y94474D01*
X49629Y92900D01*
X51728D01*
X54876Y94474D02*
X52777D01*
Y92900D01*
X53827Y93425D01*
X54351D01*
X54876Y92900D01*
Y91851D01*
X54351Y91326D01*
X53302D01*
X52777Y91851D01*
X10491Y223774D02*
X9967Y224299D01*
X8917D01*
X8392Y223774D01*
Y221675D01*
X8917Y221150D01*
X9967D01*
X10491Y221675D01*
X11541Y221150D02*
X12590D01*
X12066D01*
Y224299D01*
X11541Y223774D01*
X14165D02*
X14689Y224299D01*
X15739D01*
X16264Y223774D01*
Y223250D01*
X15739Y222725D01*
X15214D01*
X15739D01*
X16264Y222200D01*
Y221675D01*
X15739Y221150D01*
X14689D01*
X14165Y221675D01*
X19412Y224299D02*
X18363Y223774D01*
X17313Y222725D01*
Y221675D01*
X17838Y221150D01*
X18888D01*
X19412Y221675D01*
Y222200D01*
X18888Y222725D01*
X17313D01*
X20462Y220626D02*
X22561D01*
X23610Y221150D02*
Y224299D01*
X25710Y221150D01*
Y224299D01*
X28333Y221150D02*
X27284D01*
X26759Y221675D01*
Y222725D01*
X27284Y223250D01*
X28333D01*
X28858Y222725D01*
Y222200D01*
X26759D01*
X30957Y220101D02*
X31482D01*
X32007Y220626D01*
Y223250D01*
X30432D01*
X29908Y222725D01*
Y221675D01*
X30432Y221150D01*
X32007D01*
X33581Y223250D02*
X34631D01*
X35155Y222725D01*
Y221150D01*
X33581D01*
X33056Y221675D01*
X33581Y222200D01*
X35155D01*
X36729Y223774D02*
Y223250D01*
X36205D01*
X37254D01*
X36729D01*
Y221675D01*
X37254Y221150D01*
X38829D02*
X39878D01*
X39353D01*
Y223250D01*
X38829D01*
X41452D02*
X42502Y221150D01*
X43551Y223250D01*
X46175Y221150D02*
X45126D01*
X44601Y221675D01*
Y222725D01*
X45126Y223250D01*
X46175D01*
X46700Y222725D01*
Y222200D01*
X44601D01*
X50898Y224299D02*
Y221150D01*
X52472D01*
X52997Y221675D01*
Y223774D01*
X52472Y224299D01*
X50898D01*
X56146Y223774D02*
X55621Y224299D01*
X54571D01*
X54047Y223774D01*
Y221675D01*
X54571Y221150D01*
X55621D01*
X56146Y221675D01*
X57195Y222725D02*
X59294D01*
X60344Y224299D02*
Y221150D01*
X61918D01*
X62443Y221675D01*
Y223774D01*
X61918Y224299D01*
X60344D01*
X65592Y223774D02*
X65067Y224299D01*
X64017D01*
X63492Y223774D01*
Y221675D01*
X64017Y221150D01*
X65067D01*
X65592Y221675D01*
X68740Y221150D02*
X66641D01*
X68740Y223250D01*
Y223774D01*
X68215Y224299D01*
X67166D01*
X66641Y223774D01*
X138416Y224774D02*
X137891Y225299D01*
X136842D01*
X136317Y224774D01*
Y222675D01*
X136842Y222150D01*
X137891D01*
X138416Y222675D01*
X139466Y222150D02*
X140515D01*
X139990D01*
Y225299D01*
X139466Y224774D01*
X142089D02*
X142614Y225299D01*
X143664D01*
X144188Y224774D01*
Y224250D01*
X143664Y223725D01*
X143139D01*
X143664D01*
X144188Y223200D01*
Y222675D01*
X143664Y222150D01*
X142614D01*
X142089Y222675D01*
X147337Y225299D02*
X146288Y224774D01*
X145238Y223725D01*
Y222675D01*
X145763Y222150D01*
X146812D01*
X147337Y222675D01*
Y223200D01*
X146812Y223725D01*
X145238D01*
X148387Y221626D02*
X150486D01*
X151535Y222150D02*
Y225299D01*
X153634Y222150D01*
Y225299D01*
X156258Y222150D02*
X155209D01*
X154684Y222675D01*
Y223725D01*
X155209Y224250D01*
X156258D01*
X156783Y223725D01*
Y223200D01*
X154684D01*
X158882Y221101D02*
X159407D01*
X159931Y221626D01*
Y224250D01*
X158357D01*
X157832Y223725D01*
Y222675D01*
X158357Y222150D01*
X159931D01*
X161506Y224250D02*
X162555D01*
X163080Y223725D01*
Y222150D01*
X161506D01*
X160981Y222675D01*
X161506Y223200D01*
X163080D01*
X164654Y224774D02*
Y224250D01*
X164129D01*
X165179D01*
X164654D01*
Y222675D01*
X165179Y222150D01*
X166753D02*
X167803D01*
X167278D01*
Y224250D01*
X166753D01*
X169377D02*
X170427Y222150D01*
X171476Y224250D01*
X174100Y222150D02*
X173050D01*
X172526Y222675D01*
Y223725D01*
X173050Y224250D01*
X174100D01*
X174625Y223725D01*
Y223200D01*
X172526D01*
X178823Y225299D02*
Y222150D01*
X180397D01*
X180922Y222675D01*
Y224774D01*
X180397Y225299D01*
X178823D01*
X184071Y224774D02*
X183546Y225299D01*
X182496D01*
X181972Y224774D01*
Y222675D01*
X182496Y222150D01*
X183546D01*
X184071Y222675D01*
X185120Y223725D02*
X187219D01*
X188269Y225299D02*
Y222150D01*
X189843D01*
X190368Y222675D01*
Y224774D01*
X189843Y225299D01*
X188269D01*
X193516Y224774D02*
X192991Y225299D01*
X191942D01*
X191417Y224774D01*
Y222675D01*
X191942Y222150D01*
X192991D01*
X193516Y222675D01*
X194566Y222150D02*
X195615D01*
X195091D01*
Y225299D01*
X194566Y224774D01*
X63291Y259374D02*
X62767Y259899D01*
X61717D01*
X61192Y259374D01*
Y257275D01*
X61717Y256750D01*
X62767D01*
X63291Y257275D01*
X64341Y256750D02*
X65390D01*
X64866D01*
Y259899D01*
X64341Y259374D01*
X66965D02*
X67489Y259899D01*
X68539D01*
X69064Y259374D01*
Y258850D01*
X68539Y258325D01*
X68014D01*
X68539D01*
X69064Y257800D01*
Y257275D01*
X68539Y256750D01*
X67489D01*
X66965Y257275D01*
X72212Y259899D02*
X70113D01*
Y258325D01*
X71163Y258850D01*
X71688D01*
X72212Y258325D01*
Y257275D01*
X71688Y256750D01*
X70638D01*
X70113Y257275D01*
X73262Y256226D02*
X75361D01*
X76410Y256750D02*
Y259899D01*
X78509Y256750D01*
Y259899D01*
X81133Y256750D02*
X80084D01*
X79559Y257275D01*
Y258325D01*
X80084Y258850D01*
X81133D01*
X81658Y258325D01*
Y257800D01*
X79559D01*
X83757Y255701D02*
X84282D01*
X84807Y256226D01*
Y258850D01*
X83232D01*
X82708Y258325D01*
Y257275D01*
X83232Y256750D01*
X84807D01*
X86381Y258850D02*
X87431D01*
X87955Y258325D01*
Y256750D01*
X86381D01*
X85856Y257275D01*
X86381Y257800D01*
X87955D01*
X89530Y259374D02*
Y258850D01*
X89005D01*
X90054D01*
X89530D01*
Y257275D01*
X90054Y256750D01*
X91629D02*
X92678D01*
X92153D01*
Y258850D01*
X91629D01*
X94252D02*
X95302Y256750D01*
X96351Y258850D01*
X98975Y256750D02*
X97926D01*
X97401Y257275D01*
Y258325D01*
X97926Y258850D01*
X98975D01*
X99500Y258325D01*
Y257800D01*
X97401D01*
X103698Y259899D02*
Y256750D01*
X105272D01*
X105797Y257275D01*
Y259374D01*
X105272Y259899D01*
X103698D01*
X108946Y259374D02*
X108421Y259899D01*
X107371D01*
X106847Y259374D01*
Y257275D01*
X107371Y256750D01*
X108421D01*
X108946Y257275D01*
X109995Y258325D02*
X112094D01*
X113144Y259899D02*
Y256750D01*
X114718D01*
X115243Y257275D01*
Y259374D01*
X114718Y259899D01*
X113144D01*
X118392Y259374D02*
X117867Y259899D01*
X116817D01*
X116293Y259374D01*
Y257275D01*
X116817Y256750D01*
X117867D01*
X118392Y257275D01*
X121540Y256750D02*
X119441D01*
X121540Y258850D01*
Y259374D01*
X121015Y259899D01*
X119966D01*
X119441Y259374D01*
X189916Y261474D02*
X189391Y261999D01*
X188342D01*
X187817Y261474D01*
Y259375D01*
X188342Y258851D01*
X189391D01*
X189916Y259375D01*
X190966Y258851D02*
X192015D01*
X191490D01*
Y261999D01*
X190966Y261474D01*
X193589D02*
X194114Y261999D01*
X195164D01*
X195688Y261474D01*
Y260949D01*
X195164Y260425D01*
X194639D01*
X195164D01*
X195688Y259900D01*
Y259375D01*
X195164Y258851D01*
X194114D01*
X193589Y259375D01*
X198837Y261999D02*
X196738D01*
Y260425D01*
X197788Y260949D01*
X198312D01*
X198837Y260425D01*
Y259375D01*
X198312Y258851D01*
X197263D01*
X196738Y259375D01*
X199887Y258326D02*
X201986D01*
X203035Y258851D02*
Y261999D01*
X205134Y258851D01*
Y261999D01*
X207758Y258851D02*
X206709D01*
X206184Y259375D01*
Y260425D01*
X206709Y260949D01*
X207758D01*
X208283Y260425D01*
Y259900D01*
X206184D01*
X210382Y257801D02*
X210907D01*
X211431Y258326D01*
Y260949D01*
X209857D01*
X209332Y260425D01*
Y259375D01*
X209857Y258851D01*
X211431D01*
X213006Y260949D02*
X214055D01*
X214580Y260425D01*
Y258851D01*
X213006D01*
X212481Y259375D01*
X213006Y259900D01*
X214580D01*
X216154Y261474D02*
Y260949D01*
X215630D01*
X216679D01*
X216154D01*
Y259375D01*
X216679Y258851D01*
X218253D02*
X219303D01*
X218778D01*
Y260949D01*
X218253D01*
X220877D02*
X221927Y258851D01*
X222976Y260949D01*
X225600Y258851D02*
X224551D01*
X224026Y259375D01*
Y260425D01*
X224551Y260949D01*
X225600D01*
X226125Y260425D01*
Y259900D01*
X224026D01*
X230323Y261999D02*
Y258851D01*
X231897D01*
X232422Y259375D01*
Y261474D01*
X231897Y261999D01*
X230323D01*
X235571Y261474D02*
X235046Y261999D01*
X233996D01*
X233471Y261474D01*
Y259375D01*
X233996Y258851D01*
X235046D01*
X235571Y259375D01*
X236620Y260425D02*
X238719D01*
X239769Y261999D02*
Y258851D01*
X241343D01*
X241868Y259375D01*
Y261474D01*
X241343Y261999D01*
X239769D01*
X245016Y261474D02*
X244492Y261999D01*
X243442D01*
X242917Y261474D01*
Y259375D01*
X243442Y258851D01*
X244492D01*
X245016Y259375D01*
X246066Y258851D02*
X247115D01*
X246590D01*
Y261999D01*
X246066Y261474D01*
X89291Y268074D02*
X88767Y268599D01*
X87717D01*
X87192Y268074D01*
Y265975D01*
X87717Y265451D01*
X88767D01*
X89291Y265975D01*
X90341Y265451D02*
X91390D01*
X90866D01*
Y268599D01*
X90341Y268074D01*
X92965D02*
X93489Y268599D01*
X94539D01*
X95064Y268074D01*
Y267549D01*
X94539Y267025D01*
X94014D01*
X94539D01*
X95064Y266500D01*
Y265975D01*
X94539Y265451D01*
X93489D01*
X92965Y265975D01*
X96113Y268074D02*
X96638Y268599D01*
X97688D01*
X98212Y268074D01*
Y267549D01*
X97688Y267025D01*
X97163D01*
X97688D01*
X98212Y266500D01*
Y265975D01*
X97688Y265451D01*
X96638D01*
X96113Y265975D01*
X99262Y264926D02*
X101361D01*
X102410Y265451D02*
Y268599D01*
X104509Y265451D01*
Y268599D01*
X107133Y265451D02*
X106084D01*
X105559Y265975D01*
Y267025D01*
X106084Y267549D01*
X107133D01*
X107658Y267025D01*
Y266500D01*
X105559D01*
X109757Y264401D02*
X110282D01*
X110807Y264926D01*
Y267549D01*
X109232D01*
X108708Y267025D01*
Y265975D01*
X109232Y265451D01*
X110807D01*
X112381Y267549D02*
X113431D01*
X113955Y267025D01*
Y265451D01*
X112381D01*
X111856Y265975D01*
X112381Y266500D01*
X113955D01*
X115530Y268074D02*
Y267549D01*
X115005D01*
X116054D01*
X115530D01*
Y265975D01*
X116054Y265451D01*
X117629D02*
X118678D01*
X118153D01*
Y267549D01*
X117629D01*
X120252D02*
X121302Y265451D01*
X122351Y267549D01*
X124975Y265451D02*
X123926D01*
X123401Y265975D01*
Y267025D01*
X123926Y267549D01*
X124975D01*
X125500Y267025D01*
Y266500D01*
X123401D01*
X129698Y268599D02*
Y265451D01*
X131272D01*
X131797Y265975D01*
Y268074D01*
X131272Y268599D01*
X129698D01*
X134946Y268074D02*
X134421Y268599D01*
X133371D01*
X132847Y268074D01*
Y265975D01*
X133371Y265451D01*
X134421D01*
X134946Y265975D01*
X135995Y267025D02*
X138094D01*
X139144Y268599D02*
Y265451D01*
X140718D01*
X141243Y265975D01*
Y268074D01*
X140718Y268599D01*
X139144D01*
X144392Y268074D02*
X143867Y268599D01*
X142817D01*
X142292Y268074D01*
Y265975D01*
X142817Y265451D01*
X143867D01*
X144392Y265975D01*
X147540Y265451D02*
X145441D01*
X147540Y267549D01*
Y268074D01*
X147015Y268599D01*
X145966D01*
X145441Y268074D01*
X214716Y268474D02*
X214191Y268999D01*
X213142D01*
X212617Y268474D01*
Y266375D01*
X213142Y265850D01*
X214191D01*
X214716Y266375D01*
X215766Y265850D02*
X216815D01*
X216290D01*
Y268999D01*
X215766Y268474D01*
X218389D02*
X218914Y268999D01*
X219964D01*
X220489Y268474D01*
Y267950D01*
X219964Y267425D01*
X219439D01*
X219964D01*
X220489Y266900D01*
Y266375D01*
X219964Y265850D01*
X218914D01*
X218389Y266375D01*
X221538Y268474D02*
X222063Y268999D01*
X223112D01*
X223637Y268474D01*
Y267950D01*
X223112Y267425D01*
X222588D01*
X223112D01*
X223637Y266900D01*
Y266375D01*
X223112Y265850D01*
X222063D01*
X221538Y266375D01*
X224687Y265326D02*
X226786D01*
X227835Y265850D02*
Y268999D01*
X229934Y265850D01*
Y268999D01*
X232558Y265850D02*
X231508D01*
X230984Y266375D01*
Y267425D01*
X231508Y267950D01*
X232558D01*
X233083Y267425D01*
Y266900D01*
X230984D01*
X235182Y264801D02*
X235707D01*
X236231Y265326D01*
Y267950D01*
X234657D01*
X234132Y267425D01*
Y266375D01*
X234657Y265850D01*
X236231D01*
X237806Y267950D02*
X238855D01*
X239380Y267425D01*
Y265850D01*
X237806D01*
X237281Y266375D01*
X237806Y266900D01*
X239380D01*
X240954Y268474D02*
Y267950D01*
X240429D01*
X241479D01*
X240954D01*
Y266375D01*
X241479Y265850D01*
X243053D02*
X244103D01*
X243578D01*
Y267950D01*
X243053D01*
X245677D02*
X246727Y265850D01*
X247776Y267950D01*
X250400Y265850D02*
X249351D01*
X248826Y266375D01*
Y267425D01*
X249351Y267950D01*
X250400D01*
X250925Y267425D01*
Y266900D01*
X248826D01*
X255123Y268999D02*
Y265850D01*
X256697D01*
X257222Y266375D01*
Y268474D01*
X256697Y268999D01*
X255123D01*
X260370Y268474D02*
X259846Y268999D01*
X258796D01*
X258272Y268474D01*
Y266375D01*
X258796Y265850D01*
X259846D01*
X260370Y266375D01*
X261420Y267425D02*
X263519D01*
X264569Y268999D02*
Y265850D01*
X266143D01*
X266668Y266375D01*
Y268474D01*
X266143Y268999D01*
X264569D01*
X269816Y268474D02*
X269291Y268999D01*
X268242D01*
X267717Y268474D01*
Y266375D01*
X268242Y265850D01*
X269291D01*
X269816Y266375D01*
X270866Y265850D02*
X271915D01*
X271391D01*
Y268999D01*
X270866Y268474D01*
X10391Y333674D02*
X9867Y334199D01*
X8817D01*
X8292Y333674D01*
Y331575D01*
X8817Y331050D01*
X9867D01*
X10391Y331575D01*
X11441Y331050D02*
X12490D01*
X11966D01*
Y334199D01*
X11441Y333674D01*
X14065D02*
X14589Y334199D01*
X15639D01*
X16164Y333674D01*
Y333150D01*
X15639Y332625D01*
X15114D01*
X15639D01*
X16164Y332100D01*
Y331575D01*
X15639Y331050D01*
X14589D01*
X14065Y331575D01*
X19312Y331050D02*
X17213D01*
X19312Y333150D01*
Y333674D01*
X18788Y334199D01*
X17738D01*
X17213Y333674D01*
X20362Y330526D02*
X22461D01*
X23510Y331050D02*
Y334199D01*
X25609Y331050D01*
Y334199D01*
X28233Y331050D02*
X27184D01*
X26659Y331575D01*
Y332625D01*
X27184Y333150D01*
X28233D01*
X28758Y332625D01*
Y332100D01*
X26659D01*
X30857Y330001D02*
X31382D01*
X31907Y330526D01*
Y333150D01*
X30332D01*
X29808Y332625D01*
Y331575D01*
X30332Y331050D01*
X31907D01*
X33481Y333150D02*
X34530D01*
X35055Y332625D01*
Y331050D01*
X33481D01*
X32956Y331575D01*
X33481Y332100D01*
X35055D01*
X36630Y333674D02*
Y333150D01*
X36105D01*
X37154D01*
X36630D01*
Y331575D01*
X37154Y331050D01*
X38729D02*
X39778D01*
X39253D01*
Y333150D01*
X38729D01*
X41352D02*
X42402Y331050D01*
X43451Y333150D01*
X46075Y331050D02*
X45026D01*
X44501Y331575D01*
Y332625D01*
X45026Y333150D01*
X46075D01*
X46600Y332625D01*
Y332100D01*
X44501D01*
X50798Y334199D02*
Y331050D01*
X52372D01*
X52897Y331575D01*
Y333674D01*
X52372Y334199D01*
X50798D01*
X56046Y333674D02*
X55521Y334199D01*
X54471D01*
X53947Y333674D01*
Y331575D01*
X54471Y331050D01*
X55521D01*
X56046Y331575D01*
X57095Y332625D02*
X59194D01*
X60244Y334199D02*
Y331050D01*
X61818D01*
X62343Y331575D01*
Y333674D01*
X61818Y334199D01*
X60244D01*
X65491Y333674D02*
X64967Y334199D01*
X63917D01*
X63392Y333674D01*
Y331575D01*
X63917Y331050D01*
X64967D01*
X65491Y331575D01*
X68640Y331050D02*
X66541D01*
X68640Y333150D01*
Y333674D01*
X68115Y334199D01*
X67066D01*
X66541Y333674D01*
X149816Y333374D02*
X149291Y333899D01*
X148242D01*
X147717Y333374D01*
Y331275D01*
X148242Y330750D01*
X149291D01*
X149816Y331275D01*
X150866Y330750D02*
X151915D01*
X151390D01*
Y333899D01*
X150866Y333374D01*
X153489D02*
X154014Y333899D01*
X155064D01*
X155588Y333374D01*
Y332850D01*
X155064Y332325D01*
X154539D01*
X155064D01*
X155588Y331800D01*
Y331275D01*
X155064Y330750D01*
X154014D01*
X153489Y331275D01*
X158737Y330750D02*
X156638D01*
X158737Y332850D01*
Y333374D01*
X158212Y333899D01*
X157163D01*
X156638Y333374D01*
X159787Y330226D02*
X161886D01*
X162935Y330750D02*
Y333899D01*
X165034Y330750D01*
Y333899D01*
X167658Y330750D02*
X166609D01*
X166084Y331275D01*
Y332325D01*
X166609Y332850D01*
X167658D01*
X168183Y332325D01*
Y331800D01*
X166084D01*
X170282Y329701D02*
X170807D01*
X171331Y330226D01*
Y332850D01*
X169757D01*
X169232Y332325D01*
Y331275D01*
X169757Y330750D01*
X171331D01*
X172906Y332850D02*
X173955D01*
X174480Y332325D01*
Y330750D01*
X172906D01*
X172381Y331275D01*
X172906Y331800D01*
X174480D01*
X176054Y333374D02*
Y332850D01*
X175530D01*
X176579D01*
X176054D01*
Y331275D01*
X176579Y330750D01*
X178153D02*
X179203D01*
X178678D01*
Y332850D01*
X178153D01*
X180777D02*
X181827Y330750D01*
X182876Y332850D01*
X185500Y330750D02*
X184450D01*
X183926Y331275D01*
Y332325D01*
X184450Y332850D01*
X185500D01*
X186025Y332325D01*
Y331800D01*
X183926D01*
X190223Y333899D02*
Y330750D01*
X191797D01*
X192322Y331275D01*
Y333374D01*
X191797Y333899D01*
X190223D01*
X195470Y333374D02*
X194946Y333899D01*
X193896D01*
X193371Y333374D01*
Y331275D01*
X193896Y330750D01*
X194946D01*
X195470Y331275D01*
X196520Y332325D02*
X198619D01*
X199669Y333899D02*
Y330750D01*
X201243D01*
X201768Y331275D01*
Y333374D01*
X201243Y333899D01*
X199669D01*
X204916Y333374D02*
X204392Y333899D01*
X203342D01*
X202817Y333374D01*
Y331275D01*
X203342Y330750D01*
X204392D01*
X204916Y331275D01*
X205966Y330750D02*
X207015D01*
X206490D01*
Y333899D01*
X205966Y333374D01*
X92103Y338574D02*
X91579Y339099D01*
X90529D01*
X90004Y338574D01*
Y336475D01*
X90529Y335950D01*
X91579D01*
X92103Y336475D01*
X93153D02*
X93678Y335950D01*
X94727D01*
X95252Y336475D01*
Y338574D01*
X94727Y339099D01*
X93678D01*
X93153Y338574D01*
Y338050D01*
X93678Y337525D01*
X95252D01*
X96301Y338574D02*
X96826Y339099D01*
X97876D01*
X98400Y338574D01*
Y338050D01*
X97876Y337525D01*
X98400Y337000D01*
Y336475D01*
X97876Y335950D01*
X96826D01*
X96301Y336475D01*
Y337000D01*
X96826Y337525D01*
X96301Y338050D01*
Y338574D01*
X96826Y337525D02*
X97876D01*
X99450Y335426D02*
X101549D01*
X102599Y335950D02*
Y339099D01*
X104698Y335950D01*
Y339099D01*
X107321Y335950D02*
X106272D01*
X105747Y336475D01*
Y337525D01*
X106272Y338050D01*
X107321D01*
X107846Y337525D01*
Y337000D01*
X105747D01*
X109945Y334901D02*
X110470D01*
X110995Y335426D01*
Y338050D01*
X109420D01*
X108896Y337525D01*
Y336475D01*
X109420Y335950D01*
X110995D01*
X112569Y338050D02*
X113619D01*
X114143Y337525D01*
Y335950D01*
X112569D01*
X112044Y336475D01*
X112569Y337000D01*
X114143D01*
X115718Y338574D02*
Y338050D01*
X115193D01*
X116242D01*
X115718D01*
Y336475D01*
X116242Y335950D01*
X117817D02*
X118866D01*
X118341D01*
Y338050D01*
X117817D01*
X120440D02*
X121490Y335950D01*
X122539Y338050D01*
X125163Y335950D02*
X124114D01*
X123589Y336475D01*
Y337525D01*
X124114Y338050D01*
X125163D01*
X125688Y337525D01*
Y337000D01*
X123589D01*
X129886Y339099D02*
Y335950D01*
X131460D01*
X131985Y336475D01*
Y338574D01*
X131460Y339099D01*
X129886D01*
X135134Y338574D02*
X134609Y339099D01*
X133560D01*
X133035Y338574D01*
Y336475D01*
X133560Y335950D01*
X134609D01*
X135134Y336475D01*
X136183Y337525D02*
X138282D01*
X139332Y339099D02*
Y335950D01*
X140906D01*
X141431Y336475D01*
Y338574D01*
X140906Y339099D01*
X139332D01*
X144580Y338574D02*
X144055Y339099D01*
X143005D01*
X142481Y338574D01*
Y336475D01*
X143005Y335950D01*
X144055D01*
X144580Y336475D01*
X147728Y335950D02*
X145629D01*
X147728Y338050D01*
Y338574D01*
X147203Y339099D01*
X146154D01*
X145629Y338574D01*
X216828Y337774D02*
X216303Y338299D01*
X215254D01*
X214729Y337774D01*
Y335675D01*
X215254Y335151D01*
X216303D01*
X216828Y335675D01*
X217878D02*
X218402Y335151D01*
X219452D01*
X219977Y335675D01*
Y337774D01*
X219452Y338299D01*
X218402D01*
X217878Y337774D01*
Y337249D01*
X218402Y336725D01*
X219977D01*
X221026Y337774D02*
X221551Y338299D01*
X222600D01*
X223125Y337774D01*
Y337249D01*
X222600Y336725D01*
X223125Y336200D01*
Y335675D01*
X222600Y335151D01*
X221551D01*
X221026Y335675D01*
Y336200D01*
X221551Y336725D01*
X221026Y337249D01*
Y337774D01*
X221551Y336725D02*
X222600D01*
X224175Y334626D02*
X226274D01*
X227323Y335151D02*
Y338299D01*
X229422Y335151D01*
Y338299D01*
X232046Y335151D02*
X230997D01*
X230472Y335675D01*
Y336725D01*
X230997Y337249D01*
X232046D01*
X232571Y336725D01*
Y336200D01*
X230472D01*
X234670Y334101D02*
X235195D01*
X235719Y334626D01*
Y337249D01*
X234145D01*
X233620Y336725D01*
Y335675D01*
X234145Y335151D01*
X235719D01*
X237294Y337249D02*
X238343D01*
X238868Y336725D01*
Y335151D01*
X237294D01*
X236769Y335675D01*
X237294Y336200D01*
X238868D01*
X240442Y337774D02*
Y337249D01*
X239918D01*
X240967D01*
X240442D01*
Y335675D01*
X240967Y335151D01*
X242541D02*
X243591D01*
X243066D01*
Y337249D01*
X242541D01*
X245165D02*
X246215Y335151D01*
X247264Y337249D01*
X249888Y335151D02*
X248839D01*
X248314Y335675D01*
Y336725D01*
X248839Y337249D01*
X249888D01*
X250413Y336725D01*
Y336200D01*
X248314D01*
X254611Y338299D02*
Y335151D01*
X256185D01*
X256710Y335675D01*
Y337774D01*
X256185Y338299D01*
X254611D01*
X259859Y337774D02*
X259334Y338299D01*
X258284D01*
X257760Y337774D01*
Y335675D01*
X258284Y335151D01*
X259334D01*
X259859Y335675D01*
X260908Y336725D02*
X263007D01*
X264057Y338299D02*
Y335151D01*
X265631D01*
X266156Y335675D01*
Y337774D01*
X265631Y338299D01*
X264057D01*
X269304Y337774D02*
X268780Y338299D01*
X267730D01*
X267205Y337774D01*
Y335675D01*
X267730Y335151D01*
X268780D01*
X269304Y335675D01*
X270354Y335151D02*
X271403D01*
X270879D01*
Y338299D01*
X270354Y337774D01*
X88903Y199974D02*
X88379Y200499D01*
X87329D01*
X86804Y199974D01*
Y197875D01*
X87329Y197351D01*
X88379D01*
X88903Y197875D01*
X89953D02*
X90478Y197351D01*
X91527D01*
X92052Y197875D01*
Y199974D01*
X91527Y200499D01*
X90478D01*
X89953Y199974D01*
Y199450D01*
X90478Y198925D01*
X92052D01*
X93101Y200499D02*
X95200D01*
Y199974D01*
X93101Y197875D01*
Y197351D01*
X96250Y196826D02*
X98349D01*
X99398Y197351D02*
Y200499D01*
X101498Y197351D01*
Y200499D01*
X104121Y197351D02*
X103072D01*
X102547Y197875D01*
Y198925D01*
X103072Y199450D01*
X104121D01*
X104646Y198925D01*
Y198400D01*
X102547D01*
X106745Y196301D02*
X107270D01*
X107795Y196826D01*
Y199450D01*
X106220D01*
X105696Y198925D01*
Y197875D01*
X106220Y197351D01*
X107795D01*
X109369Y199450D02*
X110419D01*
X110943Y198925D01*
Y197351D01*
X109369D01*
X108844Y197875D01*
X109369Y198400D01*
X110943D01*
X112518Y199974D02*
Y199450D01*
X111993D01*
X113042D01*
X112518D01*
Y197875D01*
X113042Y197351D01*
X114617D02*
X115666D01*
X115141D01*
Y199450D01*
X114617D01*
X117241D02*
X118290Y197351D01*
X119340Y199450D01*
X121963Y197351D02*
X120914D01*
X120389Y197875D01*
Y198925D01*
X120914Y199450D01*
X121963D01*
X122488Y198925D01*
Y198400D01*
X120389D01*
X126686Y200499D02*
Y197351D01*
X128261D01*
X128785Y197875D01*
Y199974D01*
X128261Y200499D01*
X126686D01*
X131934Y199974D02*
X131409Y200499D01*
X130360D01*
X129835Y199974D01*
Y197875D01*
X130360Y197351D01*
X131409D01*
X131934Y197875D01*
X132983Y198925D02*
X135082D01*
X136132Y200499D02*
Y197351D01*
X137706D01*
X138231Y197875D01*
Y199974D01*
X137706Y200499D01*
X136132D01*
X141380Y199974D02*
X140855Y200499D01*
X139805D01*
X139280Y199974D01*
Y197875D01*
X139805Y197351D01*
X140855D01*
X141380Y197875D01*
X144528Y197351D02*
X142429D01*
X144528Y199450D01*
Y199974D01*
X144003Y200499D01*
X142954D01*
X142429Y199974D01*
X212328Y202074D02*
X211803Y202599D01*
X210754D01*
X210229Y202074D01*
Y199975D01*
X210754Y199451D01*
X211803D01*
X212328Y199975D01*
X213377D02*
X213902Y199451D01*
X214952D01*
X215477Y199975D01*
Y202074D01*
X214952Y202599D01*
X213902D01*
X213377Y202074D01*
Y201550D01*
X213902Y201025D01*
X215477D01*
X216526Y202599D02*
X218625D01*
Y202074D01*
X216526Y199975D01*
Y199451D01*
X219675Y198926D02*
X221774D01*
X222823Y199451D02*
Y202599D01*
X224922Y199451D01*
Y202599D01*
X227546Y199451D02*
X226497D01*
X225972Y199975D01*
Y201025D01*
X226497Y201550D01*
X227546D01*
X228071Y201025D01*
Y200500D01*
X225972D01*
X230170Y198401D02*
X230695D01*
X231220Y198926D01*
Y201550D01*
X229645D01*
X229120Y201025D01*
Y199975D01*
X229645Y199451D01*
X231220D01*
X232794Y201550D02*
X233843D01*
X234368Y201025D01*
Y199451D01*
X232794D01*
X232269Y199975D01*
X232794Y200500D01*
X234368D01*
X235942Y202074D02*
Y201550D01*
X235418D01*
X236467D01*
X235942D01*
Y199975D01*
X236467Y199451D01*
X238041D02*
X239091D01*
X238566D01*
Y201550D01*
X238041D01*
X240665D02*
X241715Y199451D01*
X242764Y201550D01*
X245388Y199451D02*
X244339D01*
X243814Y199975D01*
Y201025D01*
X244339Y201550D01*
X245388D01*
X245913Y201025D01*
Y200500D01*
X243814D01*
X250111Y202599D02*
Y199451D01*
X251685D01*
X252210Y199975D01*
Y202074D01*
X251685Y202599D01*
X250111D01*
X255359Y202074D02*
X254834Y202599D01*
X253784D01*
X253260Y202074D01*
Y199975D01*
X253784Y199451D01*
X254834D01*
X255359Y199975D01*
X256408Y201025D02*
X258507D01*
X259557Y202599D02*
Y199451D01*
X261131D01*
X261656Y199975D01*
Y202074D01*
X261131Y202599D01*
X259557D01*
X264804Y202074D02*
X264280Y202599D01*
X263230D01*
X262705Y202074D01*
Y199975D01*
X263230Y199451D01*
X264280D01*
X264804Y199975D01*
X265854Y199451D02*
X266903D01*
X266379D01*
Y202599D01*
X265854Y202074D01*
M02*
