M48
;Layer_Color=9474304
;FILE_FORMAT=2:5
INCH,LZ
;TYPE=PLATED
T1F00S00C0.00787
T2F00S00C0.01968
T3F00S00C0.02480
T4F00S00C0.02953
T5F00S00C0.03150
T6F00S00C0.03543
T7F00S00C0.03937
T8F00S00C0.04016
T9F00S00C0.04528
T10F00S00C0.04724
T11F00S00C0.05200
T12F00S00C0.10512
T13F00S00C0.13780
%
T01
X008718Y0003776
X0095598Y000407
X0101011Y0003972
X010968Y0003676
X011348Y0009676
X011328Y0018276
X0097468Y0026019
X008878Y0026076
X007348Y0058726
X0064425
X019073Y0065094
X019748Y0065035
X022998Y0067476
X0232454Y006745
X0234967Y0067463
X023748Y0067476
X024598
X024848
X025258Y0057935
X025448Y0026558
X023548Y0026476
X023148
X022348
X021948
X021598
X0280539Y0068243
X0282409Y0070409
X0278078Y0087042
X026548Y0087976
X0265467Y0090488
X0265454Y0093001
X0265441Y0095514
X0265493Y0097963
Y0100463
X0265367Y0103088
X026548Y0105476
X0264421Y0109976
X025098Y0108976
X0250967Y0111488
X025098Y0113976
Y0116476
Y0118976
Y0121476
Y0130976
Y0133476
Y0135976
Y0138476
Y0140976
Y0143476
X026248Y0142976
Y0151976
X0253377Y0159712
X0250689Y0161516
X0247827Y0161724
X0245467Y0161488
X0243012Y0161713
X0240453
X023798Y0161476
X0235499Y0161491
X0232993Y0161488
X023048Y0161476
X022598
X022348
X022798Y0165858
X022448Y0150476
X022198
X021948
X021698
X021448
X0212014Y0150441
X020948Y0150476
X0216661Y014344
X0219168Y0145529
X0222668Y0141964
X0226799Y0141865
X0229342Y0141324
X0227362Y011939
X0231988Y0119882
X025098Y0105476
Y0102976
Y0100476
X0264421Y0084476
X026548Y0079976
X023598Y0077976
X0224467Y0077963
X022198Y0077976
X021948
X0216967Y0077963
X0214467
X021198Y0077976
X020948Y0078342
X0206888Y0078253
X0204451Y0078017
X020198Y0077976
X019948
X019698
X019448
X019198
X018948
X018698
X018448
X018198
X017948
Y0083976
Y0086476
Y0088976
Y0094476
X017898Y0103976
Y0108976
Y0111476
Y0113976
X0178991Y0116464
X017898Y0118976
Y0121476
X0167967Y0121988
X016798Y0119476
X016582Y0125566
X0168106Y0129576
X0167967Y0131963
X016798Y0134476
Y0136976
Y0139476
Y0141976
Y014919
X0163019Y0147574
X017848Y0145476
Y0142976
X0186994Y0149505
X0190715
X018798Y0161976
X019948
X020199Y0161984
X020448Y0161976
X0206541Y0165856
X017873Y0165594
X0192612Y0203976
X019798
Y0210476
Y0223476
X0218068Y0221676
Y0217346
X0222399
X022673
X0231061
X0235391
Y0221676
X0231061
X022673
X0222399
Y0226007
X022673
X0231061
X0235391
X0218068
X022023Y0203535
X020723
X023123Y0198416
X024398Y0203535
X0259154Y0209252
Y0216043
X0264272Y0222835
Y0202461
Y0195669
X0264421Y0129476
X0262821Y012461
X0265381Y012346
X0185952Y0105546
X0165734Y0105972
X016848Y0101976
X0168493Y0099463
X016848Y0096976
Y0087476
X0165789Y0082476
X0152657Y009922
Y0105762
X0147539Y0112303
Y0118845
X0152657Y0125386
Y0131928
X0147539Y0138272
Y0145011
X0135454Y0142001
X0135467Y0139488
X013548Y0136976
X0123891Y0137169
Y0132838
Y0128507
Y0124176
Y0119846
X0119561
X011523
X0110899
X0106568
Y0124176
X0110899
X011523
X0119561
Y0128507
X011523
X0110899
X0106568
Y0132838
X0110899
X011523
X0119561
Y0137169
X011523
X0110899
X0106568
X009398Y0133476
X008648Y0132976
X008098Y0132476
X008648Y0125976
X009348Y0121476
X008648Y0112976
X008098
X008648Y0106476
X009548Y0105976
X010848
X011973Y0100917
X013248Y0105976
X012798Y0147976
X0122207Y0148447
X0119766Y0148976
X0116194
X011798Y0150976
X0123909Y0151737
X0130413Y015191
X0110118Y0151337
X0108171Y015269
X010423Y0151917
X0097438Y0151903
X0086289Y0151976
X0111356Y01551
X0115152Y0158827
X012848Y0203476
Y0208476
Y0213476
Y0218476
Y0225976
X0147929Y0218476
Y0213476
X014848Y0208476
X0150519Y01897
X010348Y0208976
X0102929Y0213976
Y0218976
X008348
Y0213976
Y0208976
Y0203976
Y0226476
X005848Y0113476
X008348Y0231476
Y0236476
Y0241476
X0102929
Y0236476
X010348Y0231476
X012898Y0230976
X012848Y0235976
Y0240976
X0147929
Y0235976
X014798Y0230976
X0148822Y0280376
X0146322
X0143822
X0141322
X0138822
X0136322
X0133822
X0131322
X0128822
X0126322
X0123822
X0121322
X0118822
X0116322
X0113822
X0111322
Y0283876
X0113822
X0116322
X0118822
X0121322
X0123822
X0126322
X0128822
X0131322
X0133822
X0136322
X0138822
X0141322
X0143822
X0146322
X0148822
Y0287376
X0146322
X0143822
X0141322
X0138822
X0136322
X0133822
X0131322
X0128822
X0126322
X0123822
X0121322
X0118822
X0116322
X0113822
X0111322
Y0293376
X0113822
X0116322
X0118822
X0121322
X0123822
X0126322
X0128822
X0131322
X0133822
X0136322
X0138822
X0141322
X0143822
X0146322
X0148822
Y0296876
X0146322
X0143822
X0141322
X0138822
X0136322
X0133822
X0131322
X0128822
X0126322
X0123822
X0121322
X0118822
X0116322
X0113822
X0111322
Y0300376
X0113822
X0116322
X0118822
X0121322
X0123822
X0126322
X0128822
X0131322
X0133822
X0136322
X0138822
X0141322
X0143822
X0146322
X0148822
Y0307376
X0146322
X0143822
X0141322
X0138822
X0136322
X0133822
X0131322
X0128822
X0126322
X0123822
X0121322
X0118822
X0116322
X0113822
X0111322
Y0310876
X0113822
X0116322
X0118822
X0121322
X0123822
X0126322
X0128822
X0131322
X0133822
X0136322
X0138822
X0141322
X0143822
X0146322
X0148822
Y0314376
X0146322
X0143822
X0141322
X0138822
X0136322
X0133822
X0131322
X0128822
X0126322
X0123822
X0121322
X0118822
X0116322
X0113822
X0111322
X0120322Y0330576
Y0334079
Y0337576
X009768Y0337376
X009758Y0334076
X007648Y033518
X007638Y0338576
X0062402Y0314925
X0059902
X0057402
X0054902
X0052402
X0049902
X0047402
X0044902
X0042402
X0039902
X0037402
X0034902
X0032402
X0029902
X0027402
X0024902
Y0311425
X0027402
X0029902
X0032402
X0034902
X0037402
X0039902
X0042402
X0044902
X0047402
X0049902
X0052402
X0054902
X0057402
X0059902
X0062402
Y0307925
X0059902
X0057402
X0054902
X0052402
X0049902
X0047402
X0044902
X0042402
X0039902
X0037402
X0034902
X0032402
X0029902
X0027402
X0024902
Y0300925
X0027402
X0029902
X0032402
X0034902
X0037402
X0039902
X0042402
X0044902
X0047402
X0049902
X0052402
X0054902
X0057402
X0059902
X0062402
Y0297425
X0059902
X0057402
X0054902
X0052402
X0049902
X0047402
X0044902
X0042402
X0039902
X0037402
X0034902
X0032402
X0029902
X0027402
X0024902
Y0293925
X0027402
X0029902
X0032402
X0034902
X0037402
X0039902
X0042402
X0044902
X0047402
X0049902
X0052402
X0054902
X0057402
X0059902
X0062402
Y0287925
X0059902
X0057402
X0054902
X0052402
X0049902
X0047402
X0044902
X0042402
X0039902
X0037402
X0034902
X0032402
X0029902
X0027402
X0024902
Y0284425
X0027402
X0029902
X0032402
X0034902
X0037402
X0039902
X0042402
X0044902
X0047402
X0049902
X0052402
X0054902
X0057402
X0059902
X0062402
Y0280925
X0059902
X0057402
X0054902
X0052402
X0049902
X0047402
X0044902
X0042402
X0039902
X0037402
X0034902
X0032402
X0029902
X0027402
X0024902
X002548Y0333976
Y0336976
Y0339476
X002198
Y0336976
Y0333976
X001848
Y0336976
Y0339476
X002898
Y0336976
Y0333976
X0129429Y0378248
X0129331Y0381693
X0153476Y0362976
Y0357976
X0162822Y0319076
Y0315423
Y0311771
X0200295Y0278248
X0197789Y0249476
X0209072Y0249411
X021573Y0249416
X021998Y0249476
X022398
X022548Y0247476
X022558Y0252276
X022848Y0251476
X0228903Y0249104
X023138Y0251876
X023523Y0249416
X0241899
X0245237Y0246476
X0259154Y0243209
Y0236417
X0264272Y0229626
X0235391Y0230338
X0231061
X022673
X0222399
X0218068
Y0234668
X0222399
X022673
X0231061
X0235391
X022198Y0245476
X0242126Y0263189
X0240846Y0265551
X019798Y0229976
X0248091Y0339372
X0244122Y034344
X0255145Y0366767
X0269909Y0381924
X0269975Y0385591
X0269962Y0388104
X026995Y0390617
X0269958Y0393003
X0269993Y0395563
X026988Y0397976
X0256425Y0383794
X0232628Y0387976
X022798Y0389476
X0217954Y0441476
X019848Y0436476
X0198505Y0431476
X018948Y0437476
Y0442976
X0176694Y0437476
X018348Y0459976
X0189848Y0486476
X018998Y0492976
X019823Y0480476
X019748Y0511976
X0217679Y0495476
X018968Y0418076
X013398Y0426976
X013798Y0449976
X013223Y0455476
X011948Y0464976
X013348Y0479476
X013298Y0610976
X013673Y0620161
X013098Y0632976
X011823Y0638035
X0125513Y0658076
X013173Y0662358
X0106313Y0659876
X019998Y0657476
X019948Y0639976
X0199584Y0624917
X0218876Y0639917
X0218204Y0586357
X019848Y0586476
X0198755Y0581357
Y0576358
X018298Y0587476
X017648Y0582476
X018098Y0563976
T02
X000898Y0008976
X000648Y0015476
X000848Y0021976
X001548Y0024976
X002198Y0022476
X002498Y0015476
X002198Y0008476
X001548Y0005976
X026848Y0008976
X026598Y0015476
X026798Y0021976
X027498Y0024976
X028148Y0022476
X028448Y0015476
X028148Y0008476
X027498Y0005976
X010648Y0346976
X009998Y0344476
X009348Y0347476
X009098Y0353976
X009298Y0360476
X009998Y0363476
X010648Y0360976
X010948Y0353976
X026598
X026798Y0360476
X027498Y0363476
X028148Y0360976
X028448Y0353976
X028148Y0346976
X027498Y0344476
X026848Y0347476
Y0725476
X026598Y0731976
X026798Y0738476
X027498Y0741476
X028148Y0738976
X028448Y0731976
X028148Y0724976
X027498Y0722476
X002198Y0724976
X001548Y0722476
X000898Y0725476
X000648Y0731976
X000848Y0738476
X001548Y0741476
X002198Y0738976
X002498Y0731976
T03
X0215373Y0056976
X0234586
X0236836Y0184476
X0217623
X0125336Y0086976
X0106123
T04
X0192822Y0698933
Y0718618
T05
X013398Y0389476
Y0409161
X013348Y0511476
Y0531161
X013298Y0568633
Y0588318
X013323Y0686633
Y0706318
T06
X0172972Y0009843
X0182972
X0192972
X0193066Y0021752
X0183066
X0173066
X0007443Y0374991
Y0384991
Y0394991
Y0404991
X007948Y0735876
X008948
X012348
X013348
T07
X0011051Y010909
Y0118932
Y0128775
Y0153775
Y0163617
Y017346
Y0197771
Y0207613
Y0217456
Y0241275
Y0251117
Y026096
X0203769Y0355629
X0213769
X0223769
X0217822Y0460976
X020798
X0198137
Y0533576
X020798
X0217822
T08
X0263322Y0441476
Y0451476
Y0461476
Y0471476
Y0481476
Y0491476
Y0501476
Y0511476
Y0521476
Y0531476
X0273322
Y0521476
Y0511476
Y0501476
Y0491476
Y0481476
Y0471476
Y0461476
Y0451476
Y0441476
T09
X017148Y0468476
Y0478476
Y0518476
Y0538476
Y0555976
Y0565976
Y0605976
Y0625976
Y0642976
Y0652976
Y0692976
Y0712976
T10
X0250622Y0564257
Y0711895
T11
X007298Y0458476
Y0468476
Y0478476
X009298Y0483476
Y0473476
Y0463476
Y0453476
Y0621976
Y0631976
Y0641976
Y0651976
X007298Y0646976
Y0636976
Y0626976
T12
X005688Y0418476
Y0518476
Y0586976
Y0686976
T13
X001548Y0015476
X027498
X009998Y0353976
X027498
Y0731976
X001548
M30
