G04*
G04 #@! TF.GenerationSoftware,Altium Limited,Altium Designer,20.0.12 (288)*
G04*
G04 Layer_Physical_Order=1*
G04 Layer_Color=255*
%FSLAX25Y25*%
%MOIN*%
G70*
G01*
G75*
%ADD16C,0.00600*%
%ADD19R,0.09095X0.09921*%
%ADD20R,0.02913X0.11496*%
%ADD21R,0.11496X0.02913*%
%ADD22R,0.25591X0.09843*%
%ADD23R,0.07500X0.10984*%
%ADD24R,0.13622X0.05236*%
%ADD25R,0.05236X0.13622*%
%ADD26R,0.06299X0.13780*%
%ADD27R,0.05906X0.05512*%
%ADD28R,0.05512X0.05906*%
%ADD29R,0.01063X0.03386*%
%ADD30R,0.03386X0.01063*%
G04:AMPARAMS|DCode=31|XSize=70mil|YSize=70mil|CornerRadius=17.5mil|HoleSize=0mil|Usage=FLASHONLY|Rotation=90.000|XOffset=0mil|YOffset=0mil|HoleType=Round|Shape=RoundedRectangle|*
%AMROUNDEDRECTD31*
21,1,0.07000,0.03500,0,0,90.0*
21,1,0.03500,0.07000,0,0,90.0*
1,1,0.03500,0.01750,0.01750*
1,1,0.03500,0.01750,-0.01750*
1,1,0.03500,-0.01750,-0.01750*
1,1,0.03500,-0.01750,0.01750*
%
%ADD31ROUNDEDRECTD31*%
%ADD51R,0.09843X0.13780*%
%ADD52C,0.01000*%
%ADD53C,0.25591*%
%ADD54R,0.07795X0.07795*%
%ADD55C,0.07795*%
%ADD56R,0.06693X0.06693*%
%ADD57C,0.06693*%
%ADD58C,0.01772*%
%ADD59C,0.01968*%
G36*
X274217Y369900D02*
X274308Y369680D01*
X274392Y369457D01*
X274402Y369452D01*
X274407Y369441D01*
X274627Y369350D01*
X274844Y369251D01*
X275859Y369217D01*
X277860Y368947D01*
X279796Y368414D01*
X281643Y367627D01*
X283368Y366600D01*
X284940Y365351D01*
X286331Y363903D01*
X287515Y362281D01*
X288472Y360516D01*
X289183Y358639D01*
X289637Y356683D01*
X289820Y354747D01*
Y353653D01*
X289914Y353425D01*
X290007Y353197D01*
X290009Y353196D01*
X290010Y353194D01*
X290238Y353099D01*
X290464Y353003D01*
X290487Y352541D01*
Y16090D01*
X290280Y16012D01*
X290275Y16001D01*
X290265Y15997D01*
X290173Y15777D01*
X290075Y15560D01*
X290041Y14545D01*
X289770Y12544D01*
X289238Y10608D01*
X288451Y8761D01*
X287423Y7036D01*
X286174Y5464D01*
X284726Y4073D01*
X283105Y2889D01*
X281339Y1932D01*
X279462Y1220D01*
X277506Y766D01*
X275571Y584D01*
X274476D01*
X274440Y569D01*
X273994Y584D01*
X271993Y855D01*
X270057Y1387D01*
X268210Y2175D01*
X266485Y3202D01*
X264913Y4451D01*
X263522Y5899D01*
X262338Y7520D01*
X261381Y9286D01*
X260816Y10777D01*
Y26855D01*
X260625Y27314D01*
X260166Y27505D01*
X74866Y27505D01*
X74407Y27314D01*
X74217Y26855D01*
Y402D01*
X15603D01*
X15543Y427D01*
X15326Y525D01*
X14311Y559D01*
X12310Y830D01*
X10374Y1362D01*
X8527Y2149D01*
X6802Y3177D01*
X5230Y4426D01*
X3839Y5874D01*
X2655Y7495D01*
X1698Y9261D01*
X987Y11138D01*
X533Y13094D01*
X350Y15029D01*
Y16124D01*
X255Y16353D01*
X163Y16580D01*
X161Y16581D01*
X160Y16583D01*
X-13Y16655D01*
Y353739D01*
X210Y353823D01*
X215Y353834D01*
X225Y353838D01*
X317Y354058D01*
X415Y354275D01*
X449Y355290D01*
X720Y357291D01*
X1252Y359227D01*
X2039Y361074D01*
X3067Y362799D01*
X4316Y364371D01*
X5764Y365762D01*
X7385Y366946D01*
X9150Y367903D01*
X11028Y368615D01*
X12984Y369069D01*
X14919Y369251D01*
X16014D01*
X16145Y369305D01*
X18057Y369047D01*
X19993Y368514D01*
X21840Y367727D01*
X23565Y366699D01*
X25137Y365450D01*
X26528Y364002D01*
X27712Y362381D01*
X28669Y360616D01*
X29381Y358738D01*
X29835Y356782D01*
X29917Y355910D01*
Y350174D01*
X30107Y349715D01*
X30566Y349525D01*
X175518D01*
X175977Y349715D01*
X176168Y350174D01*
Y355426D01*
X176420Y357291D01*
X176952Y359227D01*
X177739Y361074D01*
X178767Y362799D01*
X180016Y364371D01*
X181464Y365762D01*
X183085Y366946D01*
X184851Y367903D01*
X186728Y368615D01*
X188684Y369069D01*
X190619Y369251D01*
X191714D01*
X191942Y369345D01*
X192170Y369438D01*
X192171Y369440D01*
X192173Y369441D01*
X192267Y369669D01*
X192363Y369896D01*
X192825Y369902D01*
X274216D01*
X274217Y369900D01*
D02*
G37*
%LPC*%
G36*
X57737Y344548D02*
X54237D01*
X53320Y344365D01*
X52850Y344051D01*
X26987D01*
X26527Y343861D01*
X22718Y340051D01*
X16987D01*
X16527Y339861D01*
X10527Y333861D01*
X10337Y333402D01*
Y298902D01*
X10527Y298442D01*
X10930Y298276D01*
Y297802D01*
X15043D01*
X15337Y297423D01*
Y292671D01*
X1027Y278361D01*
X837Y277902D01*
Y83902D01*
X1027Y83442D01*
X7027Y77442D01*
X7337Y77314D01*
Y35171D01*
X6989Y34823D01*
X6940Y34703D01*
X6849Y34612D01*
Y34483D01*
X6799Y34363D01*
X6849Y34244D01*
Y34115D01*
X7040Y33653D01*
X7131Y33562D01*
X7181Y33442D01*
X7300Y33393D01*
X7391Y33302D01*
X7521D01*
X7640Y33252D01*
X14987D01*
X15446Y33442D01*
X15636Y33902D01*
Y47680D01*
X16098Y47872D01*
X24337Y39633D01*
Y34402D01*
X24527Y33942D01*
X24987Y33752D01*
X45487D01*
X45946Y33942D01*
X45966Y33991D01*
X46114D01*
Y34349D01*
X46136Y34402D01*
Y54402D01*
X45946Y54861D01*
X46330Y55139D01*
X46837Y54633D01*
Y34902D01*
X47027Y34442D01*
X50837Y30633D01*
Y16402D01*
X50930Y16178D01*
Y15805D01*
X51358D01*
X51487Y15752D01*
X64487D01*
X64615Y15805D01*
X65043D01*
Y16178D01*
X65136Y16402D01*
Y29902D01*
X64946Y30361D01*
X64487Y30551D01*
X61756D01*
X57636Y34671D01*
Y109133D01*
X57756Y109252D01*
X71218D01*
X80027Y100442D01*
X80487Y100252D01*
X81237D01*
Y100042D01*
X88736D01*
Y100252D01*
X89487D01*
X89946Y100442D01*
X90136Y100902D01*
Y108633D01*
X95756Y114252D01*
X117663D01*
X118056Y114415D01*
X118640D01*
X119038Y113933D01*
Y112882D01*
X116523D01*
X116172Y112812D01*
X115874Y112613D01*
X114537Y111277D01*
X114400Y111249D01*
X114102Y111050D01*
X113903Y110753D01*
X113833Y110402D01*
X113903Y110050D01*
X114102Y109753D01*
X114400Y109554D01*
X114751Y109484D01*
X114960D01*
X115311Y109554D01*
X115609Y109753D01*
X116903Y111047D01*
X117663D01*
Y108865D01*
X121521D01*
Y105006D01*
X123704D01*
Y89719D01*
X119568D01*
Y82613D01*
X123704D01*
Y79219D01*
X119631D01*
Y72113D01*
X123704D01*
Y68719D01*
X119568D01*
Y61613D01*
X123704D01*
Y58219D01*
X119631D01*
Y51113D01*
X123704D01*
Y47719D01*
X119694D01*
Y40613D01*
X123704D01*
Y37219D01*
X119568D01*
Y30113D01*
X126280D01*
Y37219D01*
X125539D01*
Y40613D01*
X126406D01*
Y47719D01*
X125539D01*
Y51113D01*
X126343D01*
Y58219D01*
X125539D01*
Y61613D01*
X126280D01*
Y68719D01*
X125539D01*
Y72113D01*
X126343D01*
Y79219D01*
X125539D01*
Y82613D01*
X126280D01*
Y89719D01*
X125539D01*
Y98639D01*
X126039Y98960D01*
X126407Y98887D01*
X126987Y99002D01*
X127478Y99330D01*
X127528Y99405D01*
X128130D01*
X128180Y99330D01*
X128671Y99002D01*
X129251Y98887D01*
X129831Y99002D01*
X130322Y99330D01*
X130651Y99822D01*
X130766Y100402D01*
X130651Y100981D01*
X130322Y101473D01*
X129831Y101801D01*
X129476Y101872D01*
Y102832D01*
X129976Y102942D01*
X130102Y102753D01*
X130400Y102554D01*
X130751Y102484D01*
X131102Y102554D01*
X131400Y102753D01*
X131599Y103050D01*
X131669Y103402D01*
Y103479D01*
X131993Y103668D01*
X132157Y103698D01*
X133686Y102169D01*
Y101477D01*
X133680Y101473D01*
X133352Y100981D01*
X133236Y100402D01*
X133352Y99822D01*
X133680Y99330D01*
X134171Y99002D01*
X134751Y98887D01*
X135331Y99002D01*
X135822Y99330D01*
X136151Y99822D01*
X136266Y100402D01*
X136151Y100981D01*
X135822Y101473D01*
X135521Y101674D01*
Y102549D01*
X135451Y102900D01*
X135252Y103198D01*
X133851Y104600D01*
X133627Y105006D01*
X133627D01*
X133627Y105006D01*
Y108865D01*
X135719D01*
X135736Y108838D01*
X136322Y108253D01*
X136620Y108054D01*
X136971Y107984D01*
X140251D01*
X140602Y108054D01*
X140900Y108253D01*
X141070Y108423D01*
X141251Y108387D01*
X141831Y108502D01*
X142322Y108830D01*
X142651Y109322D01*
X142766Y109902D01*
X142651Y110481D01*
X142322Y110973D01*
X141831Y111301D01*
X141251Y111416D01*
X140671Y111301D01*
X140180Y110973D01*
X139851Y110481D01*
X139736Y109902D01*
X139669Y109819D01*
X137485D01*
Y111015D01*
X138093D01*
X138251Y110984D01*
X138602Y111054D01*
X138900Y111253D01*
X139099Y111550D01*
X139169Y111902D01*
X139099Y112253D01*
X138934Y112500D01*
X139007Y112793D01*
X139143Y113000D01*
X140067D01*
X140180Y112830D01*
X140671Y112502D01*
X141251Y112387D01*
X141831Y112502D01*
X142322Y112830D01*
X142651Y113322D01*
X142766Y113902D01*
X142651Y114481D01*
X142649Y114484D01*
X142916Y114984D01*
X143866D01*
X144694Y114157D01*
Y108349D01*
X151406D01*
Y114411D01*
X151867Y114602D01*
X152337Y114133D01*
Y108902D01*
X152527Y108442D01*
X152568Y108426D01*
Y108349D01*
X152753D01*
X152987Y108252D01*
X159487D01*
X159946Y108442D01*
X160136Y108902D01*
Y114902D01*
X159946Y115361D01*
X156636Y118671D01*
Y123902D01*
X156446Y124361D01*
X146946Y133861D01*
X146787Y133926D01*
Y133994D01*
X146625D01*
X146487Y134051D01*
X127987D01*
X127866Y134001D01*
X127725Y134059D01*
X106925Y154859D01*
X106466Y155049D01*
X56866D01*
X56407Y154859D01*
X40966Y139418D01*
X35116Y145269D01*
Y164800D01*
X35019Y165034D01*
X39735Y169751D01*
X44715D01*
X44906Y169289D01*
X43707Y168089D01*
X43517Y167630D01*
Y159200D01*
X43707Y158741D01*
X45948Y156499D01*
X46408Y156309D01*
X106825D01*
X107284Y156499D01*
X122725Y171941D01*
X122916Y172400D01*
Y224600D01*
X122725Y225059D01*
X108216Y239569D01*
Y251600D01*
X108025Y252059D01*
X107566Y252249D01*
X80366D01*
X80138Y252155D01*
X79910Y252062D01*
X79909Y252060D01*
X79907Y252059D01*
X79812Y251831D01*
X79717Y251604D01*
X79619Y237359D01*
X79620Y237358D01*
X79619Y237357D01*
X79714Y237127D01*
X79806Y236899D01*
X79807Y236898D01*
X79808Y236897D01*
X80160Y236542D01*
X80161Y236542D01*
X80162Y236541D01*
X80391Y236446D01*
X80619Y236351D01*
X80620Y236351D01*
X80621Y236351D01*
X98897D01*
X113317Y221931D01*
Y170679D01*
X108287Y165649D01*
X80735D01*
X76935Y169449D01*
Y170327D01*
X77435Y170535D01*
X81027Y166942D01*
X81487Y166752D01*
X106987D01*
X107446Y166942D01*
X110946Y170442D01*
X111136Y170902D01*
Y183402D01*
X110946Y183861D01*
X108446Y186361D01*
X107987Y186551D01*
X71756D01*
X57136Y201171D01*
Y209402D01*
X56946Y209861D01*
X43636Y223171D01*
Y243633D01*
X44375Y244372D01*
X44837Y244180D01*
Y235902D01*
X45027Y235442D01*
X45487Y235252D01*
X76487D01*
X76946Y235442D01*
X77446Y235942D01*
X77636Y236402D01*
Y260402D01*
X77446Y260861D01*
X73136Y265171D01*
Y307902D01*
X72946Y308361D01*
X71446Y309861D01*
X70987Y310051D01*
X63487D01*
X63027Y309861D01*
X61527Y308361D01*
X61337Y307902D01*
Y264402D01*
X61527Y263942D01*
X70837Y254633D01*
Y246671D01*
X69718Y245551D01*
X56708D01*
X56516Y246013D01*
X57446Y246942D01*
X57636Y247402D01*
Y253902D01*
X57446Y254361D01*
X55946Y255861D01*
X55849Y256346D01*
X57446Y257942D01*
X57636Y258402D01*
Y287402D01*
X57446Y287861D01*
X48636Y296671D01*
Y323633D01*
X53256Y328252D01*
X72350D01*
X72820Y327938D01*
X73737Y327755D01*
X77237D01*
X78154Y327938D01*
X78380Y328089D01*
X80337Y326133D01*
Y310902D01*
X80379Y310801D01*
Y310380D01*
X80677D01*
X80987Y310252D01*
X106487D01*
X106796Y310380D01*
X107169D01*
Y321423D01*
X107136D01*
Y333402D01*
X106946Y333861D01*
X105446Y335361D01*
X104987Y335551D01*
X78624D01*
X78154Y335865D01*
X77237Y336048D01*
X73737D01*
X72820Y335865D01*
X72350Y335551D01*
X42987D01*
X42527Y335361D01*
X36718Y329551D01*
X23208D01*
X23054Y330051D01*
X29946Y336942D01*
X30074Y337252D01*
X52345D01*
X52542Y336957D01*
X53320Y336438D01*
X54237Y336256D01*
X57737D01*
X58654Y336438D01*
X59431Y336957D01*
X59628Y337252D01*
X105218D01*
X117027Y325442D01*
X117487Y325252D01*
X161337D01*
Y295402D01*
X161527Y294942D01*
X164027Y292442D01*
X164487Y292252D01*
X165587D01*
Y291991D01*
X170479D01*
X171837Y290633D01*
Y276671D01*
X171564Y276398D01*
X171374Y275939D01*
Y275640D01*
X171076D01*
X170616Y275450D01*
X169027Y273861D01*
X168837Y273402D01*
Y259402D01*
X169027Y258942D01*
X169957Y258013D01*
X169765Y257551D01*
X161487D01*
X161027Y257361D01*
X160837Y256902D01*
Y184902D01*
X161027Y184442D01*
X163658Y181811D01*
X163467Y181349D01*
X161666D01*
X161207Y181159D01*
X158207Y178159D01*
X158017Y177700D01*
Y141668D01*
X158207Y141208D01*
X168202Y131214D01*
Y127669D01*
X175307D01*
Y128050D01*
X178702D01*
Y127606D01*
X185807D01*
Y128050D01*
X189202D01*
Y127669D01*
X196307D01*
Y128050D01*
X199702D01*
Y127669D01*
X206807D01*
Y128051D01*
X210202D01*
Y127606D01*
X217307D01*
Y128051D01*
X220702D01*
Y127606D01*
X227807D01*
Y128051D01*
X234525D01*
Y125094D01*
X230666D01*
Y121051D01*
X229487D01*
X229027Y120861D01*
X227218Y119051D01*
X199487D01*
X199027Y118861D01*
X196058Y115891D01*
X195737D01*
Y100912D01*
X196101D01*
X196487Y100752D01*
X201291D01*
X201330Y100768D01*
X201371Y100757D01*
X201555Y100861D01*
X201677Y100912D01*
X203236D01*
Y101780D01*
X217341D01*
Y101152D01*
X217523Y100235D01*
X218042Y99457D01*
X218820Y98938D01*
X219737Y98756D01*
X223237D01*
X224154Y98938D01*
X224931Y99457D01*
X225450Y100235D01*
X225633Y101152D01*
Y104652D01*
X225450Y105569D01*
X224931Y106346D01*
X224154Y106865D01*
X223237Y107048D01*
X219737D01*
X218820Y106865D01*
X218042Y106346D01*
X217523Y105569D01*
X217341Y104652D01*
Y104023D01*
X203236D01*
Y107733D01*
X210256Y114752D01*
X231744D01*
X232068Y114252D01*
X232042Y114120D01*
Y113069D01*
X229526D01*
X229175Y112999D01*
X228877Y112800D01*
X227541Y111463D01*
X227403Y111436D01*
X227106Y111237D01*
X226907Y110939D01*
X226837Y110588D01*
X226907Y110237D01*
X227106Y109939D01*
X227403Y109740D01*
X227754Y109670D01*
X227963D01*
X228314Y109740D01*
X228612Y109939D01*
X229906Y111233D01*
X230666D01*
Y109051D01*
X234525D01*
Y105193D01*
X236569D01*
Y90454D01*
X234131D01*
Y83349D01*
X236569D01*
Y79954D01*
X234194D01*
Y72849D01*
X236569D01*
Y69454D01*
X234131D01*
Y62349D01*
X236569D01*
Y58954D01*
X234194D01*
Y51849D01*
X236569D01*
Y48454D01*
X234257D01*
Y41349D01*
X236569D01*
Y37954D01*
X234131D01*
Y30849D01*
X240843D01*
Y37954D01*
X238404D01*
Y41349D01*
X240968D01*
Y48454D01*
X238404D01*
Y51849D01*
X240905D01*
Y58954D01*
X238404D01*
Y62349D01*
X240843D01*
Y69454D01*
X238404D01*
Y72849D01*
X240905D01*
Y79954D01*
X238404D01*
Y83349D01*
X240843D01*
Y90454D01*
X238404D01*
Y98826D01*
X238904Y99146D01*
X239272Y99073D01*
X239852Y99189D01*
X240344Y99517D01*
X240463Y99695D01*
X241064D01*
X241183Y99517D01*
X241675Y99189D01*
X242254Y99073D01*
X242834Y99189D01*
X243326Y99517D01*
X243654Y100008D01*
X243769Y100588D01*
X243654Y101168D01*
X243326Y101659D01*
X242834Y101988D01*
X242479Y102058D01*
Y103018D01*
X242979Y103129D01*
X243106Y102939D01*
X243403Y102740D01*
X243755Y102671D01*
X244106Y102740D01*
X244403Y102939D01*
X244602Y103237D01*
X244672Y103588D01*
Y103666D01*
X244996Y103855D01*
X245161Y103884D01*
X246689Y102356D01*
Y101663D01*
X246683Y101659D01*
X246355Y101168D01*
X246240Y100588D01*
X246355Y100008D01*
X246683Y99517D01*
X247175Y99189D01*
X247755Y99073D01*
X248334Y99189D01*
X248826Y99517D01*
X249154Y100008D01*
X249269Y100588D01*
X249154Y101168D01*
X248826Y101659D01*
X248524Y101861D01*
Y102736D01*
X248455Y103087D01*
X248256Y103385D01*
X246854Y104786D01*
X246630Y105193D01*
X246630D01*
X246630Y105193D01*
Y109051D01*
X248722D01*
X248740Y109025D01*
X249325Y108439D01*
X249623Y108240D01*
X249974Y108170D01*
X253255D01*
X253606Y108240D01*
X253903Y108439D01*
X254073Y108609D01*
X254255Y108573D01*
X254834Y108688D01*
X255326Y109017D01*
X255654Y109508D01*
X255769Y110088D01*
X255654Y110668D01*
X255326Y111159D01*
X254834Y111488D01*
X254255Y111603D01*
X253675Y111488D01*
X253183Y111159D01*
X252855Y110668D01*
X252740Y110088D01*
X252672Y110006D01*
X250488D01*
Y111202D01*
X251096D01*
X251255Y111170D01*
X251606Y111240D01*
X251903Y111439D01*
X252102Y111737D01*
X252172Y112088D01*
X252102Y112439D01*
X251937Y112686D01*
X252011Y112980D01*
X252147Y113186D01*
X253070D01*
X253183Y113017D01*
X253675Y112689D01*
X254255Y112573D01*
X254834Y112689D01*
X255326Y113017D01*
X255654Y113508D01*
X255769Y114088D01*
X255654Y114668D01*
X255652Y114671D01*
X255920Y115171D01*
X262194D01*
Y109849D01*
X268905D01*
Y115411D01*
X269368Y115602D01*
X269837Y115133D01*
Y110402D01*
X270027Y109942D01*
X270068Y109926D01*
Y109849D01*
X270253D01*
X270487Y109752D01*
X276487D01*
X276720Y109849D01*
X276780D01*
Y109873D01*
X276946Y109942D01*
X277136Y110402D01*
Y119902D01*
X276946Y120361D01*
X266636Y130671D01*
Y134902D01*
X266446Y135361D01*
X265987Y135551D01*
X252264D01*
X252003Y136013D01*
X251953Y136132D01*
Y136261D01*
X251862Y136353D01*
X251812Y136472D01*
X231925Y156359D01*
X231466Y156549D01*
X181866D01*
X181407Y156359D01*
X172116Y147069D01*
X165116Y154069D01*
X165116Y161300D01*
Y166731D01*
Y171251D01*
X169715D01*
X169906Y170789D01*
X168707Y169589D01*
X168517Y169130D01*
Y160700D01*
X168707Y160241D01*
X170949Y157999D01*
X171408Y157809D01*
X231825D01*
X232284Y157999D01*
X247725Y173441D01*
X247916Y173900D01*
Y226100D01*
X247725Y226559D01*
X233216Y241069D01*
Y253100D01*
X233025Y253559D01*
X232566Y253749D01*
X205366D01*
X205138Y253655D01*
X204910Y253562D01*
X204909Y253560D01*
X204907Y253559D01*
X204812Y253331D01*
X204717Y253104D01*
X204619Y238859D01*
X204620Y238858D01*
X204619Y238857D01*
X204714Y238627D01*
X204806Y238399D01*
X204807Y238398D01*
X204808Y238397D01*
X205160Y238042D01*
X205161Y238042D01*
X205162Y238041D01*
X205391Y237946D01*
X205619Y237851D01*
X205620Y237851D01*
X205621Y237851D01*
X223897D01*
X238317Y223431D01*
Y172179D01*
X233287Y167149D01*
X205735D01*
X201935Y170949D01*
Y171827D01*
X202435Y172035D01*
X206027Y168442D01*
X206487Y168252D01*
X231987D01*
X232446Y168442D01*
X235946Y171942D01*
X236136Y172402D01*
Y184902D01*
X235946Y185361D01*
X233446Y187861D01*
X232987Y188051D01*
X196756D01*
X182136Y202671D01*
Y210902D01*
X181946Y211361D01*
X168636Y224671D01*
Y245133D01*
X169477Y245974D01*
X169548Y245990D01*
X169928Y245683D01*
X169811Y245402D01*
Y236402D01*
X170001Y235942D01*
X170460Y235752D01*
X201460D01*
X201920Y235942D01*
X202419Y236442D01*
X202610Y236902D01*
Y260902D01*
X202419Y261361D01*
X198110Y265671D01*
Y308402D01*
X197919Y308861D01*
X196420Y310361D01*
X195960Y310551D01*
X188460D01*
X188001Y310361D01*
X186501Y308861D01*
X186311Y308402D01*
Y264902D01*
X186501Y264442D01*
X195811Y255133D01*
Y247171D01*
X194691Y246051D01*
X193539D01*
X193080Y245861D01*
X193012Y245695D01*
X186962D01*
X186893Y245861D01*
X186434Y246051D01*
X176773D01*
X176661Y246520D01*
X177222Y246752D01*
X180487D01*
X180946Y246942D01*
X182446Y248442D01*
X182636Y248902D01*
Y255402D01*
X182446Y255861D01*
X180946Y257361D01*
X180849Y257846D01*
X182446Y259442D01*
X182636Y259902D01*
Y288902D01*
X182446Y289361D01*
X173636Y298171D01*
Y313841D01*
X173929D01*
Y324962D01*
X173929D01*
X173955Y325451D01*
X178256Y329752D01*
X203218D01*
X205337Y327633D01*
Y312402D01*
X205485Y312045D01*
Y311880D01*
X205677D01*
X205987Y311752D01*
X231487D01*
X231796Y311880D01*
X232276D01*
Y322923D01*
X232136D01*
Y334902D01*
X231946Y335361D01*
X230446Y336861D01*
X229987Y337051D01*
X169636D01*
Y343402D01*
X169446Y343861D01*
X168987Y344051D01*
X59124D01*
X58654Y344365D01*
X57737Y344548D01*
D02*
G37*
G36*
X175307Y126507D02*
X168202D01*
Y119795D01*
X175307D01*
Y126507D01*
D02*
G37*
G36*
X232968Y90454D02*
X226257D01*
Y87819D01*
X222665D01*
Y88695D01*
X215560D01*
Y86319D01*
X214224D01*
X214121Y86473D01*
X213629Y86801D01*
X213050Y86917D01*
X212470Y86801D01*
X211978Y86473D01*
X211650Y85981D01*
X211535Y85402D01*
X211650Y84822D01*
X211978Y84330D01*
X212470Y84002D01*
X213050Y83887D01*
X213629Y84002D01*
X214121Y84330D01*
X214224Y84484D01*
X215560D01*
Y81983D01*
X222665D01*
Y85984D01*
X226257D01*
Y83349D01*
X232968D01*
Y90454D01*
D02*
G37*
G36*
X118405Y89719D02*
X111694D01*
Y87084D01*
X108102D01*
Y87959D01*
X100997D01*
Y85584D01*
X99660D01*
X99558Y85737D01*
X99066Y86066D01*
X98487Y86181D01*
X97907Y86066D01*
X97415Y85737D01*
X97087Y85246D01*
X96972Y84666D01*
X97087Y84086D01*
X97415Y83595D01*
X97907Y83266D01*
X98487Y83151D01*
X99066Y83266D01*
X99558Y83595D01*
X99660Y83748D01*
X100997D01*
Y81247D01*
X108102D01*
Y85248D01*
X111694D01*
Y82613D01*
X118405D01*
Y89719D01*
D02*
G37*
G36*
X222665Y80821D02*
X215560D01*
Y74109D01*
X222665D01*
Y76547D01*
X226320D01*
Y72849D01*
X233032D01*
Y79954D01*
X226320D01*
Y78382D01*
X222665D01*
Y80821D01*
D02*
G37*
G36*
X108102Y80085D02*
X100997D01*
Y73373D01*
X108102D01*
Y75811D01*
X111757D01*
Y72113D01*
X118468D01*
Y79219D01*
X111757D01*
Y77647D01*
X108102D01*
Y80085D01*
D02*
G37*
G36*
X232968Y69454D02*
X226257D01*
Y66819D01*
X225223D01*
X225121Y66973D01*
X224629Y67301D01*
X224050Y67417D01*
X223470Y67301D01*
X222978Y66973D01*
X222650Y66481D01*
X222535Y65902D01*
X222650Y65322D01*
X222978Y64830D01*
X223470Y64502D01*
X224050Y64387D01*
X224629Y64502D01*
X225121Y64830D01*
X225223Y64984D01*
X226257D01*
Y62349D01*
X232968D01*
Y69454D01*
D02*
G37*
G36*
X118405Y68719D02*
X111694D01*
Y66084D01*
X110661D01*
X110558Y66237D01*
X110066Y66566D01*
X109487Y66681D01*
X108907Y66566D01*
X108415Y66237D01*
X108087Y65746D01*
X107972Y65166D01*
X108087Y64586D01*
X108415Y64095D01*
X108907Y63766D01*
X109487Y63651D01*
X110066Y63766D01*
X110558Y64095D01*
X110661Y64248D01*
X111694D01*
Y61613D01*
X118405D01*
Y68719D01*
D02*
G37*
G36*
X213087Y68958D02*
X200391D01*
Y64845D01*
X213087D01*
Y68958D01*
D02*
G37*
G36*
X199583D02*
X186887D01*
Y64845D01*
X199583D01*
Y68958D01*
D02*
G37*
G36*
X98587Y65458D02*
X85891D01*
Y61345D01*
X98587D01*
Y65458D01*
D02*
G37*
G36*
X85083D02*
X72387D01*
Y61345D01*
X85083D01*
Y65458D01*
D02*
G37*
G36*
X213087Y63958D02*
X200391D01*
Y59845D01*
X213087D01*
Y63958D01*
D02*
G37*
G36*
X199583D02*
X186887D01*
Y59845D01*
X199583D01*
Y63958D01*
D02*
G37*
G36*
X98587Y60458D02*
X85891D01*
Y56345D01*
X98587D01*
Y60458D01*
D02*
G37*
G36*
X85083D02*
X72387D01*
Y56345D01*
X85083D01*
Y60458D01*
D02*
G37*
G36*
X233032Y58954D02*
X226320D01*
Y56319D01*
X225223D01*
X225121Y56473D01*
X224629Y56801D01*
X224050Y56916D01*
X223470Y56801D01*
X222978Y56473D01*
X222650Y55981D01*
X222535Y55402D01*
X222650Y54822D01*
X222978Y54330D01*
X223470Y54002D01*
X224050Y53887D01*
X224629Y54002D01*
X225121Y54330D01*
X225223Y54484D01*
X226320D01*
Y51849D01*
X233032D01*
Y58954D01*
D02*
G37*
G36*
X118468Y58219D02*
X111757D01*
Y55584D01*
X110661D01*
X110558Y55737D01*
X110066Y56066D01*
X109487Y56181D01*
X108907Y56066D01*
X108415Y55737D01*
X108087Y55246D01*
X107972Y54666D01*
X108087Y54086D01*
X108415Y53595D01*
X108907Y53266D01*
X109487Y53151D01*
X110066Y53266D01*
X110558Y53595D01*
X110661Y53748D01*
X111757D01*
Y51113D01*
X118468D01*
Y58219D01*
D02*
G37*
G36*
X213087Y58958D02*
X200391D01*
Y54845D01*
X213087D01*
Y58958D01*
D02*
G37*
G36*
X199583D02*
X186887D01*
Y54845D01*
X199583D01*
Y58958D01*
D02*
G37*
G36*
X98587Y55458D02*
X85891D01*
Y51345D01*
X98587D01*
Y55458D01*
D02*
G37*
G36*
X85083D02*
X72387D01*
Y51345D01*
X85083D01*
Y55458D01*
D02*
G37*
G36*
X233095Y48454D02*
X226383D01*
Y45819D01*
X225724D01*
X225621Y45973D01*
X225129Y46301D01*
X224550Y46417D01*
X223970Y46301D01*
X223478Y45973D01*
X223150Y45481D01*
X223035Y44902D01*
X223150Y44322D01*
X223478Y43830D01*
X223970Y43502D01*
X224550Y43387D01*
X225129Y43502D01*
X225621Y43830D01*
X225724Y43984D01*
X226383D01*
Y41349D01*
X233095D01*
Y48454D01*
D02*
G37*
G36*
X118532Y47719D02*
X111820D01*
Y45084D01*
X111161D01*
X111058Y45237D01*
X110566Y45566D01*
X109987Y45681D01*
X109407Y45566D01*
X108915Y45237D01*
X108587Y44746D01*
X108472Y44166D01*
X108587Y43586D01*
X108915Y43095D01*
X109407Y42766D01*
X109987Y42651D01*
X110566Y42766D01*
X111058Y43095D01*
X111161Y43248D01*
X111820D01*
Y40613D01*
X118532D01*
Y47719D01*
D02*
G37*
G36*
X232968Y37954D02*
X226257D01*
Y35319D01*
X225724D01*
X225621Y35473D01*
X225129Y35801D01*
X224550Y35917D01*
X223970Y35801D01*
X223478Y35473D01*
X223150Y34981D01*
X223035Y34402D01*
X223150Y33822D01*
X223478Y33330D01*
X223970Y33002D01*
X224550Y32887D01*
X225129Y33002D01*
X225621Y33330D01*
X225724Y33484D01*
X226257D01*
Y30849D01*
X232968D01*
Y37954D01*
D02*
G37*
G36*
X118405Y37219D02*
X111694D01*
Y35059D01*
X111666Y35033D01*
X111194Y34837D01*
X110852Y35066D01*
X110273Y35181D01*
X109693Y35066D01*
X109201Y34737D01*
X108873Y34246D01*
X108757Y33666D01*
X108873Y33086D01*
X109201Y32595D01*
X109693Y32266D01*
X110273Y32151D01*
X110852Y32266D01*
X111194Y32495D01*
X111666Y32299D01*
X111694Y32273D01*
Y30113D01*
X118405D01*
Y37219D01*
D02*
G37*
%LPD*%
G36*
X168987Y336402D02*
X229987D01*
X231487Y334902D01*
Y312402D01*
X205987D01*
Y327902D01*
X203487Y330402D01*
X177987D01*
X172987Y325402D01*
Y297902D01*
X181987Y288902D01*
Y259902D01*
X179987Y257902D01*
X170987D01*
X169487Y259402D01*
Y273402D01*
X171076Y274991D01*
X172024D01*
Y275939D01*
X172487Y276402D01*
Y290902D01*
X170487Y292902D01*
X164487D01*
X161987Y295402D01*
Y325902D01*
X117487D01*
X105487Y337902D01*
X29487D01*
Y337402D01*
X22487Y330402D01*
X18487D01*
X14987Y326902D01*
Y299402D01*
X14487Y298902D01*
X10987D01*
Y333402D01*
X16987Y339402D01*
X22987D01*
X26987Y343402D01*
X168987D01*
Y336402D01*
D02*
G37*
G36*
X106487Y333402D02*
Y310902D01*
X80987D01*
Y326402D01*
X78487Y328902D01*
X52987D01*
X47987Y323902D01*
Y296402D01*
X56987Y287402D01*
Y258402D01*
X54987Y256402D01*
X45987D01*
X44487Y257902D01*
Y271902D01*
X47487Y274902D01*
Y289402D01*
X45487Y291402D01*
X39487D01*
X36987Y293902D01*
Y311902D01*
X16487D01*
Y325402D01*
X19987Y328902D01*
X36987D01*
X42987Y334902D01*
X104987D01*
X106487Y333402D01*
D02*
G37*
G36*
X181987Y255402D02*
Y248902D01*
X180487Y247402D01*
X169987D01*
X167987Y245402D01*
Y224402D01*
X181487Y210902D01*
Y202402D01*
X196487Y187402D01*
X232987D01*
X235487Y184902D01*
Y172402D01*
X231987Y168902D01*
X206487D01*
X202487Y172902D01*
Y179402D01*
X200487Y181402D01*
X164987D01*
X161487Y184902D01*
Y256902D01*
X173391D01*
X174312Y256520D01*
X175487Y256365D01*
X176661Y256520D01*
X177583Y256902D01*
X180487D01*
X181987Y255402D01*
D02*
G37*
G36*
X197460Y308402D02*
Y265402D01*
X201960Y260902D01*
Y236902D01*
X201460Y236402D01*
X170460D01*
Y245402D01*
X186434D01*
Y245046D01*
X193539D01*
Y245402D01*
X194960D01*
X196460Y246902D01*
Y255402D01*
X186960Y264902D01*
Y308402D01*
X188460Y309902D01*
X195960D01*
X197460Y308402D01*
D02*
G37*
G36*
X72487Y307902D02*
Y264902D01*
X76987Y260402D01*
Y236402D01*
X76487Y235902D01*
X45487D01*
Y244902D01*
X69987D01*
X71487Y246402D01*
Y254902D01*
X61987Y264402D01*
Y307902D01*
X63487Y309402D01*
X70987D01*
X72487Y307902D01*
D02*
G37*
G36*
X201147Y179823D02*
X200818Y179459D01*
X200358Y179649D01*
X185687D01*
X185616Y179620D01*
X185576D01*
Y179603D01*
X185228Y179459D01*
X185038Y179000D01*
Y174915D01*
X181722Y171598D01*
X180436D01*
X180245Y172060D01*
X181625Y173441D01*
X181816Y173900D01*
Y178800D01*
X181625Y179259D01*
X180594Y180290D01*
X180786Y180752D01*
X200218D01*
X201147Y179823D01*
D02*
G37*
G36*
X76147Y178323D02*
X75818Y177959D01*
X75358Y178149D01*
X60687D01*
X60228Y177959D01*
X60038Y177500D01*
Y173415D01*
X56722Y170098D01*
X55436D01*
X55245Y170560D01*
X56625Y171941D01*
X56816Y172400D01*
Y177300D01*
X56625Y177759D01*
X55594Y178790D01*
X55786Y179252D01*
X75218D01*
X76147Y178323D01*
D02*
G37*
G36*
X56987Y253902D02*
Y247402D01*
X55487Y245902D01*
X44987D01*
X42987Y243902D01*
Y222902D01*
X56487Y209402D01*
Y200902D01*
X71487Y185902D01*
X107987D01*
X110487Y183402D01*
Y170902D01*
X106987Y167402D01*
X81487D01*
X77487Y171402D01*
Y177902D01*
X75487Y179902D01*
X39987D01*
X36487Y183402D01*
Y255402D01*
X55487D01*
X56987Y253902D01*
D02*
G37*
G36*
X232566Y240800D02*
X247266Y226100D01*
Y173900D01*
X231825Y158458D01*
X171408D01*
X169166Y160700D01*
Y169130D01*
X170985Y170949D01*
X181991D01*
X185687Y174646D01*
Y179000D01*
X200358D01*
X201286Y178073D01*
Y170680D01*
X205466Y166500D01*
X233556D01*
X238966Y171910D01*
Y223700D01*
X224166Y238500D01*
X205621D01*
X205269Y238855D01*
X205366Y253100D01*
X232566D01*
Y240800D01*
D02*
G37*
G36*
X107566Y239300D02*
X122266Y224600D01*
Y172400D01*
X106825Y156958D01*
X46408D01*
X44166Y159200D01*
Y167630D01*
X45985Y169449D01*
X56991D01*
X60687Y173146D01*
Y177500D01*
X75358D01*
X76286Y176573D01*
Y169180D01*
X80466Y165000D01*
X108556D01*
X113966Y170410D01*
Y222200D01*
X99166Y237000D01*
X80621D01*
X80269Y237355D01*
X80366Y251600D01*
X107566D01*
Y239300D01*
D02*
G37*
G36*
X181166Y178800D02*
Y173900D01*
X179166Y171900D01*
X164466D01*
Y166731D01*
Y161300D01*
X164466Y153800D01*
X172116Y146150D01*
X181866Y155900D01*
X231466D01*
X251353Y136013D01*
X251162Y135551D01*
X244487D01*
X244027Y135361D01*
X240527Y131861D01*
X240337Y131402D01*
Y126716D01*
X239837Y126508D01*
X237646Y128700D01*
X171634Y128700D01*
X158666Y141668D01*
Y177700D01*
X161666Y180700D01*
X179266D01*
X181166Y178800D01*
D02*
G37*
G36*
X56166Y177300D02*
Y172400D01*
X54166Y170400D01*
X39466D01*
X34166Y165100D01*
X34466Y164800D01*
Y145000D01*
X40966Y138500D01*
X56866Y154400D01*
X106466D01*
X127266Y133600D01*
X127337Y133387D01*
Y124902D01*
X127366Y124832D01*
Y121800D01*
X126719Y121153D01*
X115172D01*
Y124673D01*
X113804Y126042D01*
Y126258D01*
X113588D01*
X112646Y127200D01*
X41366D01*
X26625Y141941D01*
Y169449D01*
X26915D01*
X36666Y179200D01*
X54266D01*
X56166Y177300D01*
D02*
G37*
G36*
X113129Y125798D02*
X113281Y125735D01*
X113345Y125583D01*
X114523Y124404D01*
Y121153D01*
X114612Y120937D01*
X114535Y120412D01*
X114460Y120293D01*
X112718Y118551D01*
X84987D01*
X84527Y118361D01*
X81527Y115361D01*
X81399Y115051D01*
X67256D01*
X64636Y117671D01*
Y123402D01*
X64446Y123861D01*
X62256Y126051D01*
X62463Y126551D01*
X112377D01*
X113129Y125798D01*
D02*
G37*
G36*
X265987Y130402D02*
X276487Y119902D01*
Y110402D01*
X270487D01*
Y115402D01*
X268487Y117402D01*
X246099D01*
Y124562D01*
X245987D01*
Y124902D01*
X240987D01*
Y131402D01*
X244487Y134902D01*
X265987D01*
Y130402D01*
D02*
G37*
G36*
X155987Y123902D02*
Y118402D01*
X159487Y114902D01*
Y108902D01*
X152987D01*
Y114402D01*
X150487Y116902D01*
X137485D01*
Y117033D01*
X133487D01*
Y124902D01*
X127987D01*
Y133402D01*
X146487D01*
X155987Y123902D01*
D02*
G37*
G36*
X234487Y115402D02*
X209987D01*
X202487Y107902D01*
Y104791D01*
X202025Y104599D01*
X200608Y106016D01*
Y108402D01*
X200523Y108831D01*
X200280Y109195D01*
X199916Y109438D01*
X199487Y109523D01*
X199057Y109438D01*
X198694Y109195D01*
X198451Y108831D01*
X198365Y108402D01*
Y105551D01*
X198365Y105551D01*
X198451Y105122D01*
X198694Y104758D01*
X201343Y102109D01*
X201343Y102109D01*
X201363Y101494D01*
X201291Y101402D01*
X196487D01*
Y115402D01*
X199487Y118402D01*
X227487D01*
X229487Y120402D01*
X234487D01*
Y115402D01*
D02*
G37*
G36*
X63987Y123402D02*
Y117402D01*
X66987Y114402D01*
X81987D01*
Y114902D01*
X84987Y117902D01*
X112987D01*
X114987Y119902D01*
X119987D01*
Y115065D01*
X117663D01*
Y114902D01*
X95487D01*
X89487Y108902D01*
Y100902D01*
X80487D01*
X71487Y109902D01*
X57487D01*
X57047Y109462D01*
X57044D01*
Y109459D01*
X56987Y109402D01*
Y34402D01*
X61487Y29902D01*
X64487D01*
Y16402D01*
X51487D01*
Y30902D01*
X47487Y34902D01*
Y54902D01*
X44487Y57902D01*
Y95902D01*
X34487D01*
X26987Y88402D01*
X14487D01*
X11487Y91402D01*
Y107402D01*
X15487Y111402D01*
X38487D01*
Y123902D01*
X40487Y125902D01*
X61487D01*
X63987Y123402D01*
D02*
G37*
G36*
X43837Y91123D02*
X43337Y90906D01*
X42987Y91051D01*
X32987D01*
X32527Y90861D01*
X29718Y88051D01*
X28208D01*
X28016Y88513D01*
X34756Y95252D01*
X43837D01*
Y91123D01*
D02*
G37*
G36*
X36337Y293902D02*
X36527Y293442D01*
X39027Y290942D01*
X39487Y290752D01*
X45218D01*
X46837Y289133D01*
Y275171D01*
X44027Y272361D01*
X43837Y271902D01*
Y257902D01*
X44027Y257442D01*
X44957Y256513D01*
X44765Y256051D01*
X36487D01*
X36027Y255861D01*
X35837Y255402D01*
Y183402D01*
X36027Y182942D01*
X38658Y180311D01*
X38467Y179849D01*
X36666D01*
X36207Y179659D01*
X26646Y170098D01*
X26625D01*
X26166Y169908D01*
X25976Y169449D01*
Y141941D01*
X26166Y141482D01*
X40597Y127051D01*
X40542Y126804D01*
X40418Y126523D01*
X40027Y126361D01*
X38027Y124361D01*
X37837Y123902D01*
Y112051D01*
X15487D01*
X15027Y111861D01*
X11027Y107861D01*
X10837Y107402D01*
Y91402D01*
X11027Y90942D01*
X10643Y90664D01*
X8636Y92671D01*
Y274133D01*
X9759Y275255D01*
X10737D01*
X11654Y275438D01*
X12431Y275957D01*
X12950Y276735D01*
X13133Y277652D01*
Y278629D01*
X24946Y290442D01*
X25136Y290902D01*
Y309902D01*
X25043Y310125D01*
Y310498D01*
X24943D01*
X24735Y310752D01*
X24948Y311252D01*
X36337D01*
Y293902D01*
D02*
G37*
G36*
X24487Y309902D02*
Y290902D01*
X7987Y274402D01*
Y92402D01*
X12987Y87402D01*
X29987D01*
X32987Y90402D01*
X42987D01*
Y75402D01*
X26987D01*
X24987Y77402D01*
X14487D01*
X13487Y76402D01*
Y49902D01*
X14987Y48402D01*
Y33902D01*
X7640D01*
X7449Y34363D01*
X7987Y34902D01*
Y77902D01*
X7487D01*
X1487Y83902D01*
Y277902D01*
X15987Y292402D01*
Y309902D01*
X16487Y310402D01*
X23987D01*
X24487Y309902D01*
D02*
G37*
G36*
X26487Y74402D02*
X41987D01*
X42487Y73902D01*
Y57402D01*
X45487Y54402D01*
Y34402D01*
X24987D01*
Y39902D01*
X14487Y50402D01*
Y75402D01*
X15837Y76752D01*
X24136D01*
X26487Y74402D01*
D02*
G37*
%LPC*%
G36*
X55128Y342178D02*
X54777Y342108D01*
X54479Y341909D01*
X54280Y341612D01*
X54210Y341260D01*
X54280Y340909D01*
X54479Y340612D01*
X55338Y339753D01*
X55635Y339554D01*
X55987Y339484D01*
X56338Y339554D01*
X56635Y339753D01*
X56834Y340050D01*
X56904Y340402D01*
X56834Y340753D01*
X56635Y341050D01*
X55777Y341909D01*
X55479Y342108D01*
X55128Y342178D01*
D02*
G37*
%LPD*%
D16*
X224550Y34402D02*
X229613D01*
X110273Y33666D02*
X115050D01*
X55128Y341260D02*
X55987Y340402D01*
X227754Y110588D02*
X227963D01*
X248227Y112120D02*
X251223D01*
X251255Y112088D01*
X141235Y113917D02*
X141251Y113902D01*
X135208Y113917D02*
X141235D01*
X135192Y113933D02*
X135208Y113917D01*
X114960Y110402D02*
X116523Y111965D01*
X114751Y110402D02*
X114960D01*
X138220Y111933D02*
X138251Y111902D01*
X135223Y111933D02*
X138220D01*
X128558Y101303D02*
X129251Y100610D01*
Y100402D02*
Y100610D01*
X126407Y100402D02*
X126590Y100584D01*
X134603Y100549D02*
X134751Y100402D01*
X248195Y116088D02*
X263060D01*
X265550Y113598D01*
Y113402D02*
Y113598D01*
X254239Y114104D02*
X254255Y114088D01*
X248211Y114104D02*
X254239D01*
X135192Y115902D02*
X144246D01*
X148050Y112098D01*
Y111902D02*
Y112098D01*
X124621Y35364D02*
Y107299D01*
X122924Y33666D02*
X124621Y35364D01*
X126590Y100584D02*
Y107299D01*
X237487Y86902D02*
Y107348D01*
Y65902D02*
Y86902D01*
Y34402D02*
Y65902D01*
X239272Y100588D02*
Y100815D01*
X239593Y101136D01*
X237487Y107348D02*
X237625Y107486D01*
X239593Y101136D02*
Y107486D01*
X220676Y86902D02*
X229613D01*
X219113Y85339D02*
X220676Y86902D01*
X228613Y77465D02*
X229676Y76402D01*
X219113Y77465D02*
X228613D01*
X227963Y110588D02*
X229526Y112151D01*
X232959D02*
Y114120D01*
X229526Y112151D02*
X232959D01*
X242254Y100588D02*
Y100797D01*
X241562Y101490D02*
X242254Y100797D01*
X241562Y101490D02*
Y107486D01*
X224550Y44902D02*
X229739D01*
X243755Y103588D02*
Y103797D01*
X243530Y104021D02*
X243755Y103797D01*
X243530Y104021D02*
Y107486D01*
X247607Y100736D02*
X247755Y100588D01*
X247607Y100736D02*
Y102736D01*
X245499Y104844D02*
X247607Y102736D01*
X245499Y104844D02*
Y107486D01*
X224050Y65902D02*
X229613D01*
X224050Y55402D02*
X229676D01*
X249974Y109088D02*
X253255D01*
X254255Y110088D01*
X249388Y109674D02*
X249974Y109088D01*
X249388Y109674D02*
Y110151D01*
X249357Y110183D02*
X249388Y110151D01*
X248195Y110183D02*
X249357D01*
X213050Y85402D02*
X219050D01*
X219113Y85339D01*
X248195Y112151D02*
X248227Y112120D01*
X248195Y114120D02*
X248211Y114104D01*
X237625Y107486D02*
Y114120D01*
X240577Y117072D01*
X135192Y111965D02*
X135223Y111933D01*
X124621Y107299D02*
Y113933D01*
X127574Y116886D01*
X116523Y111965D02*
X119956D01*
Y113933D01*
X130527Y103835D02*
Y107299D01*
Y103835D02*
X130751Y103610D01*
Y103402D02*
Y103610D01*
X140251Y108902D02*
X141251Y109902D01*
X135192Y109996D02*
X136353D01*
X136385Y109965D01*
Y109487D02*
X136971Y108902D01*
X136385Y109487D02*
Y109965D01*
X136971Y108902D02*
X140251D01*
X128558Y101303D02*
Y107299D01*
X104487Y84666D02*
X104550Y84603D01*
X98487Y84666D02*
X104487D01*
X109487Y54666D02*
X115113D01*
X109487Y65166D02*
X115050D01*
X109987Y44166D02*
X115176D01*
X104550Y76729D02*
X114050D01*
X115113Y75666D01*
X104550Y84603D02*
X106113Y86166D01*
X115050D01*
X134603Y100549D02*
Y102549D01*
X132495Y104657D02*
X134603Y102549D01*
X132495Y104657D02*
Y107299D01*
D19*
X62191Y61902D02*
D03*
X37782D02*
D03*
X62191Y103902D02*
D03*
X37782D02*
D03*
X62191Y82902D02*
D03*
X37782D02*
D03*
X42782Y210402D02*
D03*
X67191D02*
D03*
X167782Y211902D02*
D03*
X192191D02*
D03*
X43282Y319402D02*
D03*
X67691D02*
D03*
X168782D02*
D03*
X193191D02*
D03*
D20*
X12987Y304150D02*
D03*
Y317653D02*
D03*
X17987Y304150D02*
D03*
Y317653D02*
D03*
X22987Y304150D02*
D03*
Y317653D02*
D03*
X62987Y22154D02*
D03*
Y8650D02*
D03*
X57987Y22154D02*
D03*
Y8650D02*
D03*
X52987Y22154D02*
D03*
Y8650D02*
D03*
D21*
X206739Y56902D02*
D03*
X193235D02*
D03*
X206739Y61902D02*
D03*
X193235D02*
D03*
X206739Y66902D02*
D03*
X193235D02*
D03*
X92239Y53402D02*
D03*
X78735D02*
D03*
X92239Y58402D02*
D03*
X78735D02*
D03*
X92239Y63402D02*
D03*
X78735D02*
D03*
D22*
X93880Y245402D02*
D03*
X143093D02*
D03*
X218880Y246902D02*
D03*
X268093D02*
D03*
X93774Y315902D02*
D03*
X142987D02*
D03*
X218880Y317402D02*
D03*
X268093D02*
D03*
X93880Y174902D02*
D03*
X143093D02*
D03*
X218880Y176402D02*
D03*
X268093D02*
D03*
D23*
X142437Y127902D02*
D03*
X161536D02*
D03*
X259937Y129402D02*
D03*
X279036D02*
D03*
D24*
X68487Y150721D02*
D03*
Y173902D02*
D03*
X192987Y176402D02*
D03*
Y153220D02*
D03*
D25*
X66077Y41402D02*
D03*
X42896D02*
D03*
X11396D02*
D03*
X34577D02*
D03*
X66077Y298902D02*
D03*
X42896D02*
D03*
X66168Y282402D02*
D03*
X42987D02*
D03*
X168806D02*
D03*
X191987D02*
D03*
X168806Y299402D02*
D03*
X191987D02*
D03*
D26*
X199487Y108402D02*
D03*
Y87142D02*
D03*
X84987Y107531D02*
D03*
Y86272D02*
D03*
D27*
X57751Y130839D02*
D03*
Y122965D02*
D03*
X68251Y130776D02*
D03*
Y122902D02*
D03*
X65487Y240902D02*
D03*
Y248776D02*
D03*
X78751Y130839D02*
D03*
Y122965D02*
D03*
X99751Y130776D02*
D03*
Y122902D02*
D03*
X110251Y130776D02*
D03*
Y122902D02*
D03*
X89251Y130839D02*
D03*
Y122965D02*
D03*
X104550Y76729D02*
D03*
Y84603D02*
D03*
X219113Y77465D02*
D03*
Y85339D02*
D03*
X203255Y131025D02*
D03*
Y123151D02*
D03*
X224254Y130962D02*
D03*
Y123088D02*
D03*
X213755Y130962D02*
D03*
Y123088D02*
D03*
X192754Y131025D02*
D03*
Y123151D02*
D03*
X189987Y240528D02*
D03*
Y248402D02*
D03*
X182255Y130962D02*
D03*
Y123088D02*
D03*
X171755Y131025D02*
D03*
Y123151D02*
D03*
D28*
X115050Y33666D02*
D03*
X122924D02*
D03*
X148050Y111902D02*
D03*
X155924D02*
D03*
X122924Y65166D02*
D03*
X115050D02*
D03*
Y86166D02*
D03*
X122924D02*
D03*
X123050Y44166D02*
D03*
X115176D02*
D03*
X115113Y75666D02*
D03*
X122987D02*
D03*
X115113Y54666D02*
D03*
X122987D02*
D03*
X237613Y44902D02*
D03*
X229739D02*
D03*
X237487Y65902D02*
D03*
X229613D02*
D03*
X229676Y55402D02*
D03*
X237550D02*
D03*
X229676Y76402D02*
D03*
X237550D02*
D03*
X229613Y86902D02*
D03*
X237487D02*
D03*
X265550Y113402D02*
D03*
X273424D02*
D03*
X229613Y34402D02*
D03*
X237487D02*
D03*
D29*
X122653Y126472D02*
D03*
X124621D02*
D03*
X126590D02*
D03*
X128558D02*
D03*
X130527D02*
D03*
X132495D02*
D03*
Y107299D02*
D03*
X130527D02*
D03*
X128558D02*
D03*
X126590D02*
D03*
X124621D02*
D03*
X122653D02*
D03*
X235656Y126659D02*
D03*
X237625D02*
D03*
X239593D02*
D03*
X241562D02*
D03*
X243530D02*
D03*
X245499D02*
D03*
Y107486D02*
D03*
X243530D02*
D03*
X241562D02*
D03*
X239593D02*
D03*
X237625D02*
D03*
X235656D02*
D03*
D30*
X135192Y123776D02*
D03*
Y121807D02*
D03*
Y119839D02*
D03*
Y117870D02*
D03*
Y115902D02*
D03*
Y113933D02*
D03*
Y111965D02*
D03*
Y109996D02*
D03*
X119956D02*
D03*
Y111965D02*
D03*
Y113933D02*
D03*
Y115902D02*
D03*
Y117870D02*
D03*
Y119839D02*
D03*
Y121807D02*
D03*
Y123776D02*
D03*
X248195Y123962D02*
D03*
Y121994D02*
D03*
Y120025D02*
D03*
Y118057D02*
D03*
Y116088D02*
D03*
Y114120D02*
D03*
Y112151D02*
D03*
Y110183D02*
D03*
X232959D02*
D03*
Y112151D02*
D03*
Y114120D02*
D03*
Y116088D02*
D03*
Y118057D02*
D03*
Y120025D02*
D03*
Y121994D02*
D03*
Y123962D02*
D03*
D31*
X8987Y279402D02*
D03*
X75487Y331902D02*
D03*
X221487Y102902D02*
D03*
X55987Y340402D02*
D03*
D51*
X127574Y116886D02*
D03*
X240577Y117072D02*
D03*
D52*
X199487Y106402D02*
Y108402D01*
Y105551D02*
Y106402D01*
Y105551D02*
X202136Y102902D01*
X221487D01*
D53*
X190487Y354402D02*
D03*
X15487D02*
D03*
X274987Y15902D02*
D03*
X15487D02*
D03*
D54*
X49987Y240902D02*
D03*
X175487D02*
D03*
X49987Y164902D02*
D03*
X174987Y166402D02*
D03*
D55*
X49987Y250902D02*
D03*
Y260902D02*
D03*
X175487Y250902D02*
D03*
Y260902D02*
D03*
X49987Y174902D02*
D03*
Y184902D02*
D03*
X174987Y176402D02*
D03*
Y186402D02*
D03*
D56*
X19987Y72402D02*
D03*
D57*
Y82402D02*
D03*
Y92402D02*
D03*
D58*
X224550Y34402D02*
D03*
X110273Y33666D02*
D03*
X242309Y121228D02*
D03*
X239357Y121031D02*
D03*
X236601Y121425D02*
D03*
X241030Y118965D02*
D03*
X237979Y119063D02*
D03*
X242309Y116996D02*
D03*
X239554Y117095D02*
D03*
X236601Y116996D02*
D03*
X129908Y117193D02*
D03*
X129613Y119653D02*
D03*
X129514Y122508D02*
D03*
X127574Y116886D02*
D03*
X127054Y119752D02*
D03*
X127152Y122606D02*
D03*
X124199Y122705D02*
D03*
X124101Y119850D02*
D03*
X124199Y117095D02*
D03*
X65487Y248776D02*
D03*
X42987Y282402D02*
D03*
X193235Y66902D02*
D03*
Y61902D02*
D03*
Y56902D02*
D03*
X206739D02*
D03*
Y61902D02*
D03*
Y66902D02*
D03*
X199487Y112902D02*
D03*
Y109402D02*
D03*
Y106402D02*
D03*
Y103402D02*
D03*
X171755Y123151D02*
D03*
X92239Y53402D02*
D03*
X78735D02*
D03*
Y58402D02*
D03*
X92239D02*
D03*
Y63402D02*
D03*
X78735D02*
D03*
X227754Y110588D02*
D03*
X251255Y112088D02*
D03*
X141251Y113902D02*
D03*
X114751Y110402D02*
D03*
X138251Y111902D02*
D03*
X109487Y65166D02*
D03*
X129251Y100402D02*
D03*
X126407D02*
D03*
X134751D02*
D03*
X68251Y122902D02*
D03*
X78751Y122965D02*
D03*
X89251D02*
D03*
X99751Y122902D02*
D03*
X110251D02*
D03*
X254255Y114088D02*
D03*
X239272Y100588D02*
D03*
X182255Y123088D02*
D03*
X192754Y123151D02*
D03*
X213755Y123088D02*
D03*
X224254D02*
D03*
X203255Y123151D02*
D03*
X242254Y100588D02*
D03*
X224550Y44902D02*
D03*
X243755Y103588D02*
D03*
X247755Y100588D02*
D03*
X224050Y65902D02*
D03*
Y55402D02*
D03*
X254255Y110088D02*
D03*
X213050Y85402D02*
D03*
X130751Y103402D02*
D03*
X98487Y84666D02*
D03*
X109487Y54666D02*
D03*
X109987Y44166D02*
D03*
X141251Y109902D02*
D03*
D59*
X190487Y363902D02*
D03*
X199987Y354402D02*
D03*
X181487D02*
D03*
X190487Y344902D02*
D03*
X183987Y347902D02*
D03*
X183487Y360902D02*
D03*
X196987Y361402D02*
D03*
Y347402D02*
D03*
X15487Y363902D02*
D03*
X24987Y354402D02*
D03*
X6487D02*
D03*
X15487Y344902D02*
D03*
X8987Y347902D02*
D03*
X8487Y360902D02*
D03*
X21987Y361402D02*
D03*
Y347402D02*
D03*
X274987Y25402D02*
D03*
X284487Y15902D02*
D03*
X265987D02*
D03*
X274987Y6402D02*
D03*
X268487Y9402D02*
D03*
X267987Y22402D02*
D03*
X281487Y22902D02*
D03*
Y8902D02*
D03*
X15487Y25402D02*
D03*
X24987Y15902D02*
D03*
X6487D02*
D03*
X15487Y6402D02*
D03*
X8987Y9402D02*
D03*
X8487Y22402D02*
D03*
X21987Y22902D02*
D03*
Y8902D02*
D03*
M02*
