G04*
G04 #@! TF.GenerationSoftware,Altium Limited,Altium Designer,20.0.12 (288)*
G04*
G04 Layer_Color=32896*
%FSLAX25Y25*%
%MOIN*%
G70*
G01*
G75*
%ADD10C,0.00787*%
%ADD18C,0.00591*%
D10*
X117211Y98669D02*
X148707D01*
X117211Y172646D02*
Y188669D01*
Y98669D02*
Y114693D01*
Y188669D02*
X148707D01*
Y172646D02*
Y188669D01*
Y98669D02*
Y114693D01*
X231089Y188669D02*
X262585D01*
Y98669D02*
Y114693D01*
Y172646D02*
Y188669D01*
X231089Y98669D02*
X262585D01*
X231089D02*
Y114693D01*
Y172646D02*
Y188669D01*
D18*
X125389Y195369D02*
Y198518D01*
X124339Y197468D01*
X123290Y198518D01*
Y195369D01*
X122240D02*
Y198518D01*
X120666D01*
X120141Y197993D01*
Y196943D01*
X120666Y196419D01*
X122240D01*
X116993Y195369D02*
X119092D01*
X116993Y197468D01*
Y197993D01*
X117517Y198518D01*
X118567D01*
X119092Y197993D01*
X115943Y194844D02*
X113844D01*
X112794Y195369D02*
Y198518D01*
X110696Y195369D01*
Y198518D01*
X108072Y195369D02*
X109121D01*
X109646Y195894D01*
Y196943D01*
X109121Y197468D01*
X108072D01*
X107547Y196943D01*
Y196419D01*
X109646D01*
X105448Y194320D02*
X104923D01*
X104398Y194844D01*
Y197468D01*
X105973D01*
X106497Y196943D01*
Y195894D01*
X105973Y195369D01*
X104398D01*
X102824Y197468D02*
X101775D01*
X101250Y196943D01*
Y195369D01*
X102824D01*
X103349Y195894D01*
X102824Y196419D01*
X101250D01*
X99676Y197993D02*
Y197468D01*
X100200D01*
X99151D01*
X99676D01*
Y195894D01*
X99151Y195369D01*
X97576D02*
X96527D01*
X97052D01*
Y197468D01*
X97576D01*
X94953D02*
X93903Y195369D01*
X92853Y197468D01*
X90230Y195369D02*
X91279D01*
X91804Y195894D01*
Y196943D01*
X91279Y197468D01*
X90230D01*
X89705Y196943D01*
Y196419D01*
X91804D01*
X85507Y198518D02*
Y195369D01*
X83933D01*
X83408Y195894D01*
Y197993D01*
X83933Y198518D01*
X85507D01*
X80259Y197993D02*
X80784Y198518D01*
X81833D01*
X82358Y197993D01*
Y195894D01*
X81833Y195369D01*
X80784D01*
X80259Y195894D01*
X79210Y196943D02*
X77111D01*
X76061Y198518D02*
Y195369D01*
X74487D01*
X73962Y195894D01*
Y197993D01*
X74487Y198518D01*
X76061D01*
X70814Y197993D02*
X71338Y198518D01*
X72388D01*
X72913Y197993D01*
Y195894D01*
X72388Y195369D01*
X71338D01*
X70814Y195894D01*
X67665Y195369D02*
X69764D01*
X67665Y197468D01*
Y197993D01*
X68190Y198518D01*
X69239D01*
X69764Y197993D01*
X220387Y123024D02*
X217239D01*
X218288Y121975D01*
X217239Y120925D01*
X220387D01*
Y119875D02*
X217239D01*
Y118301D01*
X217763Y117776D01*
X218813D01*
X219338Y118301D01*
Y119875D01*
X220387Y114628D02*
Y116727D01*
X218288Y114628D01*
X217763D01*
X217239Y115153D01*
Y116202D01*
X217763Y116727D01*
X220912Y113578D02*
Y111479D01*
X220387Y110430D02*
X217239D01*
X220387Y108331D01*
X217239D01*
X220387Y105707D02*
Y106756D01*
X219863Y107281D01*
X218813D01*
X218288Y106756D01*
Y105707D01*
X218813Y105182D01*
X219338D01*
Y107281D01*
X221437Y103083D02*
Y102558D01*
X220912Y102033D01*
X218288D01*
Y103608D01*
X218813Y104132D01*
X219863D01*
X220387Y103608D01*
Y102033D01*
X218288Y100459D02*
Y99410D01*
X218813Y98885D01*
X220387D01*
Y100459D01*
X219863Y100984D01*
X219338Y100459D01*
Y98885D01*
X217763Y97311D02*
X218288D01*
Y97835D01*
Y96786D01*
Y97311D01*
X219863D01*
X220387Y96786D01*
Y95211D02*
Y94162D01*
Y94687D01*
X218288D01*
Y95211D01*
Y92588D02*
X220387Y91538D01*
X218288Y90489D01*
X220387Y87865D02*
Y88914D01*
X219863Y89439D01*
X218813D01*
X218288Y88914D01*
Y87865D01*
X218813Y87340D01*
X219338D01*
Y89439D01*
X217239Y83142D02*
X220387D01*
Y81568D01*
X219863Y81043D01*
X217763D01*
X217239Y81568D01*
Y83142D01*
X217763Y77894D02*
X217239Y78419D01*
Y79469D01*
X217763Y79993D01*
X219863D01*
X220387Y79469D01*
Y78419D01*
X219863Y77894D01*
X218813Y76845D02*
Y74746D01*
X217239Y73696D02*
X220387D01*
Y72122D01*
X219863Y71597D01*
X217763D01*
X217239Y72122D01*
Y73696D01*
X217763Y68449D02*
X217239Y68973D01*
Y70023D01*
X217763Y70548D01*
X219863D01*
X220387Y70023D01*
Y68973D01*
X219863Y68449D01*
X220387Y67399D02*
Y66350D01*
Y66874D01*
X217239D01*
X217763Y67399D01*
M02*
