G04*
G04 #@! TF.GenerationSoftware,Altium Limited,Altium Designer,20.0.12 (288)*
G04*
G04 Layer_Physical_Order=3*
G04 Layer_Color=16440176*
%FSLAX25Y25*%
%MOIN*%
G70*
G01*
G75*
%ADD13C,0.00600*%
%ADD88C,0.05906*%
%ADD89R,0.05906X0.05906*%
%ADD90C,0.06000*%
%ADD91R,0.05906X0.05906*%
%ADD92C,0.09843*%
%ADD96C,0.05937*%
%ADD101R,0.07800X0.07800*%
%ADD105C,0.01772*%
%ADD107C,0.10000*%
G36*
X247480Y723678D02*
X247018Y723487D01*
X236991Y733514D01*
X237182Y733976D01*
X247480D01*
Y723678D01*
D02*
G37*
G36*
X115813Y649076D02*
Y491476D01*
X102813Y478476D01*
X84413D01*
Y488376D01*
X98513Y502476D01*
Y641176D01*
X100813Y643476D01*
X97913Y646376D01*
X94034D01*
X92980Y646514D01*
X91925Y646376D01*
X85913D01*
Y658376D01*
X85775Y658514D01*
X85966Y658976D01*
X105913D01*
X115813Y649076D01*
D02*
G37*
G36*
X246628Y707900D02*
X247480Y707247D01*
Y568805D01*
X246684Y568194D01*
X245799Y567041D01*
X245243Y565698D01*
X245053Y564257D01*
X245243Y562815D01*
X245799Y561472D01*
X246684Y560319D01*
X247480Y559708D01*
Y539231D01*
X247309Y538975D01*
X247239Y538624D01*
Y393735D01*
X213980Y360476D01*
Y359445D01*
X213769Y359260D01*
X212829Y359136D01*
X211953Y358773D01*
X211201Y358196D01*
X210624Y357444D01*
X210393Y356887D01*
X209893Y356986D01*
Y363663D01*
X232706Y386476D01*
X233208Y386576D01*
X233699Y386904D01*
X234028Y387396D01*
X234143Y387976D01*
X234028Y388555D01*
X233699Y389047D01*
X233208Y389375D01*
X232628Y389491D01*
X232048Y389375D01*
X231557Y389047D01*
X231228Y388555D01*
X231113Y387976D01*
X231196Y387561D01*
X229359Y385725D01*
X228897Y385916D01*
Y388302D01*
X229051Y388404D01*
X229379Y388896D01*
X229495Y389476D01*
X229379Y390055D01*
X229051Y390547D01*
X228559Y390875D01*
X227980Y390990D01*
X227400Y390875D01*
X226909Y390547D01*
X226580Y390055D01*
X226465Y389476D01*
X226580Y388896D01*
X226909Y388404D01*
X227062Y388302D01*
Y385125D01*
X207127Y365189D01*
X206928Y364891D01*
X206858Y364540D01*
Y358294D01*
X206384Y358134D01*
X206336Y358196D01*
X205584Y358773D01*
X204709Y359136D01*
X203769Y359260D01*
X202829Y359136D01*
X201953Y358773D01*
X201201Y358196D01*
X200624Y357444D01*
X200261Y356569D01*
X200138Y355629D01*
X200261Y354689D01*
X200624Y353813D01*
X201201Y353061D01*
X201953Y352484D01*
X202829Y352121D01*
X203769Y351998D01*
X204709Y352121D01*
X205584Y352484D01*
X206336Y353061D01*
X206384Y353124D01*
X206858Y352963D01*
Y299854D01*
X173980Y266976D01*
Y258273D01*
X148161Y232454D01*
X147980Y232490D01*
X147400Y232375D01*
X146909Y232047D01*
X146580Y231555D01*
X146465Y230976D01*
X146580Y230396D01*
X146909Y229904D01*
X147400Y229576D01*
X147980Y229461D01*
X148559Y229576D01*
X149051Y229904D01*
X149379Y230396D01*
X149495Y230976D01*
X149459Y231157D01*
X173518Y255216D01*
X173980Y255025D01*
Y235273D01*
X148661Y209955D01*
X148480Y209991D01*
X147900Y209875D01*
X147409Y209547D01*
X147080Y209055D01*
X146965Y208476D01*
X147080Y207896D01*
X147409Y207404D01*
X147900Y207076D01*
X148480Y206961D01*
X149059Y207076D01*
X149551Y207404D01*
X149879Y207896D01*
X149995Y208476D01*
X149959Y208657D01*
X173518Y232216D01*
X173980Y232025D01*
Y205476D01*
X153480Y184976D01*
Y160795D01*
X122960D01*
X122609Y160725D01*
X122311Y160526D01*
X119613Y157828D01*
X116811D01*
X116568Y158328D01*
X116667Y158827D01*
X116552Y159407D01*
X116223Y159898D01*
X115732Y160227D01*
X115152Y160342D01*
X114572Y160227D01*
X114081Y159898D01*
X113891Y159614D01*
X108272D01*
X107921Y159544D01*
X107623Y159345D01*
X105367Y157089D01*
X105168Y156791D01*
X105098Y156440D01*
Y153679D01*
X104598Y153358D01*
X104230Y153431D01*
X103650Y153316D01*
X103159Y152988D01*
X102830Y152496D01*
X102715Y151917D01*
X102830Y151337D01*
X103159Y150845D01*
X103650Y150517D01*
X104230Y150402D01*
X104565Y150468D01*
X104599Y150469D01*
X105074Y150198D01*
X105131Y150130D01*
X105132Y150124D01*
X105331Y149827D01*
X111831Y143327D01*
X112129Y143128D01*
X112480Y143058D01*
X133798D01*
X134056Y142646D01*
X134050Y142558D01*
X133939Y142001D01*
X134055Y141421D01*
X134280Y141084D01*
X134352Y140759D01*
X134285Y140394D01*
X134067Y140068D01*
X133952Y139488D01*
X134067Y138909D01*
X134293Y138571D01*
X134365Y138246D01*
X134298Y137881D01*
X134080Y137555D01*
X133965Y136976D01*
X134080Y136396D01*
X134409Y135904D01*
X134900Y135576D01*
X135480Y135461D01*
X136059Y135576D01*
X136551Y135904D01*
X136879Y136396D01*
X136995Y136976D01*
X136879Y137555D01*
X136654Y137893D01*
X136582Y138218D01*
X136649Y138583D01*
X136867Y138909D01*
X136982Y139488D01*
X136867Y140068D01*
X136641Y140406D01*
X136569Y140730D01*
X136636Y141095D01*
X136854Y141421D01*
X136969Y142001D01*
X136858Y142558D01*
X136852Y142646D01*
X137111Y143058D01*
X138100D01*
X149954Y131204D01*
Y131188D01*
X150024Y130837D01*
X150223Y130539D01*
X151269Y129493D01*
X151567Y129294D01*
X151918Y129224D01*
X151934D01*
X153480Y127678D01*
Y127179D01*
X152980Y126837D01*
X152657Y126901D01*
X152078Y126786D01*
X151586Y126457D01*
X151258Y125966D01*
X151143Y125386D01*
X151258Y124806D01*
X151586Y124315D01*
X152078Y123986D01*
X152657Y123871D01*
X152980Y123935D01*
X153480Y123593D01*
Y107555D01*
X152980Y107212D01*
X152657Y107277D01*
X152078Y107161D01*
X151586Y106833D01*
X151258Y106341D01*
X151143Y105762D01*
X151258Y105182D01*
X151586Y104690D01*
X152078Y104362D01*
X152657Y104247D01*
X152980Y104311D01*
X153480Y103969D01*
Y101013D01*
X152980Y100671D01*
X152657Y100735D01*
X152078Y100620D01*
X151586Y100291D01*
X151258Y99800D01*
X151143Y99220D01*
X151258Y98640D01*
X151586Y98149D01*
X152078Y97821D01*
X152657Y97705D01*
X152980Y97769D01*
X153480Y97427D01*
Y29476D01*
X380D01*
Y345476D01*
X89623D01*
X90479Y344474D01*
X92082Y343105D01*
X93880Y342003D01*
X95828Y341196D01*
X97878Y340704D01*
X99980Y340539D01*
X102082Y340704D01*
X104132Y341196D01*
X106080Y342003D01*
X107878Y343105D01*
X109481Y344474D01*
X110336Y345476D01*
X153480D01*
X160480Y352476D01*
Y726827D01*
X227701D01*
X246628Y707900D01*
D02*
G37*
G36*
X210624Y353813D02*
X211201Y353061D01*
X211953Y352484D01*
X212829Y352121D01*
X213769Y351998D01*
X213980Y351813D01*
Y306976D01*
X210355Y303351D01*
X209893Y303542D01*
Y354272D01*
X210393Y354371D01*
X210624Y353813D01*
D02*
G37*
G36*
X153480Y158093D02*
X123181D01*
X122962Y158531D01*
X122956Y158576D01*
X123340Y158959D01*
X153480D01*
Y158093D01*
D02*
G37*
G36*
X147311Y140252D02*
X147147Y139709D01*
X146960Y139672D01*
X146468Y139344D01*
X146140Y138852D01*
X146052Y138409D01*
X145669Y138228D01*
X145541Y138212D01*
X139129Y144624D01*
X138831Y144823D01*
X138480Y144893D01*
X112860D01*
X107061Y150692D01*
X107054Y151003D01*
X107080Y151094D01*
X107587Y151293D01*
X107591Y151291D01*
X108171Y151175D01*
X108618Y151264D01*
X108719Y150757D01*
X109047Y150266D01*
X109539Y149937D01*
X110118Y149822D01*
X110698Y149937D01*
X111190Y150266D01*
X111518Y150757D01*
X111633Y151337D01*
X111597Y151518D01*
X112930Y152851D01*
X117063D01*
X117368Y152387D01*
X117363Y152351D01*
X116909Y152047D01*
X116580Y151555D01*
X116465Y150976D01*
X116500Y150797D01*
X116194Y150490D01*
X115614Y150375D01*
X115123Y150047D01*
X114794Y149555D01*
X114679Y148976D01*
X114794Y148396D01*
X115123Y147904D01*
X115614Y147576D01*
X116194Y147461D01*
X116774Y147576D01*
X117265Y147904D01*
X117594Y148396D01*
X117682Y148842D01*
X117980Y149014D01*
X118277Y148842D01*
X118366Y148396D01*
X118694Y147904D01*
X119186Y147576D01*
X119766Y147461D01*
X120345Y147576D01*
X120389Y147605D01*
X121077Y147464D01*
X121136Y147376D01*
X121628Y147047D01*
X122207Y146932D01*
X122787Y147047D01*
X123279Y147376D01*
X123607Y147867D01*
X123722Y148447D01*
X123607Y149027D01*
X123279Y149518D01*
X122787Y149846D01*
X122207Y149962D01*
X121628Y149846D01*
X121584Y149817D01*
X120896Y149959D01*
X120837Y150047D01*
X120345Y150375D01*
X119766Y150490D01*
X119459Y150797D01*
X119495Y150976D01*
X119379Y151555D01*
X119051Y152047D01*
X118596Y152351D01*
X118592Y152387D01*
X118897Y152851D01*
X122265D01*
X122532Y152351D01*
X122509Y152317D01*
X122394Y151737D01*
X122509Y151158D01*
X122838Y150666D01*
X123329Y150338D01*
X123909Y150223D01*
X124489Y150338D01*
X124980Y150666D01*
X125309Y151158D01*
X125424Y151737D01*
X125309Y152317D01*
X124980Y152809D01*
X125119Y153317D01*
X126860Y155058D01*
X132505D01*
X147311Y140252D01*
D02*
G37*
G36*
X153480Y137332D02*
X153018Y137141D01*
X147082Y143077D01*
X147328Y143538D01*
X147539Y143496D01*
X148119Y143611D01*
X148611Y143939D01*
X148939Y144431D01*
X149054Y145011D01*
X148939Y145590D01*
X148611Y146082D01*
X148119Y146410D01*
X147539Y146526D01*
X146960Y146410D01*
X146468Y146082D01*
X146140Y145590D01*
X146024Y145011D01*
X146066Y144799D01*
X145606Y144553D01*
X134363Y155796D01*
X134554Y156258D01*
X153480D01*
Y137332D01*
D02*
G37*
%LPC*%
G36*
X192822Y721507D02*
X192075Y721408D01*
X191378Y721120D01*
X190780Y720661D01*
X190321Y720062D01*
X190032Y719366D01*
X189934Y718618D01*
X190032Y717871D01*
X190321Y717174D01*
X190780Y716576D01*
X191378Y716117D01*
X192075Y715828D01*
X192822Y715730D01*
X193570Y715828D01*
X194266Y716117D01*
X194864Y716576D01*
X195324Y717174D01*
X195612Y717871D01*
X195711Y718618D01*
X195612Y719366D01*
X195324Y720062D01*
X194864Y720661D01*
X194266Y721120D01*
X193570Y721408D01*
X192822Y721507D01*
D02*
G37*
G36*
X171480Y717006D02*
X170437Y716868D01*
X169465Y716466D01*
X168630Y715825D01*
X167990Y714991D01*
X167587Y714019D01*
X167450Y712976D01*
X167587Y711933D01*
X167990Y710960D01*
X168630Y710126D01*
X169465Y709485D01*
X170437Y709083D01*
X171480Y708945D01*
X172523Y709083D01*
X173495Y709485D01*
X174329Y710126D01*
X174970Y710960D01*
X175373Y711933D01*
X175510Y712976D01*
X175373Y714019D01*
X174970Y714991D01*
X174329Y715825D01*
X173495Y716466D01*
X172523Y716868D01*
X171480Y717006D01*
D02*
G37*
G36*
X192822Y701822D02*
X192075Y701723D01*
X191378Y701435D01*
X190780Y700976D01*
X190321Y700377D01*
X190032Y699681D01*
X189934Y698933D01*
X190032Y698185D01*
X190321Y697489D01*
X190780Y696891D01*
X191378Y696432D01*
X192075Y696143D01*
X192822Y696045D01*
X193570Y696143D01*
X194266Y696432D01*
X194864Y696891D01*
X195324Y697489D01*
X195612Y698185D01*
X195711Y698933D01*
X195612Y699681D01*
X195324Y700377D01*
X194864Y700976D01*
X194266Y701435D01*
X193570Y701723D01*
X192822Y701822D01*
D02*
G37*
G36*
X171480Y697006D02*
X170437Y696868D01*
X169465Y696466D01*
X168630Y695825D01*
X167990Y694991D01*
X167587Y694019D01*
X167450Y692976D01*
X167587Y691932D01*
X167990Y690961D01*
X168630Y690126D01*
X169465Y689485D01*
X170437Y689083D01*
X171480Y688945D01*
X172523Y689083D01*
X173495Y689485D01*
X174329Y690126D01*
X174970Y690961D01*
X175373Y691932D01*
X175510Y692976D01*
X175373Y694019D01*
X174970Y694991D01*
X174329Y695825D01*
X173495Y696466D01*
X172523Y696868D01*
X171480Y697006D01*
D02*
G37*
G36*
Y657006D02*
X170437Y656868D01*
X169465Y656466D01*
X168630Y655825D01*
X167990Y654991D01*
X167587Y654019D01*
X167450Y652976D01*
X167587Y651932D01*
X167990Y650960D01*
X168630Y650126D01*
X169465Y649485D01*
X170437Y649083D01*
X171480Y648945D01*
X172523Y649083D01*
X173495Y649485D01*
X174329Y650126D01*
X174970Y650960D01*
X175373Y651932D01*
X175510Y652976D01*
X175373Y654019D01*
X174970Y654991D01*
X174329Y655825D01*
X173495Y656466D01*
X172523Y656868D01*
X171480Y657006D01*
D02*
G37*
G36*
X175476Y646971D02*
X167484D01*
Y638980D01*
X175476D01*
Y646971D01*
D02*
G37*
G36*
X199980Y658990D02*
X199400Y658875D01*
X198909Y658547D01*
X198580Y658055D01*
X198465Y657476D01*
X198580Y656896D01*
X198909Y656404D01*
X199062Y656302D01*
Y641407D01*
X198900Y641375D01*
X198409Y641047D01*
X198080Y640555D01*
X197965Y639976D01*
X198080Y639396D01*
X198409Y638904D01*
X198900Y638576D01*
X199480Y638461D01*
X200060Y638576D01*
X200551Y638904D01*
X200879Y639396D01*
X200995Y639976D01*
X200879Y640555D01*
X200857Y640589D01*
X200897Y640793D01*
Y656302D01*
X201051Y656404D01*
X201379Y656896D01*
X201495Y657476D01*
X201379Y658055D01*
X201051Y658547D01*
X200559Y658875D01*
X199980Y658990D01*
D02*
G37*
G36*
X199584Y626432D02*
X199004Y626316D01*
X198513Y625988D01*
X198185Y625496D01*
X198069Y624917D01*
X198185Y624337D01*
X198513Y623845D01*
X199004Y623517D01*
X199584Y623402D01*
X200164Y623517D01*
X200655Y623845D01*
X200984Y624337D01*
X201099Y624917D01*
X200984Y625496D01*
X200655Y625988D01*
X200164Y626316D01*
X199584Y626432D01*
D02*
G37*
G36*
X171480Y630006D02*
X170437Y629868D01*
X169465Y629466D01*
X168630Y628825D01*
X167990Y627991D01*
X167587Y627019D01*
X167450Y625976D01*
X167587Y624932D01*
X167990Y623960D01*
X168630Y623126D01*
X169465Y622485D01*
X170437Y622083D01*
X171480Y621945D01*
X172523Y622083D01*
X173495Y622485D01*
X174329Y623126D01*
X174970Y623960D01*
X175373Y624932D01*
X175510Y625976D01*
X175373Y627019D01*
X174970Y627991D01*
X174329Y628825D01*
X173495Y629466D01*
X172523Y629868D01*
X171480Y630006D01*
D02*
G37*
G36*
Y610006D02*
X170437Y609868D01*
X169465Y609466D01*
X168630Y608825D01*
X167990Y607991D01*
X167587Y607019D01*
X167450Y605976D01*
X167587Y604932D01*
X167990Y603961D01*
X168630Y603126D01*
X169465Y602485D01*
X170437Y602083D01*
X171480Y601945D01*
X172523Y602083D01*
X173495Y602485D01*
X174329Y603126D01*
X174970Y603961D01*
X175373Y604932D01*
X175510Y605976D01*
X175373Y607019D01*
X174970Y607991D01*
X174329Y608825D01*
X173495Y609466D01*
X172523Y609868D01*
X171480Y610006D01*
D02*
G37*
G36*
X182980Y588990D02*
X182400Y588875D01*
X181909Y588547D01*
X181580Y588055D01*
X181465Y587476D01*
X181580Y586896D01*
X181909Y586404D01*
X182400Y586076D01*
X182980Y585961D01*
X183560Y586076D01*
X184051Y586404D01*
X184379Y586896D01*
X184495Y587476D01*
X184379Y588055D01*
X184051Y588547D01*
X183560Y588875D01*
X182980Y588990D01*
D02*
G37*
G36*
X198480Y587991D02*
X197900Y587875D01*
X197409Y587547D01*
X197080Y587055D01*
X196965Y586476D01*
X197080Y585896D01*
X197409Y585404D01*
X197900Y585076D01*
X198480Y584961D01*
X199059Y585076D01*
X199551Y585404D01*
X199879Y585896D01*
X199995Y586476D01*
X199879Y587055D01*
X199551Y587547D01*
X199059Y587875D01*
X198480Y587991D01*
D02*
G37*
G36*
X198755Y582872D02*
X198176Y582757D01*
X197684Y582429D01*
X197356Y581937D01*
X197240Y581357D01*
X197356Y580778D01*
X197684Y580286D01*
X198176Y579958D01*
X198755Y579843D01*
X199335Y579958D01*
X199827Y580286D01*
X200155Y580778D01*
X200270Y581357D01*
X200155Y581937D01*
X199827Y582429D01*
X199335Y582757D01*
X198755Y582872D01*
D02*
G37*
G36*
Y577872D02*
X198176Y577757D01*
X197684Y577429D01*
X197356Y576937D01*
X197240Y576358D01*
X197356Y575778D01*
X197684Y575286D01*
X198176Y574958D01*
X198755Y574843D01*
X199335Y574958D01*
X199827Y575286D01*
X200155Y575778D01*
X200270Y576358D01*
X200155Y576937D01*
X199827Y577429D01*
X199335Y577757D01*
X198755Y577872D01*
D02*
G37*
G36*
X180980Y565490D02*
X180400Y565375D01*
X179909Y565047D01*
X179580Y564555D01*
X179465Y563976D01*
X179580Y563396D01*
X179909Y562904D01*
X180400Y562576D01*
X180980Y562461D01*
X181560Y562576D01*
X182051Y562904D01*
X182379Y563396D01*
X182495Y563976D01*
X182379Y564555D01*
X182051Y565047D01*
X181560Y565375D01*
X180980Y565490D01*
D02*
G37*
G36*
X171480Y570006D02*
X170437Y569868D01*
X169465Y569466D01*
X168630Y568825D01*
X167990Y567991D01*
X167587Y567019D01*
X167450Y565976D01*
X167587Y564932D01*
X167990Y563961D01*
X168630Y563126D01*
X169465Y562485D01*
X170437Y562083D01*
X171480Y561945D01*
X172523Y562083D01*
X173495Y562485D01*
X174329Y563126D01*
X174970Y563961D01*
X175373Y564932D01*
X175510Y565976D01*
X175373Y567019D01*
X174970Y567991D01*
X174329Y568825D01*
X173495Y569466D01*
X172523Y569868D01*
X171480Y570006D01*
D02*
G37*
G36*
X175476Y559971D02*
X167484D01*
Y551980D01*
X175476D01*
Y559971D01*
D02*
G37*
G36*
X171480Y542506D02*
X170437Y542368D01*
X169465Y541966D01*
X168630Y541325D01*
X167990Y540491D01*
X167587Y539519D01*
X167450Y538476D01*
X167587Y537432D01*
X167990Y536460D01*
X168630Y535626D01*
X169465Y534985D01*
X170437Y534583D01*
X171480Y534445D01*
X172523Y534583D01*
X173495Y534985D01*
X174329Y535626D01*
X174970Y536460D01*
X175373Y537432D01*
X175510Y538476D01*
X175373Y539519D01*
X174970Y540491D01*
X174329Y541325D01*
X173495Y541966D01*
X172523Y542368D01*
X171480Y542506D01*
D02*
G37*
G36*
X221391Y537144D02*
X214254D01*
Y530007D01*
X221391D01*
Y537144D01*
D02*
G37*
G36*
X207980Y537175D02*
X207048Y537052D01*
X206180Y536693D01*
X205435Y536121D01*
X204863Y535375D01*
X204503Y534507D01*
X204380Y533576D01*
X204503Y532644D01*
X204863Y531776D01*
X205435Y531031D01*
X206180Y530458D01*
X207048Y530099D01*
X207980Y529976D01*
X208911Y530099D01*
X209779Y530458D01*
X210525Y531031D01*
X211097Y531776D01*
X211456Y532644D01*
X211579Y533576D01*
X211456Y534507D01*
X211097Y535375D01*
X210525Y536121D01*
X209779Y536693D01*
X208911Y537052D01*
X207980Y537175D01*
D02*
G37*
G36*
X171480Y522506D02*
X170437Y522368D01*
X169465Y521966D01*
X168630Y521325D01*
X167990Y520491D01*
X167587Y519519D01*
X167450Y518476D01*
X167587Y517432D01*
X167990Y516461D01*
X168630Y515626D01*
X169465Y514985D01*
X170437Y514583D01*
X171480Y514445D01*
X172523Y514583D01*
X173495Y514985D01*
X174329Y515626D01*
X174970Y516461D01*
X175373Y517432D01*
X175510Y518476D01*
X175373Y519519D01*
X174970Y520491D01*
X174329Y521325D01*
X173495Y521966D01*
X172523Y522368D01*
X171480Y522506D01*
D02*
G37*
G36*
X197480Y513490D02*
X196900Y513375D01*
X196409Y513047D01*
X196080Y512555D01*
X195965Y511976D01*
X196080Y511396D01*
X196409Y510904D01*
X196900Y510576D01*
X197480Y510461D01*
X198059Y510576D01*
X198551Y510904D01*
X198879Y511396D01*
X198995Y511976D01*
X198879Y512555D01*
X198551Y513047D01*
X198059Y513375D01*
X197480Y513490D01*
D02*
G37*
G36*
X189980Y494490D02*
X189400Y494375D01*
X188909Y494047D01*
X188580Y493555D01*
X188465Y492976D01*
X188580Y492396D01*
X188909Y491904D01*
X189400Y491576D01*
X189980Y491461D01*
X190559Y491576D01*
X191051Y491904D01*
X191379Y492396D01*
X191495Y492976D01*
X191379Y493555D01*
X191051Y494047D01*
X190559Y494375D01*
X189980Y494490D01*
D02*
G37*
G36*
X189848Y487991D02*
X189268Y487875D01*
X188777Y487547D01*
X188448Y487055D01*
X188333Y486476D01*
X188448Y485896D01*
X188777Y485404D01*
X189268Y485076D01*
X189848Y484961D01*
X190428Y485076D01*
X190919Y485404D01*
X191247Y485896D01*
X191363Y486476D01*
X191247Y487055D01*
X190919Y487547D01*
X190428Y487875D01*
X189848Y487991D01*
D02*
G37*
G36*
X198230Y481990D02*
X197650Y481875D01*
X197159Y481547D01*
X196830Y481055D01*
X196715Y480476D01*
X196830Y479896D01*
X197159Y479404D01*
X197650Y479076D01*
X198230Y478961D01*
X198810Y479076D01*
X199301Y479404D01*
X199629Y479896D01*
X199745Y480476D01*
X199629Y481055D01*
X199301Y481547D01*
X198810Y481875D01*
X198230Y481990D01*
D02*
G37*
G36*
X171480Y482506D02*
X170437Y482368D01*
X169465Y481966D01*
X168630Y481325D01*
X167990Y480491D01*
X167587Y479519D01*
X167450Y478476D01*
X167587Y477432D01*
X167990Y476461D01*
X168630Y475626D01*
X169465Y474985D01*
X170437Y474583D01*
X171480Y474445D01*
X172523Y474583D01*
X173495Y474985D01*
X174329Y475626D01*
X174970Y476461D01*
X175373Y477432D01*
X175510Y478476D01*
X175373Y479519D01*
X174970Y480491D01*
X174329Y481325D01*
X173495Y481966D01*
X172523Y482368D01*
X171480Y482506D01*
D02*
G37*
G36*
X175476Y472471D02*
X167484D01*
Y464480D01*
X175476D01*
Y472471D01*
D02*
G37*
G36*
X176480Y583990D02*
X175900Y583875D01*
X175409Y583547D01*
X175080Y583055D01*
X174965Y582476D01*
X175080Y581896D01*
X175409Y581404D01*
X175900Y581076D01*
X176480Y580961D01*
X177059Y581076D01*
X177073Y581085D01*
X185062Y573096D01*
Y461182D01*
X184562Y461030D01*
X184551Y461047D01*
X184060Y461375D01*
X183480Y461490D01*
X182900Y461375D01*
X182409Y461047D01*
X182080Y460555D01*
X181965Y459976D01*
X182080Y459396D01*
X182409Y458904D01*
X182900Y458576D01*
X183480Y458461D01*
X184060Y458576D01*
X184551Y458904D01*
X184562Y458921D01*
X185062Y458769D01*
Y282856D01*
X129617Y227410D01*
X129429Y227129D01*
X129060Y227375D01*
X128480Y227490D01*
X127900Y227375D01*
X127409Y227047D01*
X127080Y226555D01*
X126965Y225976D01*
X127080Y225396D01*
X127327Y225027D01*
X127045Y224839D01*
X125342Y223135D01*
X116722D01*
X116371Y223066D01*
X116073Y222867D01*
X103661Y210455D01*
X103480Y210490D01*
X102900Y210375D01*
X102409Y210047D01*
X102080Y209555D01*
X101965Y208976D01*
X102080Y208396D01*
X102409Y207904D01*
X102900Y207576D01*
X103480Y207461D01*
X104060Y207576D01*
X104551Y207904D01*
X104879Y208396D01*
X104995Y208976D01*
X104959Y209157D01*
X117102Y221300D01*
X125722D01*
X126073Y221370D01*
X126371Y221569D01*
X128074Y223272D01*
X129219D01*
X129571Y223342D01*
X129868Y223541D01*
X130914Y224587D01*
X131113Y224885D01*
X131183Y225236D01*
Y226381D01*
X145935Y241133D01*
X146221Y241039D01*
X146425Y240916D01*
X146529Y240396D01*
X146857Y239904D01*
X147349Y239576D01*
X147929Y239461D01*
X148508Y239576D01*
X149000Y239904D01*
X149328Y240396D01*
X149444Y240976D01*
X149328Y241555D01*
X149000Y242047D01*
X148508Y242375D01*
X147988Y242479D01*
X147865Y242683D01*
X147771Y242969D01*
X186629Y281827D01*
X186828Y282124D01*
X186897Y282476D01*
Y573476D01*
X186828Y573827D01*
X186629Y574124D01*
X177925Y582829D01*
X177879Y583055D01*
X177551Y583547D01*
X177059Y583875D01*
X176480Y583990D01*
D02*
G37*
G36*
X221391Y464544D02*
X214254D01*
Y457407D01*
X221391D01*
Y464544D01*
D02*
G37*
G36*
X207980Y464575D02*
X207048Y464452D01*
X206180Y464093D01*
X205435Y463521D01*
X204863Y462775D01*
X204503Y461907D01*
X204380Y460976D01*
X204503Y460044D01*
X204863Y459176D01*
X205435Y458430D01*
X206180Y457859D01*
X207048Y457499D01*
X207980Y457376D01*
X208911Y457499D01*
X209779Y457859D01*
X210525Y458430D01*
X211097Y459176D01*
X211456Y460044D01*
X211579Y460976D01*
X211456Y461907D01*
X211097Y462775D01*
X210525Y463521D01*
X209779Y464093D01*
X208911Y464452D01*
X207980Y464575D01*
D02*
G37*
G36*
X189480Y444490D02*
X188900Y444375D01*
X188409Y444047D01*
X188080Y443555D01*
X187965Y442976D01*
X188080Y442396D01*
X188409Y441904D01*
X188900Y441576D01*
X189480Y441461D01*
X190059Y441576D01*
X190551Y441904D01*
X190879Y442396D01*
X190995Y442976D01*
X190879Y443555D01*
X190551Y444047D01*
X190059Y444375D01*
X189480Y444490D01*
D02*
G37*
G36*
X176694Y438990D02*
X176114Y438875D01*
X175623Y438547D01*
X175294Y438055D01*
X175179Y437476D01*
X175180Y437473D01*
X172831Y435124D01*
X172632Y434827D01*
X172562Y434476D01*
Y301908D01*
X150801Y280147D01*
X150389Y280350D01*
X150335Y280388D01*
X150222Y280955D01*
X149893Y281447D01*
X149402Y281775D01*
X148922Y281871D01*
Y282381D01*
X149402Y282476D01*
X149893Y282804D01*
X150222Y283296D01*
X150337Y283876D01*
X150222Y284455D01*
X149893Y284947D01*
X149402Y285275D01*
X148922Y285371D01*
Y285880D01*
X149402Y285976D01*
X149893Y286304D01*
X150222Y286796D01*
X150337Y287376D01*
X150222Y287955D01*
X149893Y288447D01*
X149402Y288775D01*
X148822Y288891D01*
X148242Y288775D01*
X147751Y288447D01*
X147393D01*
X146902Y288775D01*
X146322Y288891D01*
X145742Y288775D01*
X145251Y288447D01*
X144893D01*
X144402Y288775D01*
X143822Y288891D01*
X143242Y288775D01*
X142751Y288447D01*
X142393D01*
X141902Y288775D01*
X141322Y288891D01*
X140742Y288775D01*
X140251Y288447D01*
X139893D01*
X139402Y288775D01*
X138822Y288891D01*
X138242Y288775D01*
X137751Y288447D01*
X137393D01*
X136902Y288775D01*
X136322Y288891D01*
X135742Y288775D01*
X135251Y288447D01*
X134893D01*
X134402Y288775D01*
X133822Y288891D01*
X133242Y288775D01*
X132751Y288447D01*
X132393D01*
X131902Y288775D01*
X131322Y288891D01*
X130742Y288775D01*
X130251Y288447D01*
X129893D01*
X129402Y288775D01*
X128822Y288891D01*
X128242Y288775D01*
X127751Y288447D01*
X127393D01*
X126902Y288775D01*
X126322Y288891D01*
X125742Y288775D01*
X125251Y288447D01*
X124893D01*
X124402Y288775D01*
X123822Y288891D01*
X123242Y288775D01*
X122751Y288447D01*
X122393D01*
X121902Y288775D01*
X121322Y288891D01*
X120742Y288775D01*
X120251Y288447D01*
X119893D01*
X119402Y288775D01*
X118822Y288891D01*
X118242Y288775D01*
X117751Y288447D01*
X117393D01*
X116902Y288775D01*
X116322Y288891D01*
X115742Y288775D01*
X115251Y288447D01*
X114893D01*
X114402Y288775D01*
X113822Y288891D01*
X113242Y288775D01*
X112751Y288447D01*
X112393D01*
X111902Y288775D01*
X111322Y288891D01*
X110742Y288775D01*
X110251Y288447D01*
X109922Y287955D01*
X109807Y287376D01*
X109922Y286796D01*
X110251Y286304D01*
X110742Y285976D01*
X111222Y285880D01*
Y285371D01*
X110742Y285275D01*
X110251Y284947D01*
X109922Y284455D01*
X109807Y283876D01*
X109922Y283296D01*
X110251Y282804D01*
X110742Y282476D01*
X111222Y282381D01*
Y281871D01*
X110742Y281775D01*
X110251Y281447D01*
X109922Y280955D01*
X109807Y280376D01*
X109922Y279796D01*
X110251Y279304D01*
X110742Y278976D01*
X111322Y278861D01*
X111902Y278976D01*
X112393Y279304D01*
X112751D01*
X113242Y278976D01*
X113822Y278861D01*
X114402Y278976D01*
X114893Y279304D01*
X115251D01*
X115742Y278976D01*
X116322Y278861D01*
X116902Y278976D01*
X117393Y279304D01*
X117751D01*
X118242Y278976D01*
X118822Y278861D01*
X119402Y278976D01*
X119893Y279304D01*
X120251D01*
X120742Y278976D01*
X121322Y278861D01*
X121902Y278976D01*
X122393Y279304D01*
X122751D01*
X123242Y278976D01*
X123822Y278861D01*
X124402Y278976D01*
X124893Y279304D01*
X125251D01*
X125742Y278976D01*
X126322Y278861D01*
X126902Y278976D01*
X127393Y279304D01*
X127751D01*
X128242Y278976D01*
X128822Y278861D01*
X129402Y278976D01*
X129893Y279304D01*
X130251D01*
X130742Y278976D01*
X131322Y278861D01*
X131902Y278976D01*
X132393Y279304D01*
X132751D01*
X133242Y278976D01*
X133822Y278861D01*
X134402Y278976D01*
X134893Y279304D01*
X135251D01*
X135742Y278976D01*
X136322Y278861D01*
X136902Y278976D01*
X137393Y279304D01*
X137751D01*
X138242Y278976D01*
X138822Y278861D01*
X139402Y278976D01*
X139893Y279304D01*
X140251D01*
X140742Y278976D01*
X141322Y278861D01*
X141902Y278976D01*
X142393Y279304D01*
X142751D01*
X143242Y278976D01*
X143822Y278861D01*
X144402Y278976D01*
X144893Y279304D01*
X145251D01*
X145742Y278976D01*
X146322Y278861D01*
X146902Y278976D01*
X147393Y279304D01*
X147751D01*
X148242Y278976D01*
X148810Y278863D01*
X148848Y278808D01*
X149050Y278396D01*
X127776Y257121D01*
X126941D01*
X126590Y257052D01*
X126292Y256853D01*
X102860Y233421D01*
X102661Y233123D01*
X102592Y232772D01*
Y232669D01*
X102409Y232547D01*
X102080Y232055D01*
X101965Y231476D01*
X102080Y230896D01*
X102409Y230404D01*
X102900Y230076D01*
X103480Y229961D01*
X104060Y230076D01*
X104551Y230404D01*
X104879Y230896D01*
X104995Y231476D01*
X104879Y232055D01*
X104563Y232528D01*
X127321Y255286D01*
X128156D01*
X128507Y255356D01*
X128804Y255555D01*
X174129Y300879D01*
X174328Y301177D01*
X174397Y301528D01*
Y434095D01*
X176334Y436032D01*
X176694Y435961D01*
X177274Y436076D01*
X177765Y436404D01*
X178094Y436896D01*
X178209Y437476D01*
X178094Y438055D01*
X177765Y438547D01*
X177274Y438875D01*
X176694Y438990D01*
D02*
G37*
G36*
X198480Y437991D02*
X197900Y437875D01*
X197409Y437547D01*
X197080Y437055D01*
X196965Y436476D01*
X197080Y435896D01*
X197409Y435404D01*
X197900Y435076D01*
X198480Y434961D01*
X199059Y435076D01*
X199551Y435404D01*
X199879Y435896D01*
X199995Y436476D01*
X199879Y437055D01*
X199551Y437547D01*
X199059Y437875D01*
X198480Y437991D01*
D02*
G37*
G36*
X198505Y432991D02*
X197926Y432875D01*
X197434Y432547D01*
X197106Y432055D01*
X196991Y431476D01*
X197106Y430896D01*
X197434Y430404D01*
X197926Y430076D01*
X198505Y429961D01*
X199085Y430076D01*
X199577Y430404D01*
X199905Y430896D01*
X200020Y431476D01*
X199905Y432055D01*
X199577Y432547D01*
X199085Y432875D01*
X198505Y432991D01*
D02*
G37*
G36*
X189480Y438990D02*
X188900Y438875D01*
X188409Y438547D01*
X188080Y438055D01*
X187965Y437476D01*
X188080Y436896D01*
X188409Y436404D01*
X188662Y436235D01*
Y419183D01*
X188609Y419147D01*
X188280Y418655D01*
X188165Y418076D01*
X188280Y417496D01*
X188609Y417004D01*
X189100Y416676D01*
X189680Y416561D01*
X190260Y416676D01*
X190751Y417004D01*
X191079Y417496D01*
X191195Y418076D01*
X191079Y418655D01*
X190751Y419147D01*
X190497Y419316D01*
Y436369D01*
X190551Y436404D01*
X190879Y436896D01*
X190995Y437476D01*
X190879Y438055D01*
X190551Y438547D01*
X190059Y438875D01*
X189480Y438990D01*
D02*
G37*
G36*
X207999Y414168D02*
X202881D01*
X202422Y413978D01*
X202232Y413519D01*
Y367850D01*
X202421Y367393D01*
X202422Y367390D01*
X202881Y367200D01*
X202883Y367201D01*
X203119Y367299D01*
X207999D01*
X208459Y367489D01*
X208649Y367948D01*
Y413519D01*
X208459Y413978D01*
X207999Y414168D01*
D02*
G37*
G36*
X76380Y340090D02*
X75800Y339975D01*
X75309Y339647D01*
X74980Y339155D01*
X74865Y338576D01*
X74980Y337996D01*
X75309Y337504D01*
X75800Y337176D01*
X76067Y337123D01*
Y336613D01*
X75900Y336580D01*
X75409Y336251D01*
X75080Y335760D01*
X74965Y335180D01*
X75080Y334601D01*
X75409Y334109D01*
X75900Y333781D01*
X76480Y333665D01*
X77060Y333781D01*
X77551Y334109D01*
X77879Y334601D01*
X77995Y335180D01*
X77879Y335760D01*
X77551Y336251D01*
X77060Y336580D01*
X76793Y336633D01*
Y337143D01*
X76960Y337176D01*
X77451Y337504D01*
X77779Y337996D01*
X77895Y338576D01*
X77779Y339155D01*
X77451Y339647D01*
X76960Y339975D01*
X76380Y340090D01*
D02*
G37*
G36*
X120322Y339090D02*
X119742Y338975D01*
X119251Y338647D01*
X118922Y338155D01*
X118807Y337576D01*
X118922Y336996D01*
X119251Y336504D01*
X119742Y336176D01*
X120214Y336082D01*
Y335572D01*
X119742Y335478D01*
X119251Y335150D01*
X118922Y334659D01*
X118807Y334079D01*
X118922Y333499D01*
X119251Y333008D01*
X119742Y332679D01*
X120322Y332564D01*
X120902Y332679D01*
X121393Y333008D01*
X121722Y333499D01*
X121837Y334079D01*
X121722Y334659D01*
X121393Y335150D01*
X120902Y335478D01*
X120430Y335572D01*
Y336082D01*
X120902Y336176D01*
X121393Y336504D01*
X121722Y336996D01*
X121837Y337576D01*
X121722Y338155D01*
X121393Y338647D01*
X120902Y338975D01*
X120322Y339090D01*
D02*
G37*
G36*
X97680Y338891D02*
X97100Y338775D01*
X96609Y338447D01*
X96280Y337955D01*
X96165Y337376D01*
X96280Y336796D01*
X96609Y336304D01*
X97067Y335998D01*
X97083Y335859D01*
X97027Y335481D01*
X97000Y335475D01*
X96509Y335147D01*
X96180Y334655D01*
X96065Y334076D01*
X96180Y333496D01*
X96509Y333004D01*
X97000Y332676D01*
X97580Y332561D01*
X98159Y332676D01*
X98651Y333004D01*
X98979Y333496D01*
X99095Y334076D01*
X98979Y334655D01*
X98651Y335147D01*
X98193Y335453D01*
X98177Y335592D01*
X98232Y335970D01*
X98260Y335976D01*
X98751Y336304D01*
X99079Y336796D01*
X99195Y337376D01*
X99079Y337955D01*
X98751Y338447D01*
X98260Y338775D01*
X97680Y338891D01*
D02*
G37*
G36*
X120322Y332090D02*
X119742Y331975D01*
X119251Y331647D01*
X118922Y331155D01*
X118807Y330576D01*
X118922Y329996D01*
X119251Y329504D01*
X119742Y329176D01*
X120322Y329061D01*
X120902Y329176D01*
X121393Y329504D01*
X121722Y329996D01*
X121837Y330576D01*
X121722Y331155D01*
X121393Y331647D01*
X120902Y331975D01*
X120322Y332090D01*
D02*
G37*
G36*
X162822Y320590D02*
X162242Y320475D01*
X161751Y320147D01*
X161422Y319655D01*
X161307Y319076D01*
X161422Y318496D01*
X161751Y318004D01*
X162242Y317676D01*
X162822Y317561D01*
X163402Y317676D01*
X163893Y318004D01*
X164222Y318496D01*
X164337Y319076D01*
X164222Y319655D01*
X163893Y320147D01*
X163402Y320475D01*
X162822Y320590D01*
D02*
G37*
G36*
X62402Y316440D02*
X61822Y316324D01*
X61331Y315996D01*
X60973D01*
X60482Y316324D01*
X59902Y316440D01*
X59322Y316324D01*
X58831Y315996D01*
X58473D01*
X57982Y316324D01*
X57402Y316440D01*
X56822Y316324D01*
X56331Y315996D01*
X55973D01*
X55482Y316324D01*
X54902Y316440D01*
X54322Y316324D01*
X53831Y315996D01*
X53473D01*
X52982Y316324D01*
X52402Y316440D01*
X51822Y316324D01*
X51331Y315996D01*
X50973D01*
X50482Y316324D01*
X49902Y316440D01*
X49322Y316324D01*
X48831Y315996D01*
X48473D01*
X47982Y316324D01*
X47402Y316440D01*
X46822Y316324D01*
X46331Y315996D01*
X45973D01*
X45482Y316324D01*
X44902Y316440D01*
X44322Y316324D01*
X43831Y315996D01*
X43473D01*
X42982Y316324D01*
X42402Y316440D01*
X41822Y316324D01*
X41331Y315996D01*
X40973D01*
X40482Y316324D01*
X39902Y316440D01*
X39322Y316324D01*
X38831Y315996D01*
X38473D01*
X37982Y316324D01*
X37402Y316440D01*
X36822Y316324D01*
X36331Y315996D01*
X35973D01*
X35482Y316324D01*
X34902Y316440D01*
X34322Y316324D01*
X33831Y315996D01*
X33473D01*
X32982Y316324D01*
X32402Y316440D01*
X31822Y316324D01*
X31331Y315996D01*
X30973D01*
X30482Y316324D01*
X29902Y316440D01*
X29322Y316324D01*
X28831Y315996D01*
X28473D01*
X27982Y316324D01*
X27402Y316440D01*
X26822Y316324D01*
X26331Y315996D01*
X25973D01*
X25482Y316324D01*
X24902Y316440D01*
X24322Y316324D01*
X23831Y315996D01*
X23503Y315504D01*
X23387Y314925D01*
X23503Y314345D01*
X23831Y313854D01*
X24322Y313525D01*
X24802Y313430D01*
Y312920D01*
X24322Y312824D01*
X23831Y312496D01*
X23503Y312004D01*
X23387Y311425D01*
X23503Y310845D01*
X23831Y310353D01*
X24322Y310025D01*
X24802Y309930D01*
Y309420D01*
X24322Y309324D01*
X23831Y308996D01*
X23503Y308504D01*
X23387Y307925D01*
X23503Y307345D01*
X23831Y306854D01*
X24322Y306525D01*
X24902Y306410D01*
X25482Y306525D01*
X25973Y306854D01*
X26331D01*
X26822Y306525D01*
X27402Y306410D01*
X27982Y306525D01*
X28473Y306854D01*
X28831D01*
X29322Y306525D01*
X29902Y306410D01*
X30482Y306525D01*
X30973Y306854D01*
X31331D01*
X31822Y306525D01*
X32402Y306410D01*
X32982Y306525D01*
X33473Y306854D01*
X33831D01*
X34322Y306525D01*
X34902Y306410D01*
X35482Y306525D01*
X35973Y306854D01*
X36331D01*
X36822Y306525D01*
X37402Y306410D01*
X37982Y306525D01*
X38473Y306854D01*
X38831D01*
X39322Y306525D01*
X39902Y306410D01*
X40482Y306525D01*
X40973Y306854D01*
X41331D01*
X41822Y306525D01*
X42402Y306410D01*
X42982Y306525D01*
X43473Y306854D01*
X43831D01*
X44322Y306525D01*
X44902Y306410D01*
X45482Y306525D01*
X45973Y306854D01*
X46331D01*
X46822Y306525D01*
X47402Y306410D01*
X47982Y306525D01*
X48473Y306854D01*
X48831D01*
X49322Y306525D01*
X49902Y306410D01*
X50482Y306525D01*
X50973Y306854D01*
X51331D01*
X51822Y306525D01*
X52402Y306410D01*
X52982Y306525D01*
X53473Y306854D01*
X53831D01*
X54322Y306525D01*
X54902Y306410D01*
X55482Y306525D01*
X55973Y306854D01*
X56331D01*
X56822Y306525D01*
X57402Y306410D01*
X57982Y306525D01*
X58473Y306854D01*
X58831D01*
X59322Y306525D01*
X59902Y306410D01*
X60482Y306525D01*
X60973Y306854D01*
X61331D01*
X61822Y306525D01*
X62402Y306410D01*
X62982Y306525D01*
X63473Y306854D01*
X63802Y307345D01*
X63917Y307925D01*
X63802Y308504D01*
X63473Y308996D01*
X62982Y309324D01*
X62502Y309420D01*
Y309930D01*
X62982Y310025D01*
X63473Y310353D01*
X63802Y310845D01*
X63917Y311425D01*
X63802Y312004D01*
X63473Y312496D01*
X62982Y312824D01*
X62502Y312920D01*
Y313430D01*
X62982Y313525D01*
X63473Y313854D01*
X63802Y314345D01*
X63917Y314925D01*
X63802Y315504D01*
X63473Y315996D01*
X62982Y316324D01*
X62402Y316440D01*
D02*
G37*
G36*
X148822Y315891D02*
X148242Y315775D01*
X147751Y315447D01*
X147393D01*
X146902Y315775D01*
X146322Y315891D01*
X145742Y315775D01*
X145251Y315447D01*
X144893D01*
X144402Y315775D01*
X143822Y315891D01*
X143242Y315775D01*
X142751Y315447D01*
X142393D01*
X141902Y315775D01*
X141322Y315891D01*
X140742Y315775D01*
X140251Y315447D01*
X139893D01*
X139402Y315775D01*
X138822Y315891D01*
X138242Y315775D01*
X137751Y315447D01*
X137393D01*
X136902Y315775D01*
X136322Y315891D01*
X135742Y315775D01*
X135251Y315447D01*
X134893D01*
X134402Y315775D01*
X133822Y315891D01*
X133242Y315775D01*
X132751Y315447D01*
X132393D01*
X131902Y315775D01*
X131322Y315891D01*
X130742Y315775D01*
X130251Y315447D01*
X129893D01*
X129402Y315775D01*
X128822Y315891D01*
X128242Y315775D01*
X127751Y315447D01*
X127393D01*
X126902Y315775D01*
X126322Y315891D01*
X125742Y315775D01*
X125251Y315447D01*
X124893D01*
X124402Y315775D01*
X123822Y315891D01*
X123242Y315775D01*
X122751Y315447D01*
X122393D01*
X121902Y315775D01*
X121322Y315891D01*
X120742Y315775D01*
X120251Y315447D01*
X119893D01*
X119402Y315775D01*
X118822Y315891D01*
X118242Y315775D01*
X117751Y315447D01*
X117393D01*
X116902Y315775D01*
X116322Y315891D01*
X115742Y315775D01*
X115251Y315447D01*
X114893D01*
X114402Y315775D01*
X113822Y315891D01*
X113242Y315775D01*
X112751Y315447D01*
X112393D01*
X111902Y315775D01*
X111322Y315891D01*
X110742Y315775D01*
X110251Y315447D01*
X109922Y314955D01*
X109807Y314376D01*
X109922Y313796D01*
X110251Y313304D01*
X110742Y312976D01*
X111222Y312880D01*
Y312371D01*
X110742Y312275D01*
X110251Y311947D01*
X109922Y311455D01*
X109807Y310876D01*
X109922Y310296D01*
X110251Y309804D01*
X110742Y309476D01*
X111222Y309381D01*
Y308871D01*
X110742Y308775D01*
X110251Y308447D01*
X109922Y307955D01*
X109807Y307376D01*
X109922Y306796D01*
X110251Y306304D01*
X110742Y305976D01*
X111322Y305861D01*
X111902Y305976D01*
X112393Y306304D01*
X112751D01*
X113242Y305976D01*
X113822Y305861D01*
X114402Y305976D01*
X114893Y306304D01*
X115251D01*
X115742Y305976D01*
X116322Y305861D01*
X116902Y305976D01*
X117393Y306304D01*
X117751D01*
X118242Y305976D01*
X118822Y305861D01*
X119402Y305976D01*
X119893Y306304D01*
X120251D01*
X120742Y305976D01*
X121322Y305861D01*
X121902Y305976D01*
X122393Y306304D01*
X122751D01*
X123242Y305976D01*
X123822Y305861D01*
X124402Y305976D01*
X124893Y306304D01*
X125251D01*
X125742Y305976D01*
X126322Y305861D01*
X126902Y305976D01*
X127393Y306304D01*
X127751D01*
X128242Y305976D01*
X128822Y305861D01*
X129402Y305976D01*
X129893Y306304D01*
X130251D01*
X130742Y305976D01*
X131322Y305861D01*
X131902Y305976D01*
X132393Y306304D01*
X132751D01*
X133242Y305976D01*
X133822Y305861D01*
X134402Y305976D01*
X134893Y306304D01*
X135251D01*
X135742Y305976D01*
X136322Y305861D01*
X136902Y305976D01*
X137393Y306304D01*
X137751D01*
X138242Y305976D01*
X138822Y305861D01*
X139402Y305976D01*
X139893Y306304D01*
X140251D01*
X140742Y305976D01*
X141322Y305861D01*
X141902Y305976D01*
X142393Y306304D01*
X142751D01*
X143242Y305976D01*
X143822Y305861D01*
X144402Y305976D01*
X144893Y306304D01*
X145251D01*
X145742Y305976D01*
X146322Y305861D01*
X146902Y305976D01*
X147393Y306304D01*
X147751D01*
X148242Y305976D01*
X148822Y305861D01*
X149402Y305976D01*
X149893Y306304D01*
X150222Y306796D01*
X150337Y307376D01*
X150222Y307955D01*
X149893Y308447D01*
X149402Y308775D01*
X148922Y308871D01*
Y309381D01*
X149402Y309476D01*
X149893Y309804D01*
X150222Y310296D01*
X150337Y310876D01*
X150222Y311455D01*
X149893Y311947D01*
X149402Y312275D01*
X148922Y312371D01*
Y312880D01*
X149402Y312976D01*
X149893Y313304D01*
X150222Y313796D01*
X150337Y314376D01*
X150222Y314955D01*
X149893Y315447D01*
X149402Y315775D01*
X148822Y315891D01*
D02*
G37*
G36*
X162822Y316938D02*
X162242Y316823D01*
X161751Y316494D01*
X161422Y316003D01*
X161307Y315423D01*
X161422Y314844D01*
X161751Y314352D01*
X162242Y314024D01*
X162822Y313908D01*
X163402Y314024D01*
X163893Y314352D01*
X164222Y314844D01*
X164337Y315423D01*
X164222Y316003D01*
X163893Y316494D01*
X163402Y316823D01*
X162822Y316938D01*
D02*
G37*
G36*
Y313286D02*
X162242Y313171D01*
X161751Y312842D01*
X161422Y312351D01*
X161307Y311771D01*
X161422Y311191D01*
X161751Y310700D01*
X162242Y310371D01*
X162822Y310256D01*
X163402Y310371D01*
X163893Y310700D01*
X164222Y311191D01*
X164337Y311771D01*
X164222Y312351D01*
X163893Y312842D01*
X163402Y313171D01*
X162822Y313286D01*
D02*
G37*
G36*
X62402Y302440D02*
X61822Y302324D01*
X61331Y301996D01*
X60973D01*
X60482Y302324D01*
X59902Y302440D01*
X59322Y302324D01*
X58831Y301996D01*
X58473D01*
X57982Y302324D01*
X57402Y302440D01*
X56822Y302324D01*
X56331Y301996D01*
X55973D01*
X55482Y302324D01*
X54902Y302440D01*
X54322Y302324D01*
X53831Y301996D01*
X53473D01*
X52982Y302324D01*
X52402Y302440D01*
X51822Y302324D01*
X51331Y301996D01*
X50973D01*
X50482Y302324D01*
X49902Y302440D01*
X49322Y302324D01*
X48831Y301996D01*
X48473D01*
X47982Y302324D01*
X47402Y302440D01*
X46822Y302324D01*
X46331Y301996D01*
X45973D01*
X45482Y302324D01*
X44902Y302440D01*
X44322Y302324D01*
X43831Y301996D01*
X43473D01*
X42982Y302324D01*
X42402Y302440D01*
X41822Y302324D01*
X41331Y301996D01*
X40973D01*
X40482Y302324D01*
X39902Y302440D01*
X39322Y302324D01*
X38831Y301996D01*
X38473D01*
X37982Y302324D01*
X37402Y302440D01*
X36822Y302324D01*
X36331Y301996D01*
X35973D01*
X35482Y302324D01*
X34902Y302440D01*
X34322Y302324D01*
X33831Y301996D01*
X33473D01*
X32982Y302324D01*
X32402Y302440D01*
X31822Y302324D01*
X31331Y301996D01*
X30973D01*
X30482Y302324D01*
X29902Y302440D01*
X29322Y302324D01*
X28831Y301996D01*
X28473D01*
X27982Y302324D01*
X27402Y302440D01*
X26822Y302324D01*
X26331Y301996D01*
X25973D01*
X25482Y302324D01*
X24902Y302440D01*
X24322Y302324D01*
X23831Y301996D01*
X23503Y301504D01*
X23387Y300925D01*
X23503Y300345D01*
X23831Y299853D01*
X24322Y299525D01*
X24802Y299430D01*
Y298920D01*
X24322Y298824D01*
X23831Y298496D01*
X23503Y298004D01*
X23387Y297425D01*
X23503Y296845D01*
X23831Y296354D01*
X24322Y296025D01*
X24802Y295930D01*
Y295420D01*
X24322Y295324D01*
X23831Y294996D01*
X23503Y294504D01*
X23387Y293925D01*
X23503Y293345D01*
X23831Y292853D01*
X24322Y292525D01*
X24902Y292410D01*
X25482Y292525D01*
X25973Y292853D01*
X26331D01*
X26822Y292525D01*
X27402Y292410D01*
X27982Y292525D01*
X28473Y292853D01*
X28831D01*
X29322Y292525D01*
X29902Y292410D01*
X30482Y292525D01*
X30973Y292853D01*
X31331D01*
X31822Y292525D01*
X32402Y292410D01*
X32982Y292525D01*
X33473Y292853D01*
X33831D01*
X34322Y292525D01*
X34902Y292410D01*
X35482Y292525D01*
X35973Y292853D01*
X36331D01*
X36822Y292525D01*
X37402Y292410D01*
X37982Y292525D01*
X38473Y292853D01*
X38831D01*
X39322Y292525D01*
X39902Y292410D01*
X40482Y292525D01*
X40973Y292853D01*
X41331D01*
X41822Y292525D01*
X42402Y292410D01*
X42982Y292525D01*
X43473Y292853D01*
X43831D01*
X44322Y292525D01*
X44902Y292410D01*
X45482Y292525D01*
X45973Y292853D01*
X46331D01*
X46822Y292525D01*
X47402Y292410D01*
X47982Y292525D01*
X48473Y292853D01*
X48831D01*
X49322Y292525D01*
X49902Y292410D01*
X50482Y292525D01*
X50973Y292853D01*
X51331D01*
X51822Y292525D01*
X52402Y292410D01*
X52982Y292525D01*
X53473Y292853D01*
X53831D01*
X54322Y292525D01*
X54902Y292410D01*
X55482Y292525D01*
X55973Y292853D01*
X56331D01*
X56822Y292525D01*
X57402Y292410D01*
X57982Y292525D01*
X58473Y292853D01*
X58831D01*
X59322Y292525D01*
X59902Y292410D01*
X60482Y292525D01*
X60973Y292853D01*
X61331D01*
X61822Y292525D01*
X62402Y292410D01*
X62982Y292525D01*
X63473Y292853D01*
X63802Y293345D01*
X63917Y293925D01*
X63802Y294504D01*
X63473Y294996D01*
X62982Y295324D01*
X62502Y295420D01*
Y295930D01*
X62982Y296025D01*
X63473Y296354D01*
X63802Y296845D01*
X63917Y297425D01*
X63802Y298004D01*
X63473Y298496D01*
X62982Y298824D01*
X62502Y298920D01*
Y299430D01*
X62982Y299525D01*
X63473Y299853D01*
X63802Y300345D01*
X63917Y300925D01*
X63802Y301504D01*
X63473Y301996D01*
X62982Y302324D01*
X62402Y302440D01*
D02*
G37*
G36*
X148822Y301890D02*
X148242Y301775D01*
X147751Y301447D01*
X147393D01*
X146902Y301775D01*
X146322Y301890D01*
X145742Y301775D01*
X145251Y301447D01*
X144893D01*
X144402Y301775D01*
X143822Y301890D01*
X143242Y301775D01*
X142751Y301447D01*
X142393D01*
X141902Y301775D01*
X141322Y301890D01*
X140742Y301775D01*
X140251Y301447D01*
X139893D01*
X139402Y301775D01*
X138822Y301890D01*
X138242Y301775D01*
X137751Y301447D01*
X137393D01*
X136902Y301775D01*
X136322Y301890D01*
X135742Y301775D01*
X135251Y301447D01*
X134893D01*
X134402Y301775D01*
X133822Y301890D01*
X133242Y301775D01*
X132751Y301447D01*
X132393D01*
X131902Y301775D01*
X131322Y301890D01*
X130742Y301775D01*
X130251Y301447D01*
X129893D01*
X129402Y301775D01*
X128822Y301890D01*
X128242Y301775D01*
X127751Y301447D01*
X127393D01*
X126902Y301775D01*
X126322Y301890D01*
X125742Y301775D01*
X125251Y301447D01*
X124893D01*
X124402Y301775D01*
X123822Y301890D01*
X123242Y301775D01*
X122751Y301447D01*
X122393D01*
X121902Y301775D01*
X121322Y301890D01*
X120742Y301775D01*
X120251Y301447D01*
X119893D01*
X119402Y301775D01*
X118822Y301890D01*
X118242Y301775D01*
X117751Y301447D01*
X117393D01*
X116902Y301775D01*
X116322Y301890D01*
X115742Y301775D01*
X115251Y301447D01*
X114893D01*
X114402Y301775D01*
X113822Y301890D01*
X113242Y301775D01*
X112751Y301447D01*
X112393D01*
X111902Y301775D01*
X111322Y301890D01*
X110742Y301775D01*
X110251Y301447D01*
X109922Y300955D01*
X109807Y300376D01*
X109922Y299796D01*
X110251Y299304D01*
X110742Y298976D01*
X111222Y298881D01*
Y298371D01*
X110742Y298275D01*
X110251Y297947D01*
X109922Y297455D01*
X109807Y296876D01*
X109922Y296296D01*
X110251Y295804D01*
X110742Y295476D01*
X111222Y295380D01*
Y294871D01*
X110742Y294775D01*
X110251Y294447D01*
X109922Y293955D01*
X109807Y293376D01*
X109922Y292796D01*
X110251Y292304D01*
X110742Y291976D01*
X111322Y291861D01*
X111902Y291976D01*
X112393Y292304D01*
X112751D01*
X113242Y291976D01*
X113822Y291861D01*
X114402Y291976D01*
X114893Y292304D01*
X115251D01*
X115742Y291976D01*
X116322Y291861D01*
X116902Y291976D01*
X117393Y292304D01*
X117751D01*
X118242Y291976D01*
X118822Y291861D01*
X119402Y291976D01*
X119893Y292304D01*
X120251D01*
X120742Y291976D01*
X121322Y291861D01*
X121902Y291976D01*
X122393Y292304D01*
X122751D01*
X123242Y291976D01*
X123822Y291861D01*
X124402Y291976D01*
X124893Y292304D01*
X125251D01*
X125742Y291976D01*
X126322Y291861D01*
X126902Y291976D01*
X127393Y292304D01*
X127751D01*
X128242Y291976D01*
X128822Y291861D01*
X129402Y291976D01*
X129893Y292304D01*
X130251D01*
X130742Y291976D01*
X131322Y291861D01*
X131902Y291976D01*
X132393Y292304D01*
X132751D01*
X133242Y291976D01*
X133822Y291861D01*
X134402Y291976D01*
X134893Y292304D01*
X135251D01*
X135742Y291976D01*
X136322Y291861D01*
X136902Y291976D01*
X137393Y292304D01*
X137751D01*
X138242Y291976D01*
X138822Y291861D01*
X139402Y291976D01*
X139893Y292304D01*
X140251D01*
X140742Y291976D01*
X141322Y291861D01*
X141902Y291976D01*
X142393Y292304D01*
X142751D01*
X143242Y291976D01*
X143822Y291861D01*
X144402Y291976D01*
X144893Y292304D01*
X145251D01*
X145742Y291976D01*
X146322Y291861D01*
X146902Y291976D01*
X147393Y292304D01*
X147751D01*
X148242Y291976D01*
X148822Y291861D01*
X149402Y291976D01*
X149893Y292304D01*
X150222Y292796D01*
X150337Y293376D01*
X150222Y293955D01*
X149893Y294447D01*
X149402Y294775D01*
X148922Y294871D01*
Y295380D01*
X149402Y295476D01*
X149893Y295804D01*
X150222Y296296D01*
X150337Y296876D01*
X150222Y297455D01*
X149893Y297947D01*
X149402Y298275D01*
X148922Y298371D01*
Y298881D01*
X149402Y298976D01*
X149893Y299304D01*
X150222Y299796D01*
X150337Y300376D01*
X150222Y300955D01*
X149893Y301447D01*
X149402Y301775D01*
X148822Y301890D01*
D02*
G37*
G36*
X62402Y289440D02*
X61822Y289324D01*
X61331Y288996D01*
X60973D01*
X60482Y289324D01*
X59902Y289440D01*
X59322Y289324D01*
X58831Y288996D01*
X58473D01*
X57982Y289324D01*
X57402Y289440D01*
X56822Y289324D01*
X56331Y288996D01*
X55973D01*
X55482Y289324D01*
X54902Y289440D01*
X54322Y289324D01*
X53831Y288996D01*
X53473D01*
X52982Y289324D01*
X52402Y289440D01*
X51822Y289324D01*
X51331Y288996D01*
X50973D01*
X50482Y289324D01*
X49902Y289440D01*
X49322Y289324D01*
X48831Y288996D01*
X48473D01*
X47982Y289324D01*
X47402Y289440D01*
X46822Y289324D01*
X46331Y288996D01*
X45973D01*
X45482Y289324D01*
X44902Y289440D01*
X44322Y289324D01*
X43831Y288996D01*
X43473D01*
X42982Y289324D01*
X42402Y289440D01*
X41822Y289324D01*
X41331Y288996D01*
X40973D01*
X40482Y289324D01*
X39902Y289440D01*
X39322Y289324D01*
X38831Y288996D01*
X38473D01*
X37982Y289324D01*
X37402Y289440D01*
X36822Y289324D01*
X36331Y288996D01*
X35973D01*
X35482Y289324D01*
X34902Y289440D01*
X34322Y289324D01*
X33831Y288996D01*
X33473D01*
X32982Y289324D01*
X32402Y289440D01*
X31822Y289324D01*
X31331Y288996D01*
X30973D01*
X30482Y289324D01*
X29902Y289440D01*
X29322Y289324D01*
X28831Y288996D01*
X28473D01*
X27982Y289324D01*
X27402Y289440D01*
X26822Y289324D01*
X26331Y288996D01*
X25973D01*
X25482Y289324D01*
X24902Y289440D01*
X24322Y289324D01*
X23831Y288996D01*
X23503Y288504D01*
X23387Y287925D01*
X23503Y287345D01*
X23831Y286854D01*
X24322Y286525D01*
X24802Y286430D01*
Y285920D01*
X24322Y285824D01*
X23831Y285496D01*
X23503Y285004D01*
X23387Y284425D01*
X23503Y283845D01*
X23831Y283353D01*
X24322Y283025D01*
X24802Y282930D01*
Y282420D01*
X24322Y282324D01*
X23831Y281996D01*
X23503Y281504D01*
X23387Y280925D01*
X23503Y280345D01*
X23831Y279854D01*
X24322Y279525D01*
X24902Y279410D01*
X25482Y279525D01*
X25973Y279854D01*
X26331D01*
X26822Y279525D01*
X27402Y279410D01*
X27982Y279525D01*
X28473Y279854D01*
X28831D01*
X29322Y279525D01*
X29902Y279410D01*
X30482Y279525D01*
X30973Y279854D01*
X31331D01*
X31822Y279525D01*
X32402Y279410D01*
X32982Y279525D01*
X33473Y279854D01*
X33831D01*
X34322Y279525D01*
X34902Y279410D01*
X35482Y279525D01*
X35973Y279854D01*
X36331D01*
X36822Y279525D01*
X37402Y279410D01*
X37982Y279525D01*
X38473Y279854D01*
X38831D01*
X39322Y279525D01*
X39902Y279410D01*
X40482Y279525D01*
X40973Y279854D01*
X41331D01*
X41822Y279525D01*
X42402Y279410D01*
X42982Y279525D01*
X43473Y279854D01*
X43831D01*
X44322Y279525D01*
X44902Y279410D01*
X45482Y279525D01*
X45973Y279854D01*
X46331D01*
X46822Y279525D01*
X47402Y279410D01*
X47982Y279525D01*
X48473Y279854D01*
X48831D01*
X49322Y279525D01*
X49902Y279410D01*
X50482Y279525D01*
X50973Y279854D01*
X51331D01*
X51822Y279525D01*
X52402Y279410D01*
X52982Y279525D01*
X53473Y279854D01*
X53831D01*
X54322Y279525D01*
X54902Y279410D01*
X55482Y279525D01*
X55973Y279854D01*
X56331D01*
X56822Y279525D01*
X57402Y279410D01*
X57982Y279525D01*
X58473Y279854D01*
X58831D01*
X59322Y279525D01*
X59902Y279410D01*
X60482Y279525D01*
X60973Y279854D01*
X61331D01*
X61822Y279525D01*
X62402Y279410D01*
X62982Y279525D01*
X63473Y279854D01*
X63802Y280345D01*
X63917Y280925D01*
X63802Y281504D01*
X63473Y281996D01*
X62982Y282324D01*
X62502Y282420D01*
Y282930D01*
X62982Y283025D01*
X63473Y283353D01*
X63802Y283845D01*
X63917Y284425D01*
X63802Y285004D01*
X63473Y285496D01*
X62982Y285824D01*
X62502Y285920D01*
Y286430D01*
X62982Y286525D01*
X63473Y286854D01*
X63802Y287345D01*
X63917Y287925D01*
X63802Y288504D01*
X63473Y288996D01*
X62982Y289324D01*
X62402Y289440D01*
D02*
G37*
G36*
X14619Y264528D02*
X7482D01*
Y257391D01*
X14619D01*
Y264528D01*
D02*
G37*
G36*
X11051Y254717D02*
X10119Y254594D01*
X9251Y254234D01*
X8506Y253662D01*
X7934Y252917D01*
X7574Y252049D01*
X7451Y251117D01*
X7574Y250186D01*
X7934Y249318D01*
X8506Y248572D01*
X9251Y248000D01*
X10119Y247641D01*
X11051Y247518D01*
X11982Y247641D01*
X12850Y248000D01*
X13596Y248572D01*
X14168Y249318D01*
X14527Y250186D01*
X14650Y251117D01*
X14527Y252049D01*
X14168Y252917D01*
X13596Y253662D01*
X12850Y254234D01*
X11982Y254594D01*
X11051Y254717D01*
D02*
G37*
G36*
X102929Y242990D02*
X102349Y242875D01*
X101857Y242547D01*
X101529Y242055D01*
X101414Y241476D01*
X101529Y240896D01*
X101857Y240404D01*
X102349Y240076D01*
X102929Y239961D01*
X103508Y240076D01*
X104000Y240404D01*
X104328Y240896D01*
X104444Y241476D01*
X104328Y242055D01*
X104000Y242547D01*
X103508Y242875D01*
X102929Y242990D01*
D02*
G37*
G36*
X83480D02*
X82900Y242875D01*
X82409Y242547D01*
X82080Y242055D01*
X81965Y241476D01*
X82080Y240896D01*
X82409Y240404D01*
X82900Y240076D01*
X83480Y239961D01*
X84060Y240076D01*
X84551Y240404D01*
X84879Y240896D01*
X84995Y241476D01*
X84879Y242055D01*
X84551Y242547D01*
X84060Y242875D01*
X83480Y242990D01*
D02*
G37*
G36*
X128480Y242491D02*
X127900Y242375D01*
X127409Y242047D01*
X127080Y241555D01*
X126965Y240976D01*
X127080Y240396D01*
X127409Y239904D01*
X127900Y239576D01*
X128480Y239461D01*
X129060Y239576D01*
X129551Y239904D01*
X129879Y240396D01*
X129995Y240976D01*
X129879Y241555D01*
X129551Y242047D01*
X129060Y242375D01*
X128480Y242491D01*
D02*
G37*
G36*
X11051Y244874D02*
X10119Y244752D01*
X9251Y244392D01*
X8506Y243820D01*
X7934Y243074D01*
X7574Y242206D01*
X7451Y241275D01*
X7574Y240343D01*
X7934Y239475D01*
X8506Y238730D01*
X9251Y238158D01*
X10119Y237798D01*
X11051Y237675D01*
X11982Y237798D01*
X12850Y238158D01*
X13596Y238730D01*
X14168Y239475D01*
X14527Y240343D01*
X14650Y241275D01*
X14527Y242206D01*
X14168Y243074D01*
X13596Y243820D01*
X12850Y244392D01*
X11982Y244752D01*
X11051Y244874D01*
D02*
G37*
G36*
X83480Y237990D02*
X82900Y237875D01*
X82409Y237547D01*
X82080Y237055D01*
X81965Y236476D01*
X82080Y235896D01*
X82409Y235404D01*
X82900Y235076D01*
X83480Y234961D01*
X84060Y235076D01*
X84551Y235404D01*
X84879Y235896D01*
X84995Y236476D01*
X84879Y237055D01*
X84551Y237547D01*
X84060Y237875D01*
X83480Y237990D01*
D02*
G37*
G36*
X128480Y237491D02*
X127900Y237375D01*
X127409Y237047D01*
X127080Y236555D01*
X126965Y235976D01*
X127080Y235396D01*
X127409Y234904D01*
X127900Y234576D01*
X128480Y234461D01*
X129060Y234576D01*
X129551Y234904D01*
X129879Y235396D01*
X129995Y235976D01*
X129879Y236555D01*
X129551Y237047D01*
X129060Y237375D01*
X128480Y237491D01*
D02*
G37*
G36*
X83480Y232991D02*
X82900Y232875D01*
X82409Y232547D01*
X82080Y232055D01*
X81965Y231476D01*
X82080Y230896D01*
X82409Y230404D01*
X82900Y230076D01*
X83480Y229961D01*
X84060Y230076D01*
X84551Y230404D01*
X84879Y230896D01*
X84995Y231476D01*
X84879Y232055D01*
X84551Y232547D01*
X84060Y232875D01*
X83480Y232991D01*
D02*
G37*
G36*
X128980Y232490D02*
X128400Y232375D01*
X127909Y232047D01*
X127580Y231555D01*
X127465Y230976D01*
X127580Y230396D01*
X127909Y229904D01*
X128400Y229576D01*
X128980Y229461D01*
X129560Y229576D01*
X130051Y229904D01*
X130379Y230396D01*
X130495Y230976D01*
X130379Y231555D01*
X130051Y232047D01*
X129560Y232375D01*
X128980Y232490D01*
D02*
G37*
G36*
X83480Y227991D02*
X82900Y227875D01*
X82409Y227547D01*
X82080Y227055D01*
X81965Y226476D01*
X82080Y225896D01*
X82409Y225404D01*
X82900Y225076D01*
X83480Y224961D01*
X84060Y225076D01*
X84551Y225404D01*
X84879Y225896D01*
X84995Y226476D01*
X84879Y227055D01*
X84551Y227547D01*
X84060Y227875D01*
X83480Y227991D01*
D02*
G37*
G36*
X102929Y220491D02*
X102349Y220375D01*
X101857Y220047D01*
X101529Y219555D01*
X101414Y218976D01*
X101529Y218396D01*
X101857Y217904D01*
X102349Y217576D01*
X102929Y217461D01*
X103508Y217576D01*
X104000Y217904D01*
X104328Y218396D01*
X104444Y218976D01*
X104328Y219555D01*
X104000Y220047D01*
X103508Y220375D01*
X102929Y220491D01*
D02*
G37*
G36*
X83480D02*
X82900Y220375D01*
X82409Y220047D01*
X82080Y219555D01*
X81965Y218976D01*
X82080Y218396D01*
X82409Y217904D01*
X82900Y217576D01*
X83480Y217461D01*
X84060Y217576D01*
X84551Y217904D01*
X84879Y218396D01*
X84995Y218976D01*
X84879Y219555D01*
X84551Y220047D01*
X84060Y220375D01*
X83480Y220491D01*
D02*
G37*
G36*
X147929Y219990D02*
X147349Y219875D01*
X146857Y219547D01*
X146529Y219055D01*
X146414Y218476D01*
X146529Y217896D01*
X146857Y217404D01*
X147349Y217076D01*
X147929Y216961D01*
X148508Y217076D01*
X149000Y217404D01*
X149328Y217896D01*
X149444Y218476D01*
X149328Y219055D01*
X149000Y219547D01*
X148508Y219875D01*
X147929Y219990D01*
D02*
G37*
G36*
X128480D02*
X127900Y219875D01*
X127409Y219547D01*
X127080Y219055D01*
X126965Y218476D01*
X127080Y217896D01*
X127409Y217404D01*
X127900Y217076D01*
X128480Y216961D01*
X129060Y217076D01*
X129551Y217404D01*
X129879Y217896D01*
X129995Y218476D01*
X129879Y219055D01*
X129551Y219547D01*
X129060Y219875D01*
X128480Y219990D01*
D02*
G37*
G36*
X14619Y221024D02*
X7482D01*
Y213887D01*
X14619D01*
Y221024D01*
D02*
G37*
G36*
X83480Y215491D02*
X82900Y215375D01*
X82409Y215047D01*
X82080Y214555D01*
X81965Y213976D01*
X82080Y213396D01*
X82409Y212904D01*
X82900Y212576D01*
X83480Y212461D01*
X84060Y212576D01*
X84551Y212904D01*
X84879Y213396D01*
X84995Y213976D01*
X84879Y214555D01*
X84551Y215047D01*
X84060Y215375D01*
X83480Y215491D01*
D02*
G37*
G36*
X128480Y214990D02*
X127900Y214875D01*
X127409Y214547D01*
X127080Y214055D01*
X126965Y213476D01*
X127080Y212896D01*
X127409Y212404D01*
X127900Y212076D01*
X128480Y211961D01*
X129060Y212076D01*
X129551Y212404D01*
X129879Y212896D01*
X129995Y213476D01*
X129879Y214055D01*
X129551Y214547D01*
X129060Y214875D01*
X128480Y214990D01*
D02*
G37*
G36*
X83480Y210490D02*
X82900Y210375D01*
X82409Y210047D01*
X82080Y209555D01*
X81965Y208976D01*
X82080Y208396D01*
X82409Y207904D01*
X82900Y207576D01*
X83480Y207461D01*
X84060Y207576D01*
X84551Y207904D01*
X84879Y208396D01*
X84995Y208976D01*
X84879Y209555D01*
X84551Y210047D01*
X84060Y210375D01*
X83480Y210490D01*
D02*
G37*
G36*
X128480Y209991D02*
X127900Y209875D01*
X127409Y209547D01*
X127080Y209055D01*
X126965Y208476D01*
X127080Y207896D01*
X127409Y207404D01*
X127900Y207076D01*
X128480Y206961D01*
X129060Y207076D01*
X129551Y207404D01*
X129879Y207896D01*
X129995Y208476D01*
X129879Y209055D01*
X129551Y209547D01*
X129060Y209875D01*
X128480Y209991D01*
D02*
G37*
G36*
X11051Y211213D02*
X10119Y211090D01*
X9251Y210731D01*
X8506Y210158D01*
X7934Y209413D01*
X7574Y208545D01*
X7451Y207613D01*
X7574Y206682D01*
X7934Y205814D01*
X8506Y205068D01*
X9251Y204496D01*
X10119Y204137D01*
X11051Y204014D01*
X11982Y204137D01*
X12850Y204496D01*
X13596Y205068D01*
X14168Y205814D01*
X14527Y206682D01*
X14650Y207613D01*
X14527Y208545D01*
X14168Y209413D01*
X13596Y210158D01*
X12850Y210731D01*
X11982Y211090D01*
X11051Y211213D01*
D02*
G37*
G36*
X83480Y205490D02*
X82900Y205375D01*
X82409Y205047D01*
X82080Y204555D01*
X81965Y203976D01*
X82080Y203396D01*
X82409Y202904D01*
X82900Y202576D01*
X83480Y202461D01*
X84060Y202576D01*
X84551Y202904D01*
X84879Y203396D01*
X84995Y203976D01*
X84879Y204555D01*
X84551Y205047D01*
X84060Y205375D01*
X83480Y205490D01*
D02*
G37*
G36*
X128480Y204991D02*
X127900Y204875D01*
X127409Y204547D01*
X127080Y204055D01*
X126965Y203476D01*
X127080Y202896D01*
X127409Y202404D01*
X127900Y202076D01*
X128480Y201961D01*
X129060Y202076D01*
X129551Y202404D01*
X129879Y202896D01*
X129995Y203476D01*
X129879Y204055D01*
X129551Y204547D01*
X129060Y204875D01*
X128480Y204991D01*
D02*
G37*
G36*
X11051Y201370D02*
X10119Y201248D01*
X9251Y200888D01*
X8506Y200316D01*
X7934Y199571D01*
X7574Y198702D01*
X7451Y197771D01*
X7574Y196839D01*
X7934Y195971D01*
X8506Y195226D01*
X9251Y194654D01*
X10119Y194294D01*
X11051Y194172D01*
X11982Y194294D01*
X12850Y194654D01*
X13596Y195226D01*
X14168Y195971D01*
X14527Y196839D01*
X14650Y197771D01*
X14527Y198702D01*
X14168Y199571D01*
X13596Y200316D01*
X12850Y200888D01*
X11982Y201248D01*
X11051Y201370D01*
D02*
G37*
G36*
X150519Y191215D02*
X149939Y191100D01*
X149448Y190771D01*
X149120Y190280D01*
X149004Y189700D01*
X149120Y189120D01*
X149448Y188629D01*
X149939Y188300D01*
X150519Y188185D01*
X151099Y188300D01*
X151590Y188629D01*
X151919Y189120D01*
X152034Y189700D01*
X151919Y190280D01*
X151590Y190771D01*
X151099Y191100D01*
X150519Y191215D01*
D02*
G37*
G36*
X14619Y177028D02*
X7482D01*
Y169891D01*
X14619D01*
Y177028D01*
D02*
G37*
G36*
X11051Y167217D02*
X10119Y167094D01*
X9251Y166734D01*
X8506Y166162D01*
X7934Y165417D01*
X7574Y164549D01*
X7451Y163617D01*
X7574Y162686D01*
X7934Y161818D01*
X8506Y161072D01*
X9251Y160500D01*
X10119Y160141D01*
X11051Y160018D01*
X11982Y160141D01*
X12850Y160500D01*
X13596Y161072D01*
X14168Y161818D01*
X14527Y162686D01*
X14650Y163617D01*
X14527Y164549D01*
X14168Y165417D01*
X13596Y166162D01*
X12850Y166734D01*
X11982Y167094D01*
X11051Y167217D01*
D02*
G37*
G36*
X86289Y153490D02*
X85709Y153375D01*
X85218Y153047D01*
X84889Y152555D01*
X84774Y151976D01*
X84889Y151396D01*
X85218Y150904D01*
X85709Y150576D01*
X86289Y150461D01*
X86869Y150576D01*
X87360Y150904D01*
X87688Y151396D01*
X87804Y151976D01*
X87688Y152555D01*
X87360Y153047D01*
X86869Y153375D01*
X86289Y153490D01*
D02*
G37*
G36*
X97438Y153418D02*
X96858Y153303D01*
X96367Y152974D01*
X96038Y152483D01*
X95923Y151903D01*
X96038Y151323D01*
X96367Y150832D01*
X96858Y150503D01*
X97438Y150388D01*
X98018Y150503D01*
X98509Y150832D01*
X98837Y151323D01*
X98953Y151903D01*
X98837Y152483D01*
X98509Y152974D01*
X98018Y153303D01*
X97438Y153418D01*
D02*
G37*
G36*
X11051Y157374D02*
X10119Y157251D01*
X9251Y156892D01*
X8506Y156320D01*
X7934Y155574D01*
X7574Y154706D01*
X7451Y153775D01*
X7574Y152843D01*
X7934Y151975D01*
X8506Y151230D01*
X9251Y150658D01*
X10119Y150298D01*
X11051Y150175D01*
X11982Y150298D01*
X12850Y150658D01*
X13596Y151230D01*
X14168Y151975D01*
X14527Y152843D01*
X14650Y153775D01*
X14527Y154706D01*
X14168Y155574D01*
X13596Y156320D01*
X12850Y156892D01*
X11982Y157251D01*
X11051Y157374D01*
D02*
G37*
G36*
X123891Y138784D02*
X123273Y138661D01*
X122749Y138311D01*
X122399Y137787D01*
X122276Y137169D01*
X122399Y136550D01*
X122749Y136026D01*
X123273Y135676D01*
X123891Y135553D01*
X124509Y135676D01*
X125033Y136026D01*
X125384Y136550D01*
X125506Y137169D01*
X125384Y137787D01*
X125033Y138311D01*
X124509Y138661D01*
X123891Y138784D01*
D02*
G37*
G36*
X119561D02*
X118942Y138661D01*
X118418Y138311D01*
X118068Y137787D01*
X117945Y137169D01*
X118068Y136550D01*
X118418Y136026D01*
X118942Y135676D01*
X119561Y135553D01*
X120179Y135676D01*
X120703Y136026D01*
X121053Y136550D01*
X121176Y137169D01*
X121053Y137787D01*
X120703Y138311D01*
X120179Y138661D01*
X119561Y138784D01*
D02*
G37*
G36*
X115230D02*
X114612Y138661D01*
X114088Y138311D01*
X113737Y137787D01*
X113614Y137169D01*
X113737Y136550D01*
X114088Y136026D01*
X114612Y135676D01*
X115230Y135553D01*
X115848Y135676D01*
X116372Y136026D01*
X116722Y136550D01*
X116845Y137169D01*
X116722Y137787D01*
X116372Y138311D01*
X115848Y138661D01*
X115230Y138784D01*
D02*
G37*
G36*
X110899D02*
X110281Y138661D01*
X109757Y138311D01*
X109407Y137787D01*
X109284Y137169D01*
X109407Y136550D01*
X109757Y136026D01*
X110281Y135676D01*
X110899Y135553D01*
X111517Y135676D01*
X112041Y136026D01*
X112391Y136550D01*
X112514Y137169D01*
X112391Y137787D01*
X112041Y138311D01*
X111517Y138661D01*
X110899Y138784D01*
D02*
G37*
G36*
X106568D02*
X105950Y138661D01*
X105426Y138311D01*
X105076Y137787D01*
X104953Y137169D01*
X105076Y136550D01*
X105426Y136026D01*
X105950Y135676D01*
X106568Y135553D01*
X107186Y135676D01*
X107711Y136026D01*
X108061Y136550D01*
X108184Y137169D01*
X108061Y137787D01*
X107711Y138311D01*
X107186Y138661D01*
X106568Y138784D01*
D02*
G37*
G36*
X93980Y134991D02*
X93400Y134875D01*
X92909Y134547D01*
X92580Y134055D01*
X92465Y133476D01*
X92580Y132896D01*
X92909Y132404D01*
X93400Y132076D01*
X93980Y131961D01*
X94560Y132076D01*
X95051Y132404D01*
X95379Y132896D01*
X95495Y133476D01*
X95379Y134055D01*
X95051Y134547D01*
X94560Y134875D01*
X93980Y134991D01*
D02*
G37*
G36*
X86480Y134491D02*
X85900Y134375D01*
X85409Y134047D01*
X85080Y133555D01*
X84965Y132976D01*
X85080Y132396D01*
X85409Y131904D01*
X85900Y131576D01*
X86480Y131461D01*
X87059Y131576D01*
X87551Y131904D01*
X87879Y132396D01*
X87995Y132976D01*
X87879Y133555D01*
X87551Y134047D01*
X87059Y134375D01*
X86480Y134491D01*
D02*
G37*
G36*
X123891Y134453D02*
X123273Y134330D01*
X122749Y133980D01*
X122399Y133456D01*
X122276Y132838D01*
X122399Y132220D01*
X122749Y131696D01*
X123273Y131345D01*
X123891Y131222D01*
X124509Y131345D01*
X125033Y131696D01*
X125384Y132220D01*
X125506Y132838D01*
X125384Y133456D01*
X125033Y133980D01*
X124509Y134330D01*
X123891Y134453D01*
D02*
G37*
G36*
X119561D02*
X118942Y134330D01*
X118418Y133980D01*
X118068Y133456D01*
X117945Y132838D01*
X118068Y132220D01*
X118418Y131696D01*
X118942Y131345D01*
X119561Y131222D01*
X120179Y131345D01*
X120703Y131696D01*
X121053Y132220D01*
X121176Y132838D01*
X121053Y133456D01*
X120703Y133980D01*
X120179Y134330D01*
X119561Y134453D01*
D02*
G37*
G36*
X115230D02*
X114612Y134330D01*
X114088Y133980D01*
X113737Y133456D01*
X113614Y132838D01*
X113737Y132220D01*
X114088Y131696D01*
X114612Y131345D01*
X115230Y131222D01*
X115848Y131345D01*
X116372Y131696D01*
X116722Y132220D01*
X116845Y132838D01*
X116722Y133456D01*
X116372Y133980D01*
X115848Y134330D01*
X115230Y134453D01*
D02*
G37*
G36*
X110899D02*
X110281Y134330D01*
X109757Y133980D01*
X109407Y133456D01*
X109284Y132838D01*
X109407Y132220D01*
X109757Y131696D01*
X110281Y131345D01*
X110899Y131222D01*
X111517Y131345D01*
X112041Y131696D01*
X112391Y132220D01*
X112514Y132838D01*
X112391Y133456D01*
X112041Y133980D01*
X111517Y134330D01*
X110899Y134453D01*
D02*
G37*
G36*
X106568D02*
X105950Y134330D01*
X105426Y133980D01*
X105076Y133456D01*
X104953Y132838D01*
X105076Y132220D01*
X105426Y131696D01*
X105950Y131345D01*
X106568Y131222D01*
X107186Y131345D01*
X107711Y131696D01*
X108061Y132220D01*
X108184Y132838D01*
X108061Y133456D01*
X107711Y133980D01*
X107186Y134330D01*
X106568Y134453D01*
D02*
G37*
G36*
X80980Y133991D02*
X80400Y133875D01*
X79909Y133547D01*
X79580Y133055D01*
X79465Y132476D01*
X79580Y131896D01*
X79909Y131404D01*
X80400Y131076D01*
X80980Y130961D01*
X81559Y131076D01*
X82051Y131404D01*
X82379Y131896D01*
X82495Y132476D01*
X82379Y133055D01*
X82051Y133547D01*
X81559Y133875D01*
X80980Y133991D01*
D02*
G37*
G36*
X123891Y130122D02*
X123273Y129999D01*
X122749Y129649D01*
X122399Y129125D01*
X122276Y128507D01*
X122399Y127889D01*
X122749Y127365D01*
X123273Y127015D01*
X123891Y126892D01*
X124509Y127015D01*
X125033Y127365D01*
X125384Y127889D01*
X125506Y128507D01*
X125384Y129125D01*
X125033Y129649D01*
X124509Y129999D01*
X123891Y130122D01*
D02*
G37*
G36*
X119561D02*
X118942Y129999D01*
X118418Y129649D01*
X118068Y129125D01*
X117945Y128507D01*
X118068Y127889D01*
X118418Y127365D01*
X118942Y127015D01*
X119561Y126892D01*
X120179Y127015D01*
X120703Y127365D01*
X121053Y127889D01*
X121176Y128507D01*
X121053Y129125D01*
X120703Y129649D01*
X120179Y129999D01*
X119561Y130122D01*
D02*
G37*
G36*
X115230D02*
X114612Y129999D01*
X114088Y129649D01*
X113737Y129125D01*
X113614Y128507D01*
X113737Y127889D01*
X114088Y127365D01*
X114612Y127015D01*
X115230Y126892D01*
X115848Y127015D01*
X116372Y127365D01*
X116722Y127889D01*
X116845Y128507D01*
X116722Y129125D01*
X116372Y129649D01*
X115848Y129999D01*
X115230Y130122D01*
D02*
G37*
G36*
X110899D02*
X110281Y129999D01*
X109757Y129649D01*
X109407Y129125D01*
X109284Y128507D01*
X109407Y127889D01*
X109757Y127365D01*
X110281Y127015D01*
X110899Y126892D01*
X111517Y127015D01*
X112041Y127365D01*
X112391Y127889D01*
X112514Y128507D01*
X112391Y129125D01*
X112041Y129649D01*
X111517Y129999D01*
X110899Y130122D01*
D02*
G37*
G36*
X106568D02*
X105950Y129999D01*
X105426Y129649D01*
X105076Y129125D01*
X104953Y128507D01*
X105076Y127889D01*
X105426Y127365D01*
X105950Y127015D01*
X106568Y126892D01*
X107186Y127015D01*
X107711Y127365D01*
X108061Y127889D01*
X108184Y128507D01*
X108061Y129125D01*
X107711Y129649D01*
X107186Y129999D01*
X106568Y130122D01*
D02*
G37*
G36*
X14619Y132343D02*
X7482D01*
Y125206D01*
X14619D01*
Y132343D01*
D02*
G37*
G36*
X86480Y127490D02*
X85900Y127375D01*
X85409Y127047D01*
X85080Y126555D01*
X84965Y125976D01*
X85080Y125396D01*
X85409Y124904D01*
X85900Y124576D01*
X86480Y124461D01*
X87059Y124576D01*
X87551Y124904D01*
X87879Y125396D01*
X87995Y125976D01*
X87879Y126555D01*
X87551Y127047D01*
X87059Y127375D01*
X86480Y127490D01*
D02*
G37*
G36*
X123891Y125792D02*
X123273Y125669D01*
X122749Y125319D01*
X122399Y124794D01*
X122276Y124176D01*
X122399Y123558D01*
X122749Y123034D01*
X123273Y122684D01*
X123891Y122561D01*
X124509Y122684D01*
X125033Y123034D01*
X125384Y123558D01*
X125506Y124176D01*
X125384Y124794D01*
X125033Y125319D01*
X124509Y125669D01*
X123891Y125792D01*
D02*
G37*
G36*
X119561D02*
X118942Y125669D01*
X118418Y125319D01*
X118068Y124794D01*
X117945Y124176D01*
X118068Y123558D01*
X118418Y123034D01*
X118942Y122684D01*
X119561Y122561D01*
X120179Y122684D01*
X120703Y123034D01*
X121053Y123558D01*
X121176Y124176D01*
X121053Y124794D01*
X120703Y125319D01*
X120179Y125669D01*
X119561Y125792D01*
D02*
G37*
G36*
X115230D02*
X114612Y125669D01*
X114088Y125319D01*
X113737Y124794D01*
X113614Y124176D01*
X113737Y123558D01*
X114088Y123034D01*
X114612Y122684D01*
X115230Y122561D01*
X115848Y122684D01*
X116372Y123034D01*
X116722Y123558D01*
X116845Y124176D01*
X116722Y124794D01*
X116372Y125319D01*
X115848Y125669D01*
X115230Y125792D01*
D02*
G37*
G36*
X110899D02*
X110281Y125669D01*
X109757Y125319D01*
X109407Y124794D01*
X109284Y124176D01*
X109407Y123558D01*
X109757Y123034D01*
X110281Y122684D01*
X110899Y122561D01*
X111517Y122684D01*
X112041Y123034D01*
X112391Y123558D01*
X112514Y124176D01*
X112391Y124794D01*
X112041Y125319D01*
X111517Y125669D01*
X110899Y125792D01*
D02*
G37*
G36*
X106568D02*
X105950Y125669D01*
X105426Y125319D01*
X105076Y124794D01*
X104953Y124176D01*
X105076Y123558D01*
X105426Y123034D01*
X105950Y122684D01*
X106568Y122561D01*
X107186Y122684D01*
X107711Y123034D01*
X108061Y123558D01*
X108184Y124176D01*
X108061Y124794D01*
X107711Y125319D01*
X107186Y125669D01*
X106568Y125792D01*
D02*
G37*
G36*
X93480Y122991D02*
X92900Y122875D01*
X92409Y122547D01*
X92080Y122055D01*
X91965Y121476D01*
X92080Y120896D01*
X92409Y120404D01*
X92900Y120076D01*
X93480Y119961D01*
X94059Y120076D01*
X94551Y120404D01*
X94879Y120896D01*
X94995Y121476D01*
X94879Y122055D01*
X94551Y122547D01*
X94059Y122875D01*
X93480Y122991D01*
D02*
G37*
G36*
X123891Y121461D02*
X123273Y121338D01*
X122749Y120988D01*
X122399Y120464D01*
X122276Y119846D01*
X122399Y119228D01*
X122749Y118703D01*
X123273Y118353D01*
X123891Y118230D01*
X124509Y118353D01*
X125033Y118703D01*
X125384Y119228D01*
X125506Y119846D01*
X125384Y120464D01*
X125033Y120988D01*
X124509Y121338D01*
X123891Y121461D01*
D02*
G37*
G36*
X119561D02*
X118942Y121338D01*
X118418Y120988D01*
X118068Y120464D01*
X117945Y119846D01*
X118068Y119228D01*
X118418Y118703D01*
X118942Y118353D01*
X119561Y118230D01*
X120179Y118353D01*
X120703Y118703D01*
X121053Y119228D01*
X121176Y119846D01*
X121053Y120464D01*
X120703Y120988D01*
X120179Y121338D01*
X119561Y121461D01*
D02*
G37*
G36*
X115230D02*
X114612Y121338D01*
X114088Y120988D01*
X113737Y120464D01*
X113614Y119846D01*
X113737Y119228D01*
X114088Y118703D01*
X114612Y118353D01*
X115230Y118230D01*
X115848Y118353D01*
X116372Y118703D01*
X116722Y119228D01*
X116845Y119846D01*
X116722Y120464D01*
X116372Y120988D01*
X115848Y121338D01*
X115230Y121461D01*
D02*
G37*
G36*
X110899D02*
X110281Y121338D01*
X109757Y120988D01*
X109407Y120464D01*
X109284Y119846D01*
X109407Y119228D01*
X109757Y118703D01*
X110281Y118353D01*
X110899Y118230D01*
X111517Y118353D01*
X112041Y118703D01*
X112391Y119228D01*
X112514Y119846D01*
X112391Y120464D01*
X112041Y120988D01*
X111517Y121338D01*
X110899Y121461D01*
D02*
G37*
G36*
X106568D02*
X105950Y121338D01*
X105426Y120988D01*
X105076Y120464D01*
X104953Y119846D01*
X105076Y119228D01*
X105426Y118703D01*
X105950Y118353D01*
X106568Y118230D01*
X107186Y118353D01*
X107711Y118703D01*
X108061Y119228D01*
X108184Y119846D01*
X108061Y120464D01*
X107711Y120988D01*
X107186Y121338D01*
X106568Y121461D01*
D02*
G37*
G36*
X147539Y120360D02*
X146960Y120244D01*
X146468Y119916D01*
X146140Y119424D01*
X146024Y118845D01*
X146140Y118265D01*
X146468Y117773D01*
X146960Y117445D01*
X147539Y117330D01*
X148119Y117445D01*
X148611Y117773D01*
X148939Y118265D01*
X149054Y118845D01*
X148939Y119424D01*
X148611Y119916D01*
X148119Y120244D01*
X147539Y120360D01*
D02*
G37*
G36*
X11051Y122532D02*
X10119Y122409D01*
X9251Y122049D01*
X8506Y121477D01*
X7934Y120732D01*
X7574Y119864D01*
X7451Y118932D01*
X7574Y118001D01*
X7934Y117133D01*
X8506Y116387D01*
X9251Y115815D01*
X10119Y115456D01*
X11051Y115333D01*
X11982Y115456D01*
X12850Y115815D01*
X13596Y116387D01*
X14168Y117133D01*
X14527Y118001D01*
X14650Y118932D01*
X14527Y119864D01*
X14168Y120732D01*
X13596Y121477D01*
X12850Y122049D01*
X11982Y122409D01*
X11051Y122532D01*
D02*
G37*
G36*
X58480Y114990D02*
X57900Y114875D01*
X57409Y114547D01*
X57080Y114055D01*
X56965Y113476D01*
X57080Y112896D01*
X57409Y112404D01*
X57900Y112076D01*
X58480Y111961D01*
X59060Y112076D01*
X59551Y112404D01*
X59879Y112896D01*
X59995Y113476D01*
X59879Y114055D01*
X59551Y114547D01*
X59060Y114875D01*
X58480Y114990D01*
D02*
G37*
G36*
X86480Y114490D02*
X85900Y114375D01*
X85409Y114047D01*
X85080Y113555D01*
X84965Y112976D01*
X85080Y112396D01*
X85409Y111904D01*
X85900Y111576D01*
X86480Y111461D01*
X87059Y111576D01*
X87551Y111904D01*
X87879Y112396D01*
X87995Y112976D01*
X87879Y113555D01*
X87551Y114047D01*
X87059Y114375D01*
X86480Y114490D01*
D02*
G37*
G36*
X80980D02*
X80400Y114375D01*
X79909Y114047D01*
X79580Y113555D01*
X79465Y112976D01*
X79580Y112396D01*
X79909Y111904D01*
X80400Y111576D01*
X80980Y111461D01*
X81559Y111576D01*
X82051Y111904D01*
X82379Y112396D01*
X82495Y112976D01*
X82379Y113555D01*
X82051Y114047D01*
X81559Y114375D01*
X80980Y114490D01*
D02*
G37*
G36*
X147539Y113818D02*
X146960Y113703D01*
X146468Y113374D01*
X146140Y112883D01*
X146024Y112303D01*
X146140Y111723D01*
X146468Y111232D01*
X146960Y110904D01*
X147539Y110788D01*
X148119Y110904D01*
X148611Y111232D01*
X148939Y111723D01*
X149054Y112303D01*
X148939Y112883D01*
X148611Y113374D01*
X148119Y113703D01*
X147539Y113818D01*
D02*
G37*
G36*
X11051Y112689D02*
X10119Y112566D01*
X9251Y112207D01*
X8506Y111635D01*
X7934Y110889D01*
X7574Y110021D01*
X7451Y109090D01*
X7574Y108158D01*
X7934Y107290D01*
X8506Y106545D01*
X9251Y105973D01*
X10119Y105613D01*
X11051Y105491D01*
X11982Y105613D01*
X12850Y105973D01*
X13596Y106545D01*
X14168Y107290D01*
X14527Y108158D01*
X14650Y109090D01*
X14527Y110021D01*
X14168Y110889D01*
X13596Y111635D01*
X12850Y112207D01*
X11982Y112566D01*
X11051Y112689D01*
D02*
G37*
G36*
X86480Y107991D02*
X85900Y107875D01*
X85409Y107547D01*
X85080Y107055D01*
X84965Y106476D01*
X85080Y105896D01*
X85409Y105404D01*
X85900Y105076D01*
X86480Y104961D01*
X87059Y105076D01*
X87551Y105404D01*
X87879Y105896D01*
X87995Y106476D01*
X87879Y107055D01*
X87551Y107547D01*
X87059Y107875D01*
X86480Y107991D01*
D02*
G37*
G36*
X132480Y107491D02*
X131900Y107375D01*
X131409Y107047D01*
X131080Y106555D01*
X130965Y105976D01*
X131080Y105396D01*
X131409Y104904D01*
X131900Y104576D01*
X132480Y104461D01*
X133060Y104576D01*
X133551Y104904D01*
X133879Y105396D01*
X133995Y105976D01*
X133879Y106555D01*
X133551Y107047D01*
X133060Y107375D01*
X132480Y107491D01*
D02*
G37*
G36*
X108480D02*
X107900Y107375D01*
X107409Y107047D01*
X107080Y106555D01*
X106965Y105976D01*
X107080Y105396D01*
X107409Y104904D01*
X107900Y104576D01*
X108480Y104461D01*
X109060Y104576D01*
X109551Y104904D01*
X109879Y105396D01*
X109995Y105976D01*
X109879Y106555D01*
X109551Y107047D01*
X109060Y107375D01*
X108480Y107491D01*
D02*
G37*
G36*
X95480D02*
X94900Y107375D01*
X94409Y107047D01*
X94080Y106555D01*
X93965Y105976D01*
X94080Y105396D01*
X94409Y104904D01*
X94900Y104576D01*
X95480Y104461D01*
X96060Y104576D01*
X96551Y104904D01*
X96879Y105396D01*
X96995Y105976D01*
X96879Y106555D01*
X96551Y107047D01*
X96060Y107375D01*
X95480Y107491D01*
D02*
G37*
G36*
X119730Y102431D02*
X119150Y102316D01*
X118659Y101988D01*
X118330Y101496D01*
X118215Y100917D01*
X118330Y100337D01*
X118659Y99845D01*
X119150Y99517D01*
X119730Y99402D01*
X120309Y99517D01*
X120801Y99845D01*
X121129Y100337D01*
X121245Y100917D01*
X121129Y101496D01*
X120801Y101988D01*
X120309Y102316D01*
X119730Y102431D01*
D02*
G37*
G36*
X125336Y89626D02*
X124650Y89535D01*
X124011Y89271D01*
X123462Y88850D01*
X123041Y88301D01*
X122776Y87661D01*
X122686Y86976D01*
X122776Y86290D01*
X123041Y85650D01*
X123462Y85102D01*
X124011Y84680D01*
X124650Y84416D01*
X125336Y84325D01*
X126022Y84416D01*
X126661Y84680D01*
X127210Y85102D01*
X127631Y85650D01*
X127896Y86290D01*
X127986Y86976D01*
X127896Y87661D01*
X127631Y88301D01*
X127210Y88850D01*
X126661Y89271D01*
X126022Y89535D01*
X125336Y89626D01*
D02*
G37*
G36*
X106123D02*
X105438Y89535D01*
X104798Y89271D01*
X104250Y88850D01*
X103828Y88301D01*
X103564Y87661D01*
X103473Y86976D01*
X103564Y86290D01*
X103828Y85650D01*
X104250Y85102D01*
X104798Y84680D01*
X105438Y84416D01*
X106123Y84325D01*
X106809Y84416D01*
X107449Y84680D01*
X107998Y85102D01*
X108419Y85650D01*
X108683Y86290D01*
X108774Y86976D01*
X108683Y87661D01*
X108419Y88301D01*
X107998Y88850D01*
X107449Y89271D01*
X106809Y89535D01*
X106123Y89626D01*
D02*
G37*
G36*
X64425Y60241D02*
X63845Y60125D01*
X63354Y59797D01*
X63025Y59305D01*
X62910Y58726D01*
X63025Y58146D01*
X63354Y57654D01*
X63845Y57326D01*
X64425Y57211D01*
X65004Y57326D01*
X65496Y57654D01*
X65824Y58146D01*
X65940Y58726D01*
X65824Y59305D01*
X65496Y59797D01*
X65004Y60125D01*
X64425Y60241D01*
D02*
G37*
G36*
X130413Y153425D02*
X129833Y153309D01*
X129342Y152981D01*
X129013Y152489D01*
X128898Y151910D01*
X129013Y151330D01*
X129342Y150839D01*
X129833Y150510D01*
X130413Y150395D01*
X130993Y150510D01*
X131484Y150839D01*
X131813Y151330D01*
X131928Y151910D01*
X131813Y152489D01*
X131484Y152981D01*
X130993Y153309D01*
X130413Y153425D01*
D02*
G37*
G36*
X127980Y149490D02*
X127400Y149375D01*
X126909Y149047D01*
X126580Y148555D01*
X126465Y147976D01*
X126580Y147396D01*
X126909Y146904D01*
X127400Y146576D01*
X127980Y146461D01*
X128560Y146576D01*
X129051Y146904D01*
X129379Y147396D01*
X129495Y147976D01*
X129379Y148555D01*
X129051Y149047D01*
X128560Y149375D01*
X127980Y149490D01*
D02*
G37*
%LPD*%
D13*
X226134Y343440D02*
X244122D01*
X220688Y337995D02*
X226134Y343440D01*
X207776Y364540D02*
X227980Y384745D01*
X208976Y290274D02*
Y364043D01*
X227980Y384745D02*
Y389476D01*
X208976Y290270D02*
X208976Y290274D01*
X232628Y387696D02*
Y387976D01*
X208976Y364043D02*
X232628Y387696D01*
X207776Y290771D02*
Y364540D01*
X208719Y269872D02*
X208976Y290270D01*
X147980Y230976D02*
X207776Y290771D01*
X181836Y242990D02*
X208719Y269872D01*
X200913Y260369D02*
X218110Y277567D01*
Y359358D02*
X248157Y389405D01*
X218110Y277567D02*
Y359358D01*
X219488Y357882D02*
X241956Y380350D01*
X219488Y276287D02*
Y357882D01*
X202389Y259188D02*
X219488Y276287D01*
X220688Y268384D02*
Y337995D01*
X204880Y252576D02*
X220688Y268384D01*
X245079Y257087D02*
X252067Y250098D01*
X245079Y340175D02*
X259411Y354507D01*
X245079Y257087D02*
Y340175D01*
X255163Y109564D02*
Y173591D01*
Y109564D02*
X261639Y103088D01*
X238010Y190744D02*
X255163Y173591D01*
X258896Y132475D02*
X263774Y127596D01*
X254850Y177298D02*
X257696Y174452D01*
Y131978D02*
X263277Y126396D01*
X256496Y130935D02*
X262821Y124610D01*
X256496Y130935D02*
Y173955D01*
X257368Y191212D02*
X258896Y189683D01*
X257696Y131978D02*
Y174452D01*
X239210Y191242D02*
X256496Y173955D01*
X258896Y132475D02*
Y189683D01*
X7443Y394991D02*
X15503Y403051D01*
X107972D02*
X129331Y381693D01*
X15503Y403051D02*
X107972D01*
X7443Y404991D02*
X108558D01*
X131116Y382433D01*
Y379935D02*
Y382433D01*
X129429Y378248D02*
X131116Y379935D01*
X239061Y335854D02*
X245907Y342701D01*
X239061Y264811D02*
Y335854D01*
Y264811D02*
X239210Y264662D01*
Y191242D02*
Y264662D01*
X246582Y259373D02*
Y337863D01*
X252067Y229064D02*
X254850Y226281D01*
X252067Y229064D02*
Y250098D01*
X238010Y190744D02*
Y255261D01*
X235460Y257810D02*
X238010Y255261D01*
X229653Y257810D02*
X235460D01*
X231380Y237014D02*
X233016Y235378D01*
X231380Y237014D02*
Y251876D01*
X228480Y256637D02*
X229653Y257810D01*
X222043Y251413D02*
X223980Y249476D01*
X212626Y248838D02*
X215200Y251413D01*
X222043D01*
X219980Y216592D02*
Y249476D01*
X204880Y233453D02*
X209016Y229317D01*
X204880Y233453D02*
Y252576D01*
X126941Y256204D02*
X128156D01*
X173480Y301528D02*
Y434476D01*
X128156Y256204D02*
X173480Y301528D01*
X103480Y231476D02*
X103509Y231505D01*
Y232772D01*
X126941Y256204D01*
X190715Y149505D02*
Y155705D01*
X186543Y159877D02*
X190715Y155705D01*
X122960Y159877D02*
X186543D01*
X119993Y156910D02*
X122960Y159877D01*
X179324Y157176D02*
X186994Y149505D01*
X123014Y157176D02*
X179324D01*
X153669Y22771D02*
X159771Y28873D01*
Y81924D01*
X165322Y87476D01*
X183177Y125476D02*
X237480Y71173D01*
X182980Y123976D02*
X227980Y78976D01*
X169628Y125476D02*
X183177D01*
X227980Y74450D02*
Y78976D01*
X176980Y123976D02*
X182980D01*
X227980Y74450D02*
X234967Y67463D01*
X237480Y67476D02*
Y71173D01*
X182972Y9843D02*
X183567D01*
X189734Y3676D01*
X192972Y9843D02*
X208726Y25596D01*
Y42822D02*
X228280Y62376D01*
X208726Y25596D02*
Y42822D01*
X195380Y3676D02*
X210401Y18697D01*
Y42697D02*
X228880Y61176D01*
X210401Y18697D02*
Y42697D01*
X189734Y3676D02*
X195380D01*
X132885Y155976D02*
X159480Y129381D01*
X126480Y155976D02*
X132885D01*
X159480Y129381D02*
Y129381D01*
X156945Y125510D02*
Y125510D01*
X112480Y143976D02*
X138480D01*
X152314Y130142D02*
X156945Y125510D01*
X138480Y143976D02*
X150872Y131584D01*
Y131188D02*
X151918Y130142D01*
X152314D01*
X150872Y131188D02*
Y131584D01*
X257368Y191212D02*
Y248588D01*
X246582Y259373D02*
X257368Y248588D01*
X257095Y445966D02*
Y525248D01*
X263322Y531476D01*
X258295Y446463D02*
Y516524D01*
X263247Y521476D01*
X263322D01*
X278122Y509476D02*
Y534476D01*
X268031Y506184D02*
X274831D01*
X278122Y509476D01*
X275222Y537376D02*
X278122Y534476D01*
X248508Y538976D02*
X267722D01*
X248157Y538624D02*
X248508Y538976D01*
X267722D02*
X269322Y537376D01*
X248157Y389405D02*
Y538624D01*
X249357Y398342D02*
Y536915D01*
X249403Y536961D01*
X249754Y537376D02*
X266022D01*
X249403Y536961D02*
Y537024D01*
X249754Y537376D01*
X266022D02*
X268622Y534776D01*
Y516776D02*
Y534776D01*
X249357Y398342D02*
X251897Y395802D01*
X263322Y501476D02*
X268031Y506184D01*
X269322Y537376D02*
X275222D01*
X263322Y511476D02*
X268622Y516776D01*
X258295Y446463D02*
X259411Y445347D01*
X245907Y349950D02*
X258210Y362253D01*
Y444850D01*
X257095Y445966D02*
X258210Y444850D01*
X259411Y354507D02*
Y445347D01*
X251897Y391275D02*
Y395802D01*
X241956Y380350D02*
Y381334D01*
X251897Y391275D01*
X181836Y241832D02*
Y242990D01*
X148480Y208476D02*
X181836Y241832D01*
X202389Y197771D02*
Y259188D01*
X202094Y183342D02*
Y197476D01*
X202389Y197771D01*
X186137Y223153D02*
X200913Y237928D01*
Y260369D01*
X184771Y225822D02*
X197789Y238840D01*
Y249476D01*
X186137Y180657D02*
Y223153D01*
X184771Y180251D02*
Y225822D01*
X193709Y156230D02*
Y171313D01*
X184771Y180251D02*
X193709Y171313D01*
X186137Y180657D02*
X194909Y171885D01*
Y156728D02*
Y171885D01*
X193709Y156230D02*
X195809Y154130D01*
X194909Y156728D02*
X197067Y154569D01*
X195809Y151015D02*
Y154130D01*
X191470Y146676D02*
X195809Y151015D01*
X197067Y150576D02*
Y154569D01*
X198267Y149259D02*
Y159467D01*
X196188Y162042D02*
X198471Y164325D01*
X191984Y142976D02*
X198267Y149259D01*
X196188Y161546D02*
Y162042D01*
Y161546D02*
X198267Y159467D01*
X182212Y148460D02*
X183996Y146676D01*
X191470D01*
X178480Y145476D02*
X191967D01*
X197067Y150576D01*
X172763Y148460D02*
X182212D01*
X178480Y142976D02*
X191984D01*
X191895Y141190D02*
X212626Y161920D01*
Y248838D01*
X174151Y141190D02*
X191895D01*
X198471Y164325D02*
Y179719D01*
X201980Y161994D02*
Y168676D01*
Y161994D02*
X201990Y161984D01*
X198471Y179719D02*
X202094Y183342D01*
X201980Y168676D02*
X209016Y175711D01*
Y229317D01*
X120939Y155100D02*
X123014Y157176D01*
X115283Y156910D02*
X119993D01*
X109967Y156886D02*
X115258D01*
X108171Y155089D02*
X109967Y156886D01*
X108171Y152690D02*
Y155089D01*
X115258Y156886D02*
X115283Y156910D01*
X246582Y337863D02*
X248091Y339372D01*
X245907Y342701D02*
Y349950D01*
X265381Y123460D02*
Y124576D01*
X263561Y126396D02*
X265381Y124576D01*
X263277Y126396D02*
X263561D01*
X269080Y104276D02*
Y122574D01*
X264058Y127596D02*
X269080Y122574D01*
X263774Y127596D02*
X264058D01*
X254850Y177298D02*
Y226281D01*
X236680Y61176D02*
X247827Y72323D01*
Y161724D01*
X245467Y71660D02*
Y161488D01*
X95598Y4070D02*
X114299Y22771D01*
X153669D01*
X165322Y87476D02*
X168480D01*
X228480Y251476D02*
Y256637D01*
X261639Y103088D02*
X265367D01*
X167954Y136976D02*
X167980D01*
X165381Y139549D02*
X167954Y136976D01*
X165381Y139549D02*
Y143539D01*
X166169Y144326D02*
X168629D01*
X165381Y143539D02*
X166169Y144326D01*
X168629D02*
X172763Y148460D01*
X167980Y141976D02*
X173365D01*
X174151Y141190D01*
X193208Y139476D02*
X220551Y166818D01*
X167980Y139476D02*
X193208D01*
X163019Y129661D02*
X164889Y127791D01*
X163019Y129661D02*
Y147574D01*
X164889Y127791D02*
X218334D01*
X237980Y147436D02*
Y161476D01*
X218334Y127791D02*
X237980Y147436D01*
X108272Y158696D02*
X115021D01*
X115152Y158827D01*
X111356Y155100D02*
X120939D01*
X106016Y156440D02*
X108272Y158696D01*
X167980Y134476D02*
X169448Y133007D01*
X188437D01*
X220551Y166818D02*
Y198106D01*
X209002Y153572D02*
X212619D01*
X188437Y133007D02*
X209002Y153572D01*
X212619D02*
X233016Y173968D01*
Y235378D01*
X218444Y215056D02*
X219980Y216592D01*
X218444Y200213D02*
X220551Y198106D01*
X218444Y200213D02*
Y215056D01*
X189480Y437476D02*
X189580Y437376D01*
Y418176D02*
Y437376D01*
Y418176D02*
X189680Y418076D01*
X265493Y100463D02*
Y100688D01*
X269080Y104276D01*
X228880Y61176D02*
X236680D01*
X228280Y62376D02*
X236183D01*
X245467Y71660D01*
X173480Y434476D02*
X176338Y437334D01*
X176552D02*
X176694Y437476D01*
X176338Y437334D02*
X176552D01*
X130266Y226761D02*
X185980Y282476D01*
X176980Y582476D02*
X185980Y573476D01*
Y282476D02*
Y573476D01*
X199980Y640793D02*
Y657476D01*
X199480Y640293D02*
X199980Y640793D01*
X199480Y639976D02*
Y640293D01*
X116722Y222218D02*
X125722D01*
X127694Y224190D02*
X129219D01*
X130266Y225236D02*
Y226761D01*
X129219Y224190D02*
X130266Y225236D01*
X125722Y222218D02*
X127694Y224190D01*
X103480Y208976D02*
X116722Y222218D01*
X105980Y150476D02*
Y151141D01*
X106016Y151177D01*
Y156440D01*
X105980Y150476D02*
X112480Y143976D01*
X156945Y125510D02*
X165480Y116976D01*
X169980D02*
X176980Y123976D01*
X165480Y116976D02*
X169980D01*
X165081Y123780D02*
X167933D01*
X169628Y125476D01*
X159480Y129381D02*
X165081Y123780D01*
X110118Y151337D02*
X112550Y153768D01*
X124273D01*
X126480Y155976D01*
D88*
X7443Y394991D02*
D03*
X192972Y9843D02*
D03*
X182972D02*
D03*
D89*
X7443Y404991D02*
D03*
D90*
X263322Y531476D02*
D03*
Y521476D02*
D03*
Y511476D02*
D03*
Y501476D02*
D03*
D91*
X79480Y735876D02*
D03*
D92*
X250622Y711895D02*
D03*
D96*
X198137Y533576D02*
D03*
Y460976D02*
D03*
D101*
X92980Y651976D02*
D03*
Y483476D02*
D03*
D105*
X18480Y339476D02*
D03*
Y336976D02*
D03*
Y333976D02*
D03*
X21980Y336976D02*
D03*
Y339476D02*
D03*
X25480D02*
D03*
X21980Y333976D02*
D03*
X129429Y378248D02*
D03*
X129331Y381693D02*
D03*
X245467Y161488D02*
D03*
X231380Y251876D02*
D03*
X219980Y249476D02*
D03*
X223980D02*
D03*
X190715Y149505D02*
D03*
X186994D02*
D03*
X201990Y161984D02*
D03*
X248091Y339372D02*
D03*
X262821Y124610D02*
D03*
X265381Y123460D02*
D03*
X244122Y343440D02*
D03*
X247827Y161724D02*
D03*
X168480Y87476D02*
D03*
X95598Y4070D02*
D03*
X178480Y145476D02*
D03*
Y142976D02*
D03*
X197789Y249476D02*
D03*
X163019Y147574D02*
D03*
X115152Y158827D02*
D03*
X108171Y152690D02*
D03*
X111356Y155100D02*
D03*
X167980Y141976D02*
D03*
Y136976D02*
D03*
X232628Y387976D02*
D03*
X189680Y418076D02*
D03*
X189480Y437476D02*
D03*
X265367Y103088D02*
D03*
X228480Y251476D02*
D03*
X227980Y389476D02*
D03*
X199980Y657476D02*
D03*
X28980Y333976D02*
D03*
X25480D02*
D03*
X28980Y336976D02*
D03*
X25480D02*
D03*
X28980Y339476D02*
D03*
X176694Y437476D02*
D03*
X199480Y639976D02*
D03*
X176480Y582476D02*
D03*
X103480Y231476D02*
D03*
X167980Y134476D02*
D03*
X110118Y151337D02*
D03*
X147980Y230976D02*
D03*
X148480Y208476D02*
D03*
X103480Y208976D02*
D03*
X73480Y58726D02*
D03*
X102929Y213976D02*
D03*
Y236476D02*
D03*
X147929Y235976D02*
D03*
Y213476D02*
D03*
X218876Y639917D02*
D03*
X218204Y586357D02*
D03*
X217679Y495476D02*
D03*
X217954Y441476D02*
D03*
X234967Y67463D02*
D03*
X237480Y67476D02*
D03*
X265493Y100463D02*
D03*
X167980Y139476D02*
D03*
X237980Y161476D02*
D03*
D107*
X79480Y732409D02*
Y735876D01*
Y732409D02*
X86413Y725476D01*
X144122D01*
X151122Y732476D02*
X230041D01*
X144122Y725476D02*
X151122Y732476D01*
X230041D02*
X250622Y711895D01*
M02*
