G04*
G04 #@! TF.GenerationSoftware,Altium Limited,Altium Designer,20.0.12 (288)*
G04*
G04 Layer_Physical_Order=2*
G04 Layer_Color=36540*
%FSLAX25Y25*%
%MOIN*%
G70*
G01*
G75*
%ADD16C,0.00600*%
%ADD58C,0.01772*%
G36*
X264651Y201223D02*
X264554Y115815D01*
X201660D01*
X201463Y116012D01*
Y122258D01*
X201963Y122409D01*
X202183Y122080D01*
X202675Y121751D01*
X203255Y121636D01*
X203834Y121751D01*
X204326Y122080D01*
X204654Y122571D01*
X204769Y123151D01*
X204654Y123731D01*
X204326Y124222D01*
X203834Y124551D01*
X203255Y124666D01*
X202675Y124551D01*
X202183Y124222D01*
X201963Y123893D01*
X201463Y124044D01*
Y201642D01*
X264152D01*
X264651Y201223D01*
D02*
G37*
%LPC*%
G36*
X224254Y124603D02*
X223675Y124488D01*
X223183Y124159D01*
X222855Y123668D01*
X222740Y123088D01*
X222855Y122508D01*
X223183Y122017D01*
X223675Y121688D01*
X224254Y121573D01*
X224834Y121688D01*
X225326Y122017D01*
X225654Y122508D01*
X225769Y123088D01*
X225654Y123668D01*
X225326Y124159D01*
X224834Y124488D01*
X224254Y124603D01*
D02*
G37*
G36*
X213755D02*
X213175Y124488D01*
X212683Y124159D01*
X212355Y123668D01*
X212240Y123088D01*
X212355Y122508D01*
X212683Y122017D01*
X213175Y121688D01*
X213755Y121573D01*
X214334Y121688D01*
X214826Y122017D01*
X215154Y122508D01*
X215269Y123088D01*
X215154Y123668D01*
X214826Y124159D01*
X214334Y124488D01*
X213755Y124603D01*
D02*
G37*
%LPD*%
D16*
X106838Y29945D02*
X119030D01*
X106487Y30296D02*
Y51666D01*
X119030Y29945D02*
X134751Y45666D01*
X106487Y30296D02*
X106838Y29945D01*
X108487Y31496D02*
X108838Y31145D01*
X114230D02*
X129251Y46166D01*
X108487Y31496D02*
Y42666D01*
X108838Y31145D02*
X114230D01*
X110273Y33666D02*
Y33952D01*
X126407Y50086D01*
X106487Y51666D02*
X109487Y54666D01*
X126407Y50086D02*
Y100402D01*
X108487Y42666D02*
X109987Y44166D01*
X144487Y110902D02*
Y117902D01*
X141251Y109902D02*
X143487D01*
X98487Y103402D02*
X120152Y125067D01*
X137321D02*
X144487Y117902D01*
X120152Y125067D02*
X137321D01*
X143487Y109902D02*
X144487Y110902D01*
X98487Y84666D02*
Y103402D01*
X110987Y108902D02*
Y111402D01*
X113487Y113902D02*
X141251D01*
X110987Y111402D02*
X113487Y113902D01*
X119487Y100402D02*
X126407D01*
X110987Y108902D02*
X119487Y100402D01*
X129251Y46166D02*
Y100402D01*
X134751Y45666D02*
Y100402D01*
X109487Y54666D02*
Y65166D01*
D58*
X110273Y33666D02*
D03*
X242309Y121228D02*
D03*
X239357Y121031D02*
D03*
X236601Y121425D02*
D03*
X241030Y118965D02*
D03*
X237979Y119063D02*
D03*
X242309Y116996D02*
D03*
X239554Y117095D02*
D03*
X236601Y116996D02*
D03*
X141251Y113902D02*
D03*
X109487Y65166D02*
D03*
X129251Y100402D02*
D03*
X126407D02*
D03*
X134751D02*
D03*
X98487Y84666D02*
D03*
X109487Y54666D02*
D03*
X109987Y44166D02*
D03*
X141251Y109902D02*
D03*
M02*
