G04*
G04 #@! TF.GenerationSoftware,Altium Limited,Altium Designer,20.0.12 (288)*
G04*
G04 Layer_Color=16711935*
%FSLAX25Y25*%
%MOIN*%
G70*
G01*
G75*
%ADD45C,0.00000*%
%ADD69C,0.06706*%
%ADD70R,0.06706X0.06706*%
%ADD71C,0.06800*%
%ADD72R,0.06706X0.06706*%
%ADD73C,0.10642*%
%ADD74C,0.05328*%
%ADD75C,0.07178*%
%ADD76R,0.06737X0.06737*%
%ADD77C,0.06737*%
%ADD78R,0.06737X0.06737*%
%ADD79C,0.07591*%
%ADD80R,0.07591X0.07591*%
%ADD81C,0.15312*%
%ADD82R,0.08600X0.08600*%
%ADD83C,0.08600*%
%ADD84C,0.26391*%
%ADD85C,0.04855*%
%ADD111R,0.03713X0.12296*%
%ADD112R,0.12296X0.03713*%
D45*
X276712Y531476D02*
G03*
X276712Y531476I-3390J0D01*
G01*
X266712D02*
G03*
X266712Y531476I-3390J0D01*
G01*
X276712Y521476D02*
G03*
X276712Y521476I-3390J0D01*
G01*
X266712D02*
G03*
X266712Y521476I-3390J0D01*
G01*
X276712Y511476D02*
G03*
X276712Y511476I-3390J0D01*
G01*
X266712D02*
G03*
X266712Y511476I-3390J0D01*
G01*
X276712Y501476D02*
G03*
X276712Y501476I-3390J0D01*
G01*
X266712D02*
G03*
X266712Y501476I-3390J0D01*
G01*
X276712Y491476D02*
G03*
X276712Y491476I-3390J0D01*
G01*
X266712D02*
G03*
X266712Y491476I-3390J0D01*
G01*
X276712Y481476D02*
G03*
X276712Y481476I-3390J0D01*
G01*
X266712D02*
G03*
X266712Y481476I-3390J0D01*
G01*
X276712Y471476D02*
G03*
X276712Y471476I-3390J0D01*
G01*
X266712D02*
G03*
X266712Y471476I-3390J0D01*
G01*
X276712Y461476D02*
G03*
X276712Y461476I-3390J0D01*
G01*
X266712D02*
G03*
X266712Y461476I-3390J0D01*
G01*
X276712Y451476D02*
G03*
X276712Y451476I-3390J0D01*
G01*
X266712D02*
G03*
X266712Y451476I-3390J0D01*
G01*
X276712Y441476D02*
G03*
X276712Y441476I-3390J0D01*
G01*
X266712D02*
G03*
X266712Y441476I-3390J0D01*
G01*
D69*
X133230Y686633D02*
D03*
X133480Y511476D02*
D03*
X132980Y568633D02*
D03*
X133980Y389476D02*
D03*
X7443Y374991D02*
D03*
Y384991D02*
D03*
Y394991D02*
D03*
X183066Y21752D02*
D03*
X173066D02*
D03*
X192972Y9843D02*
D03*
X182972D02*
D03*
X133480Y735876D02*
D03*
X89480D02*
D03*
D70*
X133230Y706318D02*
D03*
X133480Y531161D02*
D03*
X132980Y588318D02*
D03*
X133980Y409161D02*
D03*
X7443Y404991D02*
D03*
D71*
X203769Y355629D02*
D03*
X213769D02*
D03*
X223769D02*
D03*
D72*
X193066Y21752D02*
D03*
X172972Y9843D02*
D03*
X123480Y735876D02*
D03*
X79480D02*
D03*
D73*
X250622Y711895D02*
D03*
Y564257D02*
D03*
D74*
X192822Y718618D02*
D03*
Y698933D02*
D03*
D75*
X273322Y531476D02*
D03*
X263322D02*
D03*
X273322Y521476D02*
D03*
X263322D02*
D03*
X273322Y511476D02*
D03*
X263322D02*
D03*
X273322Y501476D02*
D03*
X263322D02*
D03*
X273322Y491476D02*
D03*
X263322D02*
D03*
X273322Y481476D02*
D03*
X263322D02*
D03*
X273322Y471476D02*
D03*
X263322D02*
D03*
X273322Y461476D02*
D03*
X263322D02*
D03*
X273322Y451476D02*
D03*
X263322D02*
D03*
X273322Y441476D02*
D03*
X263322D02*
D03*
D76*
X217822Y533576D02*
D03*
Y460976D02*
D03*
D77*
X207980Y533576D02*
D03*
X198137D02*
D03*
X207980Y460976D02*
D03*
X198137D02*
D03*
X11051Y118932D02*
D03*
Y109090D02*
D03*
Y163617D02*
D03*
Y153775D02*
D03*
Y207613D02*
D03*
Y197771D02*
D03*
Y251117D02*
D03*
Y241275D02*
D03*
D78*
Y128775D02*
D03*
Y173460D02*
D03*
Y217456D02*
D03*
Y260960D02*
D03*
D79*
X171480Y538476D02*
D03*
Y518476D02*
D03*
Y478476D02*
D03*
Y712976D02*
D03*
Y692976D02*
D03*
Y652976D02*
D03*
Y625976D02*
D03*
Y605976D02*
D03*
Y565976D02*
D03*
D80*
Y468476D02*
D03*
Y642976D02*
D03*
Y555976D02*
D03*
D81*
X56880Y586976D02*
D03*
Y686976D02*
D03*
Y418476D02*
D03*
Y518476D02*
D03*
D82*
X92980Y651976D02*
D03*
Y483476D02*
D03*
D83*
X72980Y646976D02*
D03*
X92980Y641976D02*
D03*
X72980Y636976D02*
D03*
X92980Y631976D02*
D03*
X72980Y626976D02*
D03*
X92980Y621976D02*
D03*
X72980Y478476D02*
D03*
X92980Y473476D02*
D03*
X72980Y468476D02*
D03*
X92980Y463476D02*
D03*
X72980Y458476D02*
D03*
X92980Y453476D02*
D03*
D84*
X99980Y353976D02*
D03*
X274980D02*
D03*
X15480Y731976D02*
D03*
X274980D02*
D03*
Y15476D02*
D03*
X15480D02*
D03*
D85*
X217623Y184476D02*
D03*
X236836D02*
D03*
X106123Y86976D02*
D03*
X125336D02*
D03*
X234586Y56976D02*
D03*
X215373D02*
D03*
D111*
X130680Y21028D02*
D03*
Y7524D02*
D03*
X135680Y21028D02*
D03*
Y7524D02*
D03*
X140680Y21028D02*
D03*
Y7524D02*
D03*
D112*
X153476Y352976D02*
D03*
X166980D02*
D03*
X153476Y357976D02*
D03*
X166980D02*
D03*
X153476Y362976D02*
D03*
X166980D02*
D03*
M02*
